<?xml version="1.0" encoding="utf-8" standalone="no"?>
<!DOCTYPE svg PUBLIC "-//W3C//DTD SVG 1.1//EN"
  "http://www.w3.org/Graphics/SVG/1.1/DTD/svg11.dtd">
<!-- Created with matplotlib (https://matplotlib.org/) -->
<svg height="576pt" version="1.1" viewBox="0 0 360 576" width="360pt" xmlns="http://www.w3.org/2000/svg" xmlns:xlink="http://www.w3.org/1999/xlink">
 <defs>
  <style type="text/css">
*{stroke-linecap:butt;stroke-linejoin:round;}
  </style>
 </defs>
 <g id="figure_1">
  <g id="patch_1">
   <path d="M 0 576 
L 360 576 
L 360 0 
L 0 0 
z
" style="fill:#ffffff;"/>
  </g>
  <g id="axes_1">
   <g id="patch_2">
    <path d="M 45 145.588966 
L 324 145.588966 
L 324 69.12 
L 45 69.12 
z
" style="fill:#ffffff;"/>
   </g>
   <g id="matplotlib.axis_1">
    <g id="xtick_1"/>
    <g id="xtick_2"/>
    <g id="xtick_3"/>
   </g>
   <g id="matplotlib.axis_2">
    <g id="ytick_1">
     <g id="text_1">
      <!-- 25 -->
      <defs>
       <path d="M 19.1875 8.296875 
L 53.609375 8.296875 
L 53.609375 0 
L 7.328125 0 
L 7.328125 8.296875 
Q 12.9375 14.109375 22.625 23.890625 
Q 32.328125 33.6875 34.8125 36.53125 
Q 39.546875 41.84375 41.421875 45.53125 
Q 43.3125 49.21875 43.3125 52.78125 
Q 43.3125 58.59375 39.234375 62.25 
Q 35.15625 65.921875 28.609375 65.921875 
Q 23.96875 65.921875 18.8125 64.3125 
Q 13.671875 62.703125 7.8125 59.421875 
L 7.8125 69.390625 
Q 13.765625 71.78125 18.9375 73 
Q 24.125 74.21875 28.421875 74.21875 
Q 39.75 74.21875 46.484375 68.546875 
Q 53.21875 62.890625 53.21875 53.421875 
Q 53.21875 48.921875 51.53125 44.890625 
Q 49.859375 40.875 45.40625 35.40625 
Q 44.1875 33.984375 37.640625 27.21875 
Q 31.109375 20.453125 19.1875 8.296875 
z
" id="DejaVuSans-50"/>
       <path d="M 10.796875 72.90625 
L 49.515625 72.90625 
L 49.515625 64.59375 
L 19.828125 64.59375 
L 19.828125 46.734375 
Q 21.96875 47.46875 24.109375 47.828125 
Q 26.265625 48.1875 28.421875 48.1875 
Q 40.625 48.1875 47.75 41.5 
Q 54.890625 34.8125 54.890625 23.390625 
Q 54.890625 11.625 47.5625 5.09375 
Q 40.234375 -1.421875 26.90625 -1.421875 
Q 22.3125 -1.421875 17.546875 -0.640625 
Q 12.796875 0.140625 7.71875 1.703125 
L 7.71875 11.625 
Q 12.109375 9.234375 16.796875 8.0625 
Q 21.484375 6.890625 26.703125 6.890625 
Q 35.15625 6.890625 40.078125 11.328125 
Q 45.015625 15.765625 45.015625 23.390625 
Q 45.015625 31 40.078125 35.4375 
Q 35.15625 39.890625 26.703125 39.890625 
Q 22.75 39.890625 18.8125 39.015625 
Q 14.890625 38.140625 10.796875 36.28125 
z
" id="DejaVuSans-53"/>
      </defs>
      <g transform="translate(12.55 151.574255)scale(0.2 -0.2)">
       <use xlink:href="#DejaVuSans-50"/>
       <use x="63.623047" xlink:href="#DejaVuSans-53"/>
      </g>
     </g>
    </g>
    <g id="ytick_2">
     <g id="text_2">
      <!-- 50 -->
      <defs>
       <path d="M 31.78125 66.40625 
Q 24.171875 66.40625 20.328125 58.90625 
Q 16.5 51.421875 16.5 36.375 
Q 16.5 21.390625 20.328125 13.890625 
Q 24.171875 6.390625 31.78125 6.390625 
Q 39.453125 6.390625 43.28125 13.890625 
Q 47.125 21.390625 47.125 36.375 
Q 47.125 51.421875 43.28125 58.90625 
Q 39.453125 66.40625 31.78125 66.40625 
z
M 31.78125 74.21875 
Q 44.046875 74.21875 50.515625 64.515625 
Q 56.984375 54.828125 56.984375 36.375 
Q 56.984375 17.96875 50.515625 8.265625 
Q 44.046875 -1.421875 31.78125 -1.421875 
Q 19.53125 -1.421875 13.0625 8.265625 
Q 6.59375 17.96875 6.59375 36.375 
Q 6.59375 54.828125 13.0625 64.515625 
Q 19.53125 74.21875 31.78125 74.21875 
z
" id="DejaVuSans-48"/>
      </defs>
      <g transform="translate(12.55 120.261616)scale(0.2 -0.2)">
       <use xlink:href="#DejaVuSans-53"/>
       <use x="63.623047" xlink:href="#DejaVuSans-48"/>
      </g>
     </g>
    </g>
    <g id="ytick_3">
     <g id="text_3">
      <!-- 75 -->
      <defs>
       <path d="M 8.203125 72.90625 
L 55.078125 72.90625 
L 55.078125 68.703125 
L 28.609375 0 
L 18.3125 0 
L 43.21875 64.59375 
L 8.203125 64.59375 
z
" id="DejaVuSans-55"/>
      </defs>
      <g transform="translate(12.55 88.948976)scale(0.2 -0.2)">
       <use xlink:href="#DejaVuSans-55"/>
       <use x="63.623047" xlink:href="#DejaVuSans-53"/>
      </g>
     </g>
    </g>
   </g>
   <g id="line2d_1">
    <path clip-path="url(#p9d65047d12)" d="M 57.681818 142.113103 
L 74.996829 142.00211 
L 76.455603 141.664508 
L 77.977801 141.08266 
L 79.563425 140.240177 
L 81.275899 139.07482 
L 83.115222 137.545707 
L 85.081395 135.613871 
L 87.174419 133.242274 
L 89.457717 130.3096 
L 91.93129 126.753748 
L 94.531712 122.620067 
L 97.32241 117.763733 
L 100.303383 112.127855 
L 103.538055 105.522782 
L 108.485201 95.291047 
L 110.705074 91.416735 
L 112.861522 88.090092 
L 115.01797 85.160953 
L 117.174419 82.599438 
L 119.330867 80.378967 
L 121.487315 78.47613 
L 123.643763 76.870372 
L 125.800211 75.54364 
L 127.95666 74.480037 
L 130.113108 73.665522 
L 132.269556 73.087635 
L 134.426004 72.735273 
L 136.645877 72.597644 
L 147.237844 72.595862 
L 234.256871 72.704314 
L 236.413319 73.027134 
L 238.569767 73.57399 
L 240.726216 74.355782 
L 242.819239 75.35079 
L 244.912262 76.59112 
L 247.005285 78.09085 
L 249.098309 79.865853 
L 251.191332 81.934063 
L 253.284355 84.315737 
L 255.377378 87.033682 
L 257.470402 90.113347 
L 259.62685 93.694121 
L 261.783298 97.720554 
L 263.939746 102.223095 
L 267.237844 109.18114 
L 270.472516 115.505217 
L 273.516913 120.972768 
L 276.307611 125.541086 
L 278.908034 129.387009 
L 281.318182 132.570589 
L 283.60148 135.222666 
L 285.694503 137.319069 
L 287.660677 138.975109 
L 289.436575 140.191582 
L 291.149049 141.096814 
L 292.734672 141.686353 
L 294.256871 142.015292 
L 295.715645 142.103742 
L 311.318182 142.103469 
L 311.318182 142.103469 
" style="fill:none;stroke:#000000;stroke-linecap:square;stroke-width:4;"/>
   </g>
   <g id="patch_3">
    <path d="M 45 145.588966 
L 45 69.12 
" style="fill:none;stroke:#000000;stroke-linecap:square;stroke-linejoin:miter;stroke-width:0.8;"/>
   </g>
   <g id="patch_4">
    <path d="M 45 145.588966 
L 324 145.588966 
" style="fill:none;stroke:#000000;stroke-linecap:square;stroke-linejoin:miter;stroke-width:0.8;"/>
   </g>
  </g>
  <g id="axes_2">
   <g id="patch_5">
    <path d="M 45 237.351724 
L 324 237.351724 
L 324 160.882759 
L 45 160.882759 
z
" style="fill:#ffffff;"/>
   </g>
   <g id="matplotlib.axis_3">
    <g id="xtick_4"/>
    <g id="xtick_5"/>
    <g id="xtick_6"/>
   </g>
   <g id="matplotlib.axis_4">
    <g id="ytick_4">
     <g id="text_4">
      <!-- 25 -->
      <g transform="translate(12.55 228.11975)scale(0.2 -0.2)">
       <use xlink:href="#DejaVuSans-50"/>
       <use x="63.623047" xlink:href="#DejaVuSans-53"/>
      </g>
     </g>
    </g>
    <g id="ytick_5">
     <g id="text_5">
      <!-- 50 -->
      <g transform="translate(12.55 190.917809)scale(0.2 -0.2)">
       <use xlink:href="#DejaVuSans-53"/>
       <use x="63.623047" xlink:href="#DejaVuSans-48"/>
      </g>
     </g>
    </g>
   </g>
   <g id="line2d_2">
    <path clip-path="url(#pc4824a8343)" d="M 57.681818 233.875862 
L 75.250529 233.767278 
L 76.899577 233.436834 
L 78.548626 232.883348 
L 80.261099 232.073347 
L 82.036998 230.983359 
L 83.876321 229.591432 
L 85.842495 227.815298 
L 87.872093 225.679273 
L 90.028541 223.085008 
L 92.311839 219.987862 
L 94.785412 216.243541 
L 97.385835 211.890879 
L 100.113108 206.889326 
L 103.030655 201.06828 
L 110.134249 186.564419 
L 112.480973 182.566289 
L 114.764271 179.100678 
L 116.984144 176.121456 
L 119.204017 173.513667 
L 121.360465 171.322641 
L 123.453488 169.505975 
L 125.546512 167.982554 
L 127.57611 166.774447 
L 129.605708 165.82121 
L 131.635307 165.113343 
L 133.664905 164.641901 
L 135.694503 164.39849 
L 138.041226 164.358849 
L 234.066596 164.464686 
L 236.096195 164.79357 
L 238.125793 165.353103 
L 240.091966 166.123103 
L 242.121564 167.162016 
L 244.151163 168.458282 
L 246.180761 170.021879 
L 248.273784 171.925296 
L 250.366808 174.135666 
L 252.523256 176.746347 
L 254.679704 179.707453 
L 256.899577 183.133327 
L 259.182875 187.066752 
L 261.593023 191.675664 
L 264.130021 197.026926 
L 267.301268 203.649864 
L 270.282241 209.366953 
L 273.072939 214.248284 
L 275.673362 218.365487 
L 278.146934 221.876334 
L 280.493658 224.824339 
L 282.650106 227.190357 
L 284.743129 229.160326 
L 286.709302 230.708024 
L 288.548626 231.882834 
L 290.324524 232.761496 
L 292.036998 233.367885 
L 293.749471 233.736923 
L 295.39852 233.86969 
L 304.278013 233.870637 
L 311.318182 233.870637 
L 311.318182 233.870637 
" style="fill:none;stroke:#000000;stroke-linecap:square;stroke-width:4;"/>
   </g>
   <g id="patch_6">
    <path d="M 45 237.351724 
L 45 160.882759 
" style="fill:none;stroke:#000000;stroke-linecap:square;stroke-linejoin:miter;stroke-width:0.8;"/>
   </g>
   <g id="patch_7">
    <path d="M 45 237.351724 
L 324 237.351724 
" style="fill:none;stroke:#000000;stroke-linecap:square;stroke-linejoin:miter;stroke-width:0.8;"/>
   </g>
  </g>
  <g id="axes_3">
   <g id="patch_8">
    <path d="M 45 329.114483 
L 324 329.114483 
L 324 252.645517 
L 45 252.645517 
z
" style="fill:#ffffff;"/>
   </g>
   <g id="matplotlib.axis_5">
    <g id="xtick_7"/>
    <g id="xtick_8"/>
    <g id="xtick_9"/>
   </g>
   <g id="matplotlib.axis_6">
    <g id="ytick_6">
     <g id="text_6">
      <!-- 25 -->
      <g transform="translate(12.55 319.882509)scale(0.2 -0.2)">
       <use xlink:href="#DejaVuSans-50"/>
       <use x="63.623047" xlink:href="#DejaVuSans-53"/>
      </g>
     </g>
    </g>
    <g id="ytick_7">
     <g id="text_7">
      <!-- 50 -->
      <g transform="translate(12.55 282.680568)scale(0.2 -0.2)">
       <use xlink:href="#DejaVuSans-53"/>
       <use x="63.623047" xlink:href="#DejaVuSans-48"/>
      </g>
     </g>
    </g>
   </g>
   <g id="line2d_3">
    <path clip-path="url(#p5d23c110ec)" d="M 57.681818 325.638621 
L 75.250529 325.530037 
L 76.899577 325.199593 
L 78.548626 324.646107 
L 80.261099 323.836105 
L 82.036998 322.746117 
L 83.876321 321.35419 
L 85.842495 319.578057 
L 87.872093 317.442031 
L 90.028541 314.847767 
L 92.311839 311.75062 
L 94.785412 308.0063 
L 97.385835 303.653638 
L 100.113108 298.652085 
L 103.030655 292.831039 
L 110.134249 278.327178 
L 112.480973 274.329048 
L 114.764271 270.863437 
L 116.984144 267.884214 
L 119.204017 265.276425 
L 121.360465 263.0854 
L 123.453488 261.268733 
L 125.546512 259.745313 
L 127.57611 258.537205 
L 129.605708 257.583968 
L 131.635307 256.876101 
L 133.664905 256.404659 
L 135.694503 256.161248 
L 138.041226 256.121607 
L 234.066596 256.227444 
L 236.096195 256.556328 
L 238.125793 257.115861 
L 240.091966 257.885862 
L 242.121564 258.924775 
L 244.151163 260.221041 
L 246.180761 261.784637 
L 248.273784 263.688055 
L 250.366808 265.898425 
L 252.523256 268.509106 
L 254.679704 271.470212 
L 256.899577 274.896086 
L 259.182875 278.829511 
L 261.593023 283.438422 
L 264.130021 288.789685 
L 267.301268 295.412622 
L 270.282241 301.129712 
L 273.072939 306.011043 
L 275.673362 310.128245 
L 278.146934 313.639093 
L 280.493658 316.587097 
L 282.650106 318.953115 
L 284.743129 320.923085 
L 286.709302 322.470783 
L 288.548626 323.645593 
L 290.324524 324.524255 
L 292.036998 325.130643 
L 293.749471 325.499681 
L 295.39852 325.632448 
L 304.278013 325.633395 
L 311.318182 325.633395 
L 311.318182 325.633395 
" style="fill:none;stroke:#000000;stroke-linecap:square;stroke-width:4;"/>
   </g>
   <g id="patch_9">
    <path d="M 45 329.114483 
L 45 252.645517 
" style="fill:none;stroke:#000000;stroke-linecap:square;stroke-linejoin:miter;stroke-width:0.8;"/>
   </g>
   <g id="patch_10">
    <path d="M 45 329.114483 
L 324 329.114483 
" style="fill:none;stroke:#000000;stroke-linecap:square;stroke-linejoin:miter;stroke-width:0.8;"/>
   </g>
  </g>
  <g id="axes_4">
   <g id="patch_11">
    <path d="M 45 420.877241 
L 324 420.877241 
L 324 344.408276 
L 45 344.408276 
z
" style="fill:#ffffff;"/>
   </g>
   <g id="matplotlib.axis_7">
    <g id="xtick_10"/>
    <g id="xtick_11"/>
    <g id="xtick_12"/>
   </g>
   <g id="matplotlib.axis_8">
    <g id="ytick_8">
     <g id="text_8">
      <!-- 15 -->
      <defs>
       <path d="M 12.40625 8.296875 
L 28.515625 8.296875 
L 28.515625 63.921875 
L 10.984375 60.40625 
L 10.984375 69.390625 
L 28.421875 72.90625 
L 38.28125 72.90625 
L 38.28125 8.296875 
L 54.390625 8.296875 
L 54.390625 0 
L 12.40625 0 
z
" id="DejaVuSans-49"/>
      </defs>
      <g transform="translate(12.55 427.267458)scale(0.2 -0.2)">
       <use xlink:href="#DejaVuSans-49"/>
       <use x="63.623047" xlink:href="#DejaVuSans-53"/>
      </g>
     </g>
    </g>
    <g id="ytick_9">
     <g id="text_9">
      <!-- 20 -->
      <g transform="translate(12.55 402.002902)scale(0.2 -0.2)">
       <use xlink:href="#DejaVuSans-50"/>
       <use x="63.623047" xlink:href="#DejaVuSans-48"/>
      </g>
     </g>
    </g>
    <g id="ytick_10">
     <g id="text_10">
      <!-- 25 -->
      <g transform="translate(12.55 376.738346)scale(0.2 -0.2)">
       <use xlink:href="#DejaVuSans-50"/>
       <use x="63.623047" xlink:href="#DejaVuSans-53"/>
      </g>
     </g>
    </g>
   </g>
   <g id="line2d_4">
    <path clip-path="url(#p6cd0108202)" d="M 57.681818 417.401379 
L 76.201903 417.291877 
L 78.548626 416.985378 
L 80.705074 416.485592 
L 82.798097 415.768925 
L 84.827696 414.831201 
L 86.793869 413.674569 
L 88.760042 412.255984 
L 90.726216 410.559481 
L 92.692389 408.570428 
L 94.721987 406.196113 
L 96.815011 403.391792 
L 98.908034 400.212792 
L 101.064482 396.532601 
L 103.284355 392.302329 
L 105.631078 387.34056 
L 109.62685 378.888469 
L 112.924947 372.415679 
L 115.842495 367.172118 
L 118.442918 362.937771 
L 120.853066 359.420593 
L 123.136364 356.477289 
L 125.229387 354.131104 
L 127.19556 352.248165 
L 129.034884 350.779063 
L 130.810782 349.637369 
L 132.523256 348.800956 
L 134.172304 348.246719 
L 135.757928 347.95092 
L 137.343552 347.88467 
L 233.559197 347.987378 
L 235.081395 348.30741 
L 236.667019 348.867574 
L 238.316068 349.690919 
L 240.028541 350.800029 
L 241.80444 352.216709 
L 243.707188 354.026725 
L 245.736786 356.278766 
L 247.893235 359.019595 
L 250.176533 362.292329 
L 252.650106 366.240472 
L 255.313953 370.92231 
L 258.294926 376.631551 
L 261.656448 383.568172 
L 267.174419 395.06615 
L 269.457717 399.112981 
L 271.67759 402.602402 
L 273.834038 405.585523 
L 275.927061 408.11139 
L 277.95666 410.226839 
L 279.986258 412.028047 
L 282.015856 413.530691 
L 284.045455 414.751898 
L 286.075053 415.710428 
L 288.104651 416.426964 
L 290.261099 416.948908 
L 292.544397 417.266887 
L 295.081395 417.388751 
L 309.922833 417.390065 
L 311.318182 417.390065 
L 311.318182 417.390065 
" style="fill:none;stroke:#000000;stroke-linecap:square;stroke-width:4;"/>
   </g>
   <g id="patch_12">
    <path d="M 45 420.877241 
L 45 344.408276 
" style="fill:none;stroke:#000000;stroke-linecap:square;stroke-linejoin:miter;stroke-width:0.8;"/>
   </g>
   <g id="patch_13">
    <path d="M 45 420.877241 
L 324 420.877241 
" style="fill:none;stroke:#000000;stroke-linecap:square;stroke-linejoin:miter;stroke-width:0.8;"/>
   </g>
  </g>
  <g id="axes_5">
   <g id="patch_14">
    <path d="M 45 512.64 
L 324 512.64 
L 324 436.171034 
L 45 436.171034 
z
" style="fill:#ffffff;"/>
   </g>
   <g id="matplotlib.axis_9">
    <g id="xtick_13">
     <g id="line2d_5">
      <defs>
       <path d="M 0 0 
L 0 3.5 
" id="m306775462d" style="stroke:#000000;stroke-width:0.8;"/>
      </defs>
      <g>
       <use style="stroke:#000000;stroke-width:0.8;" x="57.681818" xlink:href="#m306775462d" y="512.64"/>
      </g>
     </g>
     <g id="text_11">
      <!-- 0 -->
      <g transform="translate(51.319318 534.836875)scale(0.2 -0.2)">
       <use xlink:href="#DejaVuSans-48"/>
      </g>
     </g>
    </g>
    <g id="xtick_14">
     <g id="line2d_6">
      <g>
       <use style="stroke:#000000;stroke-width:0.8;" x="184.531712" xlink:href="#m306775462d" y="512.64"/>
      </g>
     </g>
     <g id="text_12">
      <!-- 2000 -->
      <g transform="translate(159.081712 534.836875)scale(0.2 -0.2)">
       <use xlink:href="#DejaVuSans-50"/>
       <use x="63.623047" xlink:href="#DejaVuSans-48"/>
       <use x="127.246094" xlink:href="#DejaVuSans-48"/>
       <use x="190.869141" xlink:href="#DejaVuSans-48"/>
      </g>
     </g>
    </g>
    <g id="xtick_15">
     <g id="line2d_7">
      <g>
       <use style="stroke:#000000;stroke-width:0.8;" x="311.381607" xlink:href="#m306775462d" y="512.64"/>
      </g>
     </g>
     <g id="text_13">
      <!-- 4000 -->
      <defs>
       <path d="M 37.796875 64.3125 
L 12.890625 25.390625 
L 37.796875 25.390625 
z
M 35.203125 72.90625 
L 47.609375 72.90625 
L 47.609375 25.390625 
L 58.015625 25.390625 
L 58.015625 17.1875 
L 47.609375 17.1875 
L 47.609375 0 
L 37.796875 0 
L 37.796875 17.1875 
L 4.890625 17.1875 
L 4.890625 26.703125 
z
" id="DejaVuSans-52"/>
      </defs>
      <g transform="translate(285.931607 534.836875)scale(0.2 -0.2)">
       <use xlink:href="#DejaVuSans-52"/>
       <use x="63.623047" xlink:href="#DejaVuSans-48"/>
       <use x="127.246094" xlink:href="#DejaVuSans-48"/>
       <use x="190.869141" xlink:href="#DejaVuSans-48"/>
      </g>
     </g>
    </g>
   </g>
   <g id="matplotlib.axis_10">
    <g id="ytick_11">
     <g id="text_14">
      <!-- 20 -->
      <g transform="translate(12.55 501.943245)scale(0.2 -0.2)">
       <use xlink:href="#DejaVuSans-50"/>
       <use x="63.623047" xlink:href="#DejaVuSans-48"/>
      </g>
     </g>
    </g>
    <g id="ytick_12">
     <g id="text_15">
      <!-- 30 -->
      <defs>
       <path d="M 40.578125 39.3125 
Q 47.65625 37.796875 51.625 33 
Q 55.609375 28.21875 55.609375 21.1875 
Q 55.609375 10.40625 48.1875 4.484375 
Q 40.765625 -1.421875 27.09375 -1.421875 
Q 22.515625 -1.421875 17.65625 -0.515625 
Q 12.796875 0.390625 7.625 2.203125 
L 7.625 11.71875 
Q 11.71875 9.328125 16.59375 8.109375 
Q 21.484375 6.890625 26.8125 6.890625 
Q 36.078125 6.890625 40.9375 10.546875 
Q 45.796875 14.203125 45.796875 21.1875 
Q 45.796875 27.640625 41.28125 31.265625 
Q 36.765625 34.90625 28.71875 34.90625 
L 20.21875 34.90625 
L 20.21875 43.015625 
L 29.109375 43.015625 
Q 36.375 43.015625 40.234375 45.921875 
Q 44.09375 48.828125 44.09375 54.296875 
Q 44.09375 59.90625 40.109375 62.90625 
Q 36.140625 65.921875 28.71875 65.921875 
Q 24.65625 65.921875 20.015625 65.03125 
Q 15.375 64.15625 9.8125 62.3125 
L 9.8125 71.09375 
Q 15.4375 72.65625 20.34375 73.4375 
Q 25.25 74.21875 29.59375 74.21875 
Q 40.828125 74.21875 47.359375 69.109375 
Q 53.90625 64.015625 53.90625 55.328125 
Q 53.90625 49.265625 50.4375 45.09375 
Q 46.96875 40.921875 40.578125 39.3125 
z
" id="DejaVuSans-51"/>
      </defs>
      <g transform="translate(12.55 464.655939)scale(0.2 -0.2)">
       <use xlink:href="#DejaVuSans-51"/>
       <use x="63.623047" xlink:href="#DejaVuSans-48"/>
      </g>
     </g>
    </g>
   </g>
   <g id="line2d_8">
    <path clip-path="url(#p1640df1051)" d="M 57.681818 509.164138 
L 75.821353 509.057674 
L 77.977801 508.742141 
L 80.070825 508.20832 
L 82.100423 507.454907 
L 84.066596 506.486368 
L 86.03277 505.268215 
L 87.998943 503.787494 
L 90.028541 501.971389 
L 92.05814 499.852007 
L 94.151163 497.338328 
L 96.307611 494.39025 
L 98.527484 490.966522 
L 100.810782 487.024927 
L 103.157505 482.522514 
L 105.631078 477.284342 
L 109.11945 469.950727 
L 112.227273 463.921798 
L 115.01797 458.978217 
L 117.618393 454.813382 
L 120.028541 451.361427 
L 122.311839 448.473086 
L 124.468288 446.100756 
L 126.497886 444.193893 
L 128.400634 442.700702 
L 130.239958 441.533794 
L 132.015856 440.669344 
L 133.72833 440.083034 
L 135.377378 439.750359 
L 137.026427 439.64711 
L 170.958774 439.647394 
L 233.686047 439.756294 
L 235.335095 440.094517 
L 236.984144 440.659603 
L 238.696617 441.484053 
L 240.472516 442.591511 
L 242.311839 444.005295 
L 244.214588 445.748058 
L 246.244186 447.913799 
L 248.400634 450.551888 
L 250.683932 453.709911 
L 253.09408 457.431882 
L 255.694503 461.869091 
L 258.485201 467.080183 
L 261.593023 473.372292 
L 267.935518 486.451563 
L 270.282241 490.550939 
L 272.565539 494.108147 
L 274.785412 497.166864 
L 276.94186 499.769892 
L 279.034884 501.95893 
L 281.127907 503.826366 
L 283.157505 505.341602 
L 285.187104 506.578472 
L 287.216702 507.551145 
L 289.2463 508.275568 
L 291.339323 508.781691 
L 293.495772 509.070796 
L 295.842495 509.152644 
L 311.318182 509.152488 
L 311.318182 509.152488 
" style="fill:none;stroke:#000000;stroke-linecap:square;stroke-width:4;"/>
   </g>
   <g id="patch_15">
    <path d="M 45 512.64 
L 45 436.171034 
" style="fill:none;stroke:#000000;stroke-linecap:square;stroke-linejoin:miter;stroke-width:0.8;"/>
   </g>
   <g id="patch_16">
    <path d="M 45 512.64 
L 324 512.64 
" style="fill:none;stroke:#000000;stroke-linecap:square;stroke-linejoin:miter;stroke-width:0.8;"/>
   </g>
  </g>
 </g>
 <defs>
  <clipPath id="p9d65047d12">
   <rect height="76.468966" width="279" x="45" y="69.12"/>
  </clipPath>
  <clipPath id="pc4824a8343">
   <rect height="76.468966" width="279" x="45" y="160.882759"/>
  </clipPath>
  <clipPath id="p5d23c110ec">
   <rect height="76.468966" width="279" x="45" y="252.645517"/>
  </clipPath>
  <clipPath id="p6cd0108202">
   <rect height="76.468966" width="279" x="45" y="344.408276"/>
  </clipPath>
  <clipPath id="p1640df1051">
   <rect height="76.468966" width="279" x="45" y="436.171034"/>
  </clipPath>
 </defs>
</svg>
