<?xml version="1.0" encoding="utf-8" standalone="no"?>
<!DOCTYPE svg PUBLIC "-//W3C//DTD SVG 1.1//EN"
  "http://www.w3.org/Graphics/SVG/1.1/DTD/svg11.dtd">
<!-- Created with matplotlib (https://matplotlib.org/) -->
<svg height="576pt" version="1.1" viewBox="0 0 360 576" width="360pt" xmlns="http://www.w3.org/2000/svg" xmlns:xlink="http://www.w3.org/1999/xlink">
 <defs>
  <style type="text/css">
*{stroke-linecap:butt;stroke-linejoin:round;white-space:pre;}
  </style>
 </defs>
 <g id="figure_1">
  <g id="patch_1">
   <path d="M 0 576 
L 360 576 
L 360 0 
L 0 0 
z
" style="fill:#ffffff;"/>
  </g>
  <g id="axes_1">
   <g id="patch_2">
    <path d="M 45 145.588966 
L 324 145.588966 
L 324 69.12 
L 45 69.12 
z
" style="fill:#ffffff;"/>
   </g>
   <g id="matplotlib.axis_1">
    <g id="xtick_1"/>
    <g id="xtick_2"/>
    <g id="xtick_3"/>
   </g>
   <g id="matplotlib.axis_2">
    <g id="ytick_1">
     <g id="text_1">
      <!-- 25 -->
      <defs>
       <path d="M 19.1875 8.296875 
L 53.609375 8.296875 
L 53.609375 0 
L 7.328125 0 
L 7.328125 8.296875 
Q 12.9375 14.109375 22.625 23.890625 
Q 32.328125 33.6875 34.8125 36.53125 
Q 39.546875 41.84375 41.421875 45.53125 
Q 43.3125 49.21875 43.3125 52.78125 
Q 43.3125 58.59375 39.234375 62.25 
Q 35.15625 65.921875 28.609375 65.921875 
Q 23.96875 65.921875 18.8125 64.3125 
Q 13.671875 62.703125 7.8125 59.421875 
L 7.8125 69.390625 
Q 13.765625 71.78125 18.9375 73 
Q 24.125 74.21875 28.421875 74.21875 
Q 39.75 74.21875 46.484375 68.546875 
Q 53.21875 62.890625 53.21875 53.421875 
Q 53.21875 48.921875 51.53125 44.890625 
Q 49.859375 40.875 45.40625 35.40625 
Q 44.1875 33.984375 37.640625 27.21875 
Q 31.109375 20.453125 19.1875 8.296875 
z
" id="DejaVuSans-50"/>
       <path d="M 10.796875 72.90625 
L 49.515625 72.90625 
L 49.515625 64.59375 
L 19.828125 64.59375 
L 19.828125 46.734375 
Q 21.96875 47.46875 24.109375 47.828125 
Q 26.265625 48.1875 28.421875 48.1875 
Q 40.625 48.1875 47.75 41.5 
Q 54.890625 34.8125 54.890625 23.390625 
Q 54.890625 11.625 47.5625 5.09375 
Q 40.234375 -1.421875 26.90625 -1.421875 
Q 22.3125 -1.421875 17.546875 -0.640625 
Q 12.796875 0.140625 7.71875 1.703125 
L 7.71875 11.625 
Q 12.109375 9.234375 16.796875 8.0625 
Q 21.484375 6.890625 26.703125 6.890625 
Q 35.15625 6.890625 40.078125 11.328125 
Q 45.015625 15.765625 45.015625 23.390625 
Q 45.015625 31 40.078125 35.4375 
Q 35.15625 39.890625 26.703125 39.890625 
Q 22.75 39.890625 18.8125 39.015625 
Q 14.890625 38.140625 10.796875 36.28125 
z
" id="DejaVuSans-53"/>
      </defs>
      <g transform="translate(12.55 126.359305)scale(0.2 -0.2)">
       <use xlink:href="#DejaVuSans-50"/>
       <use x="63.623047" xlink:href="#DejaVuSans-53"/>
      </g>
     </g>
    </g>
    <g id="ytick_2">
     <g id="text_2">
      <!-- 50 -->
      <defs>
       <path d="M 31.78125 66.40625 
Q 24.171875 66.40625 20.328125 58.90625 
Q 16.5 51.421875 16.5 36.375 
Q 16.5 21.390625 20.328125 13.890625 
Q 24.171875 6.390625 31.78125 6.390625 
Q 39.453125 6.390625 43.28125 13.890625 
Q 47.125 21.390625 47.125 36.375 
Q 47.125 51.421875 43.28125 58.90625 
Q 39.453125 66.40625 31.78125 66.40625 
z
M 31.78125 74.21875 
Q 44.046875 74.21875 50.515625 64.515625 
Q 56.984375 54.828125 56.984375 36.375 
Q 56.984375 17.96875 50.515625 8.265625 
Q 44.046875 -1.421875 31.78125 -1.421875 
Q 19.53125 -1.421875 13.0625 8.265625 
Q 6.59375 17.96875 6.59375 36.375 
Q 6.59375 54.828125 13.0625 64.515625 
Q 19.53125 74.21875 31.78125 74.21875 
z
" id="DejaVuSans-48"/>
      </defs>
      <g transform="translate(12.55 78.697157)scale(0.2 -0.2)">
       <use xlink:href="#DejaVuSans-53"/>
       <use x="63.623047" xlink:href="#DejaVuSans-48"/>
      </g>
     </g>
    </g>
   </g>
   <g id="line2d_1">
    <path clip-path="url(#p7efec09a5a)" d="M 57.681818 142.11289 
L 75.504228 142.002383 
L 77.343552 141.675264 
L 79.182875 141.121892 
L 81.022199 140.33452 
L 82.861522 139.307321 
L 84.764271 137.988056 
L 86.730444 136.347892 
L 88.760042 134.358495 
L 90.853066 131.992276 
L 93.072939 129.13606 
L 95.356237 125.830496 
L 97.766385 121.943364 
L 100.303383 117.419133 
L 102.96723 112.202721 
L 105.884778 105.979932 
L 108.738901 100.079339 
L 111.402748 95.059162 
L 113.939746 90.737266 
L 116.349894 87.058721 
L 118.633192 83.963534 
L 120.853066 81.319555 
L 123.009514 79.094952 
L 125.102537 77.257186 
L 127.132135 75.773848 
L 129.098309 74.613251 
L 131.001057 73.744812 
L 132.903805 73.12247 
L 134.743129 72.750458 
L 136.582452 72.599797 
L 142.163848 72.596262 
L 233.876321 72.70024 
L 235.715645 73.024387 
L 237.554968 73.572524 
L 239.394292 74.348747 
L 241.29704 75.395917 
L 243.199789 76.695384 
L 245.165962 78.307031 
L 247.19556 80.260765 
L 249.288584 82.586998 
L 251.445032 85.316076 
L 253.72833 88.573014 
L 256.075053 92.310728 
L 258.548626 96.670593 
L 261.212474 101.831881 
L 264.066596 107.866664 
L 266.920719 113.808709 
L 269.647992 118.985635 
L 272.248414 123.453284 
L 274.721987 127.268594 
L 277.06871 130.489175 
L 279.288584 133.172835 
L 281.445032 135.438826 
L 283.538055 137.315487 
L 285.504228 138.78937 
L 287.470402 139.985522 
L 289.37315 140.882605 
L 291.212474 141.511697 
L 293.051797 141.913859 
L 294.954545 142.100632 
L 298.252643 142.11289 
L 311.318182 142.11289 
L 311.318182 142.11289 
" style="fill:none;stroke:#000000;stroke-linecap:square;stroke-width:4;"/>
   </g>
   <g id="patch_3">
    <path d="M 45 145.588966 
L 45 69.12 
" style="fill:none;stroke:#000000;stroke-linecap:square;stroke-linejoin:miter;stroke-width:0.8;"/>
   </g>
   <g id="patch_4">
    <path d="M 45 145.588966 
L 324 145.588966 
" style="fill:none;stroke:#000000;stroke-linecap:square;stroke-linejoin:miter;stroke-width:0.8;"/>
   </g>
  </g>
  <g id="axes_2">
   <g id="patch_5">
    <path d="M 45 237.351724 
L 324 237.351724 
L 324 160.882759 
L 45 160.882759 
z
" style="fill:#ffffff;"/>
   </g>
   <g id="matplotlib.axis_3">
    <g id="xtick_4"/>
    <g id="xtick_5"/>
    <g id="xtick_6"/>
   </g>
   <g id="matplotlib.axis_4">
    <g id="ytick_3">
     <g id="text_3">
      <!-- 5 -->
      <g transform="translate(25.275 215.637292)scale(0.2 -0.2)">
       <use xlink:href="#DejaVuSans-53"/>
      </g>
     </g>
    </g>
    <g id="ytick_4">
     <g id="text_4">
      <!-- 10 -->
      <defs>
       <path d="M 12.40625 8.296875 
L 28.515625 8.296875 
L 28.515625 63.921875 
L 10.984375 60.40625 
L 10.984375 69.390625 
L 28.421875 72.90625 
L 38.28125 72.90625 
L 38.28125 8.296875 
L 54.390625 8.296875 
L 54.390625 0 
L 12.40625 0 
z
" id="DejaVuSans-49"/>
      </defs>
      <g transform="translate(12.55 171.244397)scale(0.2 -0.2)">
       <use xlink:href="#DejaVuSans-49"/>
       <use x="63.623047" xlink:href="#DejaVuSans-48"/>
      </g>
     </g>
    </g>
   </g>
   <g id="line2d_2">
    <path clip-path="url(#pbc76c874e4)" d="M 57.681818 233.875856 
L 76.011628 233.770152 
L 78.294926 233.448681 
L 80.514799 232.907563 
L 82.607822 232.17134 
L 84.700846 231.196654 
L 86.730444 230.005652 
L 88.760042 228.55461 
L 90.789641 226.825541 
L 92.819239 224.800359 
L 94.848837 222.460991 
L 96.94186 219.700447 
L 99.034884 216.567233 
L 101.191332 212.929143 
L 103.34778 208.85488 
L 105.631078 204.049439 
L 109.2463 196.417756 
L 112.544397 189.958608 
L 115.52537 184.594103 
L 118.252643 180.128064 
L 120.789641 176.391551 
L 123.136364 173.325191 
L 125.292812 170.862483 
L 127.32241 168.875222 
L 129.225159 167.319553 
L 131.001057 166.149099 
L 132.650106 165.316015 
L 134.235729 164.754112 
L 135.757928 164.442683 
L 137.280127 164.358735 
L 234.003171 164.524576 
L 235.52537 164.913036 
L 237.110994 165.551801 
L 238.760042 166.461168 
L 240.472516 167.66036 
L 242.311839 169.225908 
L 244.278013 171.202837 
L 246.371036 173.634075 
L 248.590909 176.559431 
L 251.001057 180.112884 
L 253.60148 184.353983 
L 256.455603 189.45238 
L 259.563425 195.477722 
L 262.988372 202.621205 
L 266.603594 210.163489 
L 268.886892 214.310518 
L 271.106765 217.883349 
L 273.263214 220.942046 
L 275.419662 223.615733 
L 277.512685 225.862685 
L 279.605708 227.786537 
L 281.698732 229.406964 
L 283.791755 230.743595 
L 285.884778 231.815885 
L 287.977801 232.643003 
L 290.134249 233.25858 
L 292.354123 233.662269 
L 294.700846 233.858369 
L 298.316068 233.875856 
L 311.318182 233.875856 
L 311.318182 233.875856 
" style="fill:none;stroke:#000000;stroke-linecap:square;stroke-width:4;"/>
   </g>
   <g id="patch_6">
    <path d="M 45 237.351724 
L 45 160.882759 
" style="fill:none;stroke:#000000;stroke-linecap:square;stroke-linejoin:miter;stroke-width:0.8;"/>
   </g>
   <g id="patch_7">
    <path d="M 45 237.351724 
L 324 237.351724 
" style="fill:none;stroke:#000000;stroke-linecap:square;stroke-linejoin:miter;stroke-width:0.8;"/>
   </g>
  </g>
  <g id="axes_3">
   <g id="patch_8">
    <path d="M 45 329.114483 
L 324 329.114483 
L 324 252.645517 
L 45 252.645517 
z
" style="fill:#ffffff;"/>
   </g>
   <g id="matplotlib.axis_5">
    <g id="xtick_7"/>
    <g id="xtick_8"/>
    <g id="xtick_9"/>
   </g>
   <g id="matplotlib.axis_6">
    <g id="ytick_5">
     <g id="text_5">
      <!-- 5 -->
      <g transform="translate(25.275 307.400051)scale(0.2 -0.2)">
       <use xlink:href="#DejaVuSans-53"/>
      </g>
     </g>
    </g>
    <g id="ytick_6">
     <g id="text_6">
      <!-- 10 -->
      <g transform="translate(12.55 263.007156)scale(0.2 -0.2)">
       <use xlink:href="#DejaVuSans-49"/>
       <use x="63.623047" xlink:href="#DejaVuSans-48"/>
      </g>
     </g>
    </g>
   </g>
   <g id="line2d_3">
    <path clip-path="url(#paf03fe92ef)" d="M 57.681818 325.638615 
L 76.011628 325.532911 
L 78.294926 325.21144 
L 80.514799 324.670322 
L 82.607822 323.934098 
L 84.700846 322.959412 
L 86.730444 321.76841 
L 88.760042 320.317369 
L 90.789641 318.5883 
L 92.819239 316.563118 
L 94.848837 314.223749 
L 96.94186 311.463206 
L 99.034884 308.329992 
L 101.191332 304.691902 
L 103.34778 300.617639 
L 105.631078 295.812198 
L 109.2463 288.180515 
L 112.544397 281.721366 
L 115.52537 276.356862 
L 118.252643 271.890822 
L 120.789641 268.15431 
L 123.136364 265.087949 
L 125.292812 262.625241 
L 127.32241 260.63798 
L 129.225159 259.082311 
L 131.001057 257.911858 
L 132.650106 257.078773 
L 134.235729 256.51687 
L 135.757928 256.205441 
L 137.280127 256.121493 
L 234.003171 256.287335 
L 235.52537 256.675795 
L 237.110994 257.314559 
L 238.760042 258.223927 
L 240.472516 259.423119 
L 242.311839 260.988667 
L 244.278013 262.965595 
L 246.371036 265.396833 
L 248.590909 268.322189 
L 251.001057 271.875642 
L 253.60148 276.116742 
L 256.455603 281.215138 
L 259.563425 287.240481 
L 262.988372 294.383964 
L 266.603594 301.926248 
L 268.886892 306.073276 
L 271.106765 309.646107 
L 273.263214 312.704805 
L 275.419662 315.378491 
L 277.512685 317.625444 
L 279.605708 319.549295 
L 281.698732 321.169723 
L 283.791755 322.506353 
L 285.884778 323.578643 
L 287.977801 324.405762 
L 290.134249 325.021339 
L 292.354123 325.425027 
L 294.700846 325.621128 
L 298.316068 325.638615 
L 311.318182 325.638615 
L 311.318182 325.638615 
" style="fill:none;stroke:#000000;stroke-linecap:square;stroke-width:4;"/>
   </g>
   <g id="patch_9">
    <path d="M 45 329.114483 
L 45 252.645517 
" style="fill:none;stroke:#000000;stroke-linecap:square;stroke-linejoin:miter;stroke-width:0.8;"/>
   </g>
   <g id="patch_10">
    <path d="M 45 329.114483 
L 324 329.114483 
" style="fill:none;stroke:#000000;stroke-linecap:square;stroke-linejoin:miter;stroke-width:0.8;"/>
   </g>
  </g>
  <g id="axes_4">
   <g id="patch_11">
    <path d="M 45 420.877241 
L 324 420.877241 
L 324 344.408276 
L 45 344.408276 
z
" style="fill:#ffffff;"/>
   </g>
   <g id="matplotlib.axis_7">
    <g id="xtick_10"/>
    <g id="xtick_11"/>
    <g id="xtick_12"/>
   </g>
   <g id="matplotlib.axis_8">
    <g id="ytick_7">
     <g id="text_7">
      <!-- 15 -->
      <g transform="translate(12.55 410.408635)scale(0.2 -0.2)">
       <use xlink:href="#DejaVuSans-49"/>
       <use x="63.623047" xlink:href="#DejaVuSans-53"/>
      </g>
     </g>
    </g>
    <g id="ytick_8">
     <g id="text_8">
      <!-- 20 -->
      <g transform="translate(12.55 390.217185)scale(0.2 -0.2)">
       <use xlink:href="#DejaVuSans-50"/>
       <use x="63.623047" xlink:href="#DejaVuSans-48"/>
      </g>
     </g>
    </g>
    <g id="ytick_9">
     <g id="text_9">
      <!-- 25 -->
      <g transform="translate(12.55 370.025735)scale(0.2 -0.2)">
       <use xlink:href="#DejaVuSans-50"/>
       <use x="63.623047" xlink:href="#DejaVuSans-53"/>
      </g>
     </g>
    </g>
   </g>
   <g id="line2d_4">
    <path clip-path="url(#p75ecbb43c5)" d="M 57.681818 417.401231 
L 75.504228 417.296282 
L 77.406977 416.972672 
L 79.309725 416.423725 
L 81.212474 415.643159 
L 83.115222 414.62521 
L 85.081395 413.318382 
L 87.110994 411.69216 
L 89.140592 409.779307 
L 91.233615 407.501838 
L 93.390063 404.827347 
L 95.609937 401.722612 
L 97.95666 398.049144 
L 100.366808 393.854873 
L 102.840381 389.103977 
L 105.440803 383.621875 
L 108.421776 377.370948 
L 111.275899 371.898435 
L 113.939746 367.262061 
L 116.476744 363.283965 
L 118.886892 359.910862 
L 121.17019 357.088172 
L 123.326638 354.761109 
L 125.419662 352.821452 
L 127.44926 351.243763 
L 129.352008 350.037953 
L 131.191332 349.125186 
L 133.030655 348.462009 
L 134.806554 348.059171 
L 136.519027 347.891999 
L 140.197674 347.884608 
L 233.812896 347.990327 
L 235.52537 348.313109 
L 237.301268 348.876338 
L 239.077167 349.671677 
L 240.91649 350.739236 
L 242.819239 352.103362 
L 244.785412 353.788589 
L 246.815011 355.819442 
L 248.971459 358.297773 
L 251.191332 361.189087 
L 253.538055 364.614125 
L 256.011628 368.625312 
L 258.612051 373.273933 
L 261.339323 378.608945 
L 264.320296 384.942799 
L 266.984144 390.423557 
L 269.584567 395.268847 
L 272.05814 399.416405 
L 274.468288 403.027458 
L 276.751586 406.059983 
L 278.971459 408.649646 
L 281.127907 410.830991 
L 283.22093 412.637737 
L 285.250529 414.102637 
L 287.216702 415.257334 
L 289.182875 416.157369 
L 291.149049 416.808838 
L 293.051797 417.208906 
L 294.954545 417.388989 
L 298.316068 417.401231 
L 311.318182 417.401231 
L 311.318182 417.401231 
" style="fill:none;stroke:#000000;stroke-linecap:square;stroke-width:4;"/>
   </g>
   <g id="patch_12">
    <path d="M 45 420.877241 
L 45 344.408276 
" style="fill:none;stroke:#000000;stroke-linecap:square;stroke-linejoin:miter;stroke-width:0.8;"/>
   </g>
   <g id="patch_13">
    <path d="M 45 420.877241 
L 324 420.877241 
" style="fill:none;stroke:#000000;stroke-linecap:square;stroke-linejoin:miter;stroke-width:0.8;"/>
   </g>
  </g>
  <g id="axes_5">
   <g id="patch_14">
    <path d="M 45 512.64 
L 324 512.64 
L 324 436.171034 
L 45 436.171034 
z
" style="fill:#ffffff;"/>
   </g>
   <g id="matplotlib.axis_9">
    <g id="xtick_13">
     <g id="line2d_5">
      <defs>
       <path d="M 0 0 
L 0 3.5 
" id="m13ea4b8a47" style="stroke:#000000;stroke-width:0.8;"/>
      </defs>
      <g>
       <use style="stroke:#000000;stroke-width:0.8;" x="57.681818" xlink:href="#m13ea4b8a47" y="512.64"/>
      </g>
     </g>
     <g id="text_10">
      <!-- 0 -->
      <g transform="translate(51.319318 534.836875)scale(0.2 -0.2)">
       <use xlink:href="#DejaVuSans-48"/>
      </g>
     </g>
    </g>
    <g id="xtick_14">
     <g id="line2d_6">
      <g>
       <use style="stroke:#000000;stroke-width:0.8;" x="184.531712" xlink:href="#m13ea4b8a47" y="512.64"/>
      </g>
     </g>
     <g id="text_11">
      <!-- 2000 -->
      <g transform="translate(159.081712 534.836875)scale(0.2 -0.2)">
       <use xlink:href="#DejaVuSans-50"/>
       <use x="63.623047" xlink:href="#DejaVuSans-48"/>
       <use x="127.246094" xlink:href="#DejaVuSans-48"/>
       <use x="190.869141" xlink:href="#DejaVuSans-48"/>
      </g>
     </g>
    </g>
    <g id="xtick_15">
     <g id="line2d_7">
      <g>
       <use style="stroke:#000000;stroke-width:0.8;" x="311.381607" xlink:href="#m13ea4b8a47" y="512.64"/>
      </g>
     </g>
     <g id="text_12">
      <!-- 4000 -->
      <defs>
       <path d="M 37.796875 64.3125 
L 12.890625 25.390625 
L 37.796875 25.390625 
z
M 35.203125 72.90625 
L 47.609375 72.90625 
L 47.609375 25.390625 
L 58.015625 25.390625 
L 58.015625 17.1875 
L 47.609375 17.1875 
L 47.609375 0 
L 37.796875 0 
L 37.796875 17.1875 
L 4.890625 17.1875 
L 4.890625 26.703125 
z
" id="DejaVuSans-52"/>
      </defs>
      <g transform="translate(285.931607 534.836875)scale(0.2 -0.2)">
       <use xlink:href="#DejaVuSans-52"/>
       <use x="63.623047" xlink:href="#DejaVuSans-48"/>
       <use x="127.246094" xlink:href="#DejaVuSans-48"/>
       <use x="190.869141" xlink:href="#DejaVuSans-48"/>
      </g>
     </g>
    </g>
   </g>
   <g id="matplotlib.axis_10">
    <g id="ytick_10">
     <g id="text_13">
      <!-- 5 -->
      <g transform="translate(25.275 517.942639)scale(0.2 -0.2)">
       <use xlink:href="#DejaVuSans-53"/>
      </g>
     </g>
    </g>
    <g id="ytick_11">
     <g id="text_14">
      <!-- 10 -->
      <g transform="translate(12.55 484.900932)scale(0.2 -0.2)">
       <use xlink:href="#DejaVuSans-49"/>
       <use x="63.623047" xlink:href="#DejaVuSans-48"/>
      </g>
     </g>
    </g>
    <g id="ytick_12">
     <g id="text_15">
      <!-- 15 -->
      <g transform="translate(12.55 451.859226)scale(0.2 -0.2)">
       <use xlink:href="#DejaVuSans-49"/>
       <use x="63.623047" xlink:href="#DejaVuSans-53"/>
      </g>
     </g>
    </g>
   </g>
   <g id="line2d_8">
    <path clip-path="url(#pfb7008fdb0)" d="M 57.681818 509.164099 
L 75.757928 509.054429 
L 77.850951 508.72034 
L 79.88055 508.169554 
L 81.910148 507.383437 
L 83.939746 506.350236 
L 85.969345 505.058375 
L 87.998943 503.496516 
L 90.028541 501.653614 
L 92.121564 499.44744 
L 94.278013 496.837959 
L 96.434461 493.875296 
L 98.654334 490.444739 
L 100.937632 486.501143 
L 103.284355 481.997219 
L 105.757928 476.754791 
L 108.9926 469.989771 
L 111.973573 464.249221 
L 114.764271 459.338765 
L 117.364693 455.194054 
L 119.838266 451.659799 
L 122.184989 448.693281 
L 124.341438 446.313486 
L 126.371036 444.387882 
L 128.337209 442.822417 
L 130.176533 441.632776 
L 131.952431 440.742553 
L 133.664905 440.129858 
L 135.313953 439.772371 
L 136.899577 439.647539 
L 151.55074 439.647248 
L 233.749471 439.756218 
L 235.39852 440.096987 
L 237.047569 440.665412 
L 238.760042 441.492171 
L 240.535941 442.598799 
L 242.375264 444.006346 
L 244.341438 445.797486 
L 246.371036 447.947916 
L 248.527484 450.557269 
L 250.810782 453.670909 
L 253.284355 457.433636 
L 255.884778 461.804591 
L 258.675476 466.941804 
L 261.656448 472.906216 
L 268.379493 486.650318 
L 270.726216 490.673959 
L 273.009514 494.164679 
L 275.229387 497.16936 
L 277.44926 499.802794 
L 279.605708 502.017721 
L 281.698732 503.855798 
L 283.791755 505.398662 
L 285.821353 506.624274 
L 287.850951 507.594973 
L 289.88055 508.322287 
L 291.910148 508.817908 
L 294.003171 509.098836 
L 296.223044 509.164104 
L 311.318182 509.164099 
L 311.318182 509.164099 
" style="fill:none;stroke:#000000;stroke-linecap:square;stroke-width:4;"/>
   </g>
   <g id="patch_15">
    <path d="M 45 512.64 
L 45 436.171034 
" style="fill:none;stroke:#000000;stroke-linecap:square;stroke-linejoin:miter;stroke-width:0.8;"/>
   </g>
   <g id="patch_16">
    <path d="M 45 512.64 
L 324 512.64 
" style="fill:none;stroke:#000000;stroke-linecap:square;stroke-linejoin:miter;stroke-width:0.8;"/>
   </g>
  </g>
 </g>
 <defs>
  <clipPath id="p7efec09a5a">
   <rect height="76.468966" width="279" x="45" y="69.12"/>
  </clipPath>
  <clipPath id="pbc76c874e4">
   <rect height="76.468966" width="279" x="45" y="160.882759"/>
  </clipPath>
  <clipPath id="paf03fe92ef">
   <rect height="76.468966" width="279" x="45" y="252.645517"/>
  </clipPath>
  <clipPath id="p75ecbb43c5">
   <rect height="76.468966" width="279" x="45" y="344.408276"/>
  </clipPath>
  <clipPath id="pfb7008fdb0">
   <rect height="76.468966" width="279" x="45" y="436.171034"/>
  </clipPath>
 </defs>
</svg>
