<?xml version="1.0" encoding="utf-8" standalone="no"?>
<!DOCTYPE svg PUBLIC "-//W3C//DTD SVG 1.1//EN"
  "http://www.w3.org/Graphics/SVG/1.1/DTD/svg11.dtd">
<!-- Created with matplotlib (https://matplotlib.org/) -->
<svg height="1296pt" version="1.1" viewBox="0 0 216 1296" width="216pt" xmlns="http://www.w3.org/2000/svg" xmlns:xlink="http://www.w3.org/1999/xlink">
 <defs>
  <style type="text/css">
*{stroke-linecap:butt;stroke-linejoin:round;white-space:pre;}
  </style>
 </defs>
 <g id="figure_1">
  <g id="patch_1">
   <path d="M 0 1296 
L 216 1296 
L 216 0 
L 0 0 
z
" style="fill:#ffffff;"/>
  </g>
  <g id="axes_1">
   <g id="patch_2">
    <path d="M 23.964 304.601872 
L 204.768 304.601872 
L 204.768 64.8 
L 23.964 64.8 
z
" style="fill:#ffffff;"/>
   </g>
   <g id="patch_3">
    <path clip-path="url(#p1b81474594)" d="M 32.182364 304.601872 
L 53.621573 304.601872 
L 53.621573 79.170001 
L 32.182364 79.170001 
z
" style="fill:url(#h68a514ecb1);stroke:#000000;stroke-linejoin:miter;stroke-width:2;"/>
   </g>
   <g id="patch_4">
    <path clip-path="url(#p1b81474594)" d="M 67.914379 304.601872 
L 89.353589 304.601872 
L 89.353589 81.230934 
L 67.914379 81.230934 
z
" style="fill:url(#h68a514ecb1);stroke:#000000;stroke-linejoin:miter;stroke-width:2;"/>
   </g>
   <g id="patch_5">
    <path clip-path="url(#p1b81474594)" d="M 103.646395 304.601872 
L 125.085605 304.601872 
L 125.085605 81.230934 
L 103.646395 81.230934 
z
" style="fill:url(#h68a514ecb1);stroke:#000000;stroke-linejoin:miter;stroke-width:2;"/>
   </g>
   <g id="patch_6">
    <path clip-path="url(#p1b81474594)" d="M 139.378411 304.601872 
L 160.817621 304.601872 
L 160.817621 80.123983 
L 139.378411 80.123983 
z
" style="fill:url(#h68a514ecb1);stroke:#000000;stroke-linejoin:miter;stroke-width:2;"/>
   </g>
   <g id="patch_7">
    <path clip-path="url(#p1b81474594)" d="M 175.110427 304.601872 
L 196.549636 304.601872 
L 196.549636 80.579014 
L 175.110427 80.579014 
z
" style="fill:url(#h68a514ecb1);stroke:#000000;stroke-linejoin:miter;stroke-width:2;"/>
   </g>
   <g id="matplotlib.axis_1">
    <g id="xtick_1">
     <g id="text_1">
      <!-- RF -->
      <defs>
       <path d="M 44.390625 34.1875 
Q 47.5625 33.109375 50.5625 29.59375 
Q 53.5625 26.078125 56.59375 19.921875 
L 66.609375 0 
L 56 0 
L 46.6875 18.703125 
Q 43.0625 26.03125 39.671875 28.421875 
Q 36.28125 30.8125 30.421875 30.8125 
L 19.671875 30.8125 
L 19.671875 0 
L 9.8125 0 
L 9.8125 72.90625 
L 32.078125 72.90625 
Q 44.578125 72.90625 50.734375 67.671875 
Q 56.890625 62.453125 56.890625 51.90625 
Q 56.890625 45.015625 53.6875 40.46875 
Q 50.484375 35.9375 44.390625 34.1875 
z
M 19.671875 64.796875 
L 19.671875 38.921875 
L 32.078125 38.921875 
Q 39.203125 38.921875 42.84375 42.21875 
Q 46.484375 45.515625 46.484375 51.90625 
Q 46.484375 58.296875 42.84375 61.546875 
Q 39.203125 64.796875 32.078125 64.796875 
z
" id="DejaVuSans-82"/>
       <path d="M 9.8125 72.90625 
L 51.703125 72.90625 
L 51.703125 64.59375 
L 19.671875 64.59375 
L 19.671875 43.109375 
L 48.578125 43.109375 
L 48.578125 34.8125 
L 19.671875 34.8125 
L 19.671875 0 
L 9.8125 0 
z
" id="DejaVuSans-70"/>
      </defs>
      <g transform="translate(30.201968 326.798747)scale(0.2 -0.2)">
       <use xlink:href="#DejaVuSans-82"/>
       <use x="69.482422" xlink:href="#DejaVuSans-70"/>
      </g>
     </g>
    </g>
    <g id="xtick_2">
     <g id="text_2">
      <!-- VL -->
      <defs>
       <path d="M 28.609375 0 
L 0.78125 72.90625 
L 11.078125 72.90625 
L 34.1875 11.53125 
L 57.328125 72.90625 
L 67.578125 72.90625 
L 39.796875 0 
z
" id="DejaVuSans-86"/>
       <path d="M 9.8125 72.90625 
L 19.671875 72.90625 
L 19.671875 8.296875 
L 55.171875 8.296875 
L 55.171875 0 
L 9.8125 0 
z
" id="DejaVuSans-76"/>
      </defs>
      <g transform="translate(66.221484 326.798747)scale(0.2 -0.2)">
       <use xlink:href="#DejaVuSans-86"/>
       <use x="68.408203" xlink:href="#DejaVuSans-76"/>
      </g>
     </g>
    </g>
    <g id="xtick_3">
     <g id="text_3">
      <!-- VM -->
      <defs>
       <path d="M 9.8125 72.90625 
L 24.515625 72.90625 
L 43.109375 23.296875 
L 61.8125 72.90625 
L 76.515625 72.90625 
L 76.515625 0 
L 66.890625 0 
L 66.890625 64.015625 
L 48.09375 14.015625 
L 38.1875 14.015625 
L 19.390625 64.015625 
L 19.390625 0 
L 9.8125 0 
z
" id="DejaVuSans-77"/>
      </defs>
      <g transform="translate(98.89725 326.798747)scale(0.2 -0.2)">
       <use xlink:href="#DejaVuSans-86"/>
       <use x="68.408203" xlink:href="#DejaVuSans-77"/>
      </g>
     </g>
    </g>
    <g id="xtick_4">
     <g id="text_4">
      <!-- ST -->
      <defs>
       <path d="M 53.515625 70.515625 
L 53.515625 60.890625 
Q 47.90625 63.578125 42.921875 64.890625 
Q 37.9375 66.21875 33.296875 66.21875 
Q 25.25 66.21875 20.875 63.09375 
Q 16.5 59.96875 16.5 54.203125 
Q 16.5 49.359375 19.40625 46.890625 
Q 22.3125 44.4375 30.421875 42.921875 
L 36.375 41.703125 
Q 47.40625 39.59375 52.65625 34.296875 
Q 57.90625 29 57.90625 20.125 
Q 57.90625 9.515625 50.796875 4.046875 
Q 43.703125 -1.421875 29.984375 -1.421875 
Q 24.8125 -1.421875 18.96875 -0.25 
Q 13.140625 0.921875 6.890625 3.21875 
L 6.890625 13.375 
Q 12.890625 10.015625 18.65625 8.296875 
Q 24.421875 6.59375 29.984375 6.59375 
Q 38.421875 6.59375 43.015625 9.90625 
Q 47.609375 13.234375 47.609375 19.390625 
Q 47.609375 24.75 44.3125 27.78125 
Q 41.015625 30.8125 33.5 32.328125 
L 27.484375 33.5 
Q 16.453125 35.6875 11.515625 40.375 
Q 6.59375 45.0625 6.59375 53.421875 
Q 6.59375 63.09375 13.40625 68.65625 
Q 20.21875 74.21875 32.171875 74.21875 
Q 37.3125 74.21875 42.625 73.28125 
Q 47.953125 72.359375 53.515625 70.515625 
z
" id="DejaVuSans-83"/>
       <path d="M -0.296875 72.90625 
L 61.375 72.90625 
L 61.375 64.59375 
L 35.5 64.59375 
L 35.5 0 
L 25.59375 0 
L 25.59375 64.59375 
L -0.296875 64.59375 
z
" id="DejaVuSans-84"/>
      </defs>
      <g transform="translate(137.641766 326.798747)scale(0.2 -0.2)">
       <use xlink:href="#DejaVuSans-83"/>
       <use x="63.476562" xlink:href="#DejaVuSans-84"/>
      </g>
     </g>
    </g>
    <g id="xtick_5">
     <g id="text_5">
      <!-- BF -->
      <defs>
       <path d="M 19.671875 34.8125 
L 19.671875 8.109375 
L 35.5 8.109375 
Q 43.453125 8.109375 47.28125 11.40625 
Q 51.125 14.703125 51.125 21.484375 
Q 51.125 28.328125 47.28125 31.5625 
Q 43.453125 34.8125 35.5 34.8125 
z
M 19.671875 64.796875 
L 19.671875 42.828125 
L 34.28125 42.828125 
Q 41.5 42.828125 45.03125 45.53125 
Q 48.578125 48.25 48.578125 53.8125 
Q 48.578125 59.328125 45.03125 62.0625 
Q 41.5 64.796875 34.28125 64.796875 
z
M 9.8125 72.90625 
L 35.015625 72.90625 
Q 46.296875 72.90625 52.390625 68.21875 
Q 58.5 63.53125 58.5 54.890625 
Q 58.5 48.1875 55.375 44.234375 
Q 52.25 40.28125 46.1875 39.3125 
Q 53.46875 37.75 57.5 32.78125 
Q 61.53125 27.828125 61.53125 20.40625 
Q 61.53125 10.640625 54.890625 5.3125 
Q 48.25 0 35.984375 0 
L 9.8125 0 
z
" id="DejaVuSans-66"/>
      </defs>
      <g transform="translate(173.217532 326.798747)scale(0.2 -0.2)">
       <use xlink:href="#DejaVuSans-66"/>
       <use x="68.603516" xlink:href="#DejaVuSans-70"/>
      </g>
     </g>
    </g>
   </g>
   <g id="matplotlib.axis_2">
    <g id="ytick_1"/>
    <g id="ytick_2"/>
    <g id="ytick_3"/>
    <g id="ytick_4"/>
    <g id="ytick_5"/>
    <g id="ytick_6"/>
   </g>
   <g id="patch_8">
    <path d="M 23.964 304.601872 
L 204.768 304.601872 
" style="fill:none;stroke:#000000;stroke-linecap:square;stroke-linejoin:miter;stroke-width:0.8;"/>
   </g>
  </g>
  <g id="axes_2">
   <g id="patch_9">
    <path d="M 23.964 614.157914 
L 204.768 614.157914 
L 204.768 374.356043 
L 23.964 374.356043 
z
" style="fill:#ffffff;"/>
   </g>
   <g id="matplotlib.axis_3">
    <g id="xtick_6">
     <g id="text_6">
      <!-- 0 -->
      <defs>
       <path d="M 31.78125 66.40625 
Q 24.171875 66.40625 20.328125 58.90625 
Q 16.5 51.421875 16.5 36.375 
Q 16.5 21.390625 20.328125 13.890625 
Q 24.171875 6.390625 31.78125 6.390625 
Q 39.453125 6.390625 43.28125 13.890625 
Q 47.125 21.390625 47.125 36.375 
Q 47.125 51.421875 43.28125 58.90625 
Q 39.453125 66.40625 31.78125 66.40625 
z
M 31.78125 74.21875 
Q 44.046875 74.21875 50.515625 64.515625 
Q 56.984375 54.828125 56.984375 36.375 
Q 56.984375 17.96875 50.515625 8.265625 
Q 44.046875 -1.421875 31.78125 -1.421875 
Q 19.53125 -1.421875 13.0625 8.265625 
Q 6.59375 17.96875 6.59375 36.375 
Q 6.59375 54.828125 13.0625 64.515625 
Q 19.53125 74.21875 31.78125 74.21875 
z
" id="DejaVuSans-48"/>
      </defs>
      <g transform="translate(25.819864 636.354789)scale(0.2 -0.2)">
       <use xlink:href="#DejaVuSans-48"/>
      </g>
     </g>
    </g>
    <g id="xtick_7">
     <g id="text_7">
      <!-- 8 -->
      <defs>
       <path d="M 31.78125 34.625 
Q 24.75 34.625 20.71875 30.859375 
Q 16.703125 27.09375 16.703125 20.515625 
Q 16.703125 13.921875 20.71875 10.15625 
Q 24.75 6.390625 31.78125 6.390625 
Q 38.8125 6.390625 42.859375 10.171875 
Q 46.921875 13.96875 46.921875 20.515625 
Q 46.921875 27.09375 42.890625 30.859375 
Q 38.875 34.625 31.78125 34.625 
z
M 21.921875 38.8125 
Q 15.578125 40.375 12.03125 44.71875 
Q 8.5 49.078125 8.5 55.328125 
Q 8.5 64.0625 14.71875 69.140625 
Q 20.953125 74.21875 31.78125 74.21875 
Q 42.671875 74.21875 48.875 69.140625 
Q 55.078125 64.0625 55.078125 55.328125 
Q 55.078125 49.078125 51.53125 44.71875 
Q 48 40.375 41.703125 38.8125 
Q 48.828125 37.15625 52.796875 32.3125 
Q 56.78125 27.484375 56.78125 20.515625 
Q 56.78125 9.90625 50.3125 4.234375 
Q 43.84375 -1.421875 31.78125 -1.421875 
Q 19.734375 -1.421875 13.25 4.234375 
Q 6.78125 9.90625 6.78125 20.515625 
Q 6.78125 27.484375 10.78125 32.3125 
Q 14.796875 37.15625 21.921875 38.8125 
z
M 18.3125 54.390625 
Q 18.3125 48.734375 21.84375 45.5625 
Q 25.390625 42.390625 31.78125 42.390625 
Q 38.140625 42.390625 41.71875 45.5625 
Q 45.3125 48.734375 45.3125 54.390625 
Q 45.3125 60.0625 41.71875 63.234375 
Q 38.140625 66.40625 31.78125 66.40625 
Q 25.390625 66.40625 21.84375 63.234375 
Q 18.3125 60.0625 18.3125 54.390625 
z
" id="DejaVuSans-56"/>
      </defs>
      <g transform="translate(190.228238 636.354789)scale(0.2 -0.2)">
       <use xlink:href="#DejaVuSans-56"/>
      </g>
     </g>
    </g>
   </g>
   <g id="matplotlib.axis_4">
    <g id="ytick_7"/>
    <g id="ytick_8"/>
    <g id="ytick_9"/>
    <g id="ytick_10"/>
    <g id="ytick_11"/>
    <g id="ytick_12"/>
   </g>
   <g id="line2d_1">
    <path clip-path="url(#p33bfae8c79)" d="M 32.182364 571.659598 
L 43.485439 571.554373 
L 44.430788 571.232372 
L 45.376136 570.679658 
L 46.362586 569.842249 
L 47.390138 568.670525 
L 48.458793 567.109483 
L 49.609651 565.015992 
L 50.801612 562.371961 
L 52.075777 558.980729 
L 53.391044 554.834788 
L 54.788515 549.67308 
L 56.268191 543.31343 
L 57.788968 535.769376 
L 59.39195 526.656498 
L 61.077136 515.729613 
L 62.803423 503.038887 
L 66.338204 476.290266 
L 68.681023 460.412617 
L 70.818332 447.414052 
L 72.75013 437.006148 
L 73.202253 434.578177 
L 73.325559 430.6297 
L 74.928541 424.534349 
L 76.408216 419.750319 
L 77.764586 416.100475 
L 78.956546 413.49092 
L 80.066303 411.576574 
L 81.052753 410.300697 
L 81.915897 409.518789 
L 82.696837 409.084312 
L 83.436674 408.914928 
L 85.368473 408.909994 
L 145.952959 409.017767 
L 146.692797 409.36155 
L 147.473736 409.977274 
L 148.33688 410.95604 
L 149.282229 412.38203 
L 150.309781 414.344658 
L 151.46064 417.042977 
L 152.734804 420.632483 
L 154.132276 425.276764 
L 155.653053 431.14427 
L 155.776359 431.656228 
L 155.899666 435.842732 
L 158.119179 447.727379 
L 160.092079 459.694276 
L 162.27049 474.316188 
L 164.695514 492.155087 
L 168.312498 519.078465 
L 170.038786 529.816633 
L 171.723972 538.928226 
L 173.326953 546.400146 
L 174.847731 552.466627 
L 176.286304 557.336924 
L 177.683775 561.303097 
L 178.999042 564.385032 
L 180.232105 566.73306 
L 181.424066 568.533064 
L 182.533822 569.817529 
L 183.602477 570.718459 
L 184.630029 571.292245 
L 185.616479 571.589626 
L 186.644032 571.659614 
L 196.549636 571.659598 
L 196.549636 571.659598 
" style="fill:none;stroke:#ff0000;stroke-linecap:square;stroke-width:3;"/>
   </g>
   <g id="patch_10">
    <path d="M 23.964 614.157914 
L 204.768 614.157914 
" style="fill:none;stroke:#000000;stroke-linecap:square;stroke-linejoin:miter;stroke-width:0.8;"/>
   </g>
  </g>
  <g id="axes_3">
   <g id="patch_11">
    <path d="M 23.964 923.713957 
L 204.768 923.713957 
L 204.768 683.912086 
L 23.964 683.912086 
z
" style="fill:#ffffff;"/>
   </g>
   <g id="patch_12">
    <path clip-path="url(#pc25ec24ecb)" d="M 32.182364 923.713957 
L 53.621573 923.713957 
L 53.621573 872.572078 
L 32.182364 872.572078 
z
" style="fill:url(#h68a514ecb1);stroke:#000000;stroke-linejoin:miter;stroke-width:2;"/>
   </g>
   <g id="patch_13">
    <path clip-path="url(#pc25ec24ecb)" d="M 67.914379 923.713957 
L 89.353589 923.713957 
L 89.353589 923.713957 
L 67.914379 923.713957 
z
" style="fill:url(#h68a514ecb1);stroke:#000000;stroke-linejoin:miter;stroke-width:2;"/>
   </g>
   <g id="patch_14">
    <path clip-path="url(#pc25ec24ecb)" d="M 103.646395 923.713957 
L 125.085605 923.713957 
L 125.085605 923.713957 
L 103.646395 923.713957 
z
" style="fill:url(#h68a514ecb1);stroke:#000000;stroke-linejoin:miter;stroke-width:2;"/>
   </g>
   <g id="patch_15">
    <path clip-path="url(#pc25ec24ecb)" d="M 139.378411 923.713957 
L 160.817621 923.713957 
L 160.817621 778.983714 
L 139.378411 778.983714 
z
" style="fill:url(#h68a514ecb1);stroke:#000000;stroke-linejoin:miter;stroke-width:2;"/>
   </g>
   <g id="patch_16">
    <path clip-path="url(#pc25ec24ecb)" d="M 175.110427 923.713957 
L 196.549636 923.713957 
L 196.549636 832.163457 
L 175.110427 832.163457 
z
" style="fill:url(#h68a514ecb1);stroke:#000000;stroke-linejoin:miter;stroke-width:2;"/>
   </g>
   <g id="matplotlib.axis_5">
    <g id="xtick_8">
     <g id="text_8">
      <!-- RF -->
      <g transform="translate(30.201968 945.910832)scale(0.2 -0.2)">
       <use xlink:href="#DejaVuSans-82"/>
       <use x="69.482422" xlink:href="#DejaVuSans-70"/>
      </g>
     </g>
    </g>
    <g id="xtick_9">
     <g id="text_9">
      <!-- VL -->
      <g transform="translate(66.221484 945.910832)scale(0.2 -0.2)">
       <use xlink:href="#DejaVuSans-86"/>
       <use x="68.408203" xlink:href="#DejaVuSans-76"/>
      </g>
     </g>
    </g>
    <g id="xtick_10">
     <g id="text_10">
      <!-- VM -->
      <g transform="translate(98.89725 945.910832)scale(0.2 -0.2)">
       <use xlink:href="#DejaVuSans-86"/>
       <use x="68.408203" xlink:href="#DejaVuSans-77"/>
      </g>
     </g>
    </g>
    <g id="xtick_11">
     <g id="text_11">
      <!-- ST -->
      <g transform="translate(137.641766 945.910832)scale(0.2 -0.2)">
       <use xlink:href="#DejaVuSans-83"/>
       <use x="63.476562" xlink:href="#DejaVuSans-84"/>
      </g>
     </g>
    </g>
    <g id="xtick_12">
     <g id="text_12">
      <!-- BF -->
      <g transform="translate(173.217532 945.910832)scale(0.2 -0.2)">
       <use xlink:href="#DejaVuSans-66"/>
       <use x="68.603516" xlink:href="#DejaVuSans-70"/>
      </g>
     </g>
    </g>
   </g>
   <g id="matplotlib.axis_6">
    <g id="ytick_13"/>
    <g id="ytick_14"/>
    <g id="ytick_15"/>
    <g id="ytick_16"/>
    <g id="ytick_17"/>
   </g>
   <g id="patch_17">
    <path d="M 23.964 923.713957 
L 204.768 923.713957 
" style="fill:none;stroke:#000000;stroke-linecap:square;stroke-linejoin:miter;stroke-width:0.8;"/>
   </g>
  </g>
  <g id="axes_4">
   <g id="patch_18">
    <path d="M 23.964 1233.27 
L 204.768 1233.27 
L 204.768 993.468128 
L 23.964 993.468128 
z
" style="fill:#ffffff;"/>
   </g>
   <g id="matplotlib.axis_7">
    <g id="xtick_13">
     <g id="text_13">
      <!-- 0 -->
      <g transform="translate(25.819864 1255.466875)scale(0.2 -0.2)">
       <use xlink:href="#DejaVuSans-48"/>
      </g>
     </g>
    </g>
    <g id="xtick_14">
     <g id="text_14">
      <!-- 8 -->
      <g transform="translate(190.228238 1255.466875)scale(0.2 -0.2)">
       <use xlink:href="#DejaVuSans-56"/>
      </g>
     </g>
    </g>
   </g>
   <g id="matplotlib.axis_8">
    <g id="ytick_18"/>
    <g id="ytick_19"/>
    <g id="ytick_20"/>
   </g>
   <g id="line2d_2">
    <path clip-path="url(#p1f097e7726)" d="M 32.182364 1089.725256 
L 43.732052 1089.617226 
L 45.704952 1089.206969 
L 48.540997 1088.630718 
L 49.856264 1088.604074 
L 50.924918 1088.797392 
L 51.911369 1089.203307 
L 52.856717 1089.844243 
L 53.760963 1090.729982 
L 54.706311 1091.98534 
L 55.651659 1093.623586 
L 56.638109 1095.792837 
L 57.665662 1098.610121 
L 58.734316 1102.210096 
L 59.844073 1106.746456 
L 60.994931 1112.393318 
L 62.227994 1119.607614 
L 63.584363 1128.985045 
L 68.845431 1167.876484 
L 73.161151 1199.305597 
L 73.202253 1201.010412 
L 73.325559 1233.27 
L 155.776359 1233.27 
L 155.899666 1198.906202 
L 156.680605 1193.38799 
L 160.133181 1168.552798 
L 166.873925 1119.871911 
L 168.189192 1112.33157 
L 169.463357 1106.299855 
L 170.655317 1101.685252 
L 171.806176 1098.079444 
L 172.915932 1095.310453 
L 173.984587 1093.227754 
L 175.012139 1091.700774 
L 175.99859 1090.617312 
L 176.98504 1089.855963 
L 177.97149 1089.366213 
L 179.040144 1089.085291 
L 180.232105 1089.006492 
L 181.752883 1089.14317 
L 186.438521 1089.726444 
L 196.549636 1089.725256 
L 196.549636 1089.725256 
" style="fill:none;stroke:#ff0000;stroke-linecap:square;stroke-width:3;"/>
   </g>
   <g id="patch_19">
    <path d="M 23.964 1233.27 
L 204.768 1233.27 
" style="fill:none;stroke:#000000;stroke-linecap:square;stroke-linejoin:miter;stroke-width:0.8;"/>
   </g>
  </g>
 </g>
 <defs>
  <clipPath id="p1b81474594">
   <rect height="239.801872" width="180.804" x="23.964" y="64.8"/>
  </clipPath>
  <clipPath id="p33bfae8c79">
   <rect height="239.801872" width="180.804" x="23.964" y="374.356043"/>
  </clipPath>
  <clipPath id="pc25ec24ecb">
   <rect height="239.801872" width="180.804" x="23.964" y="683.912086"/>
  </clipPath>
  <clipPath id="p1f097e7726">
   <rect height="239.801872" width="180.804" x="23.964" y="993.468128"/>
  </clipPath>
 </defs>
 <defs>
  <pattern height="72" id="h68a514ecb1" patternUnits="userSpaceOnUse" width="72" x="0" y="0">
   <rect fill="#ff0000" height="73" width="73" x="0" y="0"/>
   <path d="M -36 36 
L 36 -36 
M -30 42 
L 42 -30 
M -24 48 
L 48 -24 
M -18 54 
L 54 -18 
M -12 60 
L 60 -12 
M -6 66 
L 66 -6 
M 0 72 
L 72 0 
M 6 78 
L 78 6 
M 12 84 
L 84 12 
M 18 90 
L 90 18 
M 24 96 
L 96 24 
M 30 102 
L 102 30 
M 36 108 
L 108 36 
" style="fill:#000000;stroke:#000000;stroke-linecap:butt;stroke-linejoin:miter;stroke-width:1.0;"/>
  </pattern>
 </defs>
</svg>
