<?xml version="1.0" encoding="utf-8" standalone="no"?>
<!DOCTYPE svg PUBLIC "-//W3C//DTD SVG 1.1//EN"
  "http://www.w3.org/Graphics/SVG/1.1/DTD/svg11.dtd">
<!-- Created with matplotlib (https://matplotlib.org/) -->
<svg height="1296pt" version="1.1" viewBox="0 0 216 1296" width="216pt" xmlns="http://www.w3.org/2000/svg" xmlns:xlink="http://www.w3.org/1999/xlink">
 <defs>
  <style type="text/css">
*{stroke-linecap:butt;stroke-linejoin:round;white-space:pre;}
  </style>
 </defs>
 <g id="figure_1">
  <g id="patch_1">
   <path d="M 0 1296 
L 216 1296 
L 216 0 
L 0 0 
z
" style="fill:#ffffff;"/>
  </g>
  <g id="axes_1">
   <g id="patch_2">
    <path d="M 23.964 304.601872 
L 204.768 304.601872 
L 204.768 64.8 
L 23.964 64.8 
z
" style="fill:#ffffff;"/>
   </g>
   <g id="patch_3">
    <path clip-path="url(#p8265cb15fb)" d="M 32.182364 304.601872 
L 53.621573 304.601872 
L 53.621573 79.186088 
L 32.182364 79.186088 
z
" style="fill:url(#h297ff2db1e);stroke:#000000;stroke-linejoin:miter;stroke-width:2;"/>
   </g>
   <g id="patch_4">
    <path clip-path="url(#p8265cb15fb)" d="M 67.914379 304.601872 
L 89.353589 304.601872 
L 89.353589 81.338549 
L 67.914379 81.338549 
z
" style="fill:url(#h297ff2db1e);stroke:#000000;stroke-linejoin:miter;stroke-width:2;"/>
   </g>
   <g id="patch_5">
    <path clip-path="url(#p8265cb15fb)" d="M 103.646395 304.601872 
L 125.085605 304.601872 
L 125.085605 81.338549 
L 103.646395 81.338549 
z
" style="fill:url(#h297ff2db1e);stroke:#000000;stroke-linejoin:miter;stroke-width:2;"/>
   </g>
   <g id="patch_6">
    <path clip-path="url(#p8265cb15fb)" d="M 139.378411 304.601872 
L 160.817621 304.601872 
L 160.817621 80.056036 
L 139.378411 80.056036 
z
" style="fill:url(#h297ff2db1e);stroke:#000000;stroke-linejoin:miter;stroke-width:2;"/>
   </g>
   <g id="patch_7">
    <path clip-path="url(#p8265cb15fb)" d="M 175.110427 304.601872 
L 196.549636 304.601872 
L 196.549636 80.536473 
L 175.110427 80.536473 
z
" style="fill:url(#h297ff2db1e);stroke:#000000;stroke-linejoin:miter;stroke-width:2;"/>
   </g>
   <g id="matplotlib.axis_1">
    <g id="xtick_1">
     <g id="text_1">
      <!-- RF -->
      <defs>
       <path d="M 44.390625 34.1875 
Q 47.5625 33.109375 50.5625 29.59375 
Q 53.5625 26.078125 56.59375 19.921875 
L 66.609375 0 
L 56 0 
L 46.6875 18.703125 
Q 43.0625 26.03125 39.671875 28.421875 
Q 36.28125 30.8125 30.421875 30.8125 
L 19.671875 30.8125 
L 19.671875 0 
L 9.8125 0 
L 9.8125 72.90625 
L 32.078125 72.90625 
Q 44.578125 72.90625 50.734375 67.671875 
Q 56.890625 62.453125 56.890625 51.90625 
Q 56.890625 45.015625 53.6875 40.46875 
Q 50.484375 35.9375 44.390625 34.1875 
z
M 19.671875 64.796875 
L 19.671875 38.921875 
L 32.078125 38.921875 
Q 39.203125 38.921875 42.84375 42.21875 
Q 46.484375 45.515625 46.484375 51.90625 
Q 46.484375 58.296875 42.84375 61.546875 
Q 39.203125 64.796875 32.078125 64.796875 
z
" id="DejaVuSans-82"/>
       <path d="M 9.8125 72.90625 
L 51.703125 72.90625 
L 51.703125 64.59375 
L 19.671875 64.59375 
L 19.671875 43.109375 
L 48.578125 43.109375 
L 48.578125 34.8125 
L 19.671875 34.8125 
L 19.671875 0 
L 9.8125 0 
z
" id="DejaVuSans-70"/>
      </defs>
      <g transform="translate(30.201968 326.798747)scale(0.2 -0.2)">
       <use xlink:href="#DejaVuSans-82"/>
       <use x="69.482422" xlink:href="#DejaVuSans-70"/>
      </g>
     </g>
    </g>
    <g id="xtick_2">
     <g id="text_2">
      <!-- VL -->
      <defs>
       <path d="M 28.609375 0 
L 0.78125 72.90625 
L 11.078125 72.90625 
L 34.1875 11.53125 
L 57.328125 72.90625 
L 67.578125 72.90625 
L 39.796875 0 
z
" id="DejaVuSans-86"/>
       <path d="M 9.8125 72.90625 
L 19.671875 72.90625 
L 19.671875 8.296875 
L 55.171875 8.296875 
L 55.171875 0 
L 9.8125 0 
z
" id="DejaVuSans-76"/>
      </defs>
      <g transform="translate(66.221484 326.798747)scale(0.2 -0.2)">
       <use xlink:href="#DejaVuSans-86"/>
       <use x="68.408203" xlink:href="#DejaVuSans-76"/>
      </g>
     </g>
    </g>
    <g id="xtick_3">
     <g id="text_3">
      <!-- VM -->
      <defs>
       <path d="M 9.8125 72.90625 
L 24.515625 72.90625 
L 43.109375 23.296875 
L 61.8125 72.90625 
L 76.515625 72.90625 
L 76.515625 0 
L 66.890625 0 
L 66.890625 64.015625 
L 48.09375 14.015625 
L 38.1875 14.015625 
L 19.390625 64.015625 
L 19.390625 0 
L 9.8125 0 
z
" id="DejaVuSans-77"/>
      </defs>
      <g transform="translate(98.89725 326.798747)scale(0.2 -0.2)">
       <use xlink:href="#DejaVuSans-86"/>
       <use x="68.408203" xlink:href="#DejaVuSans-77"/>
      </g>
     </g>
    </g>
    <g id="xtick_4">
     <g id="text_4">
      <!-- ST -->
      <defs>
       <path d="M 53.515625 70.515625 
L 53.515625 60.890625 
Q 47.90625 63.578125 42.921875 64.890625 
Q 37.9375 66.21875 33.296875 66.21875 
Q 25.25 66.21875 20.875 63.09375 
Q 16.5 59.96875 16.5 54.203125 
Q 16.5 49.359375 19.40625 46.890625 
Q 22.3125 44.4375 30.421875 42.921875 
L 36.375 41.703125 
Q 47.40625 39.59375 52.65625 34.296875 
Q 57.90625 29 57.90625 20.125 
Q 57.90625 9.515625 50.796875 4.046875 
Q 43.703125 -1.421875 29.984375 -1.421875 
Q 24.8125 -1.421875 18.96875 -0.25 
Q 13.140625 0.921875 6.890625 3.21875 
L 6.890625 13.375 
Q 12.890625 10.015625 18.65625 8.296875 
Q 24.421875 6.59375 29.984375 6.59375 
Q 38.421875 6.59375 43.015625 9.90625 
Q 47.609375 13.234375 47.609375 19.390625 
Q 47.609375 24.75 44.3125 27.78125 
Q 41.015625 30.8125 33.5 32.328125 
L 27.484375 33.5 
Q 16.453125 35.6875 11.515625 40.375 
Q 6.59375 45.0625 6.59375 53.421875 
Q 6.59375 63.09375 13.40625 68.65625 
Q 20.21875 74.21875 32.171875 74.21875 
Q 37.3125 74.21875 42.625 73.28125 
Q 47.953125 72.359375 53.515625 70.515625 
z
" id="DejaVuSans-83"/>
       <path d="M -0.296875 72.90625 
L 61.375 72.90625 
L 61.375 64.59375 
L 35.5 64.59375 
L 35.5 0 
L 25.59375 0 
L 25.59375 64.59375 
L -0.296875 64.59375 
z
" id="DejaVuSans-84"/>
      </defs>
      <g transform="translate(137.641766 326.798747)scale(0.2 -0.2)">
       <use xlink:href="#DejaVuSans-83"/>
       <use x="63.476562" xlink:href="#DejaVuSans-84"/>
      </g>
     </g>
    </g>
    <g id="xtick_5">
     <g id="text_5">
      <!-- BF -->
      <defs>
       <path d="M 19.671875 34.8125 
L 19.671875 8.109375 
L 35.5 8.109375 
Q 43.453125 8.109375 47.28125 11.40625 
Q 51.125 14.703125 51.125 21.484375 
Q 51.125 28.328125 47.28125 31.5625 
Q 43.453125 34.8125 35.5 34.8125 
z
M 19.671875 64.796875 
L 19.671875 42.828125 
L 34.28125 42.828125 
Q 41.5 42.828125 45.03125 45.53125 
Q 48.578125 48.25 48.578125 53.8125 
Q 48.578125 59.328125 45.03125 62.0625 
Q 41.5 64.796875 34.28125 64.796875 
z
M 9.8125 72.90625 
L 35.015625 72.90625 
Q 46.296875 72.90625 52.390625 68.21875 
Q 58.5 63.53125 58.5 54.890625 
Q 58.5 48.1875 55.375 44.234375 
Q 52.25 40.28125 46.1875 39.3125 
Q 53.46875 37.75 57.5 32.78125 
Q 61.53125 27.828125 61.53125 20.40625 
Q 61.53125 10.640625 54.890625 5.3125 
Q 48.25 0 35.984375 0 
L 9.8125 0 
z
" id="DejaVuSans-66"/>
      </defs>
      <g transform="translate(173.217532 326.798747)scale(0.2 -0.2)">
       <use xlink:href="#DejaVuSans-66"/>
       <use x="68.603516" xlink:href="#DejaVuSans-70"/>
      </g>
     </g>
    </g>
   </g>
   <g id="matplotlib.axis_2">
    <g id="ytick_1"/>
    <g id="ytick_2"/>
    <g id="ytick_3"/>
    <g id="ytick_4"/>
    <g id="ytick_5"/>
    <g id="ytick_6"/>
   </g>
   <g id="patch_8">
    <path d="M 23.964 304.601872 
L 204.768 304.601872 
" style="fill:none;stroke:#000000;stroke-linecap:square;stroke-linejoin:miter;stroke-width:0.8;"/>
   </g>
  </g>
  <g id="axes_2">
   <g id="patch_9">
    <path d="M 23.964 614.157914 
L 204.768 614.157914 
L 204.768 374.356043 
L 23.964 374.356043 
z
" style="fill:#ffffff;"/>
   </g>
   <g id="matplotlib.axis_3">
    <g id="xtick_6">
     <g id="text_6">
      <!-- 0 -->
      <defs>
       <path d="M 31.78125 66.40625 
Q 24.171875 66.40625 20.328125 58.90625 
Q 16.5 51.421875 16.5 36.375 
Q 16.5 21.390625 20.328125 13.890625 
Q 24.171875 6.390625 31.78125 6.390625 
Q 39.453125 6.390625 43.28125 13.890625 
Q 47.125 21.390625 47.125 36.375 
Q 47.125 51.421875 43.28125 58.90625 
Q 39.453125 66.40625 31.78125 66.40625 
z
M 31.78125 74.21875 
Q 44.046875 74.21875 50.515625 64.515625 
Q 56.984375 54.828125 56.984375 36.375 
Q 56.984375 17.96875 50.515625 8.265625 
Q 44.046875 -1.421875 31.78125 -1.421875 
Q 19.53125 -1.421875 13.0625 8.265625 
Q 6.59375 17.96875 6.59375 36.375 
Q 6.59375 54.828125 13.0625 64.515625 
Q 19.53125 74.21875 31.78125 74.21875 
z
" id="DejaVuSans-48"/>
      </defs>
      <g transform="translate(25.819864 636.354789)scale(0.2 -0.2)">
       <use xlink:href="#DejaVuSans-48"/>
      </g>
     </g>
    </g>
    <g id="xtick_7">
     <g id="text_7">
      <!-- 8 -->
      <defs>
       <path d="M 31.78125 34.625 
Q 24.75 34.625 20.71875 30.859375 
Q 16.703125 27.09375 16.703125 20.515625 
Q 16.703125 13.921875 20.71875 10.15625 
Q 24.75 6.390625 31.78125 6.390625 
Q 38.8125 6.390625 42.859375 10.171875 
Q 46.921875 13.96875 46.921875 20.515625 
Q 46.921875 27.09375 42.890625 30.859375 
Q 38.875 34.625 31.78125 34.625 
z
M 21.921875 38.8125 
Q 15.578125 40.375 12.03125 44.71875 
Q 8.5 49.078125 8.5 55.328125 
Q 8.5 64.0625 14.71875 69.140625 
Q 20.953125 74.21875 31.78125 74.21875 
Q 42.671875 74.21875 48.875 69.140625 
Q 55.078125 64.0625 55.078125 55.328125 
Q 55.078125 49.078125 51.53125 44.71875 
Q 48 40.375 41.703125 38.8125 
Q 48.828125 37.15625 52.796875 32.3125 
Q 56.78125 27.484375 56.78125 20.515625 
Q 56.78125 9.90625 50.3125 4.234375 
Q 43.84375 -1.421875 31.78125 -1.421875 
Q 19.734375 -1.421875 13.25 4.234375 
Q 6.78125 9.90625 6.78125 20.515625 
Q 6.78125 27.484375 10.78125 32.3125 
Q 14.796875 37.15625 21.921875 38.8125 
z
M 18.3125 54.390625 
Q 18.3125 48.734375 21.84375 45.5625 
Q 25.390625 42.390625 31.78125 42.390625 
Q 38.140625 42.390625 41.71875 45.5625 
Q 45.3125 48.734375 45.3125 54.390625 
Q 45.3125 60.0625 41.71875 63.234375 
Q 38.140625 66.40625 31.78125 66.40625 
Q 25.390625 66.40625 21.84375 63.234375 
Q 18.3125 60.0625 18.3125 54.390625 
z
" id="DejaVuSans-56"/>
      </defs>
      <g transform="translate(190.228238 636.354789)scale(0.2 -0.2)">
       <use xlink:href="#DejaVuSans-56"/>
      </g>
     </g>
    </g>
   </g>
   <g id="matplotlib.axis_4">
    <g id="ytick_7"/>
    <g id="ytick_8"/>
    <g id="ytick_9"/>
    <g id="ytick_10"/>
    <g id="ytick_11"/>
    <g id="ytick_12"/>
   </g>
   <g id="line2d_1">
    <path clip-path="url(#pc4692f5c9d)" d="M 32.182364 572.399697 
L 43.485439 572.293948 
L 44.430788 571.970276 
L 45.376136 571.414559 
L 46.362586 570.572417 
L 47.390138 569.393859 
L 48.458793 567.823503 
L 49.609651 565.717337 
L 50.801612 563.057193 
L 52.075777 559.64533 
L 53.391044 555.474401 
L 54.788515 550.282091 
L 56.268191 543.88561 
L 57.788968 536.299117 
L 59.39195 527.136675 
L 61.077136 516.152551 
L 62.803423 503.397903 
L 66.338204 476.51859 
L 68.681023 460.565422 
L 70.77723 447.746245 
L 72.709028 437.271774 
L 72.996743 435.811671 
L 73.120049 431.355025 
L 74.764133 425.022821 
L 76.243808 420.169595 
L 77.600177 416.450024 
L 78.83324 413.692096 
L 79.942997 411.730552 
L 80.929447 410.409826 
L 81.833693 409.555098 
L 82.655735 409.078064 
L 83.395572 408.896255 
L 84.91635 408.888159 
L 145.952959 408.995506 
L 146.692797 409.337887 
L 147.473736 409.951066 
L 148.33688 410.925732 
L 149.282229 412.34566 
L 150.309781 414.299822 
L 151.46064 416.986329 
L 152.734804 420.559896 
L 154.132276 425.183272 
L 155.653053 431.024046 
L 155.940768 432.221416 
L 156.064074 436.733065 
L 157.995872 447.12305 
L 159.968773 459.06277 
L 162.147184 473.673885 
L 164.572207 491.520734 
L 168.435804 520.345722 
L 170.162092 531.035771 
L 171.847278 540.099828 
L 173.45026 547.525968 
L 174.971037 553.54845 
L 176.40961 558.376577 
L 177.76598 562.196211 
L 179.081247 565.257872 
L 180.314309 567.585605 
L 181.465168 569.310978 
L 182.574925 570.588999 
L 183.643579 571.482419 
L 184.630029 572.030645 
L 185.616479 572.329438 
L 186.644032 572.399713 
L 196.549636 572.399697 
L 196.549636 572.399697 
" style="fill:none;stroke:#ff0000;stroke-linecap:square;stroke-width:3;"/>
   </g>
   <g id="patch_10">
    <path d="M 23.964 614.157914 
L 204.768 614.157914 
" style="fill:none;stroke:#000000;stroke-linecap:square;stroke-linejoin:miter;stroke-width:0.8;"/>
   </g>
  </g>
  <g id="axes_3">
   <g id="patch_11">
    <path d="M 23.964 923.713957 
L 204.768 923.713957 
L 204.768 683.912086 
L 23.964 683.912086 
z
" style="fill:#ffffff;"/>
   </g>
   <g id="patch_12">
    <path clip-path="url(#p2a2509c91d)" d="M 32.182364 923.713957 
L 53.621573 923.713957 
L 53.621573 875.289459 
L 32.182364 875.289459 
z
" style="fill:url(#h297ff2db1e);stroke:#000000;stroke-linejoin:miter;stroke-width:2;"/>
   </g>
   <g id="patch_13">
    <path clip-path="url(#p2a2509c91d)" d="M 67.914379 923.713957 
L 89.353589 923.713957 
L 89.353589 923.713957 
L 67.914379 923.713957 
z
" style="fill:url(#h297ff2db1e);stroke:#000000;stroke-linejoin:miter;stroke-width:2;"/>
   </g>
   <g id="patch_14">
    <path clip-path="url(#p2a2509c91d)" d="M 103.646395 923.713957 
L 125.085605 923.713957 
L 125.085605 923.713957 
L 103.646395 923.713957 
z
" style="fill:url(#h297ff2db1e);stroke:#000000;stroke-linejoin:miter;stroke-width:2;"/>
   </g>
   <g id="patch_15">
    <path clip-path="url(#p2a2509c91d)" d="M 139.378411 923.713957 
L 160.817621 923.713957 
L 160.817621 768.997361 
L 139.378411 768.997361 
z
" style="fill:url(#h297ff2db1e);stroke:#000000;stroke-linejoin:miter;stroke-width:2;"/>
   </g>
   <g id="patch_16">
    <path clip-path="url(#p2a2509c91d)" d="M 175.110427 923.713957 
L 196.549636 923.713957 
L 196.549636 826.249101 
L 175.110427 826.249101 
z
" style="fill:url(#h297ff2db1e);stroke:#000000;stroke-linejoin:miter;stroke-width:2;"/>
   </g>
   <g id="matplotlib.axis_5">
    <g id="xtick_8">
     <g id="text_8">
      <!-- RF -->
      <g transform="translate(30.201968 945.910832)scale(0.2 -0.2)">
       <use xlink:href="#DejaVuSans-82"/>
       <use x="69.482422" xlink:href="#DejaVuSans-70"/>
      </g>
     </g>
    </g>
    <g id="xtick_9">
     <g id="text_9">
      <!-- VL -->
      <g transform="translate(66.221484 945.910832)scale(0.2 -0.2)">
       <use xlink:href="#DejaVuSans-86"/>
       <use x="68.408203" xlink:href="#DejaVuSans-76"/>
      </g>
     </g>
    </g>
    <g id="xtick_10">
     <g id="text_10">
      <!-- VM -->
      <g transform="translate(98.89725 945.910832)scale(0.2 -0.2)">
       <use xlink:href="#DejaVuSans-86"/>
       <use x="68.408203" xlink:href="#DejaVuSans-77"/>
      </g>
     </g>
    </g>
    <g id="xtick_11">
     <g id="text_11">
      <!-- ST -->
      <g transform="translate(137.641766 945.910832)scale(0.2 -0.2)">
       <use xlink:href="#DejaVuSans-83"/>
       <use x="63.476562" xlink:href="#DejaVuSans-84"/>
      </g>
     </g>
    </g>
    <g id="xtick_12">
     <g id="text_12">
      <!-- BF -->
      <g transform="translate(173.217532 945.910832)scale(0.2 -0.2)">
       <use xlink:href="#DejaVuSans-66"/>
       <use x="68.603516" xlink:href="#DejaVuSans-70"/>
      </g>
     </g>
    </g>
   </g>
   <g id="matplotlib.axis_6">
    <g id="ytick_13"/>
    <g id="ytick_14"/>
    <g id="ytick_15"/>
    <g id="ytick_16"/>
    <g id="ytick_17"/>
   </g>
   <g id="patch_17">
    <path d="M 23.964 923.713957 
L 204.768 923.713957 
" style="fill:none;stroke:#000000;stroke-linecap:square;stroke-linejoin:miter;stroke-width:0.8;"/>
   </g>
  </g>
  <g id="axes_4">
   <g id="patch_18">
    <path d="M 23.964 1233.27 
L 204.768 1233.27 
L 204.768 993.468128 
L 23.964 993.468128 
z
" style="fill:#ffffff;"/>
   </g>
   <g id="matplotlib.axis_7">
    <g id="xtick_13">
     <g id="text_13">
      <!-- 0 -->
      <g transform="translate(25.819864 1255.466875)scale(0.2 -0.2)">
       <use xlink:href="#DejaVuSans-48"/>
      </g>
     </g>
    </g>
    <g id="xtick_14">
     <g id="text_14">
      <!-- 8 -->
      <g transform="translate(190.228238 1255.466875)scale(0.2 -0.2)">
       <use xlink:href="#DejaVuSans-56"/>
      </g>
     </g>
    </g>
   </g>
   <g id="matplotlib.axis_8">
    <g id="ytick_18"/>
    <g id="ytick_19"/>
    <g id="ytick_20"/>
   </g>
   <g id="line2d_2">
    <path clip-path="url(#p78aa0e2479)" d="M 32.182364 1083.093783 
L 43.89646 1082.983484 
L 48.623201 1082.481905 
L 49.815162 1082.675314 
L 50.842714 1083.063322 
L 51.829164 1083.679593 
L 52.774513 1084.538963 
L 53.719861 1085.705022 
L 54.706311 1087.296302 
L 55.692761 1089.320211 
L 56.720314 1091.944119 
L 57.788968 1095.293717 
L 58.898725 1099.512748 
L 60.090685 1104.969458 
L 61.323748 1111.719449 
L 62.597913 1119.983156 
L 64.406405 1133.509882 
L 72.54462 1194.668087 
L 72.996743 1197.972571 
L 73.120049 1233.27 
L 155.940768 1233.27 
L 156.064074 1197.558523 
L 164.81882 1132.469959 
L 167.120537 1115.91664 
L 168.476906 1107.97322 
L 169.751071 1101.77694 
L 170.984134 1096.839893 
L 172.176095 1092.961032 
L 173.326953 1089.962437 
L 174.395608 1087.762236 
L 175.464262 1086.058132 
L 176.491815 1084.828046 
L 177.519367 1083.942122 
L 178.546919 1083.346126 
L 179.615574 1082.977183 
L 180.848637 1082.795443 
L 182.369414 1082.811496 
L 188.082605 1083.093781 
L 196.549636 1083.093783 
L 196.549636 1083.093783 
" style="fill:none;stroke:#ff0000;stroke-linecap:square;stroke-width:3;"/>
   </g>
   <g id="patch_19">
    <path d="M 23.964 1233.27 
L 204.768 1233.27 
" style="fill:none;stroke:#000000;stroke-linecap:square;stroke-linejoin:miter;stroke-width:0.8;"/>
   </g>
  </g>
 </g>
 <defs>
  <clipPath id="p8265cb15fb">
   <rect height="239.801872" width="180.804" x="23.964" y="64.8"/>
  </clipPath>
  <clipPath id="pc4692f5c9d">
   <rect height="239.801872" width="180.804" x="23.964" y="374.356043"/>
  </clipPath>
  <clipPath id="p2a2509c91d">
   <rect height="239.801872" width="180.804" x="23.964" y="683.912086"/>
  </clipPath>
  <clipPath id="p78aa0e2479">
   <rect height="239.801872" width="180.804" x="23.964" y="993.468128"/>
  </clipPath>
 </defs>
 <defs>
  <pattern height="72" id="h297ff2db1e" patternUnits="userSpaceOnUse" width="72" x="0" y="0">
   <rect fill="#ff0000" height="73" width="73" x="0" y="0"/>
   <path d="M -36 36 
L 36 -36 
M -30 42 
L 42 -30 
M -24 48 
L 48 -24 
M -18 54 
L 54 -18 
M -12 60 
L 60 -12 
M -6 66 
L 66 -6 
M 0 72 
L 72 0 
M 6 78 
L 78 6 
M 12 84 
L 84 12 
M 18 90 
L 90 18 
M 24 96 
L 96 24 
M 30 102 
L 102 30 
M 36 108 
L 108 36 
" style="fill:#000000;stroke:#000000;stroke-linecap:butt;stroke-linejoin:miter;stroke-width:1.0;"/>
  </pattern>
 </defs>
</svg>
