<?xml version="1.0" encoding="utf-8" standalone="no"?>
<!DOCTYPE svg PUBLIC "-//W3C//DTD SVG 1.1//EN"
  "http://www.w3.org/Graphics/SVG/1.1/DTD/svg11.dtd">
<!-- Created with matplotlib (https://matplotlib.org/) -->
<svg height="576pt" version="1.1" viewBox="0 0 360 576" width="360pt" xmlns="http://www.w3.org/2000/svg" xmlns:xlink="http://www.w3.org/1999/xlink">
 <defs>
  <style type="text/css">
*{stroke-linecap:butt;stroke-linejoin:round;white-space:pre;}
  </style>
 </defs>
 <g id="figure_1">
  <g id="patch_1">
   <path d="M 0 576 
L 360 576 
L 360 0 
L 0 0 
z
" style="fill:#ffffff;"/>
  </g>
  <g id="axes_1">
   <g id="patch_2">
    <path d="M 45 145.588966 
L 324 145.588966 
L 324 69.12 
L 45 69.12 
z
" style="fill:#ffffff;"/>
   </g>
   <g id="matplotlib.axis_1">
    <g id="xtick_1"/>
    <g id="xtick_2"/>
    <g id="xtick_3"/>
   </g>
   <g id="matplotlib.axis_2">
    <g id="ytick_1">
     <g id="text_1">
      <!-- 25 -->
      <defs>
       <path d="M 19.1875 8.296875 
L 53.609375 8.296875 
L 53.609375 0 
L 7.328125 0 
L 7.328125 8.296875 
Q 12.9375 14.109375 22.625 23.890625 
Q 32.328125 33.6875 34.8125 36.53125 
Q 39.546875 41.84375 41.421875 45.53125 
Q 43.3125 49.21875 43.3125 52.78125 
Q 43.3125 58.59375 39.234375 62.25 
Q 35.15625 65.921875 28.609375 65.921875 
Q 23.96875 65.921875 18.8125 64.3125 
Q 13.671875 62.703125 7.8125 59.421875 
L 7.8125 69.390625 
Q 13.765625 71.78125 18.9375 73 
Q 24.125 74.21875 28.421875 74.21875 
Q 39.75 74.21875 46.484375 68.546875 
Q 53.21875 62.890625 53.21875 53.421875 
Q 53.21875 48.921875 51.53125 44.890625 
Q 49.859375 40.875 45.40625 35.40625 
Q 44.1875 33.984375 37.640625 27.21875 
Q 31.109375 20.453125 19.1875 8.296875 
z
" id="DejaVuSans-50"/>
       <path d="M 10.796875 72.90625 
L 49.515625 72.90625 
L 49.515625 64.59375 
L 19.828125 64.59375 
L 19.828125 46.734375 
Q 21.96875 47.46875 24.109375 47.828125 
Q 26.265625 48.1875 28.421875 48.1875 
Q 40.625 48.1875 47.75 41.5 
Q 54.890625 34.8125 54.890625 23.390625 
Q 54.890625 11.625 47.5625 5.09375 
Q 40.234375 -1.421875 26.90625 -1.421875 
Q 22.3125 -1.421875 17.546875 -0.640625 
Q 12.796875 0.140625 7.71875 1.703125 
L 7.71875 11.625 
Q 12.109375 9.234375 16.796875 8.0625 
Q 21.484375 6.890625 26.703125 6.890625 
Q 35.15625 6.890625 40.078125 11.328125 
Q 45.015625 15.765625 45.015625 23.390625 
Q 45.015625 31 40.078125 35.4375 
Q 35.15625 39.890625 26.703125 39.890625 
Q 22.75 39.890625 18.8125 39.015625 
Q 14.890625 38.140625 10.796875 36.28125 
z
" id="DejaVuSans-53"/>
      </defs>
      <g transform="translate(12.55 125.820027)scale(0.2 -0.2)">
       <use xlink:href="#DejaVuSans-50"/>
       <use x="63.623047" xlink:href="#DejaVuSans-53"/>
      </g>
     </g>
    </g>
    <g id="ytick_2">
     <g id="text_2">
      <!-- 50 -->
      <defs>
       <path d="M 31.78125 66.40625 
Q 24.171875 66.40625 20.328125 58.90625 
Q 16.5 51.421875 16.5 36.375 
Q 16.5 21.390625 20.328125 13.890625 
Q 24.171875 6.390625 31.78125 6.390625 
Q 39.453125 6.390625 43.28125 13.890625 
Q 47.125 21.390625 47.125 36.375 
Q 47.125 51.421875 43.28125 58.90625 
Q 39.453125 66.40625 31.78125 66.40625 
z
M 31.78125 74.21875 
Q 44.046875 74.21875 50.515625 64.515625 
Q 56.984375 54.828125 56.984375 36.375 
Q 56.984375 17.96875 50.515625 8.265625 
Q 44.046875 -1.421875 31.78125 -1.421875 
Q 19.53125 -1.421875 13.0625 8.265625 
Q 6.59375 17.96875 6.59375 36.375 
Q 6.59375 54.828125 13.0625 64.515625 
Q 19.53125 74.21875 31.78125 74.21875 
z
" id="DejaVuSans-48"/>
      </defs>
      <g transform="translate(12.55 78.163021)scale(0.2 -0.2)">
       <use xlink:href="#DejaVuSans-53"/>
       <use x="63.623047" xlink:href="#DejaVuSans-48"/>
      </g>
     </g>
    </g>
   </g>
   <g id="line2d_1">
    <path clip-path="url(#pc81a7afd09)" d="M 57.681818 142.112897 
L 75.504228 142.003497 
L 77.343552 141.679076 
L 79.182875 141.129671 
L 81.022199 140.347217 
L 82.861522 139.32559 
L 84.764271 138.012486 
L 86.730444 136.378831 
L 88.760042 134.39604 
L 90.853066 132.03627 
L 93.072939 129.18627 
L 95.356237 125.886239 
L 97.766385 122.003848 
L 100.303383 117.483266 
L 102.96723 112.269125 
L 105.884778 106.046856 
L 108.802326 100.017925 
L 111.529598 94.889955 
L 114.066596 90.583573 
L 116.476744 86.919409 
L 118.760042 83.837816 
L 120.979915 81.207239 
L 123.136364 78.995985 
L 125.165962 77.222256 
L 127.19556 75.743218 
L 129.161734 74.587414 
L 131.064482 73.724248 
L 132.96723 73.107832 
L 134.806554 72.742183 
L 136.645877 72.598515 
L 143.495772 72.596266 
L 233.876321 72.70056 
L 235.715645 73.02579 
L 237.554968 73.575766 
L 239.394292 74.354563 
L 241.29704 75.405139 
L 243.199789 76.708716 
L 245.165962 78.32527 
L 247.19556 80.28466 
L 249.288584 82.617195 
L 251.445032 85.353033 
L 253.72833 88.617106 
L 256.075053 92.361696 
L 258.548626 96.727724 
L 261.212474 101.893619 
L 264.066596 107.929996 
L 266.920719 113.871012 
L 269.647992 119.045252 
L 272.248414 123.508844 
L 274.721987 127.319035 
L 277.06871 130.533762 
L 279.288584 133.211157 
L 281.445032 135.470585 
L 283.538055 137.340662 
L 285.504228 138.808417 
L 287.470402 139.998772 
L 289.37315 140.890851 
L 291.275899 141.533449 
L 293.178647 141.934746 
L 295.081395 142.105098 
L 299.140592 142.112897 
L 311.318182 142.112897 
L 311.318182 142.112897 
" style="fill:none;stroke:#000000;stroke-linecap:square;stroke-width:4;"/>
   </g>
   <g id="patch_3">
    <path d="M 45 145.588966 
L 45 69.12 
" style="fill:none;stroke:#000000;stroke-linecap:square;stroke-linejoin:miter;stroke-width:0.8;"/>
   </g>
   <g id="patch_4">
    <path d="M 45 145.588966 
L 324 145.588966 
" style="fill:none;stroke:#000000;stroke-linecap:square;stroke-linejoin:miter;stroke-width:0.8;"/>
   </g>
  </g>
  <g id="axes_2">
   <g id="patch_5">
    <path d="M 45 237.351724 
L 324 237.351724 
L 324 160.882759 
L 45 160.882759 
z
" style="fill:#ffffff;"/>
   </g>
   <g id="matplotlib.axis_3">
    <g id="xtick_4"/>
    <g id="xtick_5"/>
    <g id="xtick_6"/>
   </g>
   <g id="matplotlib.axis_4">
    <g id="ytick_3">
     <g id="text_3">
      <!-- 5 -->
      <g transform="translate(25.275 214.64928)scale(0.2 -0.2)">
       <use xlink:href="#DejaVuSans-53"/>
      </g>
     </g>
    </g>
    <g id="ytick_4">
     <g id="text_4">
      <!-- 10 -->
      <defs>
       <path d="M 12.40625 8.296875 
L 28.515625 8.296875 
L 28.515625 63.921875 
L 10.984375 60.40625 
L 10.984375 69.390625 
L 28.421875 72.90625 
L 38.28125 72.90625 
L 38.28125 8.296875 
L 54.390625 8.296875 
L 54.390625 0 
L 12.40625 0 
z
" id="DejaVuSans-49"/>
      </defs>
      <g transform="translate(12.55 169.63155)scale(0.2 -0.2)">
       <use xlink:href="#DejaVuSans-49"/>
       <use x="63.623047" xlink:href="#DejaVuSans-48"/>
      </g>
     </g>
    </g>
   </g>
   <g id="line2d_2">
    <path clip-path="url(#p79d7730c21)" d="M 57.681818 233.875856 
L 76.075053 233.765351 
L 78.358351 233.440503 
L 80.578224 232.897118 
L 82.671247 232.159505 
L 84.764271 231.183959 
L 86.793869 229.992421 
L 88.823467 228.540903 
L 90.853066 226.811162 
L 92.882664 224.784831 
L 94.912262 222.443531 
L 97.005285 219.679831 
L 99.098309 216.541902 
L 101.254757 212.896906 
L 103.411205 208.813214 
L 105.694503 203.997262 
L 109.37315 196.243262 
L 112.671247 189.797543 
L 115.65222 184.444891 
L 118.379493 179.990005 
L 120.91649 176.264641 
L 123.263214 173.209711 
L 125.419662 170.758846 
L 127.44926 168.784245 
L 129.352008 167.242075 
L 131.127907 166.085896 
L 132.776956 165.267729 
L 134.362579 164.721862 
L 135.884778 164.427554 
L 137.406977 164.358806 
L 233.939746 164.514004 
L 235.461945 164.895106 
L 237.047569 165.527637 
L 238.696617 166.431882 
L 240.409091 167.627012 
L 242.248414 169.189383 
L 244.214588 171.163991 
L 246.307611 173.593651 
L 248.527484 176.517973 
L 250.937632 180.070625 
L 253.538055 184.310758 
L 256.392178 189.407429 
L 259.5 195.429512 
L 262.924947 202.567125 
L 266.603594 210.244391 
L 268.823467 214.2786 
L 271.04334 217.857976 
L 273.199789 220.921088 
L 275.356237 223.597701 
L 277.44926 225.84645 
L 279.542283 227.771417 
L 281.635307 229.392599 
L 283.72833 230.729915 
L 285.821353 231.803084 
L 287.914376 232.631509 
L 290.070825 233.249093 
L 292.290698 233.655746 
L 294.637421 233.856152 
L 298.125793 233.875856 
L 311.318182 233.875856 
L 311.318182 233.875856 
" style="fill:none;stroke:#000000;stroke-linecap:square;stroke-width:4;"/>
   </g>
   <g id="patch_6">
    <path d="M 45 237.351724 
L 45 160.882759 
" style="fill:none;stroke:#000000;stroke-linecap:square;stroke-linejoin:miter;stroke-width:0.8;"/>
   </g>
   <g id="patch_7">
    <path d="M 45 237.351724 
L 324 237.351724 
" style="fill:none;stroke:#000000;stroke-linecap:square;stroke-linejoin:miter;stroke-width:0.8;"/>
   </g>
  </g>
  <g id="axes_3">
   <g id="patch_8">
    <path d="M 45 329.114483 
L 324 329.114483 
L 324 252.645517 
L 45 252.645517 
z
" style="fill:#ffffff;"/>
   </g>
   <g id="matplotlib.axis_5">
    <g id="xtick_7"/>
    <g id="xtick_8"/>
    <g id="xtick_9"/>
   </g>
   <g id="matplotlib.axis_6">
    <g id="ytick_5">
     <g id="text_5">
      <!-- 5 -->
      <g transform="translate(25.275 306.412038)scale(0.2 -0.2)">
       <use xlink:href="#DejaVuSans-53"/>
      </g>
     </g>
    </g>
    <g id="ytick_6">
     <g id="text_6">
      <!-- 10 -->
      <g transform="translate(12.55 261.394308)scale(0.2 -0.2)">
       <use xlink:href="#DejaVuSans-49"/>
       <use x="63.623047" xlink:href="#DejaVuSans-48"/>
      </g>
     </g>
    </g>
   </g>
   <g id="line2d_3">
    <path clip-path="url(#pa8fa4486d0)" d="M 57.681818 325.638615 
L 76.075053 325.52811 
L 78.358351 325.203262 
L 80.578224 324.659877 
L 82.671247 323.922263 
L 84.764271 322.946717 
L 86.793869 321.755179 
L 88.823467 320.303662 
L 90.853066 318.573921 
L 92.882664 316.54759 
L 94.912262 314.206289 
L 97.005285 311.442589 
L 99.098309 308.304661 
L 101.254757 304.659665 
L 103.411205 300.575972 
L 105.694503 295.760021 
L 109.37315 288.006021 
L 112.671247 281.560302 
L 115.65222 276.207649 
L 118.379493 271.752764 
L 120.91649 268.0274 
L 123.263214 264.97247 
L 125.419662 262.521605 
L 127.44926 260.547004 
L 129.352008 259.004833 
L 131.127907 257.848655 
L 132.776956 257.030488 
L 134.362579 256.484621 
L 135.884778 256.190313 
L 137.406977 256.121565 
L 233.939746 256.276763 
L 235.461945 256.657864 
L 237.047569 257.290396 
L 238.696617 258.194641 
L 240.409091 259.389771 
L 242.248414 260.952142 
L 244.214588 262.926749 
L 246.307611 265.35641 
L 248.527484 268.280732 
L 250.937632 271.833384 
L 253.538055 276.073517 
L 256.392178 281.170187 
L 259.5 287.192271 
L 262.924947 294.329884 
L 266.603594 302.00715 
L 268.823467 306.041359 
L 271.04334 309.620734 
L 273.199789 312.683846 
L 275.356237 315.360459 
L 277.44926 317.609208 
L 279.542283 319.534176 
L 281.635307 321.155358 
L 283.72833 322.492673 
L 285.821353 323.565842 
L 287.914376 324.394267 
L 290.070825 325.011852 
L 292.290698 325.418504 
L 294.637421 325.61891 
L 298.125793 325.638615 
L 311.318182 325.638615 
L 311.318182 325.638615 
" style="fill:none;stroke:#000000;stroke-linecap:square;stroke-width:4;"/>
   </g>
   <g id="patch_9">
    <path d="M 45 329.114483 
L 45 252.645517 
" style="fill:none;stroke:#000000;stroke-linecap:square;stroke-linejoin:miter;stroke-width:0.8;"/>
   </g>
   <g id="patch_10">
    <path d="M 45 329.114483 
L 324 329.114483 
" style="fill:none;stroke:#000000;stroke-linecap:square;stroke-linejoin:miter;stroke-width:0.8;"/>
   </g>
  </g>
  <g id="axes_4">
   <g id="patch_11">
    <path d="M 45 420.877241 
L 324 420.877241 
L 324 344.408276 
L 45 344.408276 
z
" style="fill:#ffffff;"/>
   </g>
   <g id="matplotlib.axis_7">
    <g id="xtick_10"/>
    <g id="xtick_11"/>
    <g id="xtick_12"/>
   </g>
   <g id="matplotlib.axis_8">
    <g id="ytick_7">
     <g id="text_7">
      <!-- 20 -->
      <g transform="translate(12.55 394.37254)scale(0.2 -0.2)">
       <use xlink:href="#DejaVuSans-50"/>
       <use x="63.623047" xlink:href="#DejaVuSans-48"/>
      </g>
     </g>
    </g>
    <g id="ytick_8">
     <g id="text_8">
      <!-- 30 -->
      <defs>
       <path d="M 40.578125 39.3125 
Q 47.65625 37.796875 51.625 33 
Q 55.609375 28.21875 55.609375 21.1875 
Q 55.609375 10.40625 48.1875 4.484375 
Q 40.765625 -1.421875 27.09375 -1.421875 
Q 22.515625 -1.421875 17.65625 -0.515625 
Q 12.796875 0.390625 7.625 2.203125 
L 7.625 11.71875 
Q 11.71875 9.328125 16.59375 8.109375 
Q 21.484375 6.890625 26.8125 6.890625 
Q 36.078125 6.890625 40.9375 10.546875 
Q 45.796875 14.203125 45.796875 21.1875 
Q 45.796875 27.640625 41.28125 31.265625 
Q 36.765625 34.90625 28.71875 34.90625 
L 20.21875 34.90625 
L 20.21875 43.015625 
L 29.109375 43.015625 
Q 36.375 43.015625 40.234375 45.921875 
Q 44.09375 48.828125 44.09375 54.296875 
Q 44.09375 59.90625 40.109375 62.90625 
Q 36.140625 65.921875 28.71875 65.921875 
Q 24.65625 65.921875 20.015625 65.03125 
Q 15.375 64.15625 9.8125 62.3125 
L 9.8125 71.09375 
Q 15.4375 72.65625 20.34375 73.4375 
Q 25.25 74.21875 29.59375 74.21875 
Q 40.828125 74.21875 47.359375 69.109375 
Q 53.90625 64.015625 53.90625 55.328125 
Q 53.90625 49.265625 50.4375 45.09375 
Q 46.96875 40.921875 40.578125 39.3125 
z
" id="DejaVuSans-51"/>
      </defs>
      <g transform="translate(12.55 354.245558)scale(0.2 -0.2)">
       <use xlink:href="#DejaVuSans-51"/>
       <use x="63.623047" xlink:href="#DejaVuSans-48"/>
      </g>
     </g>
    </g>
   </g>
   <g id="line2d_4">
    <path clip-path="url(#pad7ae6726b)" d="M 57.681818 417.401211 
L 75.504228 417.293506 
L 77.406977 416.962953 
L 79.309725 416.403555 
L 81.212474 415.609681 
L 83.115222 414.576205 
L 85.081395 413.251668 
L 87.110994 411.606095 
L 89.140592 409.673505 
L 91.233615 407.375986 
L 93.390063 404.681884 
L 95.673362 401.464337 
L 98.020085 397.763462 
L 100.430233 393.544777 
L 102.96723 388.645314 
L 105.631078 383.001053 
L 108.548626 376.918256 
L 111.339323 371.599003 
L 114.003171 366.99351 
L 116.540169 363.048559 
L 118.950317 359.708931 
L 121.233615 356.918615 
L 123.390063 354.621815 
L 125.483087 352.710496 
L 127.512685 351.158687 
L 129.415433 349.975213 
L 131.254757 349.081866 
L 133.09408 348.435626 
L 134.869979 348.046488 
L 136.645877 347.888137 
L 141.846723 347.88461 
L 233.812896 347.989327 
L 235.588795 348.32435 
L 237.364693 348.889366 
L 239.204017 349.716709 
L 241.04334 350.789846 
L 242.946089 352.15766 
L 244.912262 353.844886 
L 247.005285 355.944563 
L 249.161734 358.432204 
L 251.381607 361.332649 
L 253.72833 364.767729 
L 256.201903 368.791025 
L 258.802326 373.455392 
L 261.529598 378.81183 
L 264.700846 385.56882 
L 267.364693 390.979629 
L 269.965116 395.762521 
L 272.438689 399.855533 
L 274.848837 403.417313 
L 277.132135 406.406065 
L 279.352008 408.955261 
L 281.508457 411.098652 
L 283.60148 412.869233 
L 285.631078 414.299103 
L 287.597252 415.419338 
L 289.563425 416.283822 
L 291.466173 416.882105 
L 293.368922 417.251542 
L 295.27167 417.398131 
L 301.67759 417.401211 
L 311.318182 417.401211 
L 311.318182 417.401211 
" style="fill:none;stroke:#000000;stroke-linecap:square;stroke-width:4;"/>
   </g>
   <g id="patch_12">
    <path d="M 45 420.877241 
L 45 344.408276 
" style="fill:none;stroke:#000000;stroke-linecap:square;stroke-linejoin:miter;stroke-width:0.8;"/>
   </g>
   <g id="patch_13">
    <path d="M 45 420.877241 
L 324 420.877241 
" style="fill:none;stroke:#000000;stroke-linecap:square;stroke-linejoin:miter;stroke-width:0.8;"/>
   </g>
  </g>
  <g id="axes_5">
   <g id="patch_14">
    <path d="M 45 512.64 
L 324 512.64 
L 324 436.171034 
L 45 436.171034 
z
" style="fill:#ffffff;"/>
   </g>
   <g id="matplotlib.axis_9">
    <g id="xtick_13">
     <g id="line2d_5">
      <defs>
       <path d="M 0 0 
L 0 3.5 
" id="m2bc263ae81" style="stroke:#000000;stroke-width:0.8;"/>
      </defs>
      <g>
       <use style="stroke:#000000;stroke-width:0.8;" x="57.681818" xlink:href="#m2bc263ae81" y="512.64"/>
      </g>
     </g>
     <g id="text_9">
      <!-- 0 -->
      <g transform="translate(51.319318 534.836875)scale(0.2 -0.2)">
       <use xlink:href="#DejaVuSans-48"/>
      </g>
     </g>
    </g>
    <g id="xtick_14">
     <g id="line2d_6">
      <g>
       <use style="stroke:#000000;stroke-width:0.8;" x="184.531712" xlink:href="#m2bc263ae81" y="512.64"/>
      </g>
     </g>
     <g id="text_10">
      <!-- 2000 -->
      <g transform="translate(159.081712 534.836875)scale(0.2 -0.2)">
       <use xlink:href="#DejaVuSans-50"/>
       <use x="63.623047" xlink:href="#DejaVuSans-48"/>
       <use x="127.246094" xlink:href="#DejaVuSans-48"/>
       <use x="190.869141" xlink:href="#DejaVuSans-48"/>
      </g>
     </g>
    </g>
    <g id="xtick_15">
     <g id="line2d_7">
      <g>
       <use style="stroke:#000000;stroke-width:0.8;" x="311.381607" xlink:href="#m2bc263ae81" y="512.64"/>
      </g>
     </g>
     <g id="text_11">
      <!-- 4000 -->
      <defs>
       <path d="M 37.796875 64.3125 
L 12.890625 25.390625 
L 37.796875 25.390625 
z
M 35.203125 72.90625 
L 47.609375 72.90625 
L 47.609375 25.390625 
L 58.015625 25.390625 
L 58.015625 17.1875 
L 47.609375 17.1875 
L 47.609375 0 
L 37.796875 0 
L 37.796875 17.1875 
L 4.890625 17.1875 
L 4.890625 26.703125 
z
" id="DejaVuSans-52"/>
      </defs>
      <g transform="translate(285.931607 534.836875)scale(0.2 -0.2)">
       <use xlink:href="#DejaVuSans-52"/>
       <use x="63.623047" xlink:href="#DejaVuSans-48"/>
       <use x="127.246094" xlink:href="#DejaVuSans-48"/>
       <use x="190.869141" xlink:href="#DejaVuSans-48"/>
      </g>
     </g>
    </g>
   </g>
   <g id="matplotlib.axis_10">
    <g id="ytick_9">
     <g id="text_12">
      <!-- 5 -->
      <g transform="translate(25.275 519.935307)scale(0.2 -0.2)">
       <use xlink:href="#DejaVuSans-53"/>
      </g>
     </g>
    </g>
    <g id="ytick_10">
     <g id="text_13">
      <!-- 10 -->
      <g transform="translate(12.55 487.400972)scale(0.2 -0.2)">
       <use xlink:href="#DejaVuSans-49"/>
       <use x="63.623047" xlink:href="#DejaVuSans-48"/>
      </g>
     </g>
    </g>
    <g id="ytick_11">
     <g id="text_14">
      <!-- 15 -->
      <g transform="translate(12.55 454.866637)scale(0.2 -0.2)">
       <use xlink:href="#DejaVuSans-49"/>
       <use x="63.623047" xlink:href="#DejaVuSans-53"/>
      </g>
     </g>
    </g>
   </g>
   <g id="line2d_8">
    <path clip-path="url(#pd97a1f0d44)" d="M 57.681818 509.164095 
L 75.694503 509.059221 
L 77.724101 508.740835 
L 79.7537 508.197203 
L 81.783298 507.416802 
L 83.749471 506.424265 
L 85.77907 505.14467 
L 87.808668 503.595171 
L 89.838266 501.765147 
L 91.93129 499.573256 
L 94.087738 496.980057 
L 96.244186 494.035791 
L 98.464059 490.626939 
L 100.747357 486.709189 
L 103.09408 482.236183 
L 105.567653 477.023301 
L 108.802326 470.231393 
L 111.783298 464.469629 
L 114.573996 459.541312 
L 117.174419 455.380807 
L 119.647992 451.831495 
L 121.994715 448.849956 
L 124.151163 446.45514 
L 126.244186 444.458171 
L 128.210359 442.885248 
L 130.049683 441.686842 
L 131.825581 440.786195 
L 133.538055 440.16134 
L 135.187104 439.78994 
L 136.836152 439.64832 
L 145.588795 439.647258 
L 233.749471 439.755439 
L 235.39852 440.093317 
L 237.047569 440.656969 
L 238.760042 441.477044 
L 240.535941 442.575182 
L 242.375264 443.972598 
L 244.341438 445.751801 
L 246.371036 447.889162 
L 248.527484 450.484323 
L 250.810782 453.583204 
L 253.22093 457.22997 
L 255.821353 461.57707 
L 258.612051 466.692587 
L 261.593023 472.639383 
L 268.506342 486.750138 
L 270.853066 490.75879 
L 273.136364 494.23817 
L 275.419662 497.314403 
L 277.639535 499.930725 
L 279.795983 502.130569 
L 281.889006 503.954961 
L 283.98203 505.484609 
L 286.011628 506.697422 
L 288.041226 507.654932 
L 290.070825 508.368284 
L 292.100423 508.848804 
L 294.193446 509.112608 
L 296.476744 509.164096 
L 311.318182 509.164095 
L 311.318182 509.164095 
" style="fill:none;stroke:#000000;stroke-linecap:square;stroke-width:4;"/>
   </g>
   <g id="patch_15">
    <path d="M 45 512.64 
L 45 436.171034 
" style="fill:none;stroke:#000000;stroke-linecap:square;stroke-linejoin:miter;stroke-width:0.8;"/>
   </g>
   <g id="patch_16">
    <path d="M 45 512.64 
L 324 512.64 
" style="fill:none;stroke:#000000;stroke-linecap:square;stroke-linejoin:miter;stroke-width:0.8;"/>
   </g>
  </g>
 </g>
 <defs>
  <clipPath id="pc81a7afd09">
   <rect height="76.468966" width="279" x="45" y="69.12"/>
  </clipPath>
  <clipPath id="p79d7730c21">
   <rect height="76.468966" width="279" x="45" y="160.882759"/>
  </clipPath>
  <clipPath id="pa8fa4486d0">
   <rect height="76.468966" width="279" x="45" y="252.645517"/>
  </clipPath>
  <clipPath id="pad7ae6726b">
   <rect height="76.468966" width="279" x="45" y="344.408276"/>
  </clipPath>
  <clipPath id="pd97a1f0d44">
   <rect height="76.468966" width="279" x="45" y="436.171034"/>
  </clipPath>
 </defs>
</svg>
