<?xml version="1.0" encoding="utf-8" standalone="no"?>
<!DOCTYPE svg PUBLIC "-//W3C//DTD SVG 1.1//EN"
  "http://www.w3.org/Graphics/SVG/1.1/DTD/svg11.dtd">
<!-- Created with matplotlib (https://matplotlib.org/) -->
<svg height="1296pt" version="1.1" viewBox="0 0 288 1296" width="288pt" xmlns="http://www.w3.org/2000/svg" xmlns:xlink="http://www.w3.org/1999/xlink">
 <defs>
  <style type="text/css">
*{stroke-linecap:butt;stroke-linejoin:round;}
  </style>
 </defs>
 <g id="figure_1">
  <g id="patch_1">
   <path d="M 0 1296 
L 288 1296 
L 288 0 
L 0 0 
z
" style="fill:#ffffff;"/>
  </g>
  <g id="axes_1">
   <g id="patch_2">
    <path d="M 32.096 304.601872 
L 272.988 304.601872 
L 272.988 64.8 
L 32.096 64.8 
z
" style="fill:#ffffff;"/>
   </g>
   <g id="patch_3">
    <path clip-path="url(#pa9ae56d78e)" d="M 43.045636 304.601872 
L 71.609905 304.601872 
L 71.609905 75.552943 
L 43.045636 75.552943 
z
" style="fill:#222288;stroke:#000000;stroke-linejoin:miter;stroke-width:2;"/>
   </g>
   <g id="patch_4">
    <path clip-path="url(#pa9ae56d78e)" d="M 90.652751 304.601872 
L 119.21702 304.601872 
L 119.21702 77.404397 
L 90.652751 77.404397 
z
" style="fill:#222288;stroke:#000000;stroke-linejoin:miter;stroke-width:2;"/>
   </g>
   <g id="patch_5">
    <path clip-path="url(#pa9ae56d78e)" d="M 138.259866 304.601872 
L 166.824134 304.601872 
L 166.824134 77.404397 
L 138.259866 77.404397 
z
" style="fill:#222288;stroke:#000000;stroke-linejoin:miter;stroke-width:2;"/>
   </g>
   <g id="patch_6">
    <path clip-path="url(#pa9ae56d78e)" d="M 185.86698 304.601872 
L 214.431249 304.601872 
L 214.431249 77.068173 
L 185.86698 77.068173 
z
" style="fill:#222288;stroke:#000000;stroke-linejoin:miter;stroke-width:2;"/>
   </g>
   <g id="patch_7">
    <path clip-path="url(#pa9ae56d78e)" d="M 233.474095 304.601872 
L 262.038364 304.601872 
L 262.038364 77.190443 
L 233.474095 77.190443 
z
" style="fill:#222288;stroke:#000000;stroke-linejoin:miter;stroke-width:2;"/>
   </g>
   <g id="matplotlib.axis_1">
    <g id="xtick_1">
     <g id="text_1">
      <!-- RF -->
      <defs>
       <path d="M 44.390625 34.1875 
Q 47.5625 33.109375 50.5625 29.59375 
Q 53.5625 26.078125 56.59375 19.921875 
L 66.609375 0 
L 56 0 
L 46.6875 18.703125 
Q 43.0625 26.03125 39.671875 28.421875 
Q 36.28125 30.8125 30.421875 30.8125 
L 19.671875 30.8125 
L 19.671875 0 
L 9.8125 0 
L 9.8125 72.90625 
L 32.078125 72.90625 
Q 44.578125 72.90625 50.734375 67.671875 
Q 56.890625 62.453125 56.890625 51.90625 
Q 56.890625 45.015625 53.6875 40.46875 
Q 50.484375 35.9375 44.390625 34.1875 
z
M 19.671875 64.796875 
L 19.671875 38.921875 
L 32.078125 38.921875 
Q 39.203125 38.921875 42.84375 42.21875 
Q 46.484375 45.515625 46.484375 51.90625 
Q 46.484375 58.296875 42.84375 61.546875 
Q 39.203125 64.796875 32.078125 64.796875 
z
" id="DejaVuSans-82"/>
       <path d="M 9.8125 72.90625 
L 51.703125 72.90625 
L 51.703125 64.59375 
L 19.671875 64.59375 
L 19.671875 43.109375 
L 48.578125 43.109375 
L 48.578125 34.8125 
L 19.671875 34.8125 
L 19.671875 0 
L 9.8125 0 
z
" id="DejaVuSans-70"/>
      </defs>
      <g transform="translate(39.547771 332.877497)scale(0.28 -0.28)">
       <use xlink:href="#DejaVuSans-82"/>
       <use x="69.482422" xlink:href="#DejaVuSans-70"/>
      </g>
     </g>
    </g>
    <g id="xtick_2">
     <g id="text_2">
      <!-- VL -->
      <defs>
       <path d="M 28.609375 0 
L 0.78125 72.90625 
L 11.078125 72.90625 
L 34.1875 11.53125 
L 57.328125 72.90625 
L 67.578125 72.90625 
L 39.796875 0 
z
" id="DejaVuSans-86"/>
       <path d="M 9.8125 72.90625 
L 19.671875 72.90625 
L 19.671875 8.296875 
L 55.171875 8.296875 
L 55.171875 0 
L 9.8125 0 
z
" id="DejaVuSans-76"/>
      </defs>
      <g transform="translate(87.557385 332.877497)scale(0.28 -0.28)">
       <use xlink:href="#DejaVuSans-86"/>
       <use x="68.408203" xlink:href="#DejaVuSans-76"/>
      </g>
     </g>
    </g>
    <g id="xtick_3">
     <g id="text_3">
      <!-- VM -->
      <defs>
       <path d="M 9.8125 72.90625 
L 24.515625 72.90625 
L 43.109375 23.296875 
L 61.8125 72.90625 
L 76.515625 72.90625 
L 76.515625 0 
L 66.890625 0 
L 66.890625 64.015625 
L 48.09375 14.015625 
L 38.1875 14.015625 
L 19.390625 64.015625 
L 19.390625 0 
L 9.8125 0 
z
" id="DejaVuSans-77"/>
      </defs>
      <g transform="translate(130.88575 332.877497)scale(0.28 -0.28)">
       <use xlink:href="#DejaVuSans-86"/>
       <use x="68.408203" xlink:href="#DejaVuSans-77"/>
      </g>
     </g>
    </g>
    <g id="xtick_4">
     <g id="text_4">
      <!-- ST -->
      <defs>
       <path d="M 53.515625 70.515625 
L 53.515625 60.890625 
Q 47.90625 63.578125 42.921875 64.890625 
Q 37.9375 66.21875 33.296875 66.21875 
Q 25.25 66.21875 20.875 63.09375 
Q 16.5 59.96875 16.5 54.203125 
Q 16.5 49.359375 19.40625 46.890625 
Q 22.3125 44.4375 30.421875 42.921875 
L 36.375 41.703125 
Q 47.40625 39.59375 52.65625 34.296875 
Q 57.90625 29 57.90625 20.125 
Q 57.90625 9.515625 50.796875 4.046875 
Q 43.703125 -1.421875 29.984375 -1.421875 
Q 24.8125 -1.421875 18.96875 -0.25 
Q 13.140625 0.921875 6.890625 3.21875 
L 6.890625 13.375 
Q 12.890625 10.015625 18.65625 8.296875 
Q 24.421875 6.59375 29.984375 6.59375 
Q 38.421875 6.59375 43.015625 9.90625 
Q 47.609375 13.234375 47.609375 19.390625 
Q 47.609375 24.75 44.3125 27.78125 
Q 41.015625 30.8125 33.5 32.328125 
L 27.484375 33.5 
Q 16.453125 35.6875 11.515625 40.375 
Q 6.59375 45.0625 6.59375 53.421875 
Q 6.59375 63.09375 13.40625 68.65625 
Q 20.21875 74.21875 32.171875 74.21875 
Q 37.3125 74.21875 42.625 73.28125 
Q 47.953125 72.359375 53.515625 70.515625 
z
" id="DejaVuSans-83"/>
       <path d="M -0.296875 72.90625 
L 61.375 72.90625 
L 61.375 64.59375 
L 35.5 64.59375 
L 35.5 0 
L 25.59375 0 
L 25.59375 64.59375 
L -0.296875 64.59375 
z
" id="DejaVuSans-84"/>
      </defs>
      <g transform="translate(182.710365 332.877497)scale(0.28 -0.28)">
       <use xlink:href="#DejaVuSans-83"/>
       <use x="63.476562" xlink:href="#DejaVuSans-84"/>
      </g>
     </g>
    </g>
    <g id="xtick_5">
     <g id="text_5">
      <!-- BF -->
      <defs>
       <path d="M 19.671875 34.8125 
L 19.671875 8.109375 
L 35.5 8.109375 
Q 43.453125 8.109375 47.28125 11.40625 
Q 51.125 14.703125 51.125 21.484375 
Q 51.125 28.328125 47.28125 31.5625 
Q 43.453125 34.8125 35.5 34.8125 
z
M 19.671875 64.796875 
L 19.671875 42.828125 
L 34.28125 42.828125 
Q 41.5 42.828125 45.03125 45.53125 
Q 48.578125 48.25 48.578125 53.8125 
Q 48.578125 59.328125 45.03125 62.0625 
Q 41.5 64.796875 34.28125 64.796875 
z
M 9.8125 72.90625 
L 35.015625 72.90625 
Q 46.296875 72.90625 52.390625 68.21875 
Q 58.5 63.53125 58.5 54.890625 
Q 58.5 48.1875 55.375 44.234375 
Q 52.25 40.28125 46.1875 39.3125 
Q 53.46875 37.75 57.5 32.78125 
Q 61.53125 27.828125 61.53125 20.40625 
Q 61.53125 10.640625 54.890625 5.3125 
Q 48.25 0 35.984375 0 
L 9.8125 0 
z
" id="DejaVuSans-66"/>
      </defs>
      <g transform="translate(230.098729 332.877497)scale(0.28 -0.28)">
       <use xlink:href="#DejaVuSans-66"/>
       <use x="68.603516" xlink:href="#DejaVuSans-70"/>
      </g>
     </g>
    </g>
   </g>
   <g id="matplotlib.axis_2">
    <g id="ytick_1"/>
    <g id="ytick_2"/>
    <g id="ytick_3"/>
    <g id="ytick_4"/>
    <g id="ytick_5"/>
    <g id="ytick_6"/>
   </g>
   <g id="patch_8">
    <path d="M 32.096 304.601872 
L 272.988 304.601872 
" style="fill:none;stroke:#000000;stroke-linecap:square;stroke-linejoin:miter;stroke-width:0.8;"/>
   </g>
  </g>
  <g id="axes_2">
   <g id="patch_9">
    <path d="M 32.096 614.157914 
L 272.988 614.157914 
L 272.988 374.356043 
L 32.096 374.356043 
z
" style="fill:#ffffff;"/>
   </g>
   <g id="matplotlib.axis_3">
    <g id="xtick_6">
     <g id="text_6">
      <!-- 0 -->
      <defs>
       <path d="M 31.78125 66.40625 
Q 24.171875 66.40625 20.328125 58.90625 
Q 16.5 51.421875 16.5 36.375 
Q 16.5 21.390625 20.328125 13.890625 
Q 24.171875 6.390625 31.78125 6.390625 
Q 39.453125 6.390625 43.28125 13.890625 
Q 47.125 21.390625 47.125 36.375 
Q 47.125 51.421875 43.28125 58.90625 
Q 39.453125 66.40625 31.78125 66.40625 
z
M 31.78125 74.21875 
Q 44.046875 74.21875 50.515625 64.515625 
Q 56.984375 54.828125 56.984375 36.375 
Q 56.984375 17.96875 50.515625 8.265625 
Q 44.046875 -1.421875 31.78125 -1.421875 
Q 19.53125 -1.421875 13.0625 8.265625 
Q 6.59375 17.96875 6.59375 36.375 
Q 6.59375 54.828125 13.0625 64.515625 
Q 19.53125 74.21875 31.78125 74.21875 
z
" id="DejaVuSans-48"/>
      </defs>
      <g transform="translate(34.138136 642.433539)scale(0.28 -0.28)">
       <use xlink:href="#DejaVuSans-48"/>
      </g>
     </g>
    </g>
    <g id="xtick_7">
     <g id="text_7">
      <!-- 8 -->
      <defs>
       <path d="M 31.78125 34.625 
Q 24.75 34.625 20.71875 30.859375 
Q 16.703125 27.09375 16.703125 20.515625 
Q 16.703125 13.921875 20.71875 10.15625 
Q 24.75 6.390625 31.78125 6.390625 
Q 38.8125 6.390625 42.859375 10.171875 
Q 46.921875 13.96875 46.921875 20.515625 
Q 46.921875 27.09375 42.890625 30.859375 
Q 38.875 34.625 31.78125 34.625 
z
M 21.921875 38.8125 
Q 15.578125 40.375 12.03125 44.71875 
Q 8.5 49.078125 8.5 55.328125 
Q 8.5 64.0625 14.71875 69.140625 
Q 20.953125 74.21875 31.78125 74.21875 
Q 42.671875 74.21875 48.875 69.140625 
Q 55.078125 64.0625 55.078125 55.328125 
Q 55.078125 49.078125 51.53125 44.71875 
Q 48 40.375 41.703125 38.8125 
Q 48.828125 37.15625 52.796875 32.3125 
Q 56.78125 27.484375 56.78125 20.515625 
Q 56.78125 9.90625 50.3125 4.234375 
Q 43.84375 -1.421875 31.78125 -1.421875 
Q 19.734375 -1.421875 13.25 4.234375 
Q 6.78125 9.90625 6.78125 20.515625 
Q 6.78125 27.484375 10.78125 32.3125 
Q 14.796875 37.15625 21.921875 38.8125 
z
M 18.3125 54.390625 
Q 18.3125 48.734375 21.84375 45.5625 
Q 25.390625 42.390625 31.78125 42.390625 
Q 38.140625 42.390625 41.71875 45.5625 
Q 45.3125 48.734375 45.3125 54.390625 
Q 45.3125 60.0625 41.71875 63.234375 
Q 38.140625 66.40625 31.78125 66.40625 
Q 25.390625 66.40625 21.84375 63.234375 
Q 18.3125 60.0625 18.3125 54.390625 
z
" id="DejaVuSans-56"/>
      </defs>
      <g transform="translate(253.185626 642.433539)scale(0.28 -0.28)">
       <use xlink:href="#DejaVuSans-56"/>
      </g>
     </g>
    </g>
   </g>
   <g id="matplotlib.axis_4">
    <g id="ytick_7"/>
    <g id="ytick_8"/>
    <g id="ytick_9"/>
   </g>
   <g id="line2d_1">
    <path clip-path="url(#pef224bf046)" d="M 43.045636 559.297594 
L 57.77658 559.189319 
L 58.762294 558.862091 
L 59.802769 558.278019 
L 60.898007 557.397178 
L 62.048006 556.178705 
L 63.307529 554.500861 
L 64.621814 552.371176 
L 66.045623 549.633818 
L 67.578955 546.195347 
L 69.221811 541.960558 
L 71.028953 536.663594 
L 72.945619 530.339197 
L 75.02657 522.680877 
L 77.271807 513.532303 
L 79.681329 502.738311 
L 82.255137 490.146157 
L 87.731324 461.721233 
L 88.224181 458.047471 
L 90.469418 449.36144 
L 92.605131 441.973917 
L 94.63132 435.749532 
L 96.547986 430.557174 
L 98.355127 426.272813 
L 100.107507 422.676685 
L 101.750363 419.797134 
L 103.283696 417.532496 
L 104.762266 415.72978 
L 106.186075 414.342341 
L 107.50036 413.360919 
L 108.759883 412.686432 
L 109.964644 412.281853 
L 111.169405 412.109634 
L 113.907499 412.103162 
L 194.790784 412.212329 
L 195.995546 412.55323 
L 197.200307 413.128019 
L 198.45983 413.982064 
L 199.774115 415.15257 
L 201.143162 416.679127 
L 202.56697 418.603796 
L 204.100303 421.066143 
L 205.688397 424.04838 
L 207.386015 427.729264 
L 209.138395 432.070637 
L 211.000299 437.294282 
L 212.971726 443.519114 
L 214.997915 450.666791 
L 217.133628 459.026247 
L 217.18839 459.25171 
L 217.407438 461.994941 
L 218.06458 465.430872 
L 220.912198 479.841759 
L 223.924101 495.380076 
L 226.55267 507.75341 
L 228.962193 518.069393 
L 231.20743 526.753649 
L 233.343143 534.143899 
L 235.31457 540.179918 
L 237.121712 545.024843 
L 238.81933 548.956813 
L 240.352662 551.978595 
L 241.776471 554.32477 
L 243.090756 556.091441 
L 244.350279 557.42147 
L 245.500278 558.32416 
L 246.595516 558.907523 
L 247.635991 559.213555 
L 248.676467 559.285094 
L 262.038364 559.285125 
L 262.038364 559.285125 
" style="fill:none;stroke:#222288;stroke-linecap:square;stroke-width:3;"/>
   </g>
   <g id="patch_10">
    <path d="M 32.096 614.157914 
L 272.988 614.157914 
" style="fill:none;stroke:#000000;stroke-linecap:square;stroke-linejoin:miter;stroke-width:0.8;"/>
   </g>
  </g>
  <g id="axes_3">
   <g id="patch_11">
    <path d="M 32.096 923.713957 
L 272.988 923.713957 
L 272.988 683.912086 
L 32.096 683.912086 
z
" style="fill:#ffffff;"/>
   </g>
   <g id="patch_12">
    <path clip-path="url(#p5e7c77b6ea)" d="M 43.045636 923.713957 
L 71.609905 923.713957 
L 71.609905 869.49369 
L 43.045636 869.49369 
z
" style="fill:#222288;stroke:#000000;stroke-linejoin:miter;stroke-width:2;"/>
   </g>
   <g id="patch_13">
    <path clip-path="url(#p5e7c77b6ea)" d="M 90.652751 923.713957 
L 119.21702 923.713957 
L 119.21702 923.713957 
L 90.652751 923.713957 
z
" style="fill:#222288;stroke:#000000;stroke-linejoin:miter;stroke-width:2;"/>
   </g>
   <g id="patch_14">
    <path clip-path="url(#p5e7c77b6ea)" d="M 138.259866 923.713957 
L 166.824134 923.713957 
L 166.824134 923.713957 
L 138.259866 923.713957 
z
" style="fill:#222288;stroke:#000000;stroke-linejoin:miter;stroke-width:2;"/>
   </g>
   <g id="patch_15">
    <path clip-path="url(#p5e7c77b6ea)" d="M 185.86698 923.713957 
L 214.431249 923.713957 
L 214.431249 808.004866 
L 185.86698 808.004866 
z
" style="fill:#222288;stroke:#000000;stroke-linejoin:miter;stroke-width:2;"/>
   </g>
   <g id="patch_16">
    <path clip-path="url(#p5e7c77b6ea)" d="M 233.474095 923.713957 
L 262.038364 923.713957 
L 262.038364 827.475562 
L 233.474095 827.475562 
z
" style="fill:#222288;stroke:#000000;stroke-linejoin:miter;stroke-width:2;"/>
   </g>
   <g id="matplotlib.axis_5">
    <g id="xtick_8">
     <g id="text_8">
      <!-- RF -->
      <g transform="translate(39.547771 951.989582)scale(0.28 -0.28)">
       <use xlink:href="#DejaVuSans-82"/>
       <use x="69.482422" xlink:href="#DejaVuSans-70"/>
      </g>
     </g>
    </g>
    <g id="xtick_9">
     <g id="text_9">
      <!-- VL -->
      <g transform="translate(87.557385 951.989582)scale(0.28 -0.28)">
       <use xlink:href="#DejaVuSans-86"/>
       <use x="68.408203" xlink:href="#DejaVuSans-76"/>
      </g>
     </g>
    </g>
    <g id="xtick_10">
     <g id="text_10">
      <!-- VM -->
      <g transform="translate(130.88575 951.989582)scale(0.28 -0.28)">
       <use xlink:href="#DejaVuSans-86"/>
       <use x="68.408203" xlink:href="#DejaVuSans-77"/>
      </g>
     </g>
    </g>
    <g id="xtick_11">
     <g id="text_11">
      <!-- ST -->
      <g transform="translate(182.710365 951.989582)scale(0.28 -0.28)">
       <use xlink:href="#DejaVuSans-83"/>
       <use x="63.476562" xlink:href="#DejaVuSans-84"/>
      </g>
     </g>
    </g>
    <g id="xtick_12">
     <g id="text_12">
      <!-- BF -->
      <g transform="translate(230.098729 951.989582)scale(0.28 -0.28)">
       <use xlink:href="#DejaVuSans-66"/>
       <use x="68.603516" xlink:href="#DejaVuSans-70"/>
      </g>
     </g>
    </g>
   </g>
   <g id="matplotlib.axis_6">
    <g id="ytick_10"/>
    <g id="ytick_11"/>
    <g id="ytick_12"/>
    <g id="ytick_13"/>
    <g id="ytick_14"/>
   </g>
   <g id="patch_17">
    <path d="M 32.096 923.713957 
L 272.988 923.713957 
" style="fill:none;stroke:#000000;stroke-linecap:square;stroke-linejoin:miter;stroke-width:0.8;"/>
   </g>
  </g>
  <g id="axes_4">
   <g id="patch_18">
    <path d="M 32.096 1233.27 
L 272.988 1233.27 
L 272.988 993.468128 
L 32.096 993.468128 
z
" style="fill:#ffffff;"/>
   </g>
   <g id="matplotlib.axis_7">
    <g id="xtick_13">
     <g id="text_13">
      <!-- 0 -->
      <g transform="translate(34.138136 1261.545625)scale(0.28 -0.28)">
       <use xlink:href="#DejaVuSans-48"/>
      </g>
     </g>
    </g>
    <g id="xtick_14">
     <g id="text_14">
      <!-- 8 -->
      <g transform="translate(253.185626 1261.545625)scale(0.28 -0.28)">
       <use xlink:href="#DejaVuSans-56"/>
      </g>
     </g>
    </g>
   </g>
   <g id="matplotlib.axis_8">
    <g id="ytick_15"/>
    <g id="ytick_16"/>
    <g id="ytick_17"/>
   </g>
   <g id="line2d_2">
    <path clip-path="url(#pf936a6ae21)" d="M 43.045636 1078.321444 
L 57.557533 1078.430799 
L 58.269437 1078.767971 
L 59.036103 1079.380505 
L 59.857531 1080.321983 
L 60.788483 1081.740709 
L 61.828959 1083.758249 
L 62.978958 1086.49984 
L 64.238481 1090.088411 
L 65.66229 1094.833049 
L 67.305146 1101.132863 
L 69.167049 1109.212018 
L 71.302762 1119.508014 
L 73.931332 1133.345914 
L 77.436092 1153.099803 
L 86.362277 1203.993452 
L 87.238467 1209.103011 
L 87.567039 1212.462602 
L 87.731324 1216.351144 
L 87.840848 1224.089125 
L 88.005134 1233.27 
L 217.18839 1233.27 
L 217.352676 1215.946776 
L 217.626485 1210.947914 
L 218.06458 1207.604631 
L 219.050294 1202.353819 
L 221.131245 1191.219648 
L 232.247905 1127.93924 
L 234.876475 1114.631476 
L 237.06695 1104.649197 
L 238.928854 1097.159371 
L 240.57171 1091.43954 
L 241.995518 1087.235995 
L 243.309803 1084.029121 
L 244.459803 1081.784402 
L 245.500278 1080.222782 
L 246.43123 1079.212674 
L 247.252658 1078.628883 
L 248.019324 1078.345006 
L 248.785991 1078.300695 
L 258.533604 1078.299905 
L 262.038364 1078.299905 
L 262.038364 1078.299905 
" style="fill:none;stroke:#222288;stroke-linecap:square;stroke-width:3;"/>
   </g>
   <g id="patch_19">
    <path d="M 32.096 1233.27 
L 272.988 1233.27 
" style="fill:none;stroke:#000000;stroke-linecap:square;stroke-linejoin:miter;stroke-width:0.8;"/>
   </g>
  </g>
 </g>
 <defs>
  <clipPath id="pa9ae56d78e">
   <rect height="239.801872" width="240.892" x="32.096" y="64.8"/>
  </clipPath>
  <clipPath id="pef224bf046">
   <rect height="239.801872" width="240.892" x="32.096" y="374.356043"/>
  </clipPath>
  <clipPath id="p5e7c77b6ea">
   <rect height="239.801872" width="240.892" x="32.096" y="683.912086"/>
  </clipPath>
  <clipPath id="pf936a6ae21">
   <rect height="239.801872" width="240.892" x="32.096" y="993.468128"/>
  </clipPath>
 </defs>
</svg>
