<?xml version="1.0" encoding="utf-8" standalone="no"?>
<!DOCTYPE svg PUBLIC "-//W3C//DTD SVG 1.1//EN"
  "http://www.w3.org/Graphics/SVG/1.1/DTD/svg11.dtd">
<!-- Created with matplotlib (https://matplotlib.org/) -->
<svg height="576pt" version="1.1" viewBox="0 0 360 576" width="360pt" xmlns="http://www.w3.org/2000/svg" xmlns:xlink="http://www.w3.org/1999/xlink">
 <defs>
  <style type="text/css">
*{stroke-linecap:butt;stroke-linejoin:round;}
  </style>
 </defs>
 <g id="figure_1">
  <g id="patch_1">
   <path d="M 0 576 
L 360 576 
L 360 0 
L 0 0 
z
" style="fill:#ffffff;"/>
  </g>
  <g id="axes_1">
   <g id="patch_2">
    <path d="M 45 145.588966 
L 324 145.588966 
L 324 69.12 
L 45 69.12 
z
" style="fill:#ffffff;"/>
   </g>
   <g id="matplotlib.axis_1">
    <g id="xtick_1"/>
    <g id="xtick_2"/>
    <g id="xtick_3"/>
   </g>
   <g id="matplotlib.axis_2">
    <g id="ytick_1">
     <g id="text_1">
      <!-- 25 -->
      <defs>
       <path d="M 19.1875 8.296875 
L 53.609375 8.296875 
L 53.609375 0 
L 7.328125 0 
L 7.328125 8.296875 
Q 12.9375 14.109375 22.625 23.890625 
Q 32.328125 33.6875 34.8125 36.53125 
Q 39.546875 41.84375 41.421875 45.53125 
Q 43.3125 49.21875 43.3125 52.78125 
Q 43.3125 58.59375 39.234375 62.25 
Q 35.15625 65.921875 28.609375 65.921875 
Q 23.96875 65.921875 18.8125 64.3125 
Q 13.671875 62.703125 7.8125 59.421875 
L 7.8125 69.390625 
Q 13.765625 71.78125 18.9375 73 
Q 24.125 74.21875 28.421875 74.21875 
Q 39.75 74.21875 46.484375 68.546875 
Q 53.21875 62.890625 53.21875 53.421875 
Q 53.21875 48.921875 51.53125 44.890625 
Q 49.859375 40.875 45.40625 35.40625 
Q 44.1875 33.984375 37.640625 27.21875 
Q 31.109375 20.453125 19.1875 8.296875 
z
" id="DejaVuSans-50"/>
       <path d="M 10.796875 72.90625 
L 49.515625 72.90625 
L 49.515625 64.59375 
L 19.828125 64.59375 
L 19.828125 46.734375 
Q 21.96875 47.46875 24.109375 47.828125 
Q 26.265625 48.1875 28.421875 48.1875 
Q 40.625 48.1875 47.75 41.5 
Q 54.890625 34.8125 54.890625 23.390625 
Q 54.890625 11.625 47.5625 5.09375 
Q 40.234375 -1.421875 26.90625 -1.421875 
Q 22.3125 -1.421875 17.546875 -0.640625 
Q 12.796875 0.140625 7.71875 1.703125 
L 7.71875 11.625 
Q 12.109375 9.234375 16.796875 8.0625 
Q 21.484375 6.890625 26.703125 6.890625 
Q 35.15625 6.890625 40.078125 11.328125 
Q 45.015625 15.765625 45.015625 23.390625 
Q 45.015625 31 40.078125 35.4375 
Q 35.15625 39.890625 26.703125 39.890625 
Q 22.75 39.890625 18.8125 39.015625 
Q 14.890625 38.140625 10.796875 36.28125 
z
" id="DejaVuSans-53"/>
      </defs>
      <g transform="translate(12.55 151.498635)scale(0.2 -0.2)">
       <use xlink:href="#DejaVuSans-50"/>
       <use x="63.623047" xlink:href="#DejaVuSans-53"/>
      </g>
     </g>
    </g>
    <g id="ytick_2">
     <g id="text_2">
      <!-- 50 -->
      <defs>
       <path d="M 31.78125 66.40625 
Q 24.171875 66.40625 20.328125 58.90625 
Q 16.5 51.421875 16.5 36.375 
Q 16.5 21.390625 20.328125 13.890625 
Q 24.171875 6.390625 31.78125 6.390625 
Q 39.453125 6.390625 43.28125 13.890625 
Q 47.125 21.390625 47.125 36.375 
Q 47.125 51.421875 43.28125 58.90625 
Q 39.453125 66.40625 31.78125 66.40625 
z
M 31.78125 74.21875 
Q 44.046875 74.21875 50.515625 64.515625 
Q 56.984375 54.828125 56.984375 36.375 
Q 56.984375 17.96875 50.515625 8.265625 
Q 44.046875 -1.421875 31.78125 -1.421875 
Q 19.53125 -1.421875 13.0625 8.265625 
Q 6.59375 17.96875 6.59375 36.375 
Q 6.59375 54.828125 13.0625 64.515625 
Q 19.53125 74.21875 31.78125 74.21875 
z
" id="DejaVuSans-48"/>
      </defs>
      <g transform="translate(12.55 121.457186)scale(0.2 -0.2)">
       <use xlink:href="#DejaVuSans-53"/>
       <use x="63.623047" xlink:href="#DejaVuSans-48"/>
      </g>
     </g>
    </g>
    <g id="ytick_3">
     <g id="text_3">
      <!-- 75 -->
      <defs>
       <path d="M 8.203125 72.90625 
L 55.078125 72.90625 
L 55.078125 68.703125 
L 28.609375 0 
L 18.3125 0 
L 43.21875 64.59375 
L 8.203125 64.59375 
z
" id="DejaVuSans-55"/>
      </defs>
      <g transform="translate(12.55 91.415736)scale(0.2 -0.2)">
       <use xlink:href="#DejaVuSans-55"/>
       <use x="63.623047" xlink:href="#DejaVuSans-53"/>
      </g>
     </g>
    </g>
   </g>
   <g id="line2d_1">
    <path clip-path="url(#p8663bd2945)" d="M 57.681818 142.113103 
L 74.869979 142.007582 
L 76.265328 141.667943 
L 77.724101 141.080527 
L 79.309725 140.192709 
L 81.022199 138.965278 
L 82.861522 137.361878 
L 84.827696 135.348721 
L 86.984144 132.81504 
L 89.330867 129.702804 
L 91.867865 125.956024 
L 94.595137 121.520409 
L 97.512685 116.343016 
L 100.620507 110.371961 
L 103.98203 103.420546 
L 107.914376 95.256832 
L 110.0074 91.567264 
L 112.100423 88.318032 
L 114.193446 85.464249 
L 116.349894 82.897361 
L 118.506342 80.674945 
L 120.662791 78.767998 
L 122.819239 77.152333 
L 124.975687 75.807647 
L 127.132135 74.716745 
L 129.352008 73.843345 
L 131.571882 73.209455 
L 133.791755 72.803025 
L 136.075053 72.611136 
L 139.7537 72.596091 
L 234.130021 72.685712 
L 236.413319 72.999311 
L 238.633192 73.529805 
L 240.853066 74.294202 
L 243.009514 75.273046 
L 245.165962 76.498584 
L 247.32241 77.986739 
L 249.415433 79.69991 
L 251.508457 81.698133 
L 253.60148 84.005178 
L 255.694503 86.649266 
L 257.787526 89.663836 
L 259.817125 92.977917 
L 261.846723 96.718006 
L 263.876321 100.927535 
L 267.237844 108.042544 
L 270.599366 114.65532 
L 273.707188 120.289649 
L 276.624736 125.125862 
L 279.288584 129.125735 
L 281.762156 132.452967 
L 284.045455 135.163226 
L 286.138478 137.314586 
L 288.041226 138.967933 
L 289.817125 140.22707 
L 291.466173 141.128652 
L 292.988372 141.712634 
L 294.447146 142.031147 
L 295.842495 142.103691 
L 311.318182 142.104009 
L 311.318182 142.104009 
" style="fill:none;stroke:#000000;stroke-linecap:square;stroke-width:4;"/>
   </g>
   <g id="patch_3">
    <path d="M 45 145.588966 
L 45 69.12 
" style="fill:none;stroke:#000000;stroke-linecap:square;stroke-linejoin:miter;stroke-width:0.8;"/>
   </g>
   <g id="patch_4">
    <path d="M 45 145.588966 
L 324 145.588966 
" style="fill:none;stroke:#000000;stroke-linecap:square;stroke-linejoin:miter;stroke-width:0.8;"/>
   </g>
  </g>
  <g id="axes_2">
   <g id="patch_5">
    <path d="M 45 237.351724 
L 324 237.351724 
L 324 160.882759 
L 45 160.882759 
z
" style="fill:#ffffff;"/>
   </g>
   <g id="matplotlib.axis_3">
    <g id="xtick_4"/>
    <g id="xtick_5"/>
    <g id="xtick_6"/>
   </g>
   <g id="matplotlib.axis_4">
    <g id="ytick_4">
     <g id="text_4">
      <!-- 25 -->
      <g transform="translate(12.55 228.955435)scale(0.2 -0.2)">
       <use xlink:href="#DejaVuSans-50"/>
       <use x="63.623047" xlink:href="#DejaVuSans-53"/>
      </g>
     </g>
    </g>
    <g id="ytick_5">
     <g id="text_5">
      <!-- 50 -->
      <g transform="translate(12.55 194.081473)scale(0.2 -0.2)">
       <use xlink:href="#DejaVuSans-53"/>
       <use x="63.623047" xlink:href="#DejaVuSans-48"/>
      </g>
     </g>
    </g>
   </g>
   <g id="line2d_2">
    <path clip-path="url(#pd527d4e34f)" d="M 57.681818 233.875862 
L 75.187104 233.766369 
L 76.772727 233.434347 
L 78.421776 232.855093 
L 80.070825 232.041391 
L 81.846723 230.909649 
L 83.686047 229.467271 
L 85.65222 227.633044 
L 87.745243 225.362842 
L 89.965116 222.61406 
L 92.311839 219.345784 
L 94.848837 215.415733 
L 97.512685 210.869816 
L 100.366808 205.549248 
L 103.411205 199.390072 
L 109.2463 187.359022 
L 111.593023 183.264194 
L 113.876321 179.725744 
L 116.096195 176.689486 
L 118.252643 174.103608 
L 120.409091 171.858737 
L 122.502114 169.990163 
L 124.595137 168.41255 
L 126.688161 167.112272 
L 128.781184 166.076665 
L 130.874207 165.294015 
L 132.96723 164.753523 
L 135.060254 164.445241 
L 137.216702 164.359028 
L 232.671247 164.367513 
L 234.764271 164.540744 
L 236.857294 164.940189 
L 238.886892 165.552425 
L 240.91649 166.395438 
L 242.946089 167.479216 
L 244.975687 168.814523 
L 247.005285 170.412919 
L 249.098309 172.349875 
L 251.191332 174.594035 
L 253.34778 177.243227 
L 255.504228 180.250783 
L 257.724101 183.73792 
L 260.0074 187.754689 
L 262.354123 192.349979 
L 270.662791 209.245685 
L 273.516913 214.237675 
L 276.180761 218.459566 
L 278.654334 221.979161 
L 281.001057 224.940968 
L 283.22093 227.386024 
L 285.250529 229.302654 
L 287.216702 230.855584 
L 289.056025 232.026833 
L 290.768499 232.864613 
L 292.417548 233.43537 
L 294.066596 233.771059 
L 295.65222 233.871538 
L 311.318182 233.870988 
L 311.318182 233.870988 
" style="fill:none;stroke:#000000;stroke-linecap:square;stroke-width:4;"/>
   </g>
   <g id="patch_6">
    <path d="M 45 237.351724 
L 45 160.882759 
" style="fill:none;stroke:#000000;stroke-linecap:square;stroke-linejoin:miter;stroke-width:0.8;"/>
   </g>
   <g id="patch_7">
    <path d="M 45 237.351724 
L 324 237.351724 
" style="fill:none;stroke:#000000;stroke-linecap:square;stroke-linejoin:miter;stroke-width:0.8;"/>
   </g>
  </g>
  <g id="axes_3">
   <g id="patch_8">
    <path d="M 45 329.114483 
L 324 329.114483 
L 324 252.645517 
L 45 252.645517 
z
" style="fill:#ffffff;"/>
   </g>
   <g id="matplotlib.axis_5">
    <g id="xtick_7"/>
    <g id="xtick_8"/>
    <g id="xtick_9"/>
   </g>
   <g id="matplotlib.axis_6">
    <g id="ytick_6">
     <g id="text_6">
      <!-- 25 -->
      <g transform="translate(12.55 320.718194)scale(0.2 -0.2)">
       <use xlink:href="#DejaVuSans-50"/>
       <use x="63.623047" xlink:href="#DejaVuSans-53"/>
      </g>
     </g>
    </g>
    <g id="ytick_7">
     <g id="text_7">
      <!-- 50 -->
      <g transform="translate(12.55 285.844232)scale(0.2 -0.2)">
       <use xlink:href="#DejaVuSans-53"/>
       <use x="63.623047" xlink:href="#DejaVuSans-48"/>
      </g>
     </g>
    </g>
   </g>
   <g id="line2d_3">
    <path clip-path="url(#pf4831614bf)" d="M 57.681818 325.638621 
L 75.187104 325.529127 
L 76.772727 325.197106 
L 78.421776 324.617852 
L 80.070825 323.80415 
L 81.846723 322.672407 
L 83.686047 321.230029 
L 85.65222 319.395803 
L 87.745243 317.125601 
L 89.965116 314.376819 
L 92.311839 311.108543 
L 94.848837 307.178492 
L 97.512685 302.632575 
L 100.366808 297.312007 
L 103.411205 291.15283 
L 109.2463 279.12178 
L 111.593023 275.026953 
L 113.876321 271.488503 
L 116.096195 268.452245 
L 118.252643 265.866367 
L 120.409091 263.621495 
L 122.502114 261.752922 
L 124.595137 260.175309 
L 126.688161 258.875031 
L 128.781184 257.839423 
L 130.874207 257.056774 
L 132.96723 256.516282 
L 135.060254 256.208 
L 137.216702 256.121787 
L 232.671247 256.130272 
L 234.764271 256.303503 
L 236.857294 256.702947 
L 238.886892 257.315184 
L 240.91649 258.158197 
L 242.946089 259.241975 
L 244.975687 260.577282 
L 247.005285 262.175678 
L 249.098309 264.112633 
L 251.191332 266.356794 
L 253.34778 269.005986 
L 255.504228 272.013542 
L 257.724101 275.500679 
L 260.0074 279.517448 
L 262.354123 284.112738 
L 270.662791 301.008444 
L 273.516913 306.000434 
L 276.180761 310.222325 
L 278.654334 313.74192 
L 281.001057 316.703727 
L 283.22093 319.148783 
L 285.250529 321.065413 
L 287.216702 322.618343 
L 289.056025 323.789592 
L 290.768499 324.627372 
L 292.417548 325.198128 
L 294.066596 325.533817 
L 295.65222 325.634297 
L 311.318182 325.633746 
L 311.318182 325.633746 
" style="fill:none;stroke:#000000;stroke-linecap:square;stroke-width:4;"/>
   </g>
   <g id="patch_9">
    <path d="M 45 329.114483 
L 45 252.645517 
" style="fill:none;stroke:#000000;stroke-linecap:square;stroke-linejoin:miter;stroke-width:0.8;"/>
   </g>
   <g id="patch_10">
    <path d="M 45 329.114483 
L 324 329.114483 
" style="fill:none;stroke:#000000;stroke-linecap:square;stroke-linejoin:miter;stroke-width:0.8;"/>
   </g>
  </g>
  <g id="axes_4">
   <g id="patch_11">
    <path d="M 45 420.877241 
L 324 420.877241 
L 324 344.408276 
L 45 344.408276 
z
" style="fill:#ffffff;"/>
   </g>
   <g id="matplotlib.axis_7">
    <g id="xtick_10"/>
    <g id="xtick_11"/>
    <g id="xtick_12"/>
   </g>
   <g id="matplotlib.axis_8">
    <g id="ytick_8">
     <g id="text_8">
      <!-- 15 -->
      <defs>
       <path d="M 12.40625 8.296875 
L 28.515625 8.296875 
L 28.515625 63.921875 
L 10.984375 60.40625 
L 10.984375 69.390625 
L 28.421875 72.90625 
L 38.28125 72.90625 
L 38.28125 8.296875 
L 54.390625 8.296875 
L 54.390625 0 
L 12.40625 0 
z
" id="DejaVuSans-49"/>
      </defs>
      <g transform="translate(12.55 428.23997)scale(0.2 -0.2)">
       <use xlink:href="#DejaVuSans-49"/>
       <use x="63.623047" xlink:href="#DejaVuSans-53"/>
      </g>
     </g>
    </g>
    <g id="ytick_9">
     <g id="text_9">
      <!-- 20 -->
      <g transform="translate(12.55 389.51311)scale(0.2 -0.2)">
       <use xlink:href="#DejaVuSans-50"/>
       <use x="63.623047" xlink:href="#DejaVuSans-48"/>
      </g>
     </g>
    </g>
   </g>
   <g id="line2d_4">
    <path clip-path="url(#p1321d42ff3)" d="M 57.681818 417.165572 
L 77.470402 417.275095 
L 80.831924 417.289838 
L 83.178647 417.078394 
L 85.208245 416.677725 
L 87.110994 416.078323 
L 88.950317 415.262911 
L 90.726216 414.231069 
L 92.502114 412.937369 
L 94.278013 411.36194 
L 96.053911 409.486185 
L 97.893235 407.208199 
L 99.732558 404.571071 
L 101.635307 401.446837 
L 103.60148 397.776533 
L 105.694503 393.370812 
L 115.461945 372.2066 
L 118.379493 366.581801 
L 120.91649 362.147936 
L 123.199789 358.580607 
L 125.292812 355.702303 
L 127.258985 353.368786 
L 129.034884 351.590115 
L 130.747357 350.18698 
L 132.332981 349.173392 
L 133.791755 348.49283 
L 135.187104 348.075227 
L 136.582452 347.892423 
L 139.436575 347.884888 
L 233.432347 347.996468 
L 234.827696 348.344858 
L 236.223044 348.923423 
L 237.681818 349.767135 
L 239.267442 350.951884 
L 240.91649 352.468432 
L 242.692389 354.411321 
L 244.595137 356.830396 
L 246.688161 359.868313 
L 248.971459 363.596083 
L 251.445032 368.070125 
L 254.299154 373.712606 
L 257.724101 381.004546 
L 266.476744 399.933383 
L 268.506342 403.465402 
L 270.472516 406.44169 
L 272.375264 408.923889 
L 274.214588 410.96971 
L 276.053911 412.686904 
L 277.82981 414.051862 
L 279.605708 415.148425 
L 281.445032 416.023239 
L 283.34778 416.674952 
L 285.313953 417.1094 
L 287.470402 417.350135 
L 289.943975 417.393557 
L 294.130021 417.193722 
L 297.428118 417.149943 
L 311.318182 417.149942 
L 311.318182 417.149942 
" style="fill:none;stroke:#000000;stroke-linecap:square;stroke-width:4;"/>
   </g>
   <g id="patch_12">
    <path d="M 45 420.877241 
L 45 344.408276 
" style="fill:none;stroke:#000000;stroke-linecap:square;stroke-linejoin:miter;stroke-width:0.8;"/>
   </g>
   <g id="patch_13">
    <path d="M 45 420.877241 
L 324 420.877241 
" style="fill:none;stroke:#000000;stroke-linecap:square;stroke-linejoin:miter;stroke-width:0.8;"/>
   </g>
  </g>
  <g id="axes_5">
   <g id="patch_14">
    <path d="M 45 512.64 
L 324 512.64 
L 324 436.171034 
L 45 436.171034 
z
" style="fill:#ffffff;"/>
   </g>
   <g id="matplotlib.axis_9">
    <g id="xtick_13">
     <g id="line2d_5">
      <defs>
       <path d="M 0 0 
L 0 3.5 
" id="med33c409a0" style="stroke:#000000;stroke-width:0.8;"/>
      </defs>
      <g>
       <use style="stroke:#000000;stroke-width:0.8;" x="57.681818" xlink:href="#med33c409a0" y="512.64"/>
      </g>
     </g>
     <g id="text_10">
      <!-- 0 -->
      <g transform="translate(51.319318 534.836875)scale(0.2 -0.2)">
       <use xlink:href="#DejaVuSans-48"/>
      </g>
     </g>
    </g>
    <g id="xtick_14">
     <g id="line2d_6">
      <g>
       <use style="stroke:#000000;stroke-width:0.8;" x="184.531712" xlink:href="#med33c409a0" y="512.64"/>
      </g>
     </g>
     <g id="text_11">
      <!-- 2000 -->
      <g transform="translate(159.081712 534.836875)scale(0.2 -0.2)">
       <use xlink:href="#DejaVuSans-50"/>
       <use x="63.623047" xlink:href="#DejaVuSans-48"/>
       <use x="127.246094" xlink:href="#DejaVuSans-48"/>
       <use x="190.869141" xlink:href="#DejaVuSans-48"/>
      </g>
     </g>
    </g>
    <g id="xtick_15">
     <g id="line2d_7">
      <g>
       <use style="stroke:#000000;stroke-width:0.8;" x="311.381607" xlink:href="#med33c409a0" y="512.64"/>
      </g>
     </g>
     <g id="text_12">
      <!-- 4000 -->
      <defs>
       <path d="M 37.796875 64.3125 
L 12.890625 25.390625 
L 37.796875 25.390625 
z
M 35.203125 72.90625 
L 47.609375 72.90625 
L 47.609375 25.390625 
L 58.015625 25.390625 
L 58.015625 17.1875 
L 47.609375 17.1875 
L 47.609375 0 
L 37.796875 0 
L 37.796875 17.1875 
L 4.890625 17.1875 
L 4.890625 26.703125 
z
" id="DejaVuSans-52"/>
      </defs>
      <g transform="translate(285.931607 534.836875)scale(0.2 -0.2)">
       <use xlink:href="#DejaVuSans-52"/>
       <use x="63.623047" xlink:href="#DejaVuSans-48"/>
       <use x="127.246094" xlink:href="#DejaVuSans-48"/>
       <use x="190.869141" xlink:href="#DejaVuSans-48"/>
      </g>
     </g>
    </g>
   </g>
   <g id="matplotlib.axis_10">
    <g id="ytick_10">
     <g id="text_13">
      <!-- 20 -->
      <g transform="translate(12.55 498.284222)scale(0.2 -0.2)">
       <use xlink:href="#DejaVuSans-50"/>
       <use x="63.623047" xlink:href="#DejaVuSans-48"/>
      </g>
     </g>
    </g>
    <g id="ytick_11">
     <g id="text_14">
      <!-- 30 -->
      <defs>
       <path d="M 40.578125 39.3125 
Q 47.65625 37.796875 51.625 33 
Q 55.609375 28.21875 55.609375 21.1875 
Q 55.609375 10.40625 48.1875 4.484375 
Q 40.765625 -1.421875 27.09375 -1.421875 
Q 22.515625 -1.421875 17.65625 -0.515625 
Q 12.796875 0.390625 7.625 2.203125 
L 7.625 11.71875 
Q 11.71875 9.328125 16.59375 8.109375 
Q 21.484375 6.890625 26.8125 6.890625 
Q 36.078125 6.890625 40.9375 10.546875 
Q 45.796875 14.203125 45.796875 21.1875 
Q 45.796875 27.640625 41.28125 31.265625 
Q 36.765625 34.90625 28.71875 34.90625 
L 20.21875 34.90625 
L 20.21875 43.015625 
L 29.109375 43.015625 
Q 36.375 43.015625 40.234375 45.921875 
Q 44.09375 48.828125 44.09375 54.296875 
Q 44.09375 59.90625 40.109375 62.90625 
Q 36.140625 65.921875 28.71875 65.921875 
Q 24.65625 65.921875 20.015625 65.03125 
Q 15.375 64.15625 9.8125 62.3125 
L 9.8125 71.09375 
Q 15.4375 72.65625 20.34375 73.4375 
Q 25.25 74.21875 29.59375 74.21875 
Q 40.828125 74.21875 47.359375 69.109375 
Q 53.90625 64.015625 53.90625 55.328125 
Q 53.90625 49.265625 50.4375 45.09375 
Q 46.96875 40.921875 40.578125 39.3125 
z
" id="DejaVuSans-51"/>
      </defs>
      <g transform="translate(12.55 451.790352)scale(0.2 -0.2)">
       <use xlink:href="#DejaVuSans-51"/>
       <use x="63.623047" xlink:href="#DejaVuSans-48"/>
      </g>
     </g>
    </g>
   </g>
   <g id="line2d_8">
    <path clip-path="url(#pe1aa58f44d)" d="M 57.681818 509.164138 
L 76.836152 509.05756 
L 79.309725 508.767805 
L 81.529598 508.282384 
L 83.559197 507.61281 
L 85.52537 506.730697 
L 87.428118 505.636687 
L 89.330867 504.287748 
L 91.233615 502.667391 
L 93.199789 500.692045 
L 95.165962 498.396067 
L 97.19556 495.675493 
L 99.288584 492.483091 
L 101.445032 488.76969 
L 103.664905 484.484378 
L 106.138478 479.190998 
L 110.641649 469.64723 
L 113.939746 463.167369 
L 116.793869 458.037847 
L 119.394292 453.816754 
L 121.741015 450.418507 
L 123.960888 447.591287 
L 125.990486 445.35568 
L 127.893235 443.577102 
L 129.732558 442.160775 
L 131.445032 441.118191 
L 133.09408 440.372344 
L 134.679704 439.899186 
L 136.201903 439.674126 
L 138.104651 439.647519 
L 233.622622 439.763727 
L 235.14482 440.106257 
L 236.730444 440.699143 
L 238.316068 441.528419 
L 240.028541 442.683709 
L 241.80444 444.159254 
L 243.707188 446.043942 
L 245.673362 448.309291 
L 247.766385 451.059759 
L 250.049683 454.436654 
L 252.523256 458.506353 
L 255.250529 463.441613 
L 258.294926 469.429191 
L 261.973573 477.182381 
L 266.476744 486.682316 
L 268.696617 490.731082 
L 270.853066 494.221914 
L 272.946089 497.205822 
L 275.039112 499.805255 
L 277.06871 501.97318 
L 279.034884 503.756954 
L 281.001057 505.245157 
L 282.96723 506.455134 
L 284.933404 507.40613 
L 286.963002 508.138982 
L 289.056025 508.658154 
L 291.339323 508.990501 
L 294.003171 509.140227 
L 300.218816 509.150047 
L 311.318182 509.150047 
L 311.318182 509.150047 
" style="fill:none;stroke:#000000;stroke-linecap:square;stroke-width:4;"/>
   </g>
   <g id="patch_15">
    <path d="M 45 512.64 
L 45 436.171034 
" style="fill:none;stroke:#000000;stroke-linecap:square;stroke-linejoin:miter;stroke-width:0.8;"/>
   </g>
   <g id="patch_16">
    <path d="M 45 512.64 
L 324 512.64 
" style="fill:none;stroke:#000000;stroke-linecap:square;stroke-linejoin:miter;stroke-width:0.8;"/>
   </g>
  </g>
 </g>
 <defs>
  <clipPath id="p8663bd2945">
   <rect height="76.468966" width="279" x="45" y="69.12"/>
  </clipPath>
  <clipPath id="pd527d4e34f">
   <rect height="76.468966" width="279" x="45" y="160.882759"/>
  </clipPath>
  <clipPath id="pf4831614bf">
   <rect height="76.468966" width="279" x="45" y="252.645517"/>
  </clipPath>
  <clipPath id="p1321d42ff3">
   <rect height="76.468966" width="279" x="45" y="344.408276"/>
  </clipPath>
  <clipPath id="pe1aa58f44d">
   <rect height="76.468966" width="279" x="45" y="436.171034"/>
  </clipPath>
 </defs>
</svg>
