<?xml version="1.0" encoding="utf-8" standalone="no"?>
<!DOCTYPE svg PUBLIC "-//W3C//DTD SVG 1.1//EN"
  "http://www.w3.org/Graphics/SVG/1.1/DTD/svg11.dtd">
<!-- Created with matplotlib (https://matplotlib.org/) -->
<svg height="1296pt" version="1.1" viewBox="0 0 216 1296" width="216pt" xmlns="http://www.w3.org/2000/svg" xmlns:xlink="http://www.w3.org/1999/xlink">
 <defs>
  <style type="text/css">
*{stroke-linecap:butt;stroke-linejoin:round;white-space:pre;}
  </style>
 </defs>
 <g id="figure_1">
  <g id="patch_1">
   <path d="M 0 1296 
L 216 1296 
L 216 0 
L 0 0 
z
" style="fill:#ffffff;"/>
  </g>
  <g id="axes_1">
   <g id="patch_2">
    <path d="M 23.964 304.601872 
L 204.768 304.601872 
L 204.768 64.8 
L 23.964 64.8 
z
" style="fill:#ffffff;"/>
   </g>
   <g id="patch_3">
    <path clip-path="url(#p1f97718575)" d="M 32.182364 304.601872 
L 53.621573 304.601872 
L 53.621573 79.259228 
L 32.182364 79.259228 
z
" style="fill:url(#hc9283b2f30);stroke:#000000;stroke-linejoin:miter;stroke-width:2;"/>
   </g>
   <g id="patch_4">
    <path clip-path="url(#p1f97718575)" d="M 67.914379 304.601872 
L 89.353589 304.601872 
L 89.353589 81.549744 
L 67.914379 81.549744 
z
" style="fill:url(#hc9283b2f30);stroke:#000000;stroke-linejoin:miter;stroke-width:2;"/>
   </g>
   <g id="patch_5">
    <path clip-path="url(#p1f97718575)" d="M 103.646395 304.601872 
L 125.085605 304.601872 
L 125.085605 81.549744 
L 103.646395 81.549744 
z
" style="fill:url(#hc9283b2f30);stroke:#000000;stroke-linejoin:miter;stroke-width:2;"/>
   </g>
   <g id="patch_6">
    <path clip-path="url(#p1f97718575)" d="M 139.378411 304.601872 
L 160.817621 304.601872 
L 160.817621 79.962203 
L 139.378411 79.962203 
z
" style="fill:url(#hc9283b2f30);stroke:#000000;stroke-linejoin:miter;stroke-width:2;"/>
   </g>
   <g id="patch_7">
    <path clip-path="url(#p1f97718575)" d="M 175.110427 304.601872 
L 196.549636 304.601872 
L 196.549636 80.472757 
L 175.110427 80.472757 
z
" style="fill:url(#hc9283b2f30);stroke:#000000;stroke-linejoin:miter;stroke-width:2;"/>
   </g>
   <g id="matplotlib.axis_1">
    <g id="xtick_1">
     <g id="text_1">
      <!-- RF -->
      <defs>
       <path d="M 44.390625 34.1875 
Q 47.5625 33.109375 50.5625 29.59375 
Q 53.5625 26.078125 56.59375 19.921875 
L 66.609375 0 
L 56 0 
L 46.6875 18.703125 
Q 43.0625 26.03125 39.671875 28.421875 
Q 36.28125 30.8125 30.421875 30.8125 
L 19.671875 30.8125 
L 19.671875 0 
L 9.8125 0 
L 9.8125 72.90625 
L 32.078125 72.90625 
Q 44.578125 72.90625 50.734375 67.671875 
Q 56.890625 62.453125 56.890625 51.90625 
Q 56.890625 45.015625 53.6875 40.46875 
Q 50.484375 35.9375 44.390625 34.1875 
z
M 19.671875 64.796875 
L 19.671875 38.921875 
L 32.078125 38.921875 
Q 39.203125 38.921875 42.84375 42.21875 
Q 46.484375 45.515625 46.484375 51.90625 
Q 46.484375 58.296875 42.84375 61.546875 
Q 39.203125 64.796875 32.078125 64.796875 
z
" id="DejaVuSans-82"/>
       <path d="M 9.8125 72.90625 
L 51.703125 72.90625 
L 51.703125 64.59375 
L 19.671875 64.59375 
L 19.671875 43.109375 
L 48.578125 43.109375 
L 48.578125 34.8125 
L 19.671875 34.8125 
L 19.671875 0 
L 9.8125 0 
z
" id="DejaVuSans-70"/>
      </defs>
      <g transform="translate(30.201968 326.798747)scale(0.2 -0.2)">
       <use xlink:href="#DejaVuSans-82"/>
       <use x="69.482422" xlink:href="#DejaVuSans-70"/>
      </g>
     </g>
    </g>
    <g id="xtick_2">
     <g id="text_2">
      <!-- VL -->
      <defs>
       <path d="M 28.609375 0 
L 0.78125 72.90625 
L 11.078125 72.90625 
L 34.1875 11.53125 
L 57.328125 72.90625 
L 67.578125 72.90625 
L 39.796875 0 
z
" id="DejaVuSans-86"/>
       <path d="M 9.8125 72.90625 
L 19.671875 72.90625 
L 19.671875 8.296875 
L 55.171875 8.296875 
L 55.171875 0 
L 9.8125 0 
z
" id="DejaVuSans-76"/>
      </defs>
      <g transform="translate(66.221484 326.798747)scale(0.2 -0.2)">
       <use xlink:href="#DejaVuSans-86"/>
       <use x="68.408203" xlink:href="#DejaVuSans-76"/>
      </g>
     </g>
    </g>
    <g id="xtick_3">
     <g id="text_3">
      <!-- VM -->
      <defs>
       <path d="M 9.8125 72.90625 
L 24.515625 72.90625 
L 43.109375 23.296875 
L 61.8125 72.90625 
L 76.515625 72.90625 
L 76.515625 0 
L 66.890625 0 
L 66.890625 64.015625 
L 48.09375 14.015625 
L 38.1875 14.015625 
L 19.390625 64.015625 
L 19.390625 0 
L 9.8125 0 
z
" id="DejaVuSans-77"/>
      </defs>
      <g transform="translate(98.89725 326.798747)scale(0.2 -0.2)">
       <use xlink:href="#DejaVuSans-86"/>
       <use x="68.408203" xlink:href="#DejaVuSans-77"/>
      </g>
     </g>
    </g>
    <g id="xtick_4">
     <g id="text_4">
      <!-- ST -->
      <defs>
       <path d="M 53.515625 70.515625 
L 53.515625 60.890625 
Q 47.90625 63.578125 42.921875 64.890625 
Q 37.9375 66.21875 33.296875 66.21875 
Q 25.25 66.21875 20.875 63.09375 
Q 16.5 59.96875 16.5 54.203125 
Q 16.5 49.359375 19.40625 46.890625 
Q 22.3125 44.4375 30.421875 42.921875 
L 36.375 41.703125 
Q 47.40625 39.59375 52.65625 34.296875 
Q 57.90625 29 57.90625 20.125 
Q 57.90625 9.515625 50.796875 4.046875 
Q 43.703125 -1.421875 29.984375 -1.421875 
Q 24.8125 -1.421875 18.96875 -0.25 
Q 13.140625 0.921875 6.890625 3.21875 
L 6.890625 13.375 
Q 12.890625 10.015625 18.65625 8.296875 
Q 24.421875 6.59375 29.984375 6.59375 
Q 38.421875 6.59375 43.015625 9.90625 
Q 47.609375 13.234375 47.609375 19.390625 
Q 47.609375 24.75 44.3125 27.78125 
Q 41.015625 30.8125 33.5 32.328125 
L 27.484375 33.5 
Q 16.453125 35.6875 11.515625 40.375 
Q 6.59375 45.0625 6.59375 53.421875 
Q 6.59375 63.09375 13.40625 68.65625 
Q 20.21875 74.21875 32.171875 74.21875 
Q 37.3125 74.21875 42.625 73.28125 
Q 47.953125 72.359375 53.515625 70.515625 
z
" id="DejaVuSans-83"/>
       <path d="M -0.296875 72.90625 
L 61.375 72.90625 
L 61.375 64.59375 
L 35.5 64.59375 
L 35.5 0 
L 25.59375 0 
L 25.59375 64.59375 
L -0.296875 64.59375 
z
" id="DejaVuSans-84"/>
      </defs>
      <g transform="translate(137.641766 326.798747)scale(0.2 -0.2)">
       <use xlink:href="#DejaVuSans-83"/>
       <use x="63.476562" xlink:href="#DejaVuSans-84"/>
      </g>
     </g>
    </g>
    <g id="xtick_5">
     <g id="text_5">
      <!-- BF -->
      <defs>
       <path d="M 19.671875 34.8125 
L 19.671875 8.109375 
L 35.5 8.109375 
Q 43.453125 8.109375 47.28125 11.40625 
Q 51.125 14.703125 51.125 21.484375 
Q 51.125 28.328125 47.28125 31.5625 
Q 43.453125 34.8125 35.5 34.8125 
z
M 19.671875 64.796875 
L 19.671875 42.828125 
L 34.28125 42.828125 
Q 41.5 42.828125 45.03125 45.53125 
Q 48.578125 48.25 48.578125 53.8125 
Q 48.578125 59.328125 45.03125 62.0625 
Q 41.5 64.796875 34.28125 64.796875 
z
M 9.8125 72.90625 
L 35.015625 72.90625 
Q 46.296875 72.90625 52.390625 68.21875 
Q 58.5 63.53125 58.5 54.890625 
Q 58.5 48.1875 55.375 44.234375 
Q 52.25 40.28125 46.1875 39.3125 
Q 53.46875 37.75 57.5 32.78125 
Q 61.53125 27.828125 61.53125 20.40625 
Q 61.53125 10.640625 54.890625 5.3125 
Q 48.25 0 35.984375 0 
L 9.8125 0 
z
" id="DejaVuSans-66"/>
      </defs>
      <g transform="translate(173.217532 326.798747)scale(0.2 -0.2)">
       <use xlink:href="#DejaVuSans-66"/>
       <use x="68.603516" xlink:href="#DejaVuSans-70"/>
      </g>
     </g>
    </g>
   </g>
   <g id="matplotlib.axis_2">
    <g id="ytick_1"/>
    <g id="ytick_2"/>
    <g id="ytick_3"/>
    <g id="ytick_4"/>
    <g id="ytick_5"/>
    <g id="ytick_6"/>
   </g>
   <g id="patch_8">
    <path d="M 23.964 304.601872 
L 204.768 304.601872 
" style="fill:none;stroke:#000000;stroke-linecap:square;stroke-linejoin:miter;stroke-width:0.8;"/>
   </g>
  </g>
  <g id="axes_2">
   <g id="patch_9">
    <path d="M 23.964 614.157914 
L 204.768 614.157914 
L 204.768 374.356043 
L 23.964 374.356043 
z
" style="fill:#ffffff;"/>
   </g>
   <g id="matplotlib.axis_3">
    <g id="xtick_6">
     <g id="text_6">
      <!-- 0 -->
      <defs>
       <path d="M 31.78125 66.40625 
Q 24.171875 66.40625 20.328125 58.90625 
Q 16.5 51.421875 16.5 36.375 
Q 16.5 21.390625 20.328125 13.890625 
Q 24.171875 6.390625 31.78125 6.390625 
Q 39.453125 6.390625 43.28125 13.890625 
Q 47.125 21.390625 47.125 36.375 
Q 47.125 51.421875 43.28125 58.90625 
Q 39.453125 66.40625 31.78125 66.40625 
z
M 31.78125 74.21875 
Q 44.046875 74.21875 50.515625 64.515625 
Q 56.984375 54.828125 56.984375 36.375 
Q 56.984375 17.96875 50.515625 8.265625 
Q 44.046875 -1.421875 31.78125 -1.421875 
Q 19.53125 -1.421875 13.0625 8.265625 
Q 6.59375 17.96875 6.59375 36.375 
Q 6.59375 54.828125 13.0625 64.515625 
Q 19.53125 74.21875 31.78125 74.21875 
z
" id="DejaVuSans-48"/>
      </defs>
      <g transform="translate(25.819864 636.354789)scale(0.2 -0.2)">
       <use xlink:href="#DejaVuSans-48"/>
      </g>
     </g>
    </g>
    <g id="xtick_7">
     <g id="text_7">
      <!-- 8 -->
      <defs>
       <path d="M 31.78125 34.625 
Q 24.75 34.625 20.71875 30.859375 
Q 16.703125 27.09375 16.703125 20.515625 
Q 16.703125 13.921875 20.71875 10.15625 
Q 24.75 6.390625 31.78125 6.390625 
Q 38.8125 6.390625 42.859375 10.171875 
Q 46.921875 13.96875 46.921875 20.515625 
Q 46.921875 27.09375 42.890625 30.859375 
Q 38.875 34.625 31.78125 34.625 
z
M 21.921875 38.8125 
Q 15.578125 40.375 12.03125 44.71875 
Q 8.5 49.078125 8.5 55.328125 
Q 8.5 64.0625 14.71875 69.140625 
Q 20.953125 74.21875 31.78125 74.21875 
Q 42.671875 74.21875 48.875 69.140625 
Q 55.078125 64.0625 55.078125 55.328125 
Q 55.078125 49.078125 51.53125 44.71875 
Q 48 40.375 41.703125 38.8125 
Q 48.828125 37.15625 52.796875 32.3125 
Q 56.78125 27.484375 56.78125 20.515625 
Q 56.78125 9.90625 50.3125 4.234375 
Q 43.84375 -1.421875 31.78125 -1.421875 
Q 19.734375 -1.421875 13.25 4.234375 
Q 6.78125 9.90625 6.78125 20.515625 
Q 6.78125 27.484375 10.78125 32.3125 
Q 14.796875 37.15625 21.921875 38.8125 
z
M 18.3125 54.390625 
Q 18.3125 48.734375 21.84375 45.5625 
Q 25.390625 42.390625 31.78125 42.390625 
Q 38.140625 42.390625 41.71875 45.5625 
Q 45.3125 48.734375 45.3125 54.390625 
Q 45.3125 60.0625 41.71875 63.234375 
Q 38.140625 66.40625 31.78125 66.40625 
Q 25.390625 66.40625 21.84375 63.234375 
Q 18.3125 60.0625 18.3125 54.390625 
z
" id="DejaVuSans-56"/>
      </defs>
      <g transform="translate(190.228238 636.354789)scale(0.2 -0.2)">
       <use xlink:href="#DejaVuSans-56"/>
      </g>
     </g>
    </g>
   </g>
   <g id="matplotlib.axis_4">
    <g id="ytick_7"/>
    <g id="ytick_8"/>
    <g id="ytick_9"/>
    <g id="ytick_10"/>
    <g id="ytick_11"/>
    <g id="ytick_12"/>
   </g>
   <g id="line2d_1">
    <path clip-path="url(#p9ae54382f0)" d="M 32.182364 573.760724 
L 43.485439 573.654499 
L 44.430788 573.32906 
L 45.376136 572.769923 
L 46.362586 571.92209 
L 47.390138 570.734934 
L 48.458793 569.152389 
L 49.609651 567.029033 
L 50.801612 564.3463 
L 52.075777 560.904579 
L 53.391044 556.696354 
L 54.788515 551.456951 
L 56.268191 545.001977 
L 57.788968 537.345884 
L 59.39195 528.099405 
L 61.077136 517.01477 
L 62.803423 504.143739 
L 66.338204 477.015832 
L 68.681023 460.913968 
L 70.77723 447.980065 
L 72.667926 437.63061 
L 72.75013 437.200111 
L 72.873436 432.144285 
L 74.51752 425.720024 
L 76.038298 420.644941 
L 77.394667 416.847917 
L 78.62773 414.011447 
L 79.737486 411.972765 
L 80.765038 410.529045 
L 81.669284 409.618344 
L 82.491326 409.087428 
L 83.231164 408.854766 
L 84.176512 408.826806 
L 145.952959 408.933442 
L 146.692797 409.273507 
L 147.473736 409.882486 
L 148.33688 410.850341 
L 149.282229 412.260127 
L 150.309781 414.199998 
L 151.46064 416.866375 
L 152.734804 420.412484 
L 154.132276 424.999435 
L 155.653053 430.793059 
L 156.228482 433.196771 
L 156.351789 438.360425 
L 158.160281 448.312145 
L 160.133181 460.467336 
L 162.311592 475.323189 
L 164.736616 493.44312 
L 168.271396 520.148947 
L 169.997684 531.076295 
L 171.68287 540.35296 
L 173.285851 547.964041 
L 174.806629 554.146538 
L 176.245202 559.112356 
L 177.642673 563.158283 
L 178.95794 566.303843 
L 180.191003 568.701828 
L 181.341862 570.485759 
L 182.451618 571.814189 
L 183.520273 572.750902 
L 184.506723 573.334882 
L 185.493173 573.66577 
L 186.479623 573.760694 
L 196.549636 573.760724 
L 196.549636 573.760724 
" style="fill:none;stroke:#ff0000;stroke-linecap:square;stroke-width:3;"/>
   </g>
   <g id="patch_10">
    <path d="M 23.964 614.157914 
L 204.768 614.157914 
" style="fill:none;stroke:#000000;stroke-linecap:square;stroke-linejoin:miter;stroke-width:0.8;"/>
   </g>
  </g>
  <g id="axes_3">
   <g id="patch_11">
    <path d="M 23.964 923.713957 
L 204.768 923.713957 
L 204.768 683.912086 
L 23.964 683.912086 
z
" style="fill:#ffffff;"/>
   </g>
   <g id="patch_12">
    <path clip-path="url(#p1a5beb32d4)" d="M 32.182364 923.713957 
L 53.621573 923.713957 
L 53.621573 879.732575 
L 32.182364 879.732575 
z
" style="fill:url(#hc9283b2f30);stroke:#000000;stroke-linejoin:miter;stroke-width:2;"/>
   </g>
   <g id="patch_13">
    <path clip-path="url(#p1a5beb32d4)" d="M 67.914379 923.713957 
L 89.353589 923.713957 
L 89.353589 923.713957 
L 67.914379 923.713957 
z
" style="fill:url(#hc9283b2f30);stroke:#000000;stroke-linejoin:miter;stroke-width:2;"/>
   </g>
   <g id="patch_14">
    <path clip-path="url(#p1a5beb32d4)" d="M 103.646395 923.713957 
L 125.085605 923.713957 
L 125.085605 923.713957 
L 103.646395 923.713957 
z
" style="fill:url(#hc9283b2f30);stroke:#000000;stroke-linejoin:miter;stroke-width:2;"/>
   </g>
   <g id="patch_15">
    <path clip-path="url(#p1a5beb32d4)" d="M 139.378411 923.713957 
L 160.817621 923.713957 
L 160.817621 751.281513 
L 139.378411 751.281513 
z
" style="fill:url(#hc9283b2f30);stroke:#000000;stroke-linejoin:miter;stroke-width:2;"/>
   </g>
   <g id="patch_16">
    <path clip-path="url(#p1a5beb32d4)" d="M 175.110427 923.713957 
L 196.549636 923.713957 
L 196.549636 815.534907 
L 175.110427 815.534907 
z
" style="fill:url(#hc9283b2f30);stroke:#000000;stroke-linejoin:miter;stroke-width:2;"/>
   </g>
   <g id="matplotlib.axis_5">
    <g id="xtick_8">
     <g id="text_8">
      <!-- RF -->
      <g transform="translate(30.201968 945.910832)scale(0.2 -0.2)">
       <use xlink:href="#DejaVuSans-82"/>
       <use x="69.482422" xlink:href="#DejaVuSans-70"/>
      </g>
     </g>
    </g>
    <g id="xtick_9">
     <g id="text_9">
      <!-- VL -->
      <g transform="translate(66.221484 945.910832)scale(0.2 -0.2)">
       <use xlink:href="#DejaVuSans-86"/>
       <use x="68.408203" xlink:href="#DejaVuSans-76"/>
      </g>
     </g>
    </g>
    <g id="xtick_10">
     <g id="text_10">
      <!-- VM -->
      <g transform="translate(98.89725 945.910832)scale(0.2 -0.2)">
       <use xlink:href="#DejaVuSans-86"/>
       <use x="68.408203" xlink:href="#DejaVuSans-77"/>
      </g>
     </g>
    </g>
    <g id="xtick_11">
     <g id="text_11">
      <!-- ST -->
      <g transform="translate(137.641766 945.910832)scale(0.2 -0.2)">
       <use xlink:href="#DejaVuSans-83"/>
       <use x="63.476562" xlink:href="#DejaVuSans-84"/>
      </g>
     </g>
    </g>
    <g id="xtick_12">
     <g id="text_12">
      <!-- BF -->
      <g transform="translate(173.217532 945.910832)scale(0.2 -0.2)">
       <use xlink:href="#DejaVuSans-66"/>
       <use x="68.603516" xlink:href="#DejaVuSans-70"/>
      </g>
     </g>
    </g>
   </g>
   <g id="matplotlib.axis_6">
    <g id="ytick_13"/>
    <g id="ytick_14"/>
    <g id="ytick_15"/>
    <g id="ytick_16"/>
    <g id="ytick_17"/>
   </g>
   <g id="patch_17">
    <path d="M 23.964 923.713957 
L 204.768 923.713957 
" style="fill:none;stroke:#000000;stroke-linecap:square;stroke-linejoin:miter;stroke-width:0.8;"/>
   </g>
  </g>
  <g id="axes_4">
   <g id="patch_18">
    <path d="M 23.964 1233.27 
L 204.768 1233.27 
L 204.768 993.468128 
L 23.964 993.468128 
z
" style="fill:#ffffff;"/>
   </g>
   <g id="matplotlib.axis_7">
    <g id="xtick_13">
     <g id="text_13">
      <!-- 0 -->
      <g transform="translate(25.819864 1255.466875)scale(0.2 -0.2)">
       <use xlink:href="#DejaVuSans-48"/>
      </g>
     </g>
    </g>
    <g id="xtick_14">
     <g id="text_14">
      <!-- 8 -->
      <g transform="translate(190.228238 1255.466875)scale(0.2 -0.2)">
       <use xlink:href="#DejaVuSans-56"/>
      </g>
     </g>
    </g>
   </g>
   <g id="matplotlib.axis_8">
    <g id="ytick_18"/>
    <g id="ytick_19"/>
    <g id="ytick_20"/>
   </g>
   <g id="line2d_2">
    <path clip-path="url(#p70b79a08c5)" d="M 32.182364 1071.580255 
L 44.307481 1071.472103 
L 46.773607 1071.38922 
L 48.129976 1071.572374 
L 49.239733 1071.938724 
L 50.267285 1072.508569 
L 51.253735 1073.311636 
L 52.240185 1074.411155 
L 53.226636 1075.853088 
L 54.254188 1077.769646 
L 55.322842 1080.268527 
L 56.391497 1083.343315 
L 57.542355 1087.369426 
L 58.734316 1092.401487 
L 59.967379 1098.62102 
L 61.241544 1106.23134 
L 62.556811 1115.458968 
L 64.488609 1130.976412 
L 70.489515 1178.946575 
L 72.75013 1195.697537 
L 72.873436 1233.27 
L 156.228482 1233.27 
L 156.351789 1194.890716 
L 158.941221 1175.778836 
L 162.558205 1147.208143 
L 167.326048 1109.668923 
L 168.723519 1100.940176 
L 170.038786 1094.061898 
L 171.312951 1088.52457 
L 172.546014 1084.12163 
L 173.737974 1080.669355 
L 174.888833 1078.005572 
L 175.99859 1075.988271 
L 177.067244 1074.494142 
L 178.135898 1073.380564 
L 179.204553 1072.58999 
L 180.314309 1072.050593 
L 181.50627 1071.721664 
L 182.944843 1071.567705 
L 185.328765 1071.582912 
L 191.822896 1071.580255 
L 196.549636 1071.580255 
L 196.549636 1071.580255 
" style="fill:none;stroke:#ff0000;stroke-linecap:square;stroke-width:3;"/>
   </g>
   <g id="patch_19">
    <path d="M 23.964 1233.27 
L 204.768 1233.27 
" style="fill:none;stroke:#000000;stroke-linecap:square;stroke-linejoin:miter;stroke-width:0.8;"/>
   </g>
  </g>
 </g>
 <defs>
  <clipPath id="p1f97718575">
   <rect height="239.801872" width="180.804" x="23.964" y="64.8"/>
  </clipPath>
  <clipPath id="p9ae54382f0">
   <rect height="239.801872" width="180.804" x="23.964" y="374.356043"/>
  </clipPath>
  <clipPath id="p1a5beb32d4">
   <rect height="239.801872" width="180.804" x="23.964" y="683.912086"/>
  </clipPath>
  <clipPath id="p70b79a08c5">
   <rect height="239.801872" width="180.804" x="23.964" y="993.468128"/>
  </clipPath>
 </defs>
 <defs>
  <pattern height="72" id="hc9283b2f30" patternUnits="userSpaceOnUse" width="72" x="0" y="0">
   <rect fill="#ff0000" height="73" width="73" x="0" y="0"/>
   <path d="M -36 36 
L 36 -36 
M -30 42 
L 42 -30 
M -24 48 
L 48 -24 
M -18 54 
L 54 -18 
M -12 60 
L 60 -12 
M -6 66 
L 66 -6 
M 0 72 
L 72 0 
M 6 78 
L 78 6 
M 12 84 
L 84 12 
M 18 90 
L 90 18 
M 24 96 
L 96 24 
M 30 102 
L 102 30 
M 36 108 
L 108 36 
" style="fill:#000000;stroke:#000000;stroke-linecap:butt;stroke-linejoin:miter;stroke-width:1.0;"/>
  </pattern>
 </defs>
</svg>
