<?xml version="1.0" encoding="utf-8" standalone="no"?>
<!DOCTYPE svg PUBLIC "-//W3C//DTD SVG 1.1//EN"
  "http://www.w3.org/Graphics/SVG/1.1/DTD/svg11.dtd">
<!-- Created with matplotlib (https://matplotlib.org/) -->
<svg height="576pt" version="1.1" viewBox="0 0 360 576" width="360pt" xmlns="http://www.w3.org/2000/svg" xmlns:xlink="http://www.w3.org/1999/xlink">
 <defs>
  <style type="text/css">
*{stroke-linecap:butt;stroke-linejoin:round;}
  </style>
 </defs>
 <g id="figure_1">
  <g id="patch_1">
   <path d="M 0 576 
L 360 576 
L 360 0 
L 0 0 
z
" style="fill:#ffffff;"/>
  </g>
  <g id="axes_1">
   <g id="patch_2">
    <path d="M 45 145.588966 
L 324 145.588966 
L 324 69.12 
L 45 69.12 
z
" style="fill:#ffffff;"/>
   </g>
   <g id="matplotlib.axis_1">
    <g id="xtick_1"/>
    <g id="xtick_2"/>
    <g id="xtick_3"/>
   </g>
   <g id="matplotlib.axis_2">
    <g id="ytick_1">
     <g id="text_1">
      <!-- 25 -->
      <defs>
       <path d="M 19.1875 8.296875 
L 53.609375 8.296875 
L 53.609375 0 
L 7.328125 0 
L 7.328125 8.296875 
Q 12.9375 14.109375 22.625 23.890625 
Q 32.328125 33.6875 34.8125 36.53125 
Q 39.546875 41.84375 41.421875 45.53125 
Q 43.3125 49.21875 43.3125 52.78125 
Q 43.3125 58.59375 39.234375 62.25 
Q 35.15625 65.921875 28.609375 65.921875 
Q 23.96875 65.921875 18.8125 64.3125 
Q 13.671875 62.703125 7.8125 59.421875 
L 7.8125 69.390625 
Q 13.765625 71.78125 18.9375 73 
Q 24.125 74.21875 28.421875 74.21875 
Q 39.75 74.21875 46.484375 68.546875 
Q 53.21875 62.890625 53.21875 53.421875 
Q 53.21875 48.921875 51.53125 44.890625 
Q 49.859375 40.875 45.40625 35.40625 
Q 44.1875 33.984375 37.640625 27.21875 
Q 31.109375 20.453125 19.1875 8.296875 
z
" id="DejaVuSans-50"/>
       <path d="M 10.796875 72.90625 
L 49.515625 72.90625 
L 49.515625 64.59375 
L 19.828125 64.59375 
L 19.828125 46.734375 
Q 21.96875 47.46875 24.109375 47.828125 
Q 26.265625 48.1875 28.421875 48.1875 
Q 40.625 48.1875 47.75 41.5 
Q 54.890625 34.8125 54.890625 23.390625 
Q 54.890625 11.625 47.5625 5.09375 
Q 40.234375 -1.421875 26.90625 -1.421875 
Q 22.3125 -1.421875 17.546875 -0.640625 
Q 12.796875 0.140625 7.71875 1.703125 
L 7.71875 11.625 
Q 12.109375 9.234375 16.796875 8.0625 
Q 21.484375 6.890625 26.703125 6.890625 
Q 35.15625 6.890625 40.078125 11.328125 
Q 45.015625 15.765625 45.015625 23.390625 
Q 45.015625 31 40.078125 35.4375 
Q 35.15625 39.890625 26.703125 39.890625 
Q 22.75 39.890625 18.8125 39.015625 
Q 14.890625 38.140625 10.796875 36.28125 
z
" id="DejaVuSans-53"/>
      </defs>
      <g transform="translate(12.55 151.963797)scale(0.2 -0.2)">
       <use xlink:href="#DejaVuSans-50"/>
       <use x="63.623047" xlink:href="#DejaVuSans-53"/>
      </g>
     </g>
    </g>
    <g id="ytick_2">
     <g id="text_2">
      <!-- 50 -->
      <defs>
       <path d="M 31.78125 66.40625 
Q 24.171875 66.40625 20.328125 58.90625 
Q 16.5 51.421875 16.5 36.375 
Q 16.5 21.390625 20.328125 13.890625 
Q 24.171875 6.390625 31.78125 6.390625 
Q 39.453125 6.390625 43.28125 13.890625 
Q 47.125 21.390625 47.125 36.375 
Q 47.125 51.421875 43.28125 58.90625 
Q 39.453125 66.40625 31.78125 66.40625 
z
M 31.78125 74.21875 
Q 44.046875 74.21875 50.515625 64.515625 
Q 56.984375 54.828125 56.984375 36.375 
Q 56.984375 17.96875 50.515625 8.265625 
Q 44.046875 -1.421875 31.78125 -1.421875 
Q 19.53125 -1.421875 13.0625 8.265625 
Q 6.59375 17.96875 6.59375 36.375 
Q 6.59375 54.828125 13.0625 64.515625 
Q 19.53125 74.21875 31.78125 74.21875 
z
" id="DejaVuSans-48"/>
      </defs>
      <g transform="translate(12.55 114.10287)scale(0.2 -0.2)">
       <use xlink:href="#DejaVuSans-53"/>
       <use x="63.623047" xlink:href="#DejaVuSans-48"/>
      </g>
     </g>
    </g>
   </g>
   <g id="line2d_1">
    <path clip-path="url(#pd53149444a)" d="M 57.681818 142.113103 
L 75.187104 142.003148 
L 76.836152 141.665833 
L 78.485201 141.10383 
L 80.197674 140.285933 
L 81.973573 139.190606 
L 83.812896 137.797266 
L 85.77907 136.024629 
L 87.872093 133.82613 
L 90.091966 131.155495 
L 92.438689 127.967021 
L 94.912262 124.215774 
L 97.512685 119.857688 
L 100.239958 114.849606 
L 103.157505 109.017428 
L 109.817125 95.392027 
L 112.227273 91.253409 
L 114.573996 87.66736 
L 116.857294 84.584668 
L 119.077167 81.958342 
L 121.233615 79.744356 
L 123.326638 77.901914 
L 125.419662 76.35061 
L 127.44926 75.11476 
L 129.478858 74.134349 
L 131.508457 73.401076 
L 133.538055 72.907115 
L 135.567653 72.6451 
L 137.787526 72.596062 
L 234.320296 72.734418 
L 236.349894 73.099381 
L 238.316068 73.676854 
L 240.282241 74.481564 
L 242.311839 75.558233 
L 244.341438 76.893097 
L 246.371036 78.494979 
L 248.464059 80.436354 
L 250.557082 82.682011 
L 252.713531 85.325316 
L 254.933404 88.408056 
L 257.216702 91.974589 
L 259.563425 96.07108 
L 261.973573 100.744023 
L 264.700846 106.555861 
L 267.808668 112.945506 
L 270.726216 118.445076 
L 273.453488 123.128898 
L 276.053911 127.164963 
L 278.527484 130.597621 
L 280.810782 133.399686 
L 282.96723 135.710276 
L 285.060254 137.629574 
L 287.026427 139.132775 
L 288.865751 140.268387 
L 290.641649 141.110508 
L 292.354123 141.681271 
L 294.003171 142.00386 
L 295.65222 142.102217 
L 311.318182 142.101792 
L 311.318182 142.101792 
" style="fill:none;stroke:#000000;stroke-linecap:square;stroke-width:4;"/>
   </g>
   <g id="patch_3">
    <path d="M 45 145.588966 
L 45 69.12 
" style="fill:none;stroke:#000000;stroke-linecap:square;stroke-linejoin:miter;stroke-width:0.8;"/>
   </g>
   <g id="patch_4">
    <path d="M 45 145.588966 
L 324 145.588966 
" style="fill:none;stroke:#000000;stroke-linecap:square;stroke-linejoin:miter;stroke-width:0.8;"/>
   </g>
  </g>
  <g id="axes_2">
   <g id="patch_5">
    <path d="M 45 237.351724 
L 324 237.351724 
L 324 160.882759 
L 45 160.882759 
z
" style="fill:#ffffff;"/>
   </g>
   <g id="matplotlib.axis_3">
    <g id="xtick_4"/>
    <g id="xtick_5"/>
    <g id="xtick_6"/>
   </g>
   <g id="matplotlib.axis_4">
    <g id="ytick_3">
     <g id="text_3">
      <!-- 25 -->
      <g transform="translate(12.55 225.229037)scale(0.2 -0.2)">
       <use xlink:href="#DejaVuSans-50"/>
       <use x="63.623047" xlink:href="#DejaVuSans-53"/>
      </g>
     </g>
    </g>
    <g id="ytick_4">
     <g id="text_4">
      <!-- 50 -->
      <g transform="translate(12.55 179.9744)scale(0.2 -0.2)">
       <use xlink:href="#DejaVuSans-53"/>
       <use x="63.623047" xlink:href="#DejaVuSans-48"/>
      </g>
     </g>
    </g>
   </g>
   <g id="line2d_2">
    <path clip-path="url(#pcbafecc54e)" d="M 57.681818 233.875862 
L 75.377378 233.768517 
L 77.153277 233.44142 
L 78.929175 232.888833 
L 80.705074 232.10657 
L 82.544397 231.051619 
L 84.447146 229.697137 
L 86.413319 228.016891 
L 88.442918 225.985463 
L 90.599366 223.500558 
L 92.819239 220.597039 
L 95.165962 217.154365 
L 97.639535 213.120436 
L 100.239958 208.443656 
L 102.96723 203.073205 
L 106.138478 196.297616 
L 108.865751 190.730772 
L 111.466173 185.917417 
L 113.939746 181.798151 
L 116.286469 178.307913 
L 118.569767 175.301833 
L 120.789641 172.744533 
L 122.946089 170.600235 
L 125.039112 168.833693 
L 127.06871 167.410809 
L 129.034884 166.298992 
L 131.001057 165.443721 
L 132.903805 164.854787 
L 134.806554 164.495307 
L 136.709302 164.360019 
L 146.730444 164.358974 
L 233.939746 164.465327 
L 235.842495 164.794989 
L 237.745243 165.352746 
L 239.647992 166.143804 
L 241.55074 167.173349 
L 243.516913 168.493178 
L 245.546512 170.134157 
L 247.57611 172.063644 
L 249.669133 174.360847 
L 251.825581 177.058822 
L 254.045455 180.19078 
L 256.392178 183.894564 
L 258.802326 188.117021 
L 261.339323 193.01278 
L 264.066596 198.772243 
L 267.047569 204.982403 
L 269.838266 210.292249 
L 272.502114 214.89073 
L 275.039112 218.830272 
L 277.44926 222.164343 
L 279.732558 224.947173 
L 281.889006 227.233337 
L 283.98203 229.13 
L 285.948203 230.619998 
L 287.850951 231.792005 
L 289.690275 232.673303 
L 291.529598 233.309574 
L 293.305497 233.695305 
L 295.14482 233.86404 
L 299.457717 233.870124 
L 311.318182 233.870124 
L 311.318182 233.870124 
" style="fill:none;stroke:#000000;stroke-linecap:square;stroke-width:4;"/>
   </g>
   <g id="patch_6">
    <path d="M 45 237.351724 
L 45 160.882759 
" style="fill:none;stroke:#000000;stroke-linecap:square;stroke-linejoin:miter;stroke-width:0.8;"/>
   </g>
   <g id="patch_7">
    <path d="M 45 237.351724 
L 324 237.351724 
" style="fill:none;stroke:#000000;stroke-linecap:square;stroke-linejoin:miter;stroke-width:0.8;"/>
   </g>
  </g>
  <g id="axes_3">
   <g id="patch_8">
    <path d="M 45 329.114483 
L 324 329.114483 
L 324 252.645517 
L 45 252.645517 
z
" style="fill:#ffffff;"/>
   </g>
   <g id="matplotlib.axis_5">
    <g id="xtick_7"/>
    <g id="xtick_8"/>
    <g id="xtick_9"/>
   </g>
   <g id="matplotlib.axis_6">
    <g id="ytick_5">
     <g id="text_5">
      <!-- 25 -->
      <g transform="translate(12.55 316.991796)scale(0.2 -0.2)">
       <use xlink:href="#DejaVuSans-50"/>
       <use x="63.623047" xlink:href="#DejaVuSans-53"/>
      </g>
     </g>
    </g>
    <g id="ytick_6">
     <g id="text_6">
      <!-- 50 -->
      <g transform="translate(12.55 271.737158)scale(0.2 -0.2)">
       <use xlink:href="#DejaVuSans-53"/>
       <use x="63.623047" xlink:href="#DejaVuSans-48"/>
      </g>
     </g>
    </g>
   </g>
   <g id="line2d_3">
    <path clip-path="url(#p77eba088aa)" d="M 57.681818 325.638621 
L 75.377378 325.531275 
L 77.153277 325.204179 
L 78.929175 324.651591 
L 80.705074 323.869329 
L 82.544397 322.814378 
L 84.447146 321.459896 
L 86.413319 319.77965 
L 88.442918 317.748222 
L 90.599366 315.263317 
L 92.819239 312.359798 
L 95.165962 308.917123 
L 97.639535 304.883195 
L 100.239958 300.206414 
L 102.96723 294.835964 
L 106.138478 288.060375 
L 108.865751 282.49353 
L 111.466173 277.680175 
L 113.939746 273.560909 
L 116.286469 270.070672 
L 118.569767 267.064592 
L 120.789641 264.507292 
L 122.946089 262.362994 
L 125.039112 260.596452 
L 127.06871 259.173568 
L 129.034884 258.061751 
L 131.001057 257.20648 
L 132.903805 256.617546 
L 134.806554 256.258065 
L 136.709302 256.122778 
L 146.730444 256.121732 
L 233.939746 256.228086 
L 235.842495 256.557748 
L 237.745243 257.115505 
L 239.647992 257.906562 
L 241.55074 258.936108 
L 243.516913 260.255937 
L 245.546512 261.896916 
L 247.57611 263.826403 
L 249.669133 266.123606 
L 251.825581 268.82158 
L 254.045455 271.953539 
L 256.392178 275.657322 
L 258.802326 279.87978 
L 261.339323 284.775539 
L 264.066596 290.535001 
L 267.047569 296.745162 
L 269.838266 302.055007 
L 272.502114 306.653489 
L 275.039112 310.593031 
L 277.44926 313.927102 
L 279.732558 316.709932 
L 281.889006 318.996095 
L 283.98203 320.892759 
L 285.948203 322.382756 
L 287.850951 323.554763 
L 289.690275 324.436061 
L 291.529598 325.072333 
L 293.305497 325.458064 
L 295.14482 325.626798 
L 299.457717 325.632882 
L 311.318182 325.632882 
L 311.318182 325.632882 
" style="fill:none;stroke:#000000;stroke-linecap:square;stroke-width:4;"/>
   </g>
   <g id="patch_9">
    <path d="M 45 329.114483 
L 45 252.645517 
" style="fill:none;stroke:#000000;stroke-linecap:square;stroke-linejoin:miter;stroke-width:0.8;"/>
   </g>
   <g id="patch_10">
    <path d="M 45 329.114483 
L 324 329.114483 
" style="fill:none;stroke:#000000;stroke-linecap:square;stroke-linejoin:miter;stroke-width:0.8;"/>
   </g>
  </g>
  <g id="axes_4">
   <g id="patch_11">
    <path d="M 45 420.877241 
L 324 420.877241 
L 324 344.408276 
L 45 344.408276 
z
" style="fill:#ffffff;"/>
   </g>
   <g id="matplotlib.axis_7">
    <g id="xtick_10"/>
    <g id="xtick_11"/>
    <g id="xtick_12"/>
   </g>
   <g id="matplotlib.axis_8">
    <g id="ytick_7">
     <g id="text_7">
      <!-- 20 -->
      <g transform="translate(12.55 412.925221)scale(0.2 -0.2)">
       <use xlink:href="#DejaVuSans-50"/>
       <use x="63.623047" xlink:href="#DejaVuSans-48"/>
      </g>
     </g>
    </g>
    <g id="ytick_8">
     <g id="text_8">
      <!-- 40 -->
      <defs>
       <path d="M 37.796875 64.3125 
L 12.890625 25.390625 
L 37.796875 25.390625 
z
M 35.203125 72.90625 
L 47.609375 72.90625 
L 47.609375 25.390625 
L 58.015625 25.390625 
L 58.015625 17.1875 
L 47.609375 17.1875 
L 47.609375 0 
L 37.796875 0 
L 37.796875 17.1875 
L 4.890625 17.1875 
L 4.890625 26.703125 
z
" id="DejaVuSans-52"/>
      </defs>
      <g transform="translate(12.55 359.864313)scale(0.2 -0.2)">
       <use xlink:href="#DejaVuSans-52"/>
       <use x="63.623047" xlink:href="#DejaVuSans-48"/>
      </g>
     </g>
    </g>
   </g>
   <g id="line2d_4">
    <path clip-path="url(#pbdd5f3cdba)" d="M 57.681818 417.401379 
L 75.440803 417.296407 
L 77.343552 416.965291 
L 79.2463 416.400953 
L 81.149049 415.597126 
L 83.051797 414.548434 
L 85.01797 413.202773 
L 86.984144 411.586842 
L 89.013742 409.632021 
L 91.106765 407.30846 
L 93.326638 404.500884 
L 95.609937 401.243636 
L 97.95666 397.505682 
L 100.430233 393.138861 
L 103.030655 388.078613 
L 105.821353 382.137669 
L 108.738901 376.098861 
L 111.466173 370.946649 
L 114.066596 366.494831 
L 116.540169 362.689452 
L 118.886892 359.473962 
L 121.17019 356.719426 
L 123.326638 354.459676 
L 125.419662 352.585449 
L 127.44926 351.068715 
L 129.352008 349.915503 
L 131.254757 349.021683 
L 133.09408 348.403222 
L 134.869979 348.033932 
L 136.645877 347.887075 
L 142.861522 347.884521 
L 233.812896 347.989755 
L 235.588795 348.316812 
L 237.364693 348.866696 
L 239.204017 349.672358 
L 241.04334 350.719278 
L 242.946089 352.056858 
L 244.912262 353.71126 
L 246.94186 355.70895 
L 249.098309 358.153037 
L 251.318182 361.01268 
L 253.664905 364.410678 
L 256.075053 368.295249 
L 258.612051 372.806838 
L 261.339323 378.125675 
L 264.256871 384.319899 
L 266.984144 389.947429 
L 269.584567 394.824402 
L 272.121564 399.119084 
L 274.531712 402.773145 
L 276.878436 405.931586 
L 279.098309 408.557002 
L 281.254757 410.77159 
L 283.34778 412.60692 
L 285.377378 414.094304 
L 287.343552 415.264587 
L 289.2463 416.147935 
L 291.149049 416.791293 
L 293.051797 417.200582 
L 294.954545 417.38259 
L 298.379493 417.393918 
L 311.318182 417.393918 
L 311.318182 417.393918 
" style="fill:none;stroke:#000000;stroke-linecap:square;stroke-width:4;"/>
   </g>
   <g id="patch_12">
    <path d="M 45 420.877241 
L 45 344.408276 
" style="fill:none;stroke:#000000;stroke-linecap:square;stroke-linejoin:miter;stroke-width:0.8;"/>
   </g>
   <g id="patch_13">
    <path d="M 45 420.877241 
L 324 420.877241 
" style="fill:none;stroke:#000000;stroke-linecap:square;stroke-linejoin:miter;stroke-width:0.8;"/>
   </g>
  </g>
  <g id="axes_5">
   <g id="patch_14">
    <path d="M 45 512.64 
L 324 512.64 
L 324 436.171034 
L 45 436.171034 
z
" style="fill:#ffffff;"/>
   </g>
   <g id="matplotlib.axis_9">
    <g id="xtick_13">
     <g id="line2d_5">
      <defs>
       <path d="M 0 0 
L 0 3.5 
" id="mba811a61db" style="stroke:#000000;stroke-width:0.8;"/>
      </defs>
      <g>
       <use style="stroke:#000000;stroke-width:0.8;" x="57.681818" xlink:href="#mba811a61db" y="512.64"/>
      </g>
     </g>
     <g id="text_9">
      <!-- 0 -->
      <g transform="translate(51.319318 534.836875)scale(0.2 -0.2)">
       <use xlink:href="#DejaVuSans-48"/>
      </g>
     </g>
    </g>
    <g id="xtick_14">
     <g id="line2d_6">
      <g>
       <use style="stroke:#000000;stroke-width:0.8;" x="184.531712" xlink:href="#mba811a61db" y="512.64"/>
      </g>
     </g>
     <g id="text_10">
      <!-- 2000 -->
      <g transform="translate(159.081712 534.836875)scale(0.2 -0.2)">
       <use xlink:href="#DejaVuSans-50"/>
       <use x="63.623047" xlink:href="#DejaVuSans-48"/>
       <use x="127.246094" xlink:href="#DejaVuSans-48"/>
       <use x="190.869141" xlink:href="#DejaVuSans-48"/>
      </g>
     </g>
    </g>
    <g id="xtick_15">
     <g id="line2d_7">
      <g>
       <use style="stroke:#000000;stroke-width:0.8;" x="311.381607" xlink:href="#mba811a61db" y="512.64"/>
      </g>
     </g>
     <g id="text_11">
      <!-- 4000 -->
      <g transform="translate(285.931607 534.836875)scale(0.2 -0.2)">
       <use xlink:href="#DejaVuSans-52"/>
       <use x="63.623047" xlink:href="#DejaVuSans-48"/>
       <use x="127.246094" xlink:href="#DejaVuSans-48"/>
       <use x="190.869141" xlink:href="#DejaVuSans-48"/>
      </g>
     </g>
    </g>
   </g>
   <g id="matplotlib.axis_10">
    <g id="ytick_9">
     <g id="text_12">
      <!-- 20 -->
      <g transform="translate(12.55 506.843037)scale(0.2 -0.2)">
       <use xlink:href="#DejaVuSans-50"/>
       <use x="63.623047" xlink:href="#DejaVuSans-48"/>
      </g>
     </g>
    </g>
    <g id="ytick_10">
     <g id="text_13">
      <!-- 40 -->
      <g transform="translate(12.55 456.925416)scale(0.2 -0.2)">
       <use xlink:href="#DejaVuSans-52"/>
       <use x="63.623047" xlink:href="#DejaVuSans-48"/>
      </g>
     </g>
    </g>
   </g>
   <g id="line2d_8">
    <path clip-path="url(#p526d7b61c8)" d="M 57.681818 509.164138 
L 75.440803 509.056019 
L 77.280127 508.730486 
L 79.11945 508.181635 
L 80.958774 507.404307 
L 82.861522 506.355239 
L 84.764271 505.053429 
L 86.730444 503.439786 
L 88.760042 501.485768 
L 90.853066 499.162631 
L 93.072939 496.35655 
L 95.356237 493.103607 
L 97.766385 489.268583 
L 100.239958 484.907419 
L 102.840381 479.863109 
L 105.567653 474.079158 
L 108.485201 468.003333 
L 111.212474 462.827528 
L 113.812896 458.361843 
L 116.286469 454.549468 
L 118.633192 451.331225 
L 120.91649 448.575931 
L 123.072939 446.315645 
L 125.165962 444.439638 
L 127.19556 442.918721 
L 129.161734 441.724056 
L 131.064482 440.827419 
L 132.903805 440.201428 
L 134.743129 439.810045 
L 136.582452 439.651012 
L 141.846723 439.64728 
L 233.876321 439.757633 
L 235.715645 440.099522 
L 237.554968 440.674779 
L 239.394292 441.48543 
L 241.29704 442.573623 
L 243.199789 443.917238 
L 245.165962 445.575253 
L 247.19556 447.575006 
L 249.352008 450.020749 
L 251.571882 452.88299 
L 253.918605 456.286364 
L 256.328753 460.18096 
L 258.865751 464.709697 
L 261.529598 469.926244 
L 264.573996 476.408643 
L 267.364693 482.109619 
L 270.028541 487.05063 
L 272.565539 491.295956 
L 274.975687 494.909082 
L 277.32241 498.031491 
L 279.542283 500.62472 
L 281.698732 502.808392 
L 283.791755 504.612794 
L 285.821353 506.06823 
L 287.787526 507.204816 
L 289.690275 508.05227 
L 291.593023 508.655945 
L 293.495772 509.021359 
L 295.39852 509.155067 
L 308.210359 509.155788 
L 311.318182 509.155788 
L 311.318182 509.155788 
" style="fill:none;stroke:#000000;stroke-linecap:square;stroke-width:4;"/>
   </g>
   <g id="patch_15">
    <path d="M 45 512.64 
L 45 436.171034 
" style="fill:none;stroke:#000000;stroke-linecap:square;stroke-linejoin:miter;stroke-width:0.8;"/>
   </g>
   <g id="patch_16">
    <path d="M 45 512.64 
L 324 512.64 
" style="fill:none;stroke:#000000;stroke-linecap:square;stroke-linejoin:miter;stroke-width:0.8;"/>
   </g>
  </g>
 </g>
 <defs>
  <clipPath id="pd53149444a">
   <rect height="76.468966" width="279" x="45" y="69.12"/>
  </clipPath>
  <clipPath id="pcbafecc54e">
   <rect height="76.468966" width="279" x="45" y="160.882759"/>
  </clipPath>
  <clipPath id="p77eba088aa">
   <rect height="76.468966" width="279" x="45" y="252.645517"/>
  </clipPath>
  <clipPath id="pbdd5f3cdba">
   <rect height="76.468966" width="279" x="45" y="344.408276"/>
  </clipPath>
  <clipPath id="p526d7b61c8">
   <rect height="76.468966" width="279" x="45" y="436.171034"/>
  </clipPath>
 </defs>
</svg>
