<?xml version="1.0" encoding="utf-8" standalone="no"?>
<!DOCTYPE svg PUBLIC "-//W3C//DTD SVG 1.1//EN"
  "http://www.w3.org/Graphics/SVG/1.1/DTD/svg11.dtd">
<!-- Created with matplotlib (https://matplotlib.org/) -->
<svg height="576pt" version="1.1" viewBox="0 0 360 576" width="360pt" xmlns="http://www.w3.org/2000/svg" xmlns:xlink="http://www.w3.org/1999/xlink">
 <defs>
  <style type="text/css">
*{stroke-linecap:butt;stroke-linejoin:round;white-space:pre;}
  </style>
 </defs>
 <g id="figure_1">
  <g id="patch_1">
   <path d="M 0 576 
L 360 576 
L 360 0 
L 0 0 
z
" style="fill:#ffffff;"/>
  </g>
  <g id="axes_1">
   <g id="patch_2">
    <path d="M 45 145.588966 
L 324 145.588966 
L 324 69.12 
L 45 69.12 
z
" style="fill:#ffffff;"/>
   </g>
   <g id="matplotlib.axis_1">
    <g id="xtick_1"/>
    <g id="xtick_2"/>
    <g id="xtick_3"/>
   </g>
   <g id="matplotlib.axis_2">
    <g id="ytick_1">
     <g id="text_1">
      <!-- 25 -->
      <defs>
       <path d="M 19.1875 8.296875 
L 53.609375 8.296875 
L 53.609375 0 
L 7.328125 0 
L 7.328125 8.296875 
Q 12.9375 14.109375 22.625 23.890625 
Q 32.328125 33.6875 34.8125 36.53125 
Q 39.546875 41.84375 41.421875 45.53125 
Q 43.3125 49.21875 43.3125 52.78125 
Q 43.3125 58.59375 39.234375 62.25 
Q 35.15625 65.921875 28.609375 65.921875 
Q 23.96875 65.921875 18.8125 64.3125 
Q 13.671875 62.703125 7.8125 59.421875 
L 7.8125 69.390625 
Q 13.765625 71.78125 18.9375 73 
Q 24.125 74.21875 28.421875 74.21875 
Q 39.75 74.21875 46.484375 68.546875 
Q 53.21875 62.890625 53.21875 53.421875 
Q 53.21875 48.921875 51.53125 44.890625 
Q 49.859375 40.875 45.40625 35.40625 
Q 44.1875 33.984375 37.640625 27.21875 
Q 31.109375 20.453125 19.1875 8.296875 
z
" id="DejaVuSans-50"/>
       <path d="M 10.796875 72.90625 
L 49.515625 72.90625 
L 49.515625 64.59375 
L 19.828125 64.59375 
L 19.828125 46.734375 
Q 21.96875 47.46875 24.109375 47.828125 
Q 26.265625 48.1875 28.421875 48.1875 
Q 40.625 48.1875 47.75 41.5 
Q 54.890625 34.8125 54.890625 23.390625 
Q 54.890625 11.625 47.5625 5.09375 
Q 40.234375 -1.421875 26.90625 -1.421875 
Q 22.3125 -1.421875 17.546875 -0.640625 
Q 12.796875 0.140625 7.71875 1.703125 
L 7.71875 11.625 
Q 12.109375 9.234375 16.796875 8.0625 
Q 21.484375 6.890625 26.703125 6.890625 
Q 35.15625 6.890625 40.078125 11.328125 
Q 45.015625 15.765625 45.015625 23.390625 
Q 45.015625 31 40.078125 35.4375 
Q 35.15625 39.890625 26.703125 39.890625 
Q 22.75 39.890625 18.8125 39.015625 
Q 14.890625 38.140625 10.796875 36.28125 
z
" id="DejaVuSans-53"/>
      </defs>
      <g transform="translate(12.55 129.838852)scale(0.2 -0.2)">
       <use xlink:href="#DejaVuSans-50"/>
       <use x="63.623047" xlink:href="#DejaVuSans-53"/>
      </g>
     </g>
    </g>
    <g id="ytick_2">
     <g id="text_2">
      <!-- 50 -->
      <defs>
       <path d="M 31.78125 66.40625 
Q 24.171875 66.40625 20.328125 58.90625 
Q 16.5 51.421875 16.5 36.375 
Q 16.5 21.390625 20.328125 13.890625 
Q 24.171875 6.390625 31.78125 6.390625 
Q 39.453125 6.390625 43.28125 13.890625 
Q 47.125 21.390625 47.125 36.375 
Q 47.125 51.421875 43.28125 58.90625 
Q 39.453125 66.40625 31.78125 66.40625 
z
M 31.78125 74.21875 
Q 44.046875 74.21875 50.515625 64.515625 
Q 56.984375 54.828125 56.984375 36.375 
Q 56.984375 17.96875 50.515625 8.265625 
Q 44.046875 -1.421875 31.78125 -1.421875 
Q 19.53125 -1.421875 13.0625 8.265625 
Q 6.59375 17.96875 6.59375 36.375 
Q 6.59375 54.828125 13.0625 64.515625 
Q 19.53125 74.21875 31.78125 74.21875 
z
" id="DejaVuSans-48"/>
      </defs>
      <g transform="translate(12.55 81.98875)scale(0.2 -0.2)">
       <use xlink:href="#DejaVuSans-53"/>
       <use x="63.623047" xlink:href="#DejaVuSans-48"/>
      </g>
     </g>
    </g>
   </g>
   <g id="line2d_1">
    <path clip-path="url(#pfd52aabbb0)" d="M 57.681818 142.112838 
L 75.440803 142.003379 
L 77.280127 141.668142 
L 79.11945 141.099572 
L 80.958774 140.291779 
L 82.798097 139.240663 
L 84.700846 137.894624 
L 86.667019 136.226194 
L 88.696617 134.208435 
L 90.789641 131.815137 
L 93.009514 128.933784 
L 95.356237 125.509594 
L 97.766385 121.595884 
L 100.303383 117.051278 
L 102.96723 111.822229 
L 106.011628 105.323739 
L 108.802326 99.590221 
L 111.466173 94.616063 
L 114.003171 90.347925 
L 116.413319 86.725139 
L 118.696617 83.68389 
L 120.91649 81.091133 
L 123.072939 78.913518 
L 125.165962 77.117606 
L 127.19556 75.670554 
L 129.161734 74.540566 
L 131.064482 73.697184 
L 132.96723 73.095223 
L 134.869979 72.729964 
L 136.772727 72.596625 
L 150.726216 72.59624 
L 233.939746 72.705838 
L 235.77907 73.031502 
L 237.618393 73.577083 
L 239.521142 74.377341 
L 241.42389 75.421895 
L 243.390063 76.762444 
L 245.356237 78.372746 
L 247.385835 80.321992 
L 249.478858 82.641097 
L 251.635307 85.3613 
L 253.918605 88.608787 
L 256.265328 92.338967 
L 258.738901 96.696339 
L 261.339323 101.736764 
L 264.130021 107.643461 
L 267.047569 113.705686 
L 269.774841 118.874838 
L 272.375264 123.342913 
L 274.848837 127.165287 
L 277.19556 130.397921 
L 279.478858 133.168887 
L 281.635307 135.442613 
L 283.72833 137.328025 
L 285.694503 138.809979 
L 287.597252 139.978169 
L 289.5 140.887088 
L 291.339323 141.523051 
L 293.178647 141.925885 
L 295.01797 142.102766 
L 298.506342 142.112838 
L 311.318182 142.112838 
L 311.318182 142.112838 
" style="fill:none;stroke:#000000;stroke-linecap:square;stroke-width:4;"/>
   </g>
   <g id="patch_3">
    <path d="M 45 145.588966 
L 45 69.12 
" style="fill:none;stroke:#000000;stroke-linecap:square;stroke-linejoin:miter;stroke-width:0.8;"/>
   </g>
   <g id="patch_4">
    <path d="M 45 145.588966 
L 324 145.588966 
" style="fill:none;stroke:#000000;stroke-linecap:square;stroke-linejoin:miter;stroke-width:0.8;"/>
   </g>
  </g>
  <g id="axes_2">
   <g id="patch_5">
    <path d="M 45 237.351724 
L 324 237.351724 
L 324 160.882759 
L 45 160.882759 
z
" style="fill:#ffffff;"/>
   </g>
   <g id="matplotlib.axis_3">
    <g id="xtick_4"/>
    <g id="xtick_5"/>
    <g id="xtick_6"/>
   </g>
   <g id="matplotlib.axis_4">
    <g id="ytick_3">
     <g id="text_3">
      <!-- 5 -->
      <g transform="translate(25.275 221.616077)scale(0.2 -0.2)">
       <use xlink:href="#DejaVuSans-53"/>
      </g>
     </g>
    </g>
    <g id="ytick_4">
     <g id="text_4">
      <!-- 10 -->
      <defs>
       <path d="M 12.40625 8.296875 
L 28.515625 8.296875 
L 28.515625 63.921875 
L 10.984375 60.40625 
L 10.984375 69.390625 
L 28.421875 72.90625 
L 38.28125 72.90625 
L 38.28125 8.296875 
L 54.390625 8.296875 
L 54.390625 0 
L 12.40625 0 
z
" id="DejaVuSans-49"/>
      </defs>
      <g transform="translate(12.55 180.685889)scale(0.2 -0.2)">
       <use xlink:href="#DejaVuSans-49"/>
       <use x="63.623047" xlink:href="#DejaVuSans-48"/>
      </g>
     </g>
    </g>
   </g>
   <g id="line2d_2">
    <path clip-path="url(#p3408dada19)" d="M 57.681818 233.875854 
L 75.948203 233.769491 
L 78.168076 233.448776 
L 80.324524 232.912871 
L 82.417548 232.163347 
L 84.447146 231.204007 
L 86.476744 229.999324 
L 88.506342 228.532934 
L 90.535941 226.788425 
L 92.565539 224.749434 
L 94.658562 222.321133 
L 96.751586 219.544886 
L 98.908034 216.302472 
L 101.064482 212.654261 
L 103.284355 208.456309 
L 105.567653 203.654559 
L 109.11945 196.159404 
L 112.354123 189.838536 
L 115.335095 184.495806 
L 118.062368 180.05764 
L 120.599366 176.350878 
L 122.946089 173.312579 
L 125.102537 170.873732 
L 127.132135 168.905142 
L 129.034884 167.361806 
L 130.810782 166.196775 
L 132.523256 165.33491 
L 134.172304 164.756023 
L 135.757928 164.438893 
L 137.280127 164.358772 
L 234.066596 164.531147 
L 235.588795 164.916467 
L 237.174419 165.544885 
L 238.823467 166.436994 
L 240.599366 167.660821 
L 242.438689 169.205456 
L 244.404863 171.15555 
L 246.497886 173.555129 
L 248.717759 176.445671 
L 251.127907 179.962477 
L 253.72833 184.168318 
L 256.519027 189.119013 
L 259.563425 194.988162 
L 262.861522 201.83872 
L 266.793869 210.030103 
L 269.077167 214.163778 
L 271.29704 217.736879 
L 273.516913 220.890035 
L 275.673362 223.569942 
L 277.766385 225.8279 
L 279.859408 227.765546 
L 281.952431 229.400612 
L 284.045455 230.750933 
L 286.138478 231.834344 
L 288.231501 232.668564 
L 290.387949 233.285921 
L 292.607822 233.684342 
L 294.891121 233.86403 
L 299.077167 233.875854 
L 311.318182 233.875854 
L 311.318182 233.875854 
" style="fill:none;stroke:#000000;stroke-linecap:square;stroke-width:4;"/>
   </g>
   <g id="patch_6">
    <path d="M 45 237.351724 
L 45 160.882759 
" style="fill:none;stroke:#000000;stroke-linecap:square;stroke-linejoin:miter;stroke-width:0.8;"/>
   </g>
   <g id="patch_7">
    <path d="M 45 237.351724 
L 324 237.351724 
" style="fill:none;stroke:#000000;stroke-linecap:square;stroke-linejoin:miter;stroke-width:0.8;"/>
   </g>
  </g>
  <g id="axes_3">
   <g id="patch_8">
    <path d="M 45 329.114483 
L 324 329.114483 
L 324 252.645517 
L 45 252.645517 
z
" style="fill:#ffffff;"/>
   </g>
   <g id="matplotlib.axis_5">
    <g id="xtick_7"/>
    <g id="xtick_8"/>
    <g id="xtick_9"/>
   </g>
   <g id="matplotlib.axis_6">
    <g id="ytick_5">
     <g id="text_5">
      <!-- 5 -->
      <g transform="translate(25.275 313.378836)scale(0.2 -0.2)">
       <use xlink:href="#DejaVuSans-53"/>
      </g>
     </g>
    </g>
    <g id="ytick_6">
     <g id="text_6">
      <!-- 10 -->
      <g transform="translate(12.55 272.448647)scale(0.2 -0.2)">
       <use xlink:href="#DejaVuSans-49"/>
       <use x="63.623047" xlink:href="#DejaVuSans-48"/>
      </g>
     </g>
    </g>
   </g>
   <g id="line2d_3">
    <path clip-path="url(#p4c11ea4d93)" d="M 57.681818 325.638613 
L 75.948203 325.53225 
L 78.168076 325.211534 
L 80.324524 324.67563 
L 82.417548 323.926106 
L 84.447146 322.966765 
L 86.476744 321.762083 
L 88.506342 320.295693 
L 90.535941 318.551183 
L 92.565539 316.512193 
L 94.658562 314.083891 
L 96.751586 311.307645 
L 98.908034 308.065231 
L 101.064482 304.41702 
L 103.284355 300.219068 
L 105.567653 295.417318 
L 109.11945 287.922163 
L 112.354123 281.601295 
L 115.335095 276.258564 
L 118.062368 271.820398 
L 120.599366 268.113636 
L 122.946089 265.075338 
L 125.102537 262.636491 
L 127.132135 260.667901 
L 129.034884 259.124565 
L 130.810782 257.959534 
L 132.523256 257.097669 
L 134.172304 256.518782 
L 135.757928 256.201652 
L 137.280127 256.121531 
L 234.066596 256.293906 
L 235.588795 256.679225 
L 237.174419 257.307644 
L 238.823467 258.199752 
L 240.599366 259.423579 
L 242.438689 260.968214 
L 244.404863 262.918308 
L 246.497886 265.317888 
L 248.717759 268.20843 
L 251.127907 271.725235 
L 253.72833 275.931077 
L 256.519027 280.881772 
L 259.563425 286.75092 
L 262.861522 293.601478 
L 266.793869 301.792862 
L 269.077167 305.926537 
L 271.29704 309.499638 
L 273.516913 312.652793 
L 275.673362 315.3327 
L 277.766385 317.590659 
L 279.859408 319.528305 
L 281.952431 321.16337 
L 284.045455 322.513692 
L 286.138478 323.597103 
L 288.231501 324.431323 
L 290.387949 325.04868 
L 292.607822 325.447101 
L 294.891121 325.626788 
L 299.077167 325.638613 
L 311.318182 325.638613 
L 311.318182 325.638613 
" style="fill:none;stroke:#000000;stroke-linecap:square;stroke-width:4;"/>
   </g>
   <g id="patch_9">
    <path d="M 45 329.114483 
L 45 252.645517 
" style="fill:none;stroke:#000000;stroke-linecap:square;stroke-linejoin:miter;stroke-width:0.8;"/>
   </g>
   <g id="patch_10">
    <path d="M 45 329.114483 
L 324 329.114483 
" style="fill:none;stroke:#000000;stroke-linecap:square;stroke-linejoin:miter;stroke-width:0.8;"/>
   </g>
  </g>
  <g id="axes_4">
   <g id="patch_11">
    <path d="M 45 420.877241 
L 324 420.877241 
L 324 344.408276 
L 45 344.408276 
z
" style="fill:#ffffff;"/>
   </g>
   <g id="matplotlib.axis_7">
    <g id="xtick_10"/>
    <g id="xtick_11"/>
    <g id="xtick_12"/>
   </g>
   <g id="matplotlib.axis_8">
    <g id="ytick_7">
     <g id="text_7">
      <!-- 10 -->
      <g transform="translate(12.55 408.336604)scale(0.2 -0.2)">
       <use xlink:href="#DejaVuSans-49"/>
       <use x="63.623047" xlink:href="#DejaVuSans-48"/>
      </g>
     </g>
    </g>
    <g id="ytick_8">
     <g id="text_8">
      <!-- 20 -->
      <g transform="translate(12.55 364.181312)scale(0.2 -0.2)">
       <use xlink:href="#DejaVuSans-50"/>
       <use x="63.623047" xlink:href="#DejaVuSans-48"/>
      </g>
     </g>
    </g>
   </g>
   <g id="line2d_4">
    <path clip-path="url(#p957059022e)" d="M 57.681818 417.401345 
L 75.757928 417.290298 
L 77.787526 416.964997 
L 79.817125 416.411939 
L 81.783298 415.646824 
L 83.749471 414.64465 
L 85.715645 413.394721 
L 87.745243 411.833908 
L 89.774841 409.987988 
L 91.867865 407.775655 
L 94.024313 405.158422 
L 96.180761 402.188993 
L 98.400634 398.755594 
L 100.683932 394.8173 
L 103.09408 390.204782 
L 105.567653 384.981294 
L 108.802326 378.188932 
L 111.783298 372.430056 
L 114.573996 367.511433 
L 117.174419 363.368074 
L 119.584567 359.928091 
L 121.867865 357.040533 
L 124.024313 354.657581 
L 126.117336 352.674389 
L 128.08351 351.11481 
L 129.922833 349.92757 
L 131.698732 349.034805 
L 133.411205 348.413171 
L 135.123679 348.029208 
L 136.772727 347.886283 
L 143.686047 347.884607 
L 233.749471 347.990672 
L 235.39852 348.319106 
L 237.110994 348.892923 
L 238.823467 349.70126 
L 240.599366 350.783971 
L 242.438689 352.163626 
L 244.404863 353.923599 
L 246.434461 356.042512 
L 248.590909 358.621164 
L 250.874207 361.707276 
L 253.284355 365.346558 
L 255.884778 369.69244 
L 258.612051 374.691872 
L 261.529598 380.507073 
L 268.696617 395.117952 
L 271.106765 399.221261 
L 273.453488 402.778142 
L 275.736786 405.832756 
L 277.95666 408.428147 
L 280.113108 410.605987 
L 282.206131 412.406349 
L 284.235729 413.867507 
L 286.265328 415.059036 
L 288.294926 415.992182 
L 290.324524 416.678837 
L 292.354123 417.131458 
L 294.447146 417.366791 
L 296.984144 417.401345 
L 311.318182 417.401345 
L 311.318182 417.401345 
" style="fill:none;stroke:#000000;stroke-linecap:square;stroke-width:4;"/>
   </g>
   <g id="patch_12">
    <path d="M 45 420.877241 
L 45 344.408276 
" style="fill:none;stroke:#000000;stroke-linecap:square;stroke-linejoin:miter;stroke-width:0.8;"/>
   </g>
   <g id="patch_13">
    <path d="M 45 420.877241 
L 324 420.877241 
" style="fill:none;stroke:#000000;stroke-linecap:square;stroke-linejoin:miter;stroke-width:0.8;"/>
   </g>
  </g>
  <g id="axes_5">
   <g id="patch_14">
    <path d="M 45 512.64 
L 324 512.64 
L 324 436.171034 
L 45 436.171034 
z
" style="fill:#ffffff;"/>
   </g>
   <g id="matplotlib.axis_9">
    <g id="xtick_13">
     <g id="line2d_5">
      <defs>
       <path d="M 0 0 
L 0 3.5 
" id="md07e8e83d4" style="stroke:#000000;stroke-width:0.8;"/>
      </defs>
      <g>
       <use style="stroke:#000000;stroke-width:0.8;" x="57.681818" xlink:href="#md07e8e83d4" y="512.64"/>
      </g>
     </g>
     <g id="text_9">
      <!-- 0 -->
      <g transform="translate(51.319318 534.836875)scale(0.2 -0.2)">
       <use xlink:href="#DejaVuSans-48"/>
      </g>
     </g>
    </g>
    <g id="xtick_14">
     <g id="line2d_6">
      <g>
       <use style="stroke:#000000;stroke-width:0.8;" x="184.531712" xlink:href="#md07e8e83d4" y="512.64"/>
      </g>
     </g>
     <g id="text_10">
      <!-- 2000 -->
      <g transform="translate(159.081712 534.836875)scale(0.2 -0.2)">
       <use xlink:href="#DejaVuSans-50"/>
       <use x="63.623047" xlink:href="#DejaVuSans-48"/>
       <use x="127.246094" xlink:href="#DejaVuSans-48"/>
       <use x="190.869141" xlink:href="#DejaVuSans-48"/>
      </g>
     </g>
    </g>
    <g id="xtick_15">
     <g id="line2d_7">
      <g>
       <use style="stroke:#000000;stroke-width:0.8;" x="311.381607" xlink:href="#md07e8e83d4" y="512.64"/>
      </g>
     </g>
     <g id="text_11">
      <!-- 4000 -->
      <defs>
       <path d="M 37.796875 64.3125 
L 12.890625 25.390625 
L 37.796875 25.390625 
z
M 35.203125 72.90625 
L 47.609375 72.90625 
L 47.609375 25.390625 
L 58.015625 25.390625 
L 58.015625 17.1875 
L 47.609375 17.1875 
L 47.609375 0 
L 37.796875 0 
L 37.796875 17.1875 
L 4.890625 17.1875 
L 4.890625 26.703125 
z
" id="DejaVuSans-52"/>
      </defs>
      <g transform="translate(285.931607 534.836875)scale(0.2 -0.2)">
       <use xlink:href="#DejaVuSans-52"/>
       <use x="63.623047" xlink:href="#DejaVuSans-48"/>
       <use x="127.246094" xlink:href="#DejaVuSans-48"/>
       <use x="190.869141" xlink:href="#DejaVuSans-48"/>
      </g>
     </g>
    </g>
   </g>
   <g id="matplotlib.axis_10">
    <g id="ytick_9">
     <g id="text_12">
      <!-- 5 -->
      <g transform="translate(25.275 505.690313)scale(0.2 -0.2)">
       <use xlink:href="#DejaVuSans-53"/>
      </g>
     </g>
    </g>
    <g id="ytick_10">
     <g id="text_13">
      <!-- 10 -->
      <g transform="translate(12.55 468.684714)scale(0.2 -0.2)">
       <use xlink:href="#DejaVuSans-49"/>
       <use x="63.623047" xlink:href="#DejaVuSans-48"/>
      </g>
     </g>
    </g>
   </g>
   <g id="line2d_8">
    <path clip-path="url(#p1274db28d5)" d="M 57.681818 509.164121 
L 75.884778 509.054021 
L 78.041226 508.726157 
L 80.134249 508.183621 
L 82.163848 507.431725 
L 84.193446 506.443132 
L 86.223044 505.203597 
L 88.252643 503.698926 
L 90.282241 501.915057 
L 92.311839 499.838135 
L 94.404863 497.375017 
L 96.561311 494.480896 
L 98.717759 491.209923 
L 100.937632 487.433595 
L 103.22093 483.100389 
L 105.567653 478.159723 
L 108.9926 470.947103 
L 112.100423 464.900163 
L 115.01797 459.701018 
L 117.681818 455.394527 
L 120.155391 451.80119 
L 122.502114 448.776868 
L 124.658562 446.346708 
L 126.688161 444.379721 
L 128.590909 442.829588 
L 130.430233 441.611548 
L 132.142706 440.733411 
L 133.791755 440.127786 
L 135.377378 439.773217 
L 136.963002 439.647169 
L 165.377378 439.647194 
L 233.686047 439.7528 
L 235.27167 440.086547 
L 236.920719 440.670143 
L 238.569767 441.488972 
L 240.345666 442.626709 
L 242.184989 444.076443 
L 244.151163 445.921092 
L 246.180761 448.132734 
L 248.337209 450.810156 
L 250.683932 454.088546 
L 253.157505 457.932649 
L 255.821353 462.489673 
L 258.675476 467.816898 
L 261.783298 474.096045 
L 267.872093 486.616564 
L 270.218816 490.678806 
L 272.502114 494.185527 
L 274.721987 497.189875 
L 276.878436 499.741893 
L 279.034884 501.948573 
L 281.127907 503.775378 
L 283.22093 505.307136 
L 285.313953 506.559152 
L 287.406977 507.546869 
L 289.5 508.285786 
L 291.593023 508.79136 
L 293.749471 509.084392 
L 296.03277 509.164125 
L 311.318182 509.164121 
L 311.318182 509.164121 
" style="fill:none;stroke:#000000;stroke-linecap:square;stroke-width:4;"/>
   </g>
   <g id="patch_15">
    <path d="M 45 512.64 
L 45 436.171034 
" style="fill:none;stroke:#000000;stroke-linecap:square;stroke-linejoin:miter;stroke-width:0.8;"/>
   </g>
   <g id="patch_16">
    <path d="M 45 512.64 
L 324 512.64 
" style="fill:none;stroke:#000000;stroke-linecap:square;stroke-linejoin:miter;stroke-width:0.8;"/>
   </g>
  </g>
 </g>
 <defs>
  <clipPath id="pfd52aabbb0">
   <rect height="76.468966" width="279" x="45" y="69.12"/>
  </clipPath>
  <clipPath id="p3408dada19">
   <rect height="76.468966" width="279" x="45" y="160.882759"/>
  </clipPath>
  <clipPath id="p4c11ea4d93">
   <rect height="76.468966" width="279" x="45" y="252.645517"/>
  </clipPath>
  <clipPath id="p957059022e">
   <rect height="76.468966" width="279" x="45" y="344.408276"/>
  </clipPath>
  <clipPath id="p1274db28d5">
   <rect height="76.468966" width="279" x="45" y="436.171034"/>
  </clipPath>
 </defs>
</svg>
