<?xml version="1.0" encoding="utf-8" standalone="no"?>
<!DOCTYPE svg PUBLIC "-//W3C//DTD SVG 1.1//EN"
  "http://www.w3.org/Graphics/SVG/1.1/DTD/svg11.dtd">
<!-- Created with matplotlib (https://matplotlib.org/) -->
<svg height="576pt" version="1.1" viewBox="0 0 360 576" width="360pt" xmlns="http://www.w3.org/2000/svg" xmlns:xlink="http://www.w3.org/1999/xlink">
 <defs>
  <style type="text/css">
*{stroke-linecap:butt;stroke-linejoin:round;}
  </style>
 </defs>
 <g id="figure_1">
  <g id="patch_1">
   <path d="M 0 576 
L 360 576 
L 360 0 
L 0 0 
z
" style="fill:#ffffff;"/>
  </g>
  <g id="axes_1">
   <g id="patch_2">
    <path d="M 45 145.588966 
L 324 145.588966 
L 324 69.12 
L 45 69.12 
z
" style="fill:#ffffff;"/>
   </g>
   <g id="matplotlib.axis_1">
    <g id="xtick_1"/>
    <g id="xtick_2"/>
    <g id="xtick_3"/>
   </g>
   <g id="matplotlib.axis_2">
    <g id="ytick_1">
     <g id="text_1">
      <!-- 25 -->
      <defs>
       <path d="M 19.1875 8.296875 
L 53.609375 8.296875 
L 53.609375 0 
L 7.328125 0 
L 7.328125 8.296875 
Q 12.9375 14.109375 22.625 23.890625 
Q 32.328125 33.6875 34.8125 36.53125 
Q 39.546875 41.84375 41.421875 45.53125 
Q 43.3125 49.21875 43.3125 52.78125 
Q 43.3125 58.59375 39.234375 62.25 
Q 35.15625 65.921875 28.609375 65.921875 
Q 23.96875 65.921875 18.8125 64.3125 
Q 13.671875 62.703125 7.8125 59.421875 
L 7.8125 69.390625 
Q 13.765625 71.78125 18.9375 73 
Q 24.125 74.21875 28.421875 74.21875 
Q 39.75 74.21875 46.484375 68.546875 
Q 53.21875 62.890625 53.21875 53.421875 
Q 53.21875 48.921875 51.53125 44.890625 
Q 49.859375 40.875 45.40625 35.40625 
Q 44.1875 33.984375 37.640625 27.21875 
Q 31.109375 20.453125 19.1875 8.296875 
z
" id="DejaVuSans-50"/>
       <path d="M 10.796875 72.90625 
L 49.515625 72.90625 
L 49.515625 64.59375 
L 19.828125 64.59375 
L 19.828125 46.734375 
Q 21.96875 47.46875 24.109375 47.828125 
Q 26.265625 48.1875 28.421875 48.1875 
Q 40.625 48.1875 47.75 41.5 
Q 54.890625 34.8125 54.890625 23.390625 
Q 54.890625 11.625 47.5625 5.09375 
Q 40.234375 -1.421875 26.90625 -1.421875 
Q 22.3125 -1.421875 17.546875 -0.640625 
Q 12.796875 0.140625 7.71875 1.703125 
L 7.71875 11.625 
Q 12.109375 9.234375 16.796875 8.0625 
Q 21.484375 6.890625 26.703125 6.890625 
Q 35.15625 6.890625 40.078125 11.328125 
Q 45.015625 15.765625 45.015625 23.390625 
Q 45.015625 31 40.078125 35.4375 
Q 35.15625 39.890625 26.703125 39.890625 
Q 22.75 39.890625 18.8125 39.015625 
Q 14.890625 38.140625 10.796875 36.28125 
z
" id="DejaVuSans-53"/>
      </defs>
      <g transform="translate(12.55 151.732266)scale(0.2 -0.2)">
       <use xlink:href="#DejaVuSans-50"/>
       <use x="63.623047" xlink:href="#DejaVuSans-53"/>
      </g>
     </g>
    </g>
    <g id="ytick_2">
     <g id="text_2">
      <!-- 50 -->
      <defs>
       <path d="M 31.78125 66.40625 
Q 24.171875 66.40625 20.328125 58.90625 
Q 16.5 51.421875 16.5 36.375 
Q 16.5 21.390625 20.328125 13.890625 
Q 24.171875 6.390625 31.78125 6.390625 
Q 39.453125 6.390625 43.28125 13.890625 
Q 47.125 21.390625 47.125 36.375 
Q 47.125 51.421875 43.28125 58.90625 
Q 39.453125 66.40625 31.78125 66.40625 
z
M 31.78125 74.21875 
Q 44.046875 74.21875 50.515625 64.515625 
Q 56.984375 54.828125 56.984375 36.375 
Q 56.984375 17.96875 50.515625 8.265625 
Q 44.046875 -1.421875 31.78125 -1.421875 
Q 19.53125 -1.421875 13.0625 8.265625 
Q 6.59375 17.96875 6.59375 36.375 
Q 6.59375 54.828125 13.0625 64.515625 
Q 19.53125 74.21875 31.78125 74.21875 
z
" id="DejaVuSans-48"/>
      </defs>
      <g transform="translate(12.55 117.763431)scale(0.2 -0.2)">
       <use xlink:href="#DejaVuSans-53"/>
       <use x="63.623047" xlink:href="#DejaVuSans-48"/>
      </g>
     </g>
    </g>
    <g id="ytick_3">
     <g id="text_3">
      <!-- 75 -->
      <defs>
       <path d="M 8.203125 72.90625 
L 55.078125 72.90625 
L 55.078125 68.703125 
L 28.609375 0 
L 18.3125 0 
L 43.21875 64.59375 
L 8.203125 64.59375 
z
" id="DejaVuSans-55"/>
      </defs>
      <g transform="translate(12.55 83.794597)scale(0.2 -0.2)">
       <use xlink:href="#DejaVuSans-55"/>
       <use x="63.623047" xlink:href="#DejaVuSans-53"/>
      </g>
     </g>
    </g>
   </g>
   <g id="line2d_1">
    <path clip-path="url(#pcc34aca7c2)" d="M 57.681818 142.113103 
L 75.060254 142.008286 
L 76.645877 141.669485 
L 78.231501 141.10283 
L 79.88055 140.279215 
L 81.656448 139.134736 
L 83.495772 137.679306 
L 85.461945 135.833138 
L 87.554968 133.553797 
L 89.774841 130.800053 
L 92.121564 127.531956 
L 94.658562 123.607982 
L 97.32241 119.074165 
L 100.176533 113.771801 
L 103.22093 107.636434 
L 109.2463 95.258387 
L 111.529598 91.317755 
L 113.812896 87.819597 
L 116.03277 84.820699 
L 118.252643 82.196964 
L 120.409091 79.988474 
L 122.565539 78.098119 
L 124.658562 76.552723 
L 126.751586 75.279057 
L 128.844609 74.265054 
L 130.937632 73.499669 
L 133.030655 72.972776 
L 135.123679 72.675087 
L 137.280127 72.595964 
L 234.573996 72.753028 
L 236.667019 73.129147 
L 238.760042 73.737358 
L 240.789641 74.557773 
L 242.819239 75.614788 
L 244.848837 76.918643 
L 246.94186 78.533555 
L 249.034884 80.436064 
L 251.127907 82.640527 
L 253.284355 85.24393 
L 255.440803 88.202209 
L 257.660677 91.637877 
L 259.88055 95.489748 
L 262.163848 99.90577 
L 264.827696 105.58844 
L 268.062368 112.24417 
L 271.106765 118.00542 
L 273.960888 122.936963 
L 276.624736 127.105094 
L 279.098309 130.577524 
L 281.445032 133.497079 
L 283.60148 135.840164 
L 285.631078 137.732276 
L 287.533827 139.216557 
L 289.37315 140.372595 
L 291.085624 141.19226 
L 292.734672 141.739175 
L 294.320296 142.034204 
L 295.90592 142.103021 
L 311.318182 142.103198 
L 311.318182 142.103198 
" style="fill:none;stroke:#000000;stroke-linecap:square;stroke-width:4;"/>
   </g>
   <g id="patch_3">
    <path d="M 45 145.588966 
L 45 69.12 
" style="fill:none;stroke:#000000;stroke-linecap:square;stroke-linejoin:miter;stroke-width:0.8;"/>
   </g>
   <g id="patch_4">
    <path d="M 45 145.588966 
L 324 145.588966 
" style="fill:none;stroke:#000000;stroke-linecap:square;stroke-linejoin:miter;stroke-width:0.8;"/>
   </g>
  </g>
  <g id="axes_2">
   <g id="patch_5">
    <path d="M 45 237.351724 
L 324 237.351724 
L 324 160.882759 
L 45 160.882759 
z
" style="fill:#ffffff;"/>
   </g>
   <g id="matplotlib.axis_3">
    <g id="xtick_4"/>
    <g id="xtick_5"/>
    <g id="xtick_6"/>
   </g>
   <g id="matplotlib.axis_4">
    <g id="ytick_4">
     <g id="text_4">
      <!-- 25 -->
      <g transform="translate(12.55 226.862551)scale(0.2 -0.2)">
       <use xlink:href="#DejaVuSans-50"/>
       <use x="63.623047" xlink:href="#DejaVuSans-53"/>
      </g>
     </g>
    </g>
    <g id="ytick_5">
     <g id="text_5">
      <!-- 50 -->
      <g transform="translate(12.55 186.158412)scale(0.2 -0.2)">
       <use xlink:href="#DejaVuSans-53"/>
       <use x="63.623047" xlink:href="#DejaVuSans-48"/>
      </g>
     </g>
    </g>
   </g>
   <g id="line2d_2">
    <path clip-path="url(#pd74e3b579f)" d="M 57.681818 233.875862 
L 75.313953 233.768938 
L 77.026427 233.442879 
L 78.738901 232.893649 
L 80.514799 232.086043 
L 82.354123 230.993839 
L 84.256871 229.591925 
L 86.223044 227.856466 
L 88.252643 225.764985 
L 90.409091 223.216713 
L 92.692389 220.16262 
L 95.102537 216.554386 
L 97.639535 212.344695 
L 100.303383 207.487412 
L 103.157505 201.806214 
L 110.387949 187.034058 
L 112.861522 182.790966 
L 115.208245 179.199786 
L 117.491543 176.106692 
L 119.711416 173.471214 
L 121.867865 171.253262 
L 123.960888 169.414184 
L 125.990486 167.917333 
L 128.020085 166.694166 
L 129.986258 165.762414 
L 131.952431 165.07239 
L 133.918605 164.616954 
L 135.884778 164.389232 
L 138.358351 164.358906 
L 234.003171 164.465445 
L 235.969345 164.795921 
L 237.935518 165.356624 
L 239.901691 166.154434 
L 241.867865 167.196455 
L 243.834038 168.48996 
L 245.863636 170.096772 
L 247.893235 171.987423 
L 249.986258 174.242665 
L 252.142706 176.898974 
L 254.362579 179.993969 
L 256.645877 183.565408 
L 258.9926 187.649608 
L 261.466173 192.406816 
L 264.130021 198.032666 
L 267.174419 204.379029 
L 270.028541 209.831628 
L 272.755814 214.572664 
L 275.292812 218.554211 
L 277.70296 221.939225 
L 279.986258 224.776446 
L 282.142706 227.11571 
L 284.235729 229.061794 
L 286.201903 230.592875 
L 288.104651 231.796574 
L 289.943975 232.698229 
L 291.719873 233.324447 
L 293.495772 233.71267 
L 295.27167 233.867383 
L 300.853066 233.870542 
L 311.318182 233.870542 
L 311.318182 233.870542 
" style="fill:none;stroke:#000000;stroke-linecap:square;stroke-width:4;"/>
   </g>
   <g id="patch_6">
    <path d="M 45 237.351724 
L 45 160.882759 
" style="fill:none;stroke:#000000;stroke-linecap:square;stroke-linejoin:miter;stroke-width:0.8;"/>
   </g>
   <g id="patch_7">
    <path d="M 45 237.351724 
L 324 237.351724 
" style="fill:none;stroke:#000000;stroke-linecap:square;stroke-linejoin:miter;stroke-width:0.8;"/>
   </g>
  </g>
  <g id="axes_3">
   <g id="patch_8">
    <path d="M 45 329.114483 
L 324 329.114483 
L 324 252.645517 
L 45 252.645517 
z
" style="fill:#ffffff;"/>
   </g>
   <g id="matplotlib.axis_5">
    <g id="xtick_7"/>
    <g id="xtick_8"/>
    <g id="xtick_9"/>
   </g>
   <g id="matplotlib.axis_6">
    <g id="ytick_6">
     <g id="text_6">
      <!-- 25 -->
      <g transform="translate(12.55 318.625309)scale(0.2 -0.2)">
       <use xlink:href="#DejaVuSans-50"/>
       <use x="63.623047" xlink:href="#DejaVuSans-53"/>
      </g>
     </g>
    </g>
    <g id="ytick_7">
     <g id="text_7">
      <!-- 50 -->
      <g transform="translate(12.55 277.921171)scale(0.2 -0.2)">
       <use xlink:href="#DejaVuSans-53"/>
       <use x="63.623047" xlink:href="#DejaVuSans-48"/>
      </g>
     </g>
    </g>
   </g>
   <g id="line2d_3">
    <path clip-path="url(#p4472387230)" d="M 57.681818 325.638621 
L 75.313953 325.531696 
L 77.026427 325.205637 
L 78.738901 324.656408 
L 80.514799 323.848802 
L 82.354123 322.756598 
L 84.256871 321.354684 
L 86.223044 319.619224 
L 88.252643 317.527743 
L 90.409091 314.979471 
L 92.692389 311.925378 
L 95.102537 308.317145 
L 97.639535 304.107453 
L 100.303383 299.25017 
L 103.157505 293.568973 
L 110.387949 278.796816 
L 112.861522 274.553725 
L 115.208245 270.962545 
L 117.491543 267.869451 
L 119.711416 265.233972 
L 121.867865 263.016021 
L 123.960888 261.176943 
L 125.990486 259.680091 
L 128.020085 258.456925 
L 129.986258 257.525173 
L 131.952431 256.835149 
L 133.918605 256.379713 
L 135.884778 256.151991 
L 138.358351 256.121665 
L 234.003171 256.228203 
L 235.969345 256.55868 
L 237.935518 257.119383 
L 239.901691 257.917193 
L 241.867865 258.959213 
L 243.834038 260.252719 
L 245.863636 261.85953 
L 247.893235 263.750182 
L 249.986258 266.005423 
L 252.142706 268.661733 
L 254.362579 271.756727 
L 256.645877 275.328167 
L 258.9926 279.412367 
L 261.466173 284.169574 
L 264.130021 289.795424 
L 267.174419 296.141788 
L 270.028541 301.594387 
L 272.755814 306.335423 
L 275.292812 310.31697 
L 277.70296 313.701984 
L 279.986258 316.539204 
L 282.142706 318.878469 
L 284.235729 320.824553 
L 286.201903 322.355634 
L 288.104651 323.559333 
L 289.943975 324.460988 
L 291.719873 325.087206 
L 293.495772 325.475429 
L 295.27167 325.630141 
L 300.853066 325.633301 
L 311.318182 325.633301 
L 311.318182 325.633301 
" style="fill:none;stroke:#000000;stroke-linecap:square;stroke-width:4;"/>
   </g>
   <g id="patch_9">
    <path d="M 45 329.114483 
L 45 252.645517 
" style="fill:none;stroke:#000000;stroke-linecap:square;stroke-linejoin:miter;stroke-width:0.8;"/>
   </g>
   <g id="patch_10">
    <path d="M 45 329.114483 
L 324 329.114483 
" style="fill:none;stroke:#000000;stroke-linecap:square;stroke-linejoin:miter;stroke-width:0.8;"/>
   </g>
  </g>
  <g id="axes_4">
   <g id="patch_11">
    <path d="M 45 420.877241 
L 324 420.877241 
L 324 344.408276 
L 45 344.408276 
z
" style="fill:#ffffff;"/>
   </g>
   <g id="matplotlib.axis_7">
    <g id="xtick_10"/>
    <g id="xtick_11"/>
    <g id="xtick_12"/>
   </g>
   <g id="matplotlib.axis_8">
    <g id="ytick_8">
     <g id="text_8">
      <!-- 20 -->
      <g transform="translate(12.55 409.211063)scale(0.2 -0.2)">
       <use xlink:href="#DejaVuSans-50"/>
       <use x="63.623047" xlink:href="#DejaVuSans-48"/>
      </g>
     </g>
    </g>
    <g id="ytick_9">
     <g id="text_9">
      <!-- 30 -->
      <defs>
       <path d="M 40.578125 39.3125 
Q 47.65625 37.796875 51.625 33 
Q 55.609375 28.21875 55.609375 21.1875 
Q 55.609375 10.40625 48.1875 4.484375 
Q 40.765625 -1.421875 27.09375 -1.421875 
Q 22.515625 -1.421875 17.65625 -0.515625 
Q 12.796875 0.390625 7.625 2.203125 
L 7.625 11.71875 
Q 11.71875 9.328125 16.59375 8.109375 
Q 21.484375 6.890625 26.8125 6.890625 
Q 36.078125 6.890625 40.9375 10.546875 
Q 45.796875 14.203125 45.796875 21.1875 
Q 45.796875 27.640625 41.28125 31.265625 
Q 36.765625 34.90625 28.71875 34.90625 
L 20.21875 34.90625 
L 20.21875 43.015625 
L 29.109375 43.015625 
Q 36.375 43.015625 40.234375 45.921875 
Q 44.09375 48.828125 44.09375 54.296875 
Q 44.09375 59.90625 40.109375 62.90625 
Q 36.140625 65.921875 28.71875 65.921875 
Q 24.65625 65.921875 20.015625 65.03125 
Q 15.375 64.15625 9.8125 62.3125 
L 9.8125 71.09375 
Q 15.4375 72.65625 20.34375 73.4375 
Q 25.25 74.21875 29.59375 74.21875 
Q 40.828125 74.21875 47.359375 69.109375 
Q 53.90625 64.015625 53.90625 55.328125 
Q 53.90625 49.265625 50.4375 45.09375 
Q 46.96875 40.921875 40.578125 39.3125 
z
" id="DejaVuSans-51"/>
      </defs>
      <g transform="translate(12.55 374.519813)scale(0.2 -0.2)">
       <use xlink:href="#DejaVuSans-51"/>
       <use x="63.623047" xlink:href="#DejaVuSans-48"/>
      </g>
     </g>
    </g>
   </g>
   <g id="line2d_4">
    <path clip-path="url(#p860c324b97)" d="M 57.681818 417.401379 
L 75.567653 417.295612 
L 77.597252 416.9648 
L 79.563425 416.417381 
L 81.529598 415.635512 
L 83.495772 414.609089 
L 85.461945 413.3289 
L 87.491543 411.732411 
L 89.521142 409.848449 
L 91.614165 407.596868 
L 93.770613 404.941955 
L 95.990486 401.846982 
L 98.273784 398.274398 
L 100.620507 394.186001 
L 103.09408 389.414842 
L 105.694503 383.896945 
L 108.802326 377.411687 
L 111.719873 371.823773 
L 114.447146 367.070992 
L 116.984144 363.08156 
L 119.394292 359.694278 
L 121.67759 356.859908 
L 123.834038 354.527013 
L 125.927061 352.589397 
L 127.893235 351.067473 
L 129.795983 349.873563 
L 131.635307 348.983053 
L 133.411205 348.3712 
L 135.123679 348.013366 
L 136.836152 347.884547 
L 156.244186 347.884555 
L 233.749471 347.993159 
L 235.461945 348.330574 
L 237.174419 348.895364 
L 238.950317 349.719783 
L 240.789641 350.82786 
L 242.692389 352.243627 
L 244.658562 353.990857 
L 246.688161 356.092785 
L 248.844609 358.651736 
L 251.127907 361.718126 
L 253.538055 365.341201 
L 256.075053 369.56765 
L 258.802326 374.561192 
L 261.656448 380.257388 
L 268.633192 394.511849 
L 271.106765 398.767209 
L 273.453488 402.372766 
L 275.736786 405.483102 
L 277.95666 408.137214 
L 280.113108 410.373292 
L 282.206131 412.228535 
L 284.235729 413.738947 
L 286.265328 414.973674 
L 288.231501 415.915745 
L 290.197674 416.617244 
L 292.163848 417.088405 
L 294.193446 417.344897 
L 296.476744 417.39252 
L 311.318182 417.392509 
L 311.318182 417.392509 
" style="fill:none;stroke:#000000;stroke-linecap:square;stroke-width:4;"/>
   </g>
   <g id="patch_12">
    <path d="M 45 420.877241 
L 45 344.408276 
" style="fill:none;stroke:#000000;stroke-linecap:square;stroke-linejoin:miter;stroke-width:0.8;"/>
   </g>
   <g id="patch_13">
    <path d="M 45 420.877241 
L 324 420.877241 
" style="fill:none;stroke:#000000;stroke-linecap:square;stroke-linejoin:miter;stroke-width:0.8;"/>
   </g>
  </g>
  <g id="axes_5">
   <g id="patch_14">
    <path d="M 45 512.64 
L 324 512.64 
L 324 436.171034 
L 45 436.171034 
z
" style="fill:#ffffff;"/>
   </g>
   <g id="matplotlib.axis_9">
    <g id="xtick_13">
     <g id="line2d_5">
      <defs>
       <path d="M 0 0 
L 0 3.5 
" id="m951de86e5b" style="stroke:#000000;stroke-width:0.8;"/>
      </defs>
      <g>
       <use style="stroke:#000000;stroke-width:0.8;" x="57.681818" xlink:href="#m951de86e5b" y="512.64"/>
      </g>
     </g>
     <g id="text_10">
      <!-- 0 -->
      <g transform="translate(51.319318 534.836875)scale(0.2 -0.2)">
       <use xlink:href="#DejaVuSans-48"/>
      </g>
     </g>
    </g>
    <g id="xtick_14">
     <g id="line2d_6">
      <g>
       <use style="stroke:#000000;stroke-width:0.8;" x="184.531712" xlink:href="#m951de86e5b" y="512.64"/>
      </g>
     </g>
     <g id="text_11">
      <!-- 2000 -->
      <g transform="translate(159.081712 534.836875)scale(0.2 -0.2)">
       <use xlink:href="#DejaVuSans-50"/>
       <use x="63.623047" xlink:href="#DejaVuSans-48"/>
       <use x="127.246094" xlink:href="#DejaVuSans-48"/>
       <use x="190.869141" xlink:href="#DejaVuSans-48"/>
      </g>
     </g>
    </g>
    <g id="xtick_15">
     <g id="line2d_7">
      <g>
       <use style="stroke:#000000;stroke-width:0.8;" x="311.381607" xlink:href="#m951de86e5b" y="512.64"/>
      </g>
     </g>
     <g id="text_12">
      <!-- 4000 -->
      <defs>
       <path d="M 37.796875 64.3125 
L 12.890625 25.390625 
L 37.796875 25.390625 
z
M 35.203125 72.90625 
L 47.609375 72.90625 
L 47.609375 25.390625 
L 58.015625 25.390625 
L 58.015625 17.1875 
L 47.609375 17.1875 
L 47.609375 0 
L 37.796875 0 
L 37.796875 17.1875 
L 4.890625 17.1875 
L 4.890625 26.703125 
z
" id="DejaVuSans-52"/>
      </defs>
      <g transform="translate(285.931607 534.836875)scale(0.2 -0.2)">
       <use xlink:href="#DejaVuSans-52"/>
       <use x="63.623047" xlink:href="#DejaVuSans-48"/>
       <use x="127.246094" xlink:href="#DejaVuSans-48"/>
       <use x="190.869141" xlink:href="#DejaVuSans-48"/>
      </g>
     </g>
    </g>
   </g>
   <g id="matplotlib.axis_10">
    <g id="ytick_10">
     <g id="text_13">
      <!-- 20 -->
      <g transform="translate(12.55 504.866226)scale(0.2 -0.2)">
       <use xlink:href="#DejaVuSans-50"/>
       <use x="63.623047" xlink:href="#DejaVuSans-48"/>
      </g>
     </g>
    </g>
    <g id="ytick_11">
     <g id="text_14">
      <!-- 40 -->
      <g transform="translate(12.55 445.000793)scale(0.2 -0.2)">
       <use xlink:href="#DejaVuSans-52"/>
       <use x="63.623047" xlink:href="#DejaVuSans-48"/>
      </g>
     </g>
    </g>
   </g>
   <g id="line2d_8">
    <path clip-path="url(#p5d023c336e)" d="M 57.681818 509.164138 
L 75.504228 509.059583 
L 77.470402 508.731711 
L 79.37315 508.1918 
L 81.275899 507.424046 
L 83.178647 506.420571 
L 85.14482 505.128621 
L 87.110994 503.570859 
L 89.140592 501.677995 
L 91.233615 499.417454 
L 93.390063 496.755963 
L 95.609937 493.659754 
L 97.893235 490.09474 
L 100.303383 485.911062 
L 102.776956 481.16708 
L 105.377378 475.689029 
L 108.421776 469.293454 
L 111.275899 463.79734 
L 113.939746 459.131115 
L 116.476744 455.122773 
L 118.886892 451.722609 
L 121.17019 448.877767 
L 123.326638 446.533955 
L 125.419662 444.582398 
L 127.385835 443.042278 
L 129.288584 441.824185 
L 131.127907 440.902479 
L 132.903805 440.251721 
L 134.679704 439.836095 
L 136.392178 439.657834 
L 139.563425 439.64734 
L 233.749471 439.751082 
L 235.461945 440.072948 
L 237.237844 440.636897 
L 239.013742 441.435127 
L 240.853066 442.508387 
L 242.755814 443.881661 
L 244.721987 445.580033 
L 246.751586 447.628416 
L 248.908034 450.129494 
L 251.127907 453.047923 
L 253.47463 456.504282 
L 255.948203 460.549013 
L 258.548626 465.229629 
L 261.339323 470.71874 
L 264.510571 477.475274 
L 267.174419 482.907283 
L 269.711416 487.590469 
L 272.184989 491.696553 
L 274.531712 495.173837 
L 276.815011 498.169018 
L 279.034884 500.717759 
L 281.191332 502.855444 
L 283.284355 504.616955 
L 285.313953 506.036468 
L 287.280127 507.147225 
L 289.2463 508.005158 
L 291.212474 508.618564 
L 293.178647 508.996727 
L 295.14482 509.149883 
L 300.662791 509.154381 
L 311.318182 509.154381 
L 311.318182 509.154381 
" style="fill:none;stroke:#000000;stroke-linecap:square;stroke-width:4;"/>
   </g>
   <g id="patch_15">
    <path d="M 45 512.64 
L 45 436.171034 
" style="fill:none;stroke:#000000;stroke-linecap:square;stroke-linejoin:miter;stroke-width:0.8;"/>
   </g>
   <g id="patch_16">
    <path d="M 45 512.64 
L 324 512.64 
" style="fill:none;stroke:#000000;stroke-linecap:square;stroke-linejoin:miter;stroke-width:0.8;"/>
   </g>
  </g>
 </g>
 <defs>
  <clipPath id="pcc34aca7c2">
   <rect height="76.468966" width="279" x="45" y="69.12"/>
  </clipPath>
  <clipPath id="pd74e3b579f">
   <rect height="76.468966" width="279" x="45" y="160.882759"/>
  </clipPath>
  <clipPath id="p4472387230">
   <rect height="76.468966" width="279" x="45" y="252.645517"/>
  </clipPath>
  <clipPath id="p860c324b97">
   <rect height="76.468966" width="279" x="45" y="344.408276"/>
  </clipPath>
  <clipPath id="p5d023c336e">
   <rect height="76.468966" width="279" x="45" y="436.171034"/>
  </clipPath>
 </defs>
</svg>
