<?xml version="1.0" encoding="utf-8" standalone="no"?>
<!DOCTYPE svg PUBLIC "-//W3C//DTD SVG 1.1//EN"
  "http://www.w3.org/Graphics/SVG/1.1/DTD/svg11.dtd">
<!-- Created with matplotlib (https://matplotlib.org/) -->
<svg height="576pt" version="1.1" viewBox="0 0 360 576" width="360pt" xmlns="http://www.w3.org/2000/svg" xmlns:xlink="http://www.w3.org/1999/xlink">
 <defs>
  <style type="text/css">
*{stroke-linecap:butt;stroke-linejoin:round;white-space:pre;}
  </style>
 </defs>
 <g id="figure_1">
  <g id="patch_1">
   <path d="M 0 576 
L 360 576 
L 360 0 
L 0 0 
z
" style="fill:#ffffff;"/>
  </g>
  <g id="axes_1">
   <g id="patch_2">
    <path d="M 45 145.588966 
L 324 145.588966 
L 324 69.12 
L 45 69.12 
z
" style="fill:#ffffff;"/>
   </g>
   <g id="matplotlib.axis_1">
    <g id="xtick_1"/>
    <g id="xtick_2"/>
    <g id="xtick_3"/>
   </g>
   <g id="matplotlib.axis_2">
    <g id="ytick_1">
     <g id="text_1">
      <!-- 25 -->
      <defs>
       <path d="M 19.1875 8.296875 
L 53.609375 8.296875 
L 53.609375 0 
L 7.328125 0 
L 7.328125 8.296875 
Q 12.9375 14.109375 22.625 23.890625 
Q 32.328125 33.6875 34.8125 36.53125 
Q 39.546875 41.84375 41.421875 45.53125 
Q 43.3125 49.21875 43.3125 52.78125 
Q 43.3125 58.59375 39.234375 62.25 
Q 35.15625 65.921875 28.609375 65.921875 
Q 23.96875 65.921875 18.8125 64.3125 
Q 13.671875 62.703125 7.8125 59.421875 
L 7.8125 69.390625 
Q 13.765625 71.78125 18.9375 73 
Q 24.125 74.21875 28.421875 74.21875 
Q 39.75 74.21875 46.484375 68.546875 
Q 53.21875 62.890625 53.21875 53.421875 
Q 53.21875 48.921875 51.53125 44.890625 
Q 49.859375 40.875 45.40625 35.40625 
Q 44.1875 33.984375 37.640625 27.21875 
Q 31.109375 20.453125 19.1875 8.296875 
z
" id="DejaVuSans-50"/>
       <path d="M 10.796875 72.90625 
L 49.515625 72.90625 
L 49.515625 64.59375 
L 19.828125 64.59375 
L 19.828125 46.734375 
Q 21.96875 47.46875 24.109375 47.828125 
Q 26.265625 48.1875 28.421875 48.1875 
Q 40.625 48.1875 47.75 41.5 
Q 54.890625 34.8125 54.890625 23.390625 
Q 54.890625 11.625 47.5625 5.09375 
Q 40.234375 -1.421875 26.90625 -1.421875 
Q 22.3125 -1.421875 17.546875 -0.640625 
Q 12.796875 0.140625 7.71875 1.703125 
L 7.71875 11.625 
Q 12.109375 9.234375 16.796875 8.0625 
Q 21.484375 6.890625 26.703125 6.890625 
Q 35.15625 6.890625 40.078125 11.328125 
Q 45.015625 15.765625 45.015625 23.390625 
Q 45.015625 31 40.078125 35.4375 
Q 35.15625 39.890625 26.703125 39.890625 
Q 22.75 39.890625 18.8125 39.015625 
Q 14.890625 38.140625 10.796875 36.28125 
z
" id="DejaVuSans-53"/>
      </defs>
      <g transform="translate(12.55 128.010421)scale(0.2 -0.2)">
       <use xlink:href="#DejaVuSans-50"/>
       <use x="63.623047" xlink:href="#DejaVuSans-53"/>
      </g>
     </g>
    </g>
    <g id="ytick_2">
     <g id="text_2">
      <!-- 50 -->
      <defs>
       <path d="M 31.78125 66.40625 
Q 24.171875 66.40625 20.328125 58.90625 
Q 16.5 51.421875 16.5 36.375 
Q 16.5 21.390625 20.328125 13.890625 
Q 24.171875 6.390625 31.78125 6.390625 
Q 39.453125 6.390625 43.28125 13.890625 
Q 47.125 21.390625 47.125 36.375 
Q 47.125 51.421875 43.28125 58.90625 
Q 39.453125 66.40625 31.78125 66.40625 
z
M 31.78125 74.21875 
Q 44.046875 74.21875 50.515625 64.515625 
Q 56.984375 54.828125 56.984375 36.375 
Q 56.984375 17.96875 50.515625 8.265625 
Q 44.046875 -1.421875 31.78125 -1.421875 
Q 19.53125 -1.421875 13.0625 8.265625 
Q 6.59375 17.96875 6.59375 36.375 
Q 6.59375 54.828125 13.0625 64.515625 
Q 19.53125 74.21875 31.78125 74.21875 
z
" id="DejaVuSans-48"/>
      </defs>
      <g transform="translate(12.55 80.291768)scale(0.2 -0.2)">
       <use xlink:href="#DejaVuSans-53"/>
       <use x="63.623047" xlink:href="#DejaVuSans-48"/>
      </g>
     </g>
    </g>
   </g>
   <g id="line2d_1">
    <path clip-path="url(#pc8a0d2def1)" d="M 57.681818 142.112871 
L 75.440803 142.006637 
L 77.280127 141.679385 
L 79.11945 141.122494 
L 80.958774 140.329085 
L 82.798097 139.294149 
L 84.700846 137.965879 
L 86.667019 136.316094 
L 88.696617 134.317134 
L 90.789641 131.942079 
L 93.009514 129.078208 
L 95.292812 125.767099 
L 97.70296 121.877071 
L 100.239958 117.353368 
L 102.903805 112.141644 
L 105.821353 105.924587 
L 108.675476 100.021296 
L 111.339323 95.006378 
L 113.876321 90.693995 
L 116.286469 87.026649 
L 118.569767 83.942624 
L 120.789641 81.308987 
L 122.946089 79.093209 
L 125.039112 77.26233 
L 127.06871 75.783734 
L 129.034884 74.625673 
L 130.937632 73.757615 
L 132.840381 73.133523 
L 134.743129 72.748724 
L 136.582452 72.599727 
L 142.227273 72.596252 
L 233.939746 72.706765 
L 235.77907 73.035438 
L 237.618393 73.586105 
L 239.521142 74.393772 
L 241.42389 75.447844 
L 243.390063 76.800311 
L 245.356237 78.424447 
L 247.385835 80.389678 
L 249.478858 82.726642 
L 251.635307 85.466078 
L 253.918605 88.733934 
L 256.265328 92.483792 
L 258.738901 96.8588 
L 261.339323 101.912013 
L 264.193446 107.960375 
L 267.047569 113.882122 
L 269.774841 119.043738 
L 272.375264 123.500476 
L 274.848837 127.30853 
L 277.19556 130.524731 
L 279.415433 133.206095 
L 281.571882 135.471093 
L 283.664905 137.347391 
L 285.631078 138.820864 
L 287.533827 139.981624 
L 289.436575 140.884661 
L 291.275899 141.517234 
L 293.115222 141.919809 
L 294.954545 142.100482 
L 298.189218 142.112871 
L 311.318182 142.112871 
L 311.318182 142.112871 
" style="fill:none;stroke:#000000;stroke-linecap:square;stroke-width:4;"/>
   </g>
   <g id="patch_3">
    <path d="M 45 145.588966 
L 45 69.12 
" style="fill:none;stroke:#000000;stroke-linecap:square;stroke-linejoin:miter;stroke-width:0.8;"/>
   </g>
   <g id="patch_4">
    <path d="M 45 145.588966 
L 324 145.588966 
" style="fill:none;stroke:#000000;stroke-linecap:square;stroke-linejoin:miter;stroke-width:0.8;"/>
   </g>
  </g>
  <g id="axes_2">
   <g id="patch_5">
    <path d="M 45 237.351724 
L 324 237.351724 
L 324 160.882759 
L 45 160.882759 
z
" style="fill:#ffffff;"/>
   </g>
   <g id="matplotlib.axis_3">
    <g id="xtick_4"/>
    <g id="xtick_5"/>
    <g id="xtick_6"/>
   </g>
   <g id="matplotlib.axis_4">
    <g id="ytick_3">
     <g id="text_3">
      <!-- 5 -->
      <g transform="translate(25.275 218.554099)scale(0.2 -0.2)">
       <use xlink:href="#DejaVuSans-53"/>
      </g>
     </g>
    </g>
    <g id="ytick_4">
     <g id="text_4">
      <!-- 10 -->
      <defs>
       <path d="M 12.40625 8.296875 
L 28.515625 8.296875 
L 28.515625 63.921875 
L 10.984375 60.40625 
L 10.984375 69.390625 
L 28.421875 72.90625 
L 38.28125 72.90625 
L 38.28125 8.296875 
L 54.390625 8.296875 
L 54.390625 0 
L 12.40625 0 
z
" id="DejaVuSans-49"/>
      </defs>
      <g transform="translate(12.55 175.922163)scale(0.2 -0.2)">
       <use xlink:href="#DejaVuSans-49"/>
       <use x="63.623047" xlink:href="#DejaVuSans-48"/>
      </g>
     </g>
    </g>
   </g>
   <g id="line2d_2">
    <path clip-path="url(#pd48fc6dd4e)" d="M 57.681818 233.875855 
L 76.011628 233.766934 
L 78.294926 233.436671 
L 80.451374 232.901302 
L 82.544397 232.155423 
L 84.637421 231.168324 
L 86.667019 229.963268 
L 88.696617 228.496872 
L 90.726216 226.751909 
L 92.755814 224.711133 
L 94.785412 222.357379 
L 96.878436 219.584297 
L 98.971459 216.441999 
L 101.127907 212.799415 
L 103.34778 208.600455 
L 105.631078 203.791042 
L 109.2463 196.167796 
L 112.480973 189.846723 
L 115.461945 184.497463 
L 118.189218 180.049659 
L 120.726216 176.332355 
L 123.072939 173.284367 
L 125.229387 170.837895 
L 127.258985 168.86432 
L 129.161734 167.319173 
L 130.937632 166.155746 
L 132.650106 165.299149 
L 134.235729 164.74661 
L 135.757928 164.440827 
L 137.280127 164.358754 
L 234.003171 164.52224 
L 235.52537 164.904741 
L 237.110994 165.533973 
L 238.760042 166.430407 
L 240.472516 167.613542 
L 242.311839 169.159598 
L 244.278013 171.113972 
L 246.371036 173.520234 
L 248.590909 176.419114 
L 251.001057 179.945098 
L 253.60148 184.159466 
L 256.392178 189.116041 
L 259.436575 194.985913 
L 262.798097 201.964774 
L 266.793869 210.286555 
L 269.077167 214.406217 
L 271.29704 217.959868 
L 273.453488 221.005606 
L 275.609937 223.670679 
L 277.70296 225.912313 
L 279.795983 227.83282 
L 281.889006 229.450929 
L 283.98203 230.785399 
L 286.075053 231.854897 
L 288.168076 232.677889 
L 290.324524 233.28717 
L 292.544397 233.68161 
L 294.827696 233.862348 
L 298.823467 233.875855 
L 311.318182 233.875855 
L 311.318182 233.875855 
" style="fill:none;stroke:#000000;stroke-linecap:square;stroke-width:4;"/>
   </g>
   <g id="patch_6">
    <path d="M 45 237.351724 
L 45 160.882759 
" style="fill:none;stroke:#000000;stroke-linecap:square;stroke-linejoin:miter;stroke-width:0.8;"/>
   </g>
   <g id="patch_7">
    <path d="M 45 237.351724 
L 324 237.351724 
" style="fill:none;stroke:#000000;stroke-linecap:square;stroke-linejoin:miter;stroke-width:0.8;"/>
   </g>
  </g>
  <g id="axes_3">
   <g id="patch_8">
    <path d="M 45 329.114483 
L 324 329.114483 
L 324 252.645517 
L 45 252.645517 
z
" style="fill:#ffffff;"/>
   </g>
   <g id="matplotlib.axis_5">
    <g id="xtick_7"/>
    <g id="xtick_8"/>
    <g id="xtick_9"/>
   </g>
   <g id="matplotlib.axis_6">
    <g id="ytick_5">
     <g id="text_5">
      <!-- 5 -->
      <g transform="translate(25.275 310.316857)scale(0.2 -0.2)">
       <use xlink:href="#DejaVuSans-53"/>
      </g>
     </g>
    </g>
    <g id="ytick_6">
     <g id="text_6">
      <!-- 10 -->
      <g transform="translate(12.55 267.684921)scale(0.2 -0.2)">
       <use xlink:href="#DejaVuSans-49"/>
       <use x="63.623047" xlink:href="#DejaVuSans-48"/>
      </g>
     </g>
    </g>
   </g>
   <g id="line2d_3">
    <path clip-path="url(#p08671bc7f6)" d="M 57.681818 325.638614 
L 76.011628 325.529693 
L 78.294926 325.199429 
L 80.451374 324.664061 
L 82.544397 323.918181 
L 84.637421 322.931082 
L 86.667019 321.726026 
L 88.696617 320.259631 
L 90.726216 318.514668 
L 92.755814 316.473892 
L 94.785412 314.120137 
L 96.878436 311.347056 
L 98.971459 308.204758 
L 101.127907 304.562174 
L 103.34778 300.363214 
L 105.631078 295.553801 
L 109.2463 287.930554 
L 112.480973 281.609482 
L 115.461945 276.260222 
L 118.189218 271.812418 
L 120.726216 268.095113 
L 123.072939 265.047126 
L 125.229387 262.600654 
L 127.258985 260.627079 
L 129.161734 259.081932 
L 130.937632 257.918505 
L 132.650106 257.061908 
L 134.235729 256.509369 
L 135.757928 256.203586 
L 137.280127 256.121512 
L 234.003171 256.284999 
L 235.52537 256.6675 
L 237.110994 257.296732 
L 238.760042 258.193165 
L 240.472516 259.376301 
L 242.311839 260.922356 
L 244.278013 262.876731 
L 246.371036 265.282993 
L 248.590909 268.181873 
L 251.001057 271.707857 
L 253.60148 275.922225 
L 256.392178 280.8788 
L 259.436575 286.748671 
L 262.798097 293.727533 
L 266.793869 302.049314 
L 269.077167 306.168976 
L 271.29704 309.722626 
L 273.453488 312.768364 
L 275.609937 315.433437 
L 277.70296 317.675072 
L 279.795983 319.595578 
L 281.889006 321.213688 
L 283.98203 322.548157 
L 286.075053 323.617656 
L 288.168076 324.440648 
L 290.324524 325.049928 
L 292.544397 325.444369 
L 294.827696 325.625107 
L 298.823467 325.638614 
L 311.318182 325.638614 
L 311.318182 325.638614 
" style="fill:none;stroke:#000000;stroke-linecap:square;stroke-width:4;"/>
   </g>
   <g id="patch_9">
    <path d="M 45 329.114483 
L 45 252.645517 
" style="fill:none;stroke:#000000;stroke-linecap:square;stroke-linejoin:miter;stroke-width:0.8;"/>
   </g>
   <g id="patch_10">
    <path d="M 45 329.114483 
L 324 329.114483 
" style="fill:none;stroke:#000000;stroke-linecap:square;stroke-linejoin:miter;stroke-width:0.8;"/>
   </g>
  </g>
  <g id="axes_4">
   <g id="patch_11">
    <path d="M 45 420.877241 
L 324 420.877241 
L 324 344.408276 
L 45 344.408276 
z
" style="fill:#ffffff;"/>
   </g>
   <g id="matplotlib.axis_7">
    <g id="xtick_10"/>
    <g id="xtick_11"/>
    <g id="xtick_12"/>
   </g>
   <g id="matplotlib.axis_8">
    <g id="ytick_7">
     <g id="text_7">
      <!-- 10 -->
      <g transform="translate(12.55 419.506703)scale(0.2 -0.2)">
       <use xlink:href="#DejaVuSans-49"/>
       <use x="63.623047" xlink:href="#DejaVuSans-48"/>
      </g>
     </g>
    </g>
    <g id="ytick_8">
     <g id="text_8">
      <!-- 20 -->
      <g transform="translate(12.55 377.819272)scale(0.2 -0.2)">
       <use xlink:href="#DejaVuSans-50"/>
       <use x="63.623047" xlink:href="#DejaVuSans-48"/>
      </g>
     </g>
    </g>
   </g>
   <g id="line2d_4">
    <path clip-path="url(#p858983dec1)" d="M 57.681818 417.401296 
L 75.631078 417.291645 
L 77.597252 416.962978 
L 79.563425 416.405612 
L 81.529598 415.610393 
L 83.495772 414.568734 
L 85.461945 413.272658 
L 87.491543 411.660138 
L 89.521142 409.761362 
L 91.614165 407.496468 
L 93.770613 404.830468 
L 95.990486 401.727276 
L 98.273784 398.149878 
L 100.620507 394.060518 
L 103.09408 389.292735 
L 105.694503 383.779949 
L 108.802326 377.296057 
L 111.656448 371.838326 
L 114.383721 367.094339 
L 116.920719 363.114637 
L 119.330867 359.735898 
L 121.614165 356.907692 
L 123.770613 354.578105 
L 125.863636 352.640874 
L 127.82981 351.116507 
L 129.732558 349.917507 
L 131.571882 349.019472 
L 133.34778 348.39792 
L 135.060254 348.028498 
L 136.772727 347.885939 
L 144.573996 347.884594 
L 233.812896 347.993995 
L 235.52537 348.330007 
L 237.237844 348.891113 
L 239.013742 349.70929 
L 240.853066 350.80833 
L 242.755814 352.212064 
L 244.721987 353.944151 
L 246.751586 356.02782 
L 248.908034 358.564897 
L 251.191332 361.606092 
L 253.60148 365.201481 
L 256.138478 369.399406 
L 258.802326 374.245215 
L 261.656448 379.910914 
L 268.950317 394.754639 
L 271.42389 398.971906 
L 273.770613 402.546239 
L 276.053911 405.630732 
L 278.273784 408.26381 
L 280.430233 410.482978 
L 282.523256 412.32463 
L 284.552854 413.823879 
L 286.582452 415.048599 
L 288.548626 415.981085 
L 290.514799 416.671895 
L 292.480973 417.129785 
L 294.447146 417.364051 
L 296.793869 417.401298 
L 311.318182 417.401296 
L 311.318182 417.401296 
" style="fill:none;stroke:#000000;stroke-linecap:square;stroke-width:4;"/>
   </g>
   <g id="patch_12">
    <path d="M 45 420.877241 
L 45 344.408276 
" style="fill:none;stroke:#000000;stroke-linecap:square;stroke-linejoin:miter;stroke-width:0.8;"/>
   </g>
   <g id="patch_13">
    <path d="M 45 420.877241 
L 324 420.877241 
" style="fill:none;stroke:#000000;stroke-linecap:square;stroke-linejoin:miter;stroke-width:0.8;"/>
   </g>
  </g>
  <g id="axes_5">
   <g id="patch_14">
    <path d="M 45 512.64 
L 324 512.64 
L 324 436.171034 
L 45 436.171034 
z
" style="fill:#ffffff;"/>
   </g>
   <g id="matplotlib.axis_9">
    <g id="xtick_13">
     <g id="line2d_5">
      <defs>
       <path d="M 0 0 
L 0 3.5 
" id="mf5e90cfd28" style="stroke:#000000;stroke-width:0.8;"/>
      </defs>
      <g>
       <use style="stroke:#000000;stroke-width:0.8;" x="57.681818" xlink:href="#mf5e90cfd28" y="512.64"/>
      </g>
     </g>
     <g id="text_9">
      <!-- 0 -->
      <g transform="translate(51.319318 534.836875)scale(0.2 -0.2)">
       <use xlink:href="#DejaVuSans-48"/>
      </g>
     </g>
    </g>
    <g id="xtick_14">
     <g id="line2d_6">
      <g>
       <use style="stroke:#000000;stroke-width:0.8;" x="184.531712" xlink:href="#mf5e90cfd28" y="512.64"/>
      </g>
     </g>
     <g id="text_10">
      <!-- 2000 -->
      <g transform="translate(159.081712 534.836875)scale(0.2 -0.2)">
       <use xlink:href="#DejaVuSans-50"/>
       <use x="63.623047" xlink:href="#DejaVuSans-48"/>
       <use x="127.246094" xlink:href="#DejaVuSans-48"/>
       <use x="190.869141" xlink:href="#DejaVuSans-48"/>
      </g>
     </g>
    </g>
    <g id="xtick_15">
     <g id="line2d_7">
      <g>
       <use style="stroke:#000000;stroke-width:0.8;" x="311.381607" xlink:href="#mf5e90cfd28" y="512.64"/>
      </g>
     </g>
     <g id="text_11">
      <!-- 4000 -->
      <defs>
       <path d="M 37.796875 64.3125 
L 12.890625 25.390625 
L 37.796875 25.390625 
z
M 35.203125 72.90625 
L 47.609375 72.90625 
L 47.609375 25.390625 
L 58.015625 25.390625 
L 58.015625 17.1875 
L 47.609375 17.1875 
L 47.609375 0 
L 37.796875 0 
L 37.796875 17.1875 
L 4.890625 17.1875 
L 4.890625 26.703125 
z
" id="DejaVuSans-52"/>
      </defs>
      <g transform="translate(285.931607 534.836875)scale(0.2 -0.2)">
       <use xlink:href="#DejaVuSans-52"/>
       <use x="63.623047" xlink:href="#DejaVuSans-48"/>
       <use x="127.246094" xlink:href="#DejaVuSans-48"/>
       <use x="190.869141" xlink:href="#DejaVuSans-48"/>
      </g>
     </g>
    </g>
   </g>
   <g id="matplotlib.axis_10">
    <g id="ytick_9">
     <g id="text_12">
      <!-- 5 -->
      <g transform="translate(25.275 512.014474)scale(0.2 -0.2)">
       <use xlink:href="#DejaVuSans-53"/>
      </g>
     </g>
    </g>
    <g id="ytick_10">
     <g id="text_13">
      <!-- 10 -->
      <g transform="translate(12.55 477.244161)scale(0.2 -0.2)">
       <use xlink:href="#DejaVuSans-49"/>
       <use x="63.623047" xlink:href="#DejaVuSans-48"/>
      </g>
     </g>
    </g>
   </g>
   <g id="line2d_8">
    <path clip-path="url(#p9063cf02aa)" d="M 57.681818 509.164113 
L 75.821353 509.053687 
L 77.914376 508.727997 
L 79.943975 508.192957 
L 81.973573 507.428981 
L 84.003171 506.423133 
L 86.03277 505.162572 
L 88.062368 503.634612 
L 90.091966 501.826792 
L 92.184989 499.656485 
L 94.278013 497.162647 
L 96.434461 494.241643 
L 98.654334 490.8483 
L 100.937632 486.934838 
L 103.22093 482.578434 
L 105.631078 477.491145 
L 108.929175 470.562313 
L 111.973573 464.661066 
L 114.827696 459.599772 
L 117.491543 455.319624 
L 119.965116 451.754606 
L 122.311839 448.757888 
L 124.468288 446.351446 
L 126.497886 444.403394 
L 128.464059 442.820087 
L 130.303383 441.618488 
L 132.079281 440.722159 
L 133.791755 440.109606 
L 135.440803 439.758707 
L 137.026427 439.646897 
L 233.749471 439.758746 
L 235.335095 440.091005 
L 236.984144 440.665863 
L 238.696617 441.505008 
L 240.472516 442.629657 
L 242.311839 444.060342 
L 244.278013 445.879972 
L 246.371036 448.135499 
L 248.527484 450.789821 
L 250.874207 454.04286 
L 253.34778 457.862682 
L 256.011628 462.399443 
L 258.865751 467.715196 
L 261.910148 473.864713 
L 267.935518 486.252841 
L 270.282241 490.334375 
L 272.565539 493.870389 
L 274.785412 496.910634 
L 276.94186 499.502224 
L 279.098309 501.750925 
L 281.191332 503.618872 
L 283.284355 505.19026 
L 285.313953 506.443626 
L 287.343552 507.443462 
L 289.37315 508.202507 
L 291.466173 508.746652 
L 293.559197 509.062457 
L 295.715645 509.164095 
L 311.318182 509.164113 
L 311.318182 509.164113 
" style="fill:none;stroke:#000000;stroke-linecap:square;stroke-width:4;"/>
   </g>
   <g id="patch_15">
    <path d="M 45 512.64 
L 45 436.171034 
" style="fill:none;stroke:#000000;stroke-linecap:square;stroke-linejoin:miter;stroke-width:0.8;"/>
   </g>
   <g id="patch_16">
    <path d="M 45 512.64 
L 324 512.64 
" style="fill:none;stroke:#000000;stroke-linecap:square;stroke-linejoin:miter;stroke-width:0.8;"/>
   </g>
  </g>
 </g>
 <defs>
  <clipPath id="pc8a0d2def1">
   <rect height="76.468966" width="279" x="45" y="69.12"/>
  </clipPath>
  <clipPath id="pd48fc6dd4e">
   <rect height="76.468966" width="279" x="45" y="160.882759"/>
  </clipPath>
  <clipPath id="p08671bc7f6">
   <rect height="76.468966" width="279" x="45" y="252.645517"/>
  </clipPath>
  <clipPath id="p858983dec1">
   <rect height="76.468966" width="279" x="45" y="344.408276"/>
  </clipPath>
  <clipPath id="p9063cf02aa">
   <rect height="76.468966" width="279" x="45" y="436.171034"/>
  </clipPath>
 </defs>
</svg>
