<?xml version="1.0" encoding="utf-8" standalone="no"?>
<!DOCTYPE svg PUBLIC "-//W3C//DTD SVG 1.1//EN"
  "http://www.w3.org/Graphics/SVG/1.1/DTD/svg11.dtd">
<!-- Created with matplotlib (https://matplotlib.org/) -->
<svg height="576pt" version="1.1" viewBox="0 0 360 576" width="360pt" xmlns="http://www.w3.org/2000/svg" xmlns:xlink="http://www.w3.org/1999/xlink">
 <defs>
  <style type="text/css">
*{stroke-linecap:butt;stroke-linejoin:round;white-space:pre;}
  </style>
 </defs>
 <g id="figure_1">
  <g id="patch_1">
   <path d="M 0 576 
L 360 576 
L 360 0 
L 0 0 
z
" style="fill:#ffffff;"/>
  </g>
  <g id="axes_1">
   <g id="patch_2">
    <path d="M 45 145.588966 
L 324 145.588966 
L 324 69.12 
L 45 69.12 
z
" style="fill:#ffffff;"/>
   </g>
   <g id="matplotlib.axis_1">
    <g id="xtick_1"/>
    <g id="xtick_2"/>
    <g id="xtick_3"/>
   </g>
   <g id="matplotlib.axis_2">
    <g id="ytick_1">
     <g id="text_1">
      <!-- 25 -->
      <defs>
       <path d="M 19.1875 8.296875 
L 53.609375 8.296875 
L 53.609375 0 
L 7.328125 0 
L 7.328125 8.296875 
Q 12.9375 14.109375 22.625 23.890625 
Q 32.328125 33.6875 34.8125 36.53125 
Q 39.546875 41.84375 41.421875 45.53125 
Q 43.3125 49.21875 43.3125 52.78125 
Q 43.3125 58.59375 39.234375 62.25 
Q 35.15625 65.921875 28.609375 65.921875 
Q 23.96875 65.921875 18.8125 64.3125 
Q 13.671875 62.703125 7.8125 59.421875 
L 7.8125 69.390625 
Q 13.765625 71.78125 18.9375 73 
Q 24.125 74.21875 28.421875 74.21875 
Q 39.75 74.21875 46.484375 68.546875 
Q 53.21875 62.890625 53.21875 53.421875 
Q 53.21875 48.921875 51.53125 44.890625 
Q 49.859375 40.875 45.40625 35.40625 
Q 44.1875 33.984375 37.640625 27.21875 
Q 31.109375 20.453125 19.1875 8.296875 
z
" id="DejaVuSans-50"/>
       <path d="M 10.796875 72.90625 
L 49.515625 72.90625 
L 49.515625 64.59375 
L 19.828125 64.59375 
L 19.828125 46.734375 
Q 21.96875 47.46875 24.109375 47.828125 
Q 26.265625 48.1875 28.421875 48.1875 
Q 40.625 48.1875 47.75 41.5 
Q 54.890625 34.8125 54.890625 23.390625 
Q 54.890625 11.625 47.5625 5.09375 
Q 40.234375 -1.421875 26.90625 -1.421875 
Q 22.3125 -1.421875 17.546875 -0.640625 
Q 12.796875 0.140625 7.71875 1.703125 
L 7.71875 11.625 
Q 12.109375 9.234375 16.796875 8.0625 
Q 21.484375 6.890625 26.703125 6.890625 
Q 35.15625 6.890625 40.078125 11.328125 
Q 45.015625 15.765625 45.015625 23.390625 
Q 45.015625 31 40.078125 35.4375 
Q 35.15625 39.890625 26.703125 39.890625 
Q 22.75 39.890625 18.8125 39.015625 
Q 14.890625 38.140625 10.796875 36.28125 
z
" id="DejaVuSans-53"/>
      </defs>
      <g transform="translate(12.55 124.788794)scale(0.2 -0.2)">
       <use xlink:href="#DejaVuSans-50"/>
       <use x="63.623047" xlink:href="#DejaVuSans-53"/>
      </g>
     </g>
    </g>
    <g id="ytick_2">
     <g id="text_2">
      <!-- 50 -->
      <defs>
       <path d="M 31.78125 66.40625 
Q 24.171875 66.40625 20.328125 58.90625 
Q 16.5 51.421875 16.5 36.375 
Q 16.5 21.390625 20.328125 13.890625 
Q 24.171875 6.390625 31.78125 6.390625 
Q 39.453125 6.390625 43.28125 13.890625 
Q 47.125 21.390625 47.125 36.375 
Q 47.125 51.421875 43.28125 58.90625 
Q 39.453125 66.40625 31.78125 66.40625 
z
M 31.78125 74.21875 
Q 44.046875 74.21875 50.515625 64.515625 
Q 56.984375 54.828125 56.984375 36.375 
Q 56.984375 17.96875 50.515625 8.265625 
Q 44.046875 -1.421875 31.78125 -1.421875 
Q 19.53125 -1.421875 13.0625 8.265625 
Q 6.59375 17.96875 6.59375 36.375 
Q 6.59375 54.828125 13.0625 64.515625 
Q 19.53125 74.21875 31.78125 74.21875 
z
" id="DejaVuSans-48"/>
      </defs>
      <g transform="translate(12.55 77.122777)scale(0.2 -0.2)">
       <use xlink:href="#DejaVuSans-53"/>
       <use x="63.623047" xlink:href="#DejaVuSans-48"/>
      </g>
     </g>
    </g>
   </g>
   <g id="line2d_1">
    <path clip-path="url(#p57de54d72c)" d="M 57.681818 142.11291 
L 75.504228 142.005673 
L 77.406977 141.671646 
L 79.2463 141.122237 
L 81.085624 140.341426 
L 82.924947 139.322568 
L 84.827696 138.013003 
L 86.793869 136.383232 
L 88.823467 134.40422 
L 90.91649 132.047674 
L 93.136364 129.199947 
L 95.419662 125.900686 
L 97.82981 122.017097 
L 100.366808 117.492805 
L 103.030655 112.271921 
L 106.011628 105.907121 
L 108.929175 99.895174 
L 111.656448 94.778635 
L 114.193446 90.480433 
L 116.603594 86.822917 
L 118.886892 83.747402 
L 121.106765 81.123112 
L 123.263214 78.918755 
L 125.292812 77.15252 
L 127.258985 75.723666 
L 129.225159 74.568766 
L 131.127907 73.707897 
L 132.96723 73.111715 
L 134.806554 72.743356 
L 136.645877 72.598551 
L 143.432347 72.596273 
L 233.876321 72.70121 
L 235.715645 73.028631 
L 237.554968 73.582321 
L 239.394292 74.366317 
L 241.29704 75.423758 
L 243.199789 76.735607 
L 245.165962 78.362027 
L 247.19556 80.332772 
L 249.288584 82.677931 
L 251.445032 85.427293 
L 253.72833 88.705605 
L 256.138478 92.570855 
L 258.675476 97.077941 
L 261.339323 102.275062 
L 264.256871 108.469075 
L 267.110994 114.372471 
L 269.838266 119.506253 
L 272.438689 123.927437 
L 274.912262 127.694109 
L 277.258985 130.86507 
L 279.478858 133.499318 
L 281.635307 135.715766 
L 283.664905 137.493043 
L 285.631078 138.930604 
L 287.533827 140.058528 
L 289.436575 140.932291 
L 291.339323 141.558657 
L 293.242072 141.946523 
L 295.14482 142.106973 
L 299.838266 142.11291 
L 311.318182 142.11291 
L 311.318182 142.11291 
" style="fill:none;stroke:#000000;stroke-linecap:square;stroke-width:4;"/>
   </g>
   <g id="patch_3">
    <path d="M 45 145.588966 
L 45 69.12 
" style="fill:none;stroke:#000000;stroke-linecap:square;stroke-linejoin:miter;stroke-width:0.8;"/>
   </g>
   <g id="patch_4">
    <path d="M 45 145.588966 
L 324 145.588966 
" style="fill:none;stroke:#000000;stroke-linecap:square;stroke-linejoin:miter;stroke-width:0.8;"/>
   </g>
  </g>
  <g id="axes_2">
   <g id="patch_5">
    <path d="M 45 237.351724 
L 324 237.351724 
L 324 160.882759 
L 45 160.882759 
z
" style="fill:#ffffff;"/>
   </g>
   <g id="matplotlib.axis_3">
    <g id="xtick_4"/>
    <g id="xtick_5"/>
    <g id="xtick_6"/>
   </g>
   <g id="matplotlib.axis_4">
    <g id="ytick_3">
     <g id="text_3">
      <!-- 2.5 -->
      <defs>
       <path d="M 10.6875 12.40625 
L 21 12.40625 
L 21 0 
L 10.6875 0 
z
" id="DejaVuSans-46"/>
      </defs>
      <g transform="translate(6.19375 235.849167)scale(0.2 -0.2)">
       <use xlink:href="#DejaVuSans-50"/>
       <use x="63.623047" xlink:href="#DejaVuSans-46"/>
       <use x="95.410156" xlink:href="#DejaVuSans-53"/>
      </g>
     </g>
    </g>
    <g id="ytick_4">
     <g id="text_4">
      <!-- 5.0 -->
      <g transform="translate(6.19375 212.706719)scale(0.2 -0.2)">
       <use xlink:href="#DejaVuSans-53"/>
       <use x="63.623047" xlink:href="#DejaVuSans-46"/>
       <use x="95.410156" xlink:href="#DejaVuSans-48"/>
      </g>
     </g>
    </g>
    <g id="ytick_5">
     <g id="text_5">
      <!-- 7.5 -->
      <defs>
       <path d="M 8.203125 72.90625 
L 55.078125 72.90625 
L 55.078125 68.703125 
L 28.609375 0 
L 18.3125 0 
L 43.21875 64.59375 
L 8.203125 64.59375 
z
" id="DejaVuSans-55"/>
      </defs>
      <g transform="translate(6.19375 189.564272)scale(0.2 -0.2)">
       <use xlink:href="#DejaVuSans-55"/>
       <use x="63.623047" xlink:href="#DejaVuSans-46"/>
       <use x="95.410156" xlink:href="#DejaVuSans-53"/>
      </g>
     </g>
    </g>
   </g>
   <g id="line2d_2">
    <path clip-path="url(#p126b3b714d)" d="M 57.681818 233.875857 
L 76.075053 233.767472 
L 78.358351 233.448268 
L 80.578224 232.913519 
L 82.734672 232.161 
L 84.827696 231.190858 
L 86.857294 230.005656 
L 88.886892 228.561116 
L 90.91649 226.838501 
L 92.946089 224.818899 
L 94.975687 222.483333 
L 97.06871 219.723824 
L 99.161734 216.587591 
L 101.318182 212.940892 
L 103.47463 208.851096 
L 105.757928 204.026142 
L 109.436575 196.275897 
L 112.734672 189.827497 
L 115.715645 184.468451 
L 118.442918 180.005357 
L 120.979915 176.271255 
L 123.326638 173.208151 
L 125.483087 170.750458 
L 127.512685 168.770707 
L 129.415433 167.225432 
L 131.191332 166.06838 
L 132.840381 165.251591 
L 134.426004 164.709426 
L 135.948203 164.421211 
L 137.533827 164.358832 
L 233.559197 164.45501 
L 235.081395 164.782896 
L 236.603594 165.336306 
L 238.189218 166.144588 
L 239.901691 167.273474 
L 241.67759 168.713459 
L 243.580338 170.546627 
L 245.609937 172.816054 
L 247.766385 175.561918 
L 250.113108 178.915901 
L 252.650106 182.938314 
L 255.440803 187.797019 
L 258.485201 193.563136 
L 261.846723 200.426904 
L 267.364693 211.83476 
L 269.584567 215.700936 
L 271.741015 219.025123 
L 273.897463 221.946121 
L 275.990486 224.416701 
L 278.08351 226.548977 
L 280.176533 228.363584 
L 282.269556 229.88111 
L 284.362579 231.121965 
L 286.455603 232.106258 
L 288.612051 232.872831 
L 290.831924 233.421381 
L 293.115222 233.753975 
L 295.52537 233.875343 
L 311.318182 233.875857 
L 311.318182 233.875857 
" style="fill:none;stroke:#000000;stroke-linecap:square;stroke-width:4;"/>
   </g>
   <g id="patch_6">
    <path d="M 45 237.351724 
L 45 160.882759 
" style="fill:none;stroke:#000000;stroke-linecap:square;stroke-linejoin:miter;stroke-width:0.8;"/>
   </g>
   <g id="patch_7">
    <path d="M 45 237.351724 
L 324 237.351724 
" style="fill:none;stroke:#000000;stroke-linecap:square;stroke-linejoin:miter;stroke-width:0.8;"/>
   </g>
  </g>
  <g id="axes_3">
   <g id="patch_8">
    <path d="M 45 329.114483 
L 324 329.114483 
L 324 252.645517 
L 45 252.645517 
z
" style="fill:#ffffff;"/>
   </g>
   <g id="matplotlib.axis_5">
    <g id="xtick_7"/>
    <g id="xtick_8"/>
    <g id="xtick_9"/>
   </g>
   <g id="matplotlib.axis_6">
    <g id="ytick_6">
     <g id="text_6">
      <!-- 2.5 -->
      <g transform="translate(6.19375 327.611925)scale(0.2 -0.2)">
       <use xlink:href="#DejaVuSans-50"/>
       <use x="63.623047" xlink:href="#DejaVuSans-46"/>
       <use x="95.410156" xlink:href="#DejaVuSans-53"/>
      </g>
     </g>
    </g>
    <g id="ytick_7">
     <g id="text_7">
      <!-- 5.0 -->
      <g transform="translate(6.19375 304.469478)scale(0.2 -0.2)">
       <use xlink:href="#DejaVuSans-53"/>
       <use x="63.623047" xlink:href="#DejaVuSans-46"/>
       <use x="95.410156" xlink:href="#DejaVuSans-48"/>
      </g>
     </g>
    </g>
    <g id="ytick_8">
     <g id="text_8">
      <!-- 7.5 -->
      <g transform="translate(6.19375 281.32703)scale(0.2 -0.2)">
       <use xlink:href="#DejaVuSans-55"/>
       <use x="63.623047" xlink:href="#DejaVuSans-46"/>
       <use x="95.410156" xlink:href="#DejaVuSans-53"/>
      </g>
     </g>
    </g>
   </g>
   <g id="line2d_3">
    <path clip-path="url(#pa7946dc55a)" d="M 57.681818 325.638615 
L 76.075053 325.530231 
L 78.358351 325.211027 
L 80.578224 324.676278 
L 82.734672 323.923759 
L 84.827696 322.953616 
L 86.857294 321.768415 
L 88.886892 320.323875 
L 90.91649 318.60126 
L 92.946089 316.581657 
L 94.975687 314.246092 
L 97.06871 311.486582 
L 99.161734 308.350349 
L 101.318182 304.703651 
L 103.47463 300.613855 
L 105.757928 295.7889 
L 109.436575 288.038655 
L 112.734672 281.590256 
L 115.715645 276.231209 
L 118.442918 271.768116 
L 120.979915 268.034013 
L 123.326638 264.97091 
L 125.483087 262.513217 
L 127.512685 260.533466 
L 129.415433 258.98819 
L 131.191332 257.831139 
L 132.840381 257.01435 
L 134.426004 256.472184 
L 135.948203 256.183969 
L 137.533827 256.121591 
L 233.559197 256.217768 
L 235.081395 256.545655 
L 236.603594 257.099064 
L 238.189218 257.907346 
L 239.901691 259.036233 
L 241.67759 260.476218 
L 243.580338 262.309385 
L 245.609937 264.578813 
L 247.766385 267.324677 
L 250.113108 270.67866 
L 252.650106 274.701072 
L 255.440803 279.559778 
L 258.485201 285.325895 
L 261.846723 292.189662 
L 267.364693 303.597519 
L 269.584567 307.463695 
L 271.741015 310.787881 
L 273.897463 313.70888 
L 275.990486 316.17946 
L 278.08351 318.311735 
L 280.176533 320.126343 
L 282.269556 321.643869 
L 284.362579 322.884724 
L 286.455603 323.869017 
L 288.612051 324.63559 
L 290.831924 325.184139 
L 293.115222 325.516734 
L 295.52537 325.638102 
L 311.318182 325.638615 
L 311.318182 325.638615 
" style="fill:none;stroke:#000000;stroke-linecap:square;stroke-width:4;"/>
   </g>
   <g id="patch_9">
    <path d="M 45 329.114483 
L 45 252.645517 
" style="fill:none;stroke:#000000;stroke-linecap:square;stroke-linejoin:miter;stroke-width:0.8;"/>
   </g>
   <g id="patch_10">
    <path d="M 45 329.114483 
L 324 329.114483 
" style="fill:none;stroke:#000000;stroke-linecap:square;stroke-linejoin:miter;stroke-width:0.8;"/>
   </g>
  </g>
  <g id="axes_4">
   <g id="patch_11">
    <path d="M 45 420.877241 
L 324 420.877241 
L 324 344.408276 
L 45 344.408276 
z
" style="fill:#ffffff;"/>
   </g>
   <g id="matplotlib.axis_7">
    <g id="xtick_10"/>
    <g id="xtick_11"/>
    <g id="xtick_12"/>
   </g>
   <g id="matplotlib.axis_8">
    <g id="ytick_9">
     <g id="text_9">
      <!-- 20 -->
      <g transform="translate(12.55 402.555398)scale(0.2 -0.2)">
       <use xlink:href="#DejaVuSans-50"/>
       <use x="63.623047" xlink:href="#DejaVuSans-48"/>
      </g>
     </g>
    </g>
    <g id="ytick_10">
     <g id="text_10">
      <!-- 30 -->
      <defs>
       <path d="M 40.578125 39.3125 
Q 47.65625 37.796875 51.625 33 
Q 55.609375 28.21875 55.609375 21.1875 
Q 55.609375 10.40625 48.1875 4.484375 
Q 40.765625 -1.421875 27.09375 -1.421875 
Q 22.515625 -1.421875 17.65625 -0.515625 
Q 12.796875 0.390625 7.625 2.203125 
L 7.625 11.71875 
Q 11.71875 9.328125 16.59375 8.109375 
Q 21.484375 6.890625 26.8125 6.890625 
Q 36.078125 6.890625 40.9375 10.546875 
Q 45.796875 14.203125 45.796875 21.1875 
Q 45.796875 27.640625 41.28125 31.265625 
Q 36.765625 34.90625 28.71875 34.90625 
L 20.21875 34.90625 
L 20.21875 43.015625 
L 29.109375 43.015625 
Q 36.375 43.015625 40.234375 45.921875 
Q 44.09375 48.828125 44.09375 54.296875 
Q 44.09375 59.90625 40.109375 62.90625 
Q 36.140625 65.921875 28.71875 65.921875 
Q 24.65625 65.921875 20.015625 65.03125 
Q 15.375 64.15625 9.8125 62.3125 
L 9.8125 71.09375 
Q 15.4375 72.65625 20.34375 73.4375 
Q 25.25 74.21875 29.59375 74.21875 
Q 40.828125 74.21875 47.359375 69.109375 
Q 53.90625 64.015625 53.90625 55.328125 
Q 53.90625 49.265625 50.4375 45.09375 
Q 46.96875 40.921875 40.578125 39.3125 
z
" id="DejaVuSans-51"/>
      </defs>
      <g transform="translate(12.55 362.703319)scale(0.2 -0.2)">
       <use xlink:href="#DejaVuSans-51"/>
       <use x="63.623047" xlink:href="#DejaVuSans-48"/>
      </g>
     </g>
    </g>
   </g>
   <g id="line2d_4">
    <path clip-path="url(#p609ca42942)" d="M 57.681818 417.401171 
L 75.440803 417.29588 
L 77.280127 416.975617 
L 79.11945 416.43609 
L 81.022199 415.642906 
L 82.924947 414.606713 
L 84.891121 413.276919 
L 86.920719 411.624489 
L 88.950317 409.684753 
L 91.106765 407.306073 
L 93.326638 404.512967 
L 95.609937 401.273414 
L 97.95666 397.554941 
L 100.430233 393.207806 
L 102.96723 388.293172 
L 105.694503 382.506221 
L 108.612051 376.447967 
L 111.339323 371.281153 
L 113.939746 366.81381 
L 116.413319 362.989407 
L 118.823467 359.668473 
L 121.106765 356.896299 
L 123.263214 354.615563 
L 125.356237 352.717647 
L 127.385835 351.175786 
L 129.352008 349.963351 
L 131.254757 349.054031 
L 133.09408 348.421995 
L 134.869979 348.042008 
L 136.645877 347.887918 
L 142.036998 347.884611 
L 233.876321 347.995515 
L 235.65222 348.332051 
L 237.428118 348.894079 
L 239.267442 349.714035 
L 241.106765 350.775932 
L 243.009514 352.128672 
L 244.975687 353.79737 
L 247.06871 355.874958 
L 249.225159 358.33842 
L 251.445032 361.21382 
L 253.791755 364.623914 
L 256.265328 368.624593 
L 258.865751 373.27184 
L 261.593023 378.620718 
L 264.700846 385.24345 
L 267.428118 390.785341 
L 270.028541 395.574236 
L 272.502114 399.680633 
L 274.912262 403.261347 
L 277.258985 406.350469 
L 279.478858 408.913661 
L 281.635307 411.071837 
L 283.72833 412.856647 
L 285.757928 414.298989 
L 287.724101 415.428897 
L 289.62685 416.275429 
L 291.529598 416.88302 
L 293.432347 417.25604 
L 295.335095 417.399334 
L 303.453488 417.401171 
L 311.318182 417.401171 
L 311.318182 417.401171 
" style="fill:none;stroke:#000000;stroke-linecap:square;stroke-width:4;"/>
   </g>
   <g id="patch_12">
    <path d="M 45 420.877241 
L 45 344.408276 
" style="fill:none;stroke:#000000;stroke-linecap:square;stroke-linejoin:miter;stroke-width:0.8;"/>
   </g>
   <g id="patch_13">
    <path d="M 45 420.877241 
L 324 420.877241 
" style="fill:none;stroke:#000000;stroke-linecap:square;stroke-linejoin:miter;stroke-width:0.8;"/>
   </g>
  </g>
  <g id="axes_5">
   <g id="patch_14">
    <path d="M 45 512.64 
L 324 512.64 
L 324 436.171034 
L 45 436.171034 
z
" style="fill:#ffffff;"/>
   </g>
   <g id="matplotlib.axis_9">
    <g id="xtick_13">
     <g id="line2d_5">
      <defs>
       <path d="M 0 0 
L 0 3.5 
" id="mcc2fa74abd" style="stroke:#000000;stroke-width:0.8;"/>
      </defs>
      <g>
       <use style="stroke:#000000;stroke-width:0.8;" x="57.681818" xlink:href="#mcc2fa74abd" y="512.64"/>
      </g>
     </g>
     <g id="text_11">
      <!-- 0 -->
      <g transform="translate(51.319318 534.836875)scale(0.2 -0.2)">
       <use xlink:href="#DejaVuSans-48"/>
      </g>
     </g>
    </g>
    <g id="xtick_14">
     <g id="line2d_6">
      <g>
       <use style="stroke:#000000;stroke-width:0.8;" x="184.531712" xlink:href="#mcc2fa74abd" y="512.64"/>
      </g>
     </g>
     <g id="text_12">
      <!-- 2000 -->
      <g transform="translate(159.081712 534.836875)scale(0.2 -0.2)">
       <use xlink:href="#DejaVuSans-50"/>
       <use x="63.623047" xlink:href="#DejaVuSans-48"/>
       <use x="127.246094" xlink:href="#DejaVuSans-48"/>
       <use x="190.869141" xlink:href="#DejaVuSans-48"/>
      </g>
     </g>
    </g>
    <g id="xtick_15">
     <g id="line2d_7">
      <g>
       <use style="stroke:#000000;stroke-width:0.8;" x="311.381607" xlink:href="#mcc2fa74abd" y="512.64"/>
      </g>
     </g>
     <g id="text_13">
      <!-- 4000 -->
      <defs>
       <path d="M 37.796875 64.3125 
L 12.890625 25.390625 
L 37.796875 25.390625 
z
M 35.203125 72.90625 
L 47.609375 72.90625 
L 47.609375 25.390625 
L 58.015625 25.390625 
L 58.015625 17.1875 
L 47.609375 17.1875 
L 47.609375 0 
L 37.796875 0 
L 37.796875 17.1875 
L 4.890625 17.1875 
L 4.890625 26.703125 
z
" id="DejaVuSans-52"/>
      </defs>
      <g transform="translate(285.931607 534.836875)scale(0.2 -0.2)">
       <use xlink:href="#DejaVuSans-52"/>
       <use x="63.623047" xlink:href="#DejaVuSans-48"/>
       <use x="127.246094" xlink:href="#DejaVuSans-48"/>
       <use x="190.869141" xlink:href="#DejaVuSans-48"/>
      </g>
     </g>
    </g>
   </g>
   <g id="matplotlib.axis_10">
    <g id="ytick_11">
     <g id="text_14">
      <!-- 10 -->
      <defs>
       <path d="M 12.40625 8.296875 
L 28.515625 8.296875 
L 28.515625 63.921875 
L 10.984375 60.40625 
L 10.984375 69.390625 
L 28.421875 72.90625 
L 38.28125 72.90625 
L 38.28125 8.296875 
L 54.390625 8.296875 
L 54.390625 0 
L 12.40625 0 
z
" id="DejaVuSans-49"/>
      </defs>
      <g transform="translate(12.55 492.196794)scale(0.2 -0.2)">
       <use xlink:href="#DejaVuSans-49"/>
       <use x="63.623047" xlink:href="#DejaVuSans-48"/>
      </g>
     </g>
    </g>
    <g id="ytick_12">
     <g id="text_15">
      <!-- 15 -->
      <g transform="translate(12.55 460.557018)scale(0.2 -0.2)">
       <use xlink:href="#DejaVuSans-49"/>
       <use x="63.623047" xlink:href="#DejaVuSans-53"/>
      </g>
     </g>
    </g>
   </g>
   <g id="line2d_8">
    <path clip-path="url(#pf89a2c012b)" d="M 57.681818 509.164087 
L 75.694503 509.055857 
L 77.724101 508.72871 
L 79.7537 508.171562 
L 81.719873 507.402272 
L 83.686047 506.397296 
L 85.65222 505.147176 
L 87.681818 503.589841 
L 89.711416 501.751691 
L 91.80444 499.552011 
L 93.960888 496.952402 
L 96.180761 493.912311 
L 98.400634 490.492487 
L 100.683932 486.568433 
L 103.030655 482.09547 
L 105.504228 476.889488 
L 108.675476 470.223284 
L 111.656448 464.459311 
L 114.447146 459.535373 
L 117.047569 455.382827 
L 119.521142 451.843007 
L 121.867865 448.870821 
L 124.087738 446.418652 
L 126.180761 444.437295 
L 128.146934 442.876833 
L 130.049683 441.65115 
L 131.825581 440.765125 
L 133.538055 440.151141 
L 135.187104 439.786729 
L 136.836152 439.64823 
L 146.03277 439.647274 
L 233.749471 439.754017 
L 235.39852 440.086577 
L 237.110994 440.667168 
L 238.823467 441.483573 
L 240.599366 442.574836 
L 242.502114 444.014894 
L 244.468288 445.790621 
L 246.561311 447.993867 
L 248.717759 450.591558 
L 251.001057 453.692488 
L 253.411205 457.341975 
L 256.011628 461.694152 
L 258.738901 466.697838 
L 261.656448 472.519707 
L 268.569767 486.624306 
L 270.979915 490.74054 
L 273.326638 494.309622 
L 275.609937 497.377824 
L 277.82981 499.989398 
L 279.986258 502.186464 
L 282.079281 504.008935 
L 284.172304 505.536516 
L 286.201903 506.746355 
L 288.231501 507.699152 
L 290.261099 508.40531 
L 292.290698 508.875454 
L 294.320296 509.120384 
L 296.667019 509.164088 
L 311.318182 509.164087 
L 311.318182 509.164087 
" style="fill:none;stroke:#000000;stroke-linecap:square;stroke-width:4;"/>
   </g>
   <g id="patch_15">
    <path d="M 45 512.64 
L 45 436.171034 
" style="fill:none;stroke:#000000;stroke-linecap:square;stroke-linejoin:miter;stroke-width:0.8;"/>
   </g>
   <g id="patch_16">
    <path d="M 45 512.64 
L 324 512.64 
" style="fill:none;stroke:#000000;stroke-linecap:square;stroke-linejoin:miter;stroke-width:0.8;"/>
   </g>
  </g>
 </g>
 <defs>
  <clipPath id="p57de54d72c">
   <rect height="76.468966" width="279" x="45" y="69.12"/>
  </clipPath>
  <clipPath id="p126b3b714d">
   <rect height="76.468966" width="279" x="45" y="160.882759"/>
  </clipPath>
  <clipPath id="pa7946dc55a">
   <rect height="76.468966" width="279" x="45" y="252.645517"/>
  </clipPath>
  <clipPath id="p609ca42942">
   <rect height="76.468966" width="279" x="45" y="344.408276"/>
  </clipPath>
  <clipPath id="pf89a2c012b">
   <rect height="76.468966" width="279" x="45" y="436.171034"/>
  </clipPath>
 </defs>
</svg>
