<?xml version="1.0" encoding="utf-8" standalone="no"?>
<!DOCTYPE svg PUBLIC "-//W3C//DTD SVG 1.1//EN"
  "http://www.w3.org/Graphics/SVG/1.1/DTD/svg11.dtd">
<!-- Created with matplotlib (https://matplotlib.org/) -->
<svg height="576pt" version="1.1" viewBox="0 0 360 576" width="360pt" xmlns="http://www.w3.org/2000/svg" xmlns:xlink="http://www.w3.org/1999/xlink">
 <defs>
  <style type="text/css">
*{stroke-linecap:butt;stroke-linejoin:round;white-space:pre;}
  </style>
 </defs>
 <g id="figure_1">
  <g id="patch_1">
   <path d="M 0 576 
L 360 576 
L 360 0 
L 0 0 
z
" style="fill:#ffffff;"/>
  </g>
  <g id="axes_1">
   <g id="patch_2">
    <path d="M 45 145.588966 
L 324 145.588966 
L 324 69.12 
L 45 69.12 
z
" style="fill:#ffffff;"/>
   </g>
   <g id="matplotlib.axis_1">
    <g id="xtick_1"/>
    <g id="xtick_2"/>
    <g id="xtick_3"/>
   </g>
   <g id="matplotlib.axis_2">
    <g id="ytick_1">
     <g id="text_1">
      <!-- 10 -->
      <defs>
       <path d="M 12.40625 8.296875 
L 28.515625 8.296875 
L 28.515625 63.921875 
L 10.984375 60.40625 
L 10.984375 69.390625 
L 28.421875 72.90625 
L 38.28125 72.90625 
L 38.28125 8.296875 
L 54.390625 8.296875 
L 54.390625 0 
L 12.40625 0 
z
" id="DejaVuSans-49"/>
       <path d="M 31.78125 66.40625 
Q 24.171875 66.40625 20.328125 58.90625 
Q 16.5 51.421875 16.5 36.375 
Q 16.5 21.390625 20.328125 13.890625 
Q 24.171875 6.390625 31.78125 6.390625 
Q 39.453125 6.390625 43.28125 13.890625 
Q 47.125 21.390625 47.125 36.375 
Q 47.125 51.421875 43.28125 58.90625 
Q 39.453125 66.40625 31.78125 66.40625 
z
M 31.78125 74.21875 
Q 44.046875 74.21875 50.515625 64.515625 
Q 56.984375 54.828125 56.984375 36.375 
Q 56.984375 17.96875 50.515625 8.265625 
Q 44.046875 -1.421875 31.78125 -1.421875 
Q 19.53125 -1.421875 13.0625 8.265625 
Q 6.59375 17.96875 6.59375 36.375 
Q 6.59375 54.828125 13.0625 64.515625 
Q 19.53125 74.21875 31.78125 74.21875 
z
" id="DejaVuSans-48"/>
      </defs>
      <g transform="translate(12.55 126.903044)scale(0.2 -0.2)">
       <use xlink:href="#DejaVuSans-49"/>
       <use x="63.623047" xlink:href="#DejaVuSans-48"/>
      </g>
     </g>
    </g>
    <g id="ytick_2">
     <g id="text_2">
      <!-- 20 -->
      <defs>
       <path d="M 19.1875 8.296875 
L 53.609375 8.296875 
L 53.609375 0 
L 7.328125 0 
L 7.328125 8.296875 
Q 12.9375 14.109375 22.625 23.890625 
Q 32.328125 33.6875 34.8125 36.53125 
Q 39.546875 41.84375 41.421875 45.53125 
Q 43.3125 49.21875 43.3125 52.78125 
Q 43.3125 58.59375 39.234375 62.25 
Q 35.15625 65.921875 28.609375 65.921875 
Q 23.96875 65.921875 18.8125 64.3125 
Q 13.671875 62.703125 7.8125 59.421875 
L 7.8125 69.390625 
Q 13.765625 71.78125 18.9375 73 
Q 24.125 74.21875 28.421875 74.21875 
Q 39.75 74.21875 46.484375 68.546875 
Q 53.21875 62.890625 53.21875 53.421875 
Q 53.21875 48.921875 51.53125 44.890625 
Q 49.859375 40.875 45.40625 35.40625 
Q 44.1875 33.984375 37.640625 27.21875 
Q 31.109375 20.453125 19.1875 8.296875 
z
" id="DejaVuSans-50"/>
      </defs>
      <g transform="translate(12.55 97.235968)scale(0.2 -0.2)">
       <use xlink:href="#DejaVuSans-50"/>
       <use x="63.623047" xlink:href="#DejaVuSans-48"/>
      </g>
     </g>
    </g>
   </g>
   <g id="line2d_1">
    <path clip-path="url(#p7baa9dbc50)" d="M 57.681818 142.113095 
L 76.201903 142.005858 
L 78.548626 141.686861 
L 80.705074 141.172469 
L 82.798097 140.440804 
L 84.764271 139.520707 
L 86.730444 138.353742 
L 88.696617 136.920742 
L 90.662791 135.204569 
L 92.628964 133.190298 
L 94.658562 130.78501 
L 96.751586 127.945841 
L 98.908034 124.629663 
L 101.127907 120.793596 
L 103.411205 116.395463 
L 105.884778 111.130073 
L 109.690275 103.110975 
L 112.924947 96.789221 
L 115.77907 91.675502 
L 118.379493 87.454097 
L 120.789641 83.955094 
L 123.009514 81.112071 
L 125.102537 78.784221 
L 127.06871 76.922354 
L 128.908034 75.474176 
L 130.683932 74.351024 
L 132.396406 73.527785 
L 134.045455 72.97852 
L 135.631078 72.676996 
L 137.216702 72.596366 
L 221.064482 72.596405 
L 233.686047 72.703676 
L 235.27167 73.032853 
L 236.920719 73.609245 
L 238.569767 74.422753 
L 240.282241 75.515982 
L 242.05814 76.91315 
L 243.960888 78.701684 
L 245.927061 80.857915 
L 248.020085 83.484573 
L 250.303383 86.720465 
L 252.713531 90.528137 
L 255.377378 95.164371 
L 258.294926 100.698186 
L 261.656448 107.572728 
L 267.618393 119.925157 
L 269.965116 124.047766 
L 272.184989 127.508998 
L 274.341438 130.470692 
L 276.434461 132.977389 
L 278.464059 135.073539 
L 280.493658 136.853945 
L 282.523256 138.334709 
L 284.552854 139.534357 
L 286.582452 140.473642 
L 288.675476 141.193564 
L 290.831924 141.698836 
L 293.115222 142.005285 
L 295.588795 142.112904 
L 311.318182 142.113095 
L 311.318182 142.113095 
" style="fill:none;stroke:#000000;stroke-linecap:square;stroke-width:4;"/>
   </g>
   <g id="patch_3">
    <path d="M 45 145.588966 
L 45 69.12 
" style="fill:none;stroke:#000000;stroke-linecap:square;stroke-linejoin:miter;stroke-width:0.8;"/>
   </g>
   <g id="patch_4">
    <path d="M 45 145.588966 
L 324 145.588966 
" style="fill:none;stroke:#000000;stroke-linecap:square;stroke-linejoin:miter;stroke-width:0.8;"/>
   </g>
  </g>
  <g id="axes_2">
   <g id="patch_5">
    <path d="M 45 237.351724 
L 324 237.351724 
L 324 160.882759 
L 45 160.882759 
z
" style="fill:#ffffff;"/>
   </g>
   <g id="matplotlib.axis_3">
    <g id="xtick_4"/>
    <g id="xtick_5"/>
    <g id="xtick_6"/>
   </g>
   <g id="matplotlib.axis_4">
    <g id="ytick_3">
     <g id="text_3">
      <!-- 5 -->
      <defs>
       <path d="M 10.796875 72.90625 
L 49.515625 72.90625 
L 49.515625 64.59375 
L 19.828125 64.59375 
L 19.828125 46.734375 
Q 21.96875 47.46875 24.109375 47.828125 
Q 26.265625 48.1875 28.421875 48.1875 
Q 40.625 48.1875 47.75 41.5 
Q 54.890625 34.8125 54.890625 23.390625 
Q 54.890625 11.625 47.5625 5.09375 
Q 40.234375 -1.421875 26.90625 -1.421875 
Q 22.3125 -1.421875 17.546875 -0.640625 
Q 12.796875 0.140625 7.71875 1.703125 
L 7.71875 11.625 
Q 12.109375 9.234375 16.796875 8.0625 
Q 21.484375 6.890625 26.703125 6.890625 
Q 35.15625 6.890625 40.078125 11.328125 
Q 45.015625 15.765625 45.015625 23.390625 
Q 45.015625 31 40.078125 35.4375 
Q 35.15625 39.890625 26.703125 39.890625 
Q 22.75 39.890625 18.8125 39.015625 
Q 14.890625 38.140625 10.796875 36.28125 
z
" id="DejaVuSans-53"/>
      </defs>
      <g transform="translate(25.275 228.198713)scale(0.2 -0.2)">
       <use xlink:href="#DejaVuSans-53"/>
      </g>
     </g>
    </g>
    <g id="ytick_4">
     <g id="text_4">
      <!-- 10 -->
      <g transform="translate(12.55 203.505929)scale(0.2 -0.2)">
       <use xlink:href="#DejaVuSans-49"/>
       <use x="63.623047" xlink:href="#DejaVuSans-48"/>
      </g>
     </g>
    </g>
    <g id="ytick_5">
     <g id="text_5">
      <!-- 15 -->
      <g transform="translate(12.55 178.813146)scale(0.2 -0.2)">
       <use xlink:href="#DejaVuSans-49"/>
       <use x="63.623047" xlink:href="#DejaVuSans-53"/>
      </g>
     </g>
    </g>
   </g>
   <g id="line2d_2">
    <path clip-path="url(#p1a1fd9b112)" d="M 57.681818 233.875849 
L 76.011628 233.765276 
L 78.231501 233.438115 
L 80.324524 232.90819 
L 82.354123 232.169048 
L 84.383721 231.189635 
L 86.349894 229.995222 
L 88.316068 228.543933 
L 90.345666 226.761519 
L 92.375264 224.676188 
L 94.468288 222.194692 
L 96.561311 219.364458 
L 98.717759 216.071786 
L 100.937632 212.271777 
L 103.22093 207.918436 
L 105.631078 202.829902 
L 109.182875 195.342259 
L 112.354123 189.159081 
L 115.208245 184.06154 
L 117.872093 179.749154 
L 120.345666 176.163811 
L 122.628964 173.237214 
L 124.785412 170.829278 
L 126.815011 168.892794 
L 128.717759 167.378031 
L 130.557082 166.198269 
L 132.269556 165.357094 
L 133.918605 164.785911 
L 135.567653 164.452661 
L 137.153277 164.358785 
L 222.015856 164.359024 
L 233.686047 164.462416 
L 235.27167 164.787647 
L 236.920719 165.358045 
L 238.633192 166.197177 
L 240.409091 167.328158 
L 242.248414 168.773315 
L 244.151163 170.553792 
L 246.180761 172.762871 
L 248.337209 175.447108 
L 250.620507 178.650072 
L 253.09408 182.514652 
L 255.757928 187.102832 
L 258.675476 192.589816 
L 261.846723 199.039584 
L 267.745243 211.218565 
L 270.091966 215.327339 
L 272.375264 218.878634 
L 274.595137 221.920925 
L 276.751586 224.50147 
L 278.844609 226.665976 
L 280.937632 228.509574 
L 282.96723 230.005416 
L 284.996829 231.229271 
L 287.026427 232.197482 
L 289.11945 232.946503 
L 291.212474 233.461896 
L 293.432347 233.776133 
L 295.77907 233.875815 
L 311.318182 233.875849 
L 311.318182 233.875849 
" style="fill:none;stroke:#000000;stroke-linecap:square;stroke-width:4;"/>
   </g>
   <g id="patch_6">
    <path d="M 45 237.351724 
L 45 160.882759 
" style="fill:none;stroke:#000000;stroke-linecap:square;stroke-linejoin:miter;stroke-width:0.8;"/>
   </g>
   <g id="patch_7">
    <path d="M 45 237.351724 
L 324 237.351724 
" style="fill:none;stroke:#000000;stroke-linecap:square;stroke-linejoin:miter;stroke-width:0.8;"/>
   </g>
  </g>
  <g id="axes_3">
   <g id="patch_8">
    <path d="M 45 329.114483 
L 324 329.114483 
L 324 252.645517 
L 45 252.645517 
z
" style="fill:#ffffff;"/>
   </g>
   <g id="matplotlib.axis_5">
    <g id="xtick_7"/>
    <g id="xtick_8"/>
    <g id="xtick_9"/>
   </g>
   <g id="matplotlib.axis_6">
    <g id="ytick_6">
     <g id="text_6">
      <!-- 5 -->
      <g transform="translate(25.275 319.961471)scale(0.2 -0.2)">
       <use xlink:href="#DejaVuSans-53"/>
      </g>
     </g>
    </g>
    <g id="ytick_7">
     <g id="text_7">
      <!-- 10 -->
      <g transform="translate(12.55 295.268688)scale(0.2 -0.2)">
       <use xlink:href="#DejaVuSans-49"/>
       <use x="63.623047" xlink:href="#DejaVuSans-48"/>
      </g>
     </g>
    </g>
    <g id="ytick_8">
     <g id="text_8">
      <!-- 15 -->
      <g transform="translate(12.55 270.575905)scale(0.2 -0.2)">
       <use xlink:href="#DejaVuSans-49"/>
       <use x="63.623047" xlink:href="#DejaVuSans-53"/>
      </g>
     </g>
    </g>
   </g>
   <g id="line2d_3">
    <path clip-path="url(#pba8372b88b)" d="M 57.681818 325.638607 
L 76.011628 325.528034 
L 78.231501 325.200873 
L 80.324524 324.670949 
L 82.354123 323.931807 
L 84.383721 322.952393 
L 86.349894 321.757981 
L 88.316068 320.306691 
L 90.345666 318.524278 
L 92.375264 316.438947 
L 94.468288 313.957451 
L 96.561311 311.127217 
L 98.717759 307.834545 
L 100.937632 304.034535 
L 103.22093 299.681194 
L 105.631078 294.592661 
L 109.182875 287.105018 
L 112.354123 280.92184 
L 115.208245 275.824299 
L 117.872093 271.511913 
L 120.345666 267.92657 
L 122.628964 264.999972 
L 124.785412 262.592037 
L 126.815011 260.655553 
L 128.717759 259.14079 
L 130.557082 257.961027 
L 132.269556 257.119853 
L 133.918605 256.54867 
L 135.567653 256.215419 
L 137.153277 256.121543 
L 222.015856 256.121782 
L 233.686047 256.225175 
L 235.27167 256.550406 
L 236.920719 257.120804 
L 238.633192 257.959935 
L 240.409091 259.090916 
L 242.248414 260.536074 
L 244.151163 262.316551 
L 246.180761 264.52563 
L 248.337209 267.209866 
L 250.620507 270.412831 
L 253.09408 274.27741 
L 255.757928 278.86559 
L 258.675476 284.352574 
L 261.846723 290.802343 
L 267.745243 302.981323 
L 270.091966 307.090097 
L 272.375264 310.641393 
L 274.595137 313.683683 
L 276.751586 316.264229 
L 278.844609 318.428734 
L 280.937632 320.272333 
L 282.96723 321.768174 
L 284.996829 322.99203 
L 287.026427 323.96024 
L 289.11945 324.709262 
L 291.212474 325.224655 
L 293.432347 325.538892 
L 295.77907 325.638574 
L 311.318182 325.638607 
L 311.318182 325.638607 
" style="fill:none;stroke:#000000;stroke-linecap:square;stroke-width:4;"/>
   </g>
   <g id="patch_9">
    <path d="M 45 329.114483 
L 45 252.645517 
" style="fill:none;stroke:#000000;stroke-linecap:square;stroke-linejoin:miter;stroke-width:0.8;"/>
   </g>
   <g id="patch_10">
    <path d="M 45 329.114483 
L 324 329.114483 
" style="fill:none;stroke:#000000;stroke-linecap:square;stroke-linejoin:miter;stroke-width:0.8;"/>
   </g>
  </g>
  <g id="axes_4">
   <g id="patch_11">
    <path d="M 45 420.877241 
L 324 420.877241 
L 324 344.408276 
L 45 344.408276 
z
" style="fill:#ffffff;"/>
   </g>
   <g id="matplotlib.axis_7">
    <g id="xtick_10"/>
    <g id="xtick_11"/>
    <g id="xtick_12"/>
   </g>
   <g id="matplotlib.axis_8">
    <g id="ytick_9">
     <g id="text_9">
      <!-- 5 -->
      <g transform="translate(25.275 421.79917)scale(0.2 -0.2)">
       <use xlink:href="#DejaVuSans-53"/>
      </g>
     </g>
    </g>
    <g id="ytick_10">
     <g id="text_10">
      <!-- 10 -->
      <g transform="translate(12.55 398.361006)scale(0.2 -0.2)">
       <use xlink:href="#DejaVuSans-49"/>
       <use x="63.623047" xlink:href="#DejaVuSans-48"/>
      </g>
     </g>
    </g>
    <g id="ytick_11">
     <g id="text_11">
      <!-- 15 -->
      <g transform="translate(12.55 374.922842)scale(0.2 -0.2)">
       <use xlink:href="#DejaVuSans-49"/>
       <use x="63.623047" xlink:href="#DejaVuSans-53"/>
      </g>
     </g>
    </g>
   </g>
   <g id="line2d_4">
    <path clip-path="url(#p66fde34fb0)" d="M 57.681818 417.401342 
L 75.757928 417.295782 
L 77.850951 416.96973 
L 79.88055 416.426864 
L 81.846723 415.674045 
L 83.812896 414.685086 
L 85.77907 413.448096 
L 87.745243 411.952039 
L 89.774841 410.125242 
L 91.867865 407.930219 
L 93.960888 405.409463 
L 96.117336 402.462423 
L 98.337209 399.049173 
L 100.620507 395.128817 
L 102.96723 390.659723 
L 105.440803 385.461031 
L 108.738901 378.506582 
L 111.783298 372.594593 
L 114.573996 367.647231 
L 117.174419 363.475871 
L 119.584567 360.011073 
L 121.867865 357.1023 
L 124.024313 354.702058 
L 126.053911 352.760583 
L 128.020085 351.18093 
L 129.859408 349.976997 
L 131.635307 349.069881 
L 133.34778 348.435856 
L 135.060254 348.040682 
L 136.709302 347.887819 
L 141.846723 347.884568 
L 233.749471 347.990134 
L 235.39852 348.318797 
L 237.110994 348.893997 
L 238.823467 349.705136 
L 240.599366 350.79249 
L 242.438689 352.179006 
L 244.404863 353.948746 
L 246.434461 356.080379 
L 248.590909 358.675281 
L 250.874207 361.781148 
L 253.284355 365.443114 
L 255.884778 369.813768 
L 258.675476 374.958513 
L 261.656448 380.933213 
L 268.442918 394.825514 
L 270.853066 398.973462 
L 273.199789 402.569682 
L 275.419662 405.577758 
L 277.57611 408.142024 
L 279.732558 410.363286 
L 281.825581 412.201516 
L 283.85518 413.695809 
L 285.884778 414.917629 
L 287.914376 415.879179 
L 289.943975 416.5936 
L 291.973573 417.074889 
L 294.066596 417.342662 
L 296.349894 417.401331 
L 311.318182 417.401342 
L 311.318182 417.401342 
" style="fill:none;stroke:#000000;stroke-linecap:square;stroke-width:4;"/>
   </g>
   <g id="patch_12">
    <path d="M 45 420.877241 
L 45 344.408276 
" style="fill:none;stroke:#000000;stroke-linecap:square;stroke-linejoin:miter;stroke-width:0.8;"/>
   </g>
   <g id="patch_13">
    <path d="M 45 420.877241 
L 324 420.877241 
" style="fill:none;stroke:#000000;stroke-linecap:square;stroke-linejoin:miter;stroke-width:0.8;"/>
   </g>
  </g>
  <g id="axes_5">
   <g id="patch_14">
    <path d="M 45 512.64 
L 324 512.64 
L 324 436.171034 
L 45 436.171034 
z
" style="fill:#ffffff;"/>
   </g>
   <g id="matplotlib.axis_9">
    <g id="xtick_13">
     <g id="line2d_5">
      <defs>
       <path d="M 0 0 
L 0 3.5 
" id="m7b8bae055b" style="stroke:#000000;stroke-width:0.8;"/>
      </defs>
      <g>
       <use style="stroke:#000000;stroke-width:0.8;" x="57.681818" xlink:href="#m7b8bae055b" y="512.64"/>
      </g>
     </g>
     <g id="text_12">
      <!-- 0 -->
      <g transform="translate(51.319318 534.836875)scale(0.2 -0.2)">
       <use xlink:href="#DejaVuSans-48"/>
      </g>
     </g>
    </g>
    <g id="xtick_14">
     <g id="line2d_6">
      <g>
       <use style="stroke:#000000;stroke-width:0.8;" x="184.531712" xlink:href="#m7b8bae055b" y="512.64"/>
      </g>
     </g>
     <g id="text_13">
      <!-- 2000 -->
      <g transform="translate(159.081712 534.836875)scale(0.2 -0.2)">
       <use xlink:href="#DejaVuSans-50"/>
       <use x="63.623047" xlink:href="#DejaVuSans-48"/>
       <use x="127.246094" xlink:href="#DejaVuSans-48"/>
       <use x="190.869141" xlink:href="#DejaVuSans-48"/>
      </g>
     </g>
    </g>
    <g id="xtick_15">
     <g id="line2d_7">
      <g>
       <use style="stroke:#000000;stroke-width:0.8;" x="311.381607" xlink:href="#m7b8bae055b" y="512.64"/>
      </g>
     </g>
     <g id="text_14">
      <!-- 4000 -->
      <defs>
       <path d="M 37.796875 64.3125 
L 12.890625 25.390625 
L 37.796875 25.390625 
z
M 35.203125 72.90625 
L 47.609375 72.90625 
L 47.609375 25.390625 
L 58.015625 25.390625 
L 58.015625 17.1875 
L 47.609375 17.1875 
L 47.609375 0 
L 37.796875 0 
L 37.796875 17.1875 
L 4.890625 17.1875 
L 4.890625 26.703125 
z
" id="DejaVuSans-52"/>
      </defs>
      <g transform="translate(285.931607 534.836875)scale(0.2 -0.2)">
       <use xlink:href="#DejaVuSans-52"/>
       <use x="63.623047" xlink:href="#DejaVuSans-48"/>
       <use x="127.246094" xlink:href="#DejaVuSans-48"/>
       <use x="190.869141" xlink:href="#DejaVuSans-48"/>
      </g>
     </g>
    </g>
   </g>
   <g id="matplotlib.axis_10">
    <g id="ytick_12">
     <g id="text_15">
      <!-- 5 -->
      <g transform="translate(25.275 513.561929)scale(0.2 -0.2)">
       <use xlink:href="#DejaVuSans-53"/>
      </g>
     </g>
    </g>
    <g id="ytick_13">
     <g id="text_16">
      <!-- 10 -->
      <g transform="translate(12.55 490.123765)scale(0.2 -0.2)">
       <use xlink:href="#DejaVuSans-49"/>
       <use x="63.623047" xlink:href="#DejaVuSans-48"/>
      </g>
     </g>
    </g>
    <g id="ytick_14">
     <g id="text_17">
      <!-- 15 -->
      <g transform="translate(12.55 466.685601)scale(0.2 -0.2)">
       <use xlink:href="#DejaVuSans-49"/>
       <use x="63.623047" xlink:href="#DejaVuSans-53"/>
      </g>
     </g>
    </g>
   </g>
   <g id="line2d_8">
    <path clip-path="url(#pc917b4bf4c)" d="M 57.681818 509.1641 
L 75.757928 509.05854 
L 77.850951 508.732488 
L 79.88055 508.189623 
L 81.846723 507.436804 
L 83.812896 506.447844 
L 85.77907 505.210855 
L 87.745243 503.714798 
L 89.774841 501.888001 
L 91.867865 499.692978 
L 93.960888 497.172222 
L 96.117336 494.225182 
L 98.337209 490.811932 
L 100.620507 486.891576 
L 102.96723 482.422481 
L 105.440803 477.22379 
L 108.738901 470.26934 
L 111.783298 464.357351 
L 114.573996 459.40999 
L 117.174419 455.23863 
L 119.584567 451.773832 
L 121.867865 448.865059 
L 124.024313 446.464817 
L 126.053911 444.523342 
L 128.020085 442.943689 
L 129.859408 441.739755 
L 131.635307 440.832639 
L 133.34778 440.198614 
L 135.060254 439.803441 
L 136.709302 439.650578 
L 141.846723 439.647326 
L 233.749471 439.752892 
L 235.39852 440.081555 
L 237.110994 440.656756 
L 238.823467 441.467895 
L 240.599366 442.555249 
L 242.438689 443.941765 
L 244.404863 445.711505 
L 246.434461 447.843137 
L 248.590909 450.43804 
L 250.874207 453.543907 
L 253.284355 457.205873 
L 255.884778 461.576526 
L 258.675476 466.721272 
L 261.656448 472.695972 
L 268.442918 486.588272 
L 270.853066 490.736221 
L 273.199789 494.332441 
L 275.419662 497.340517 
L 277.57611 499.904783 
L 279.732558 502.126045 
L 281.825581 503.964275 
L 283.85518 505.458568 
L 285.884778 506.680387 
L 287.914376 507.641938 
L 289.943975 508.356359 
L 291.973573 508.837647 
L 294.066596 509.10542 
L 296.349894 509.164089 
L 311.318182 509.1641 
L 311.318182 509.1641 
" style="fill:none;stroke:#000000;stroke-linecap:square;stroke-width:4;"/>
   </g>
   <g id="patch_15">
    <path d="M 45 512.64 
L 45 436.171034 
" style="fill:none;stroke:#000000;stroke-linecap:square;stroke-linejoin:miter;stroke-width:0.8;"/>
   </g>
   <g id="patch_16">
    <path d="M 45 512.64 
L 324 512.64 
" style="fill:none;stroke:#000000;stroke-linecap:square;stroke-linejoin:miter;stroke-width:0.8;"/>
   </g>
  </g>
 </g>
 <defs>
  <clipPath id="p7baa9dbc50">
   <rect height="76.468966" width="279" x="45" y="69.12"/>
  </clipPath>
  <clipPath id="p1a1fd9b112">
   <rect height="76.468966" width="279" x="45" y="160.882759"/>
  </clipPath>
  <clipPath id="pba8372b88b">
   <rect height="76.468966" width="279" x="45" y="252.645517"/>
  </clipPath>
  <clipPath id="p66fde34fb0">
   <rect height="76.468966" width="279" x="45" y="344.408276"/>
  </clipPath>
  <clipPath id="pc917b4bf4c">
   <rect height="76.468966" width="279" x="45" y="436.171034"/>
  </clipPath>
 </defs>
</svg>
