<?xml version="1.0" encoding="utf-8" standalone="no"?>
<!DOCTYPE svg PUBLIC "-//W3C//DTD SVG 1.1//EN"
  "http://www.w3.org/Graphics/SVG/1.1/DTD/svg11.dtd">
<!-- Created with matplotlib (https://matplotlib.org/) -->
<svg height="576pt" version="1.1" viewBox="0 0 360 576" width="360pt" xmlns="http://www.w3.org/2000/svg" xmlns:xlink="http://www.w3.org/1999/xlink">
 <defs>
  <style type="text/css">
*{stroke-linecap:butt;stroke-linejoin:round;white-space:pre;}
  </style>
 </defs>
 <g id="figure_1">
  <g id="patch_1">
   <path d="M 0 576 
L 360 576 
L 360 0 
L 0 0 
z
" style="fill:#ffffff;"/>
  </g>
  <g id="axes_1">
   <g id="patch_2">
    <path d="M 45 145.588966 
L 324 145.588966 
L 324 69.12 
L 45 69.12 
z
" style="fill:#ffffff;"/>
   </g>
   <g id="matplotlib.axis_1">
    <g id="xtick_1"/>
    <g id="xtick_2"/>
    <g id="xtick_3"/>
   </g>
   <g id="matplotlib.axis_2">
    <g id="ytick_1">
     <g id="text_1">
      <!-- 10 -->
      <defs>
       <path d="M 12.40625 8.296875 
L 28.515625 8.296875 
L 28.515625 63.921875 
L 10.984375 60.40625 
L 10.984375 69.390625 
L 28.421875 72.90625 
L 38.28125 72.90625 
L 38.28125 8.296875 
L 54.390625 8.296875 
L 54.390625 0 
L 12.40625 0 
z
" id="DejaVuSans-49"/>
       <path d="M 31.78125 66.40625 
Q 24.171875 66.40625 20.328125 58.90625 
Q 16.5 51.421875 16.5 36.375 
Q 16.5 21.390625 20.328125 13.890625 
Q 24.171875 6.390625 31.78125 6.390625 
Q 39.453125 6.390625 43.28125 13.890625 
Q 47.125 21.390625 47.125 36.375 
Q 47.125 51.421875 43.28125 58.90625 
Q 39.453125 66.40625 31.78125 66.40625 
z
M 31.78125 74.21875 
Q 44.046875 74.21875 50.515625 64.515625 
Q 56.984375 54.828125 56.984375 36.375 
Q 56.984375 17.96875 50.515625 8.265625 
Q 44.046875 -1.421875 31.78125 -1.421875 
Q 19.53125 -1.421875 13.0625 8.265625 
Q 6.59375 17.96875 6.59375 36.375 
Q 6.59375 54.828125 13.0625 64.515625 
Q 19.53125 74.21875 31.78125 74.21875 
z
" id="DejaVuSans-48"/>
      </defs>
      <g transform="translate(12.55 125.969553)scale(0.2 -0.2)">
       <use xlink:href="#DejaVuSans-49"/>
       <use x="63.623047" xlink:href="#DejaVuSans-48"/>
      </g>
     </g>
    </g>
    <g id="ytick_2">
     <g id="text_2">
      <!-- 20 -->
      <defs>
       <path d="M 19.1875 8.296875 
L 53.609375 8.296875 
L 53.609375 0 
L 7.328125 0 
L 7.328125 8.296875 
Q 12.9375 14.109375 22.625 23.890625 
Q 32.328125 33.6875 34.8125 36.53125 
Q 39.546875 41.84375 41.421875 45.53125 
Q 43.3125 49.21875 43.3125 52.78125 
Q 43.3125 58.59375 39.234375 62.25 
Q 35.15625 65.921875 28.609375 65.921875 
Q 23.96875 65.921875 18.8125 64.3125 
Q 13.671875 62.703125 7.8125 59.421875 
L 7.8125 69.390625 
Q 13.765625 71.78125 18.9375 73 
Q 24.125 74.21875 28.421875 74.21875 
Q 39.75 74.21875 46.484375 68.546875 
Q 53.21875 62.890625 53.21875 53.421875 
Q 53.21875 48.921875 51.53125 44.890625 
Q 49.859375 40.875 45.40625 35.40625 
Q 44.1875 33.984375 37.640625 27.21875 
Q 31.109375 20.453125 19.1875 8.296875 
z
" id="DejaVuSans-50"/>
      </defs>
      <g transform="translate(12.55 95.954551)scale(0.2 -0.2)">
       <use xlink:href="#DejaVuSans-50"/>
       <use x="63.623047" xlink:href="#DejaVuSans-48"/>
      </g>
     </g>
    </g>
   </g>
   <g id="line2d_1">
    <path clip-path="url(#p7e1e65a54f)" d="M 57.681818 142.113096 
L 76.265328 142.005289 
L 78.612051 141.692738 
L 80.831924 141.171178 
L 82.924947 140.446917 
L 84.954545 139.502269 
L 86.920719 138.336793 
L 88.886892 136.904718 
L 90.853066 135.188079 
L 92.819239 133.171166 
L 94.848837 130.760096 
L 96.878436 128.002813 
L 98.971459 124.786795 
L 101.191332 120.954142 
L 103.47463 116.55296 
L 105.948203 111.280723 
L 109.817125 103.128138 
L 113.115222 96.680899 
L 116.03277 91.458035 
L 118.633192 87.245482 
L 121.04334 83.756446 
L 123.263214 80.925327 
L 125.356237 78.612024 
L 127.32241 76.767453 
L 129.161734 75.33914 
L 130.937632 74.238917 
L 132.650106 73.441557 
L 134.299154 72.920911 
L 135.884778 72.650473 
L 137.597252 72.596404 
L 233.559197 72.688142 
L 235.14482 73.004306 
L 236.730444 73.544477 
L 238.379493 74.342209 
L 240.091966 75.422506 
L 241.867865 76.809661 
L 243.770613 78.590866 
L 245.736786 80.74265 
L 247.82981 83.36731 
L 250.113108 86.603206 
L 252.523256 90.412022 
L 255.187104 95.049122 
L 258.168076 100.706187 
L 261.529598 107.581356 
L 267.618393 120.196332 
L 269.901691 124.199287 
L 272.121564 127.652984 
L 274.278013 130.602797 
L 276.371036 133.094519 
L 278.400634 135.173803 
L 280.430233 136.935981 
L 282.396406 138.356811 
L 284.362579 139.513827 
L 286.392178 140.452357 
L 288.485201 141.172688 
L 290.641649 141.680558 
L 292.988372 141.998789 
L 295.52537 142.112706 
L 311.318182 142.113096 
L 311.318182 142.113096 
" style="fill:none;stroke:#000000;stroke-linecap:square;stroke-width:4;"/>
   </g>
   <g id="patch_3">
    <path d="M 45 145.588966 
L 45 69.12 
" style="fill:none;stroke:#000000;stroke-linecap:square;stroke-linejoin:miter;stroke-width:0.8;"/>
   </g>
   <g id="patch_4">
    <path d="M 45 145.588966 
L 324 145.588966 
" style="fill:none;stroke:#000000;stroke-linecap:square;stroke-linejoin:miter;stroke-width:0.8;"/>
   </g>
  </g>
  <g id="axes_2">
   <g id="patch_5">
    <path d="M 45 237.351724 
L 324 237.351724 
L 324 160.882759 
L 45 160.882759 
z
" style="fill:#ffffff;"/>
   </g>
   <g id="matplotlib.axis_3">
    <g id="xtick_4"/>
    <g id="xtick_5"/>
    <g id="xtick_6"/>
   </g>
   <g id="matplotlib.axis_4">
    <g id="ytick_3">
     <g id="text_3">
      <!-- 5 -->
      <defs>
       <path d="M 10.796875 72.90625 
L 49.515625 72.90625 
L 49.515625 64.59375 
L 19.828125 64.59375 
L 19.828125 46.734375 
Q 21.96875 47.46875 24.109375 47.828125 
Q 26.265625 48.1875 28.421875 48.1875 
Q 40.625 48.1875 47.75 41.5 
Q 54.890625 34.8125 54.890625 23.390625 
Q 54.890625 11.625 47.5625 5.09375 
Q 40.234375 -1.421875 26.90625 -1.421875 
Q 22.3125 -1.421875 17.546875 -0.640625 
Q 12.796875 0.140625 7.71875 1.703125 
L 7.71875 11.625 
Q 12.109375 9.234375 16.796875 8.0625 
Q 21.484375 6.890625 26.703125 6.890625 
Q 35.15625 6.890625 40.078125 11.328125 
Q 45.015625 15.765625 45.015625 23.390625 
Q 45.015625 31 40.078125 35.4375 
Q 35.15625 39.890625 26.703125 39.890625 
Q 22.75 39.890625 18.8125 39.015625 
Q 14.890625 38.140625 10.796875 36.28125 
z
" id="DejaVuSans-53"/>
      </defs>
      <g transform="translate(25.275 226.889801)scale(0.2 -0.2)">
       <use xlink:href="#DejaVuSans-53"/>
      </g>
     </g>
    </g>
    <g id="ytick_4">
     <g id="text_4">
      <!-- 10 -->
      <g transform="translate(12.55 201.830874)scale(0.2 -0.2)">
       <use xlink:href="#DejaVuSans-49"/>
       <use x="63.623047" xlink:href="#DejaVuSans-48"/>
      </g>
     </g>
    </g>
    <g id="ytick_5">
     <g id="text_5">
      <!-- 15 -->
      <g transform="translate(12.55 176.771947)scale(0.2 -0.2)">
       <use xlink:href="#DejaVuSans-49"/>
       <use x="63.623047" xlink:href="#DejaVuSans-53"/>
      </g>
     </g>
    </g>
   </g>
   <g id="line2d_2">
    <path clip-path="url(#p1f9ac2c24f)" d="M 57.681818 233.875849 
L 76.011628 233.769323 
L 78.231501 233.4526 
L 80.387949 232.918492 
L 82.417548 232.190635 
L 84.447146 231.22496 
L 86.413319 230.045405 
L 88.379493 228.609702 
L 90.345666 226.90303 
L 92.375264 224.842508 
L 94.404863 222.464739 
L 96.497886 219.667154 
L 98.654334 216.405113 
L 100.874207 212.632475 
L 103.157505 208.301916 
L 105.504228 203.367112 
L 109.11945 195.721056 
L 112.354123 189.386953 
L 115.27167 184.153376 
L 117.935518 179.821356 
L 120.409091 176.216414 
L 122.692389 173.271951 
L 124.848837 170.848467 
L 126.878436 168.899427 
L 128.781184 167.375433 
L 130.557082 166.225772 
L 132.269556 165.37265 
L 133.918605 164.792928 
L 135.504228 164.462906 
L 137.089852 164.358672 
L 206.159619 164.359016 
L 233.686047 164.463709 
L 235.27167 164.79347 
L 236.920719 165.371739 
L 238.569767 166.186126 
L 240.282241 167.27702 
L 242.121564 168.720653 
L 244.024313 170.502327 
L 246.053911 172.715132 
L 248.210359 175.405261 
L 250.493658 178.615601 
L 252.96723 182.488169 
L 255.631078 187.083299 
L 258.548626 192.573843 
L 261.783298 199.153693 
L 267.681818 211.342865 
L 270.028541 215.450519 
L 272.248414 218.902782 
L 274.468288 221.946097 
L 276.624736 224.524199 
L 278.717759 226.683933 
L 280.747357 228.470163 
L 282.776956 229.968073 
L 284.806554 231.193708 
L 286.836152 232.164195 
L 288.929175 232.916903 
L 291.085624 233.450557 
L 293.305497 233.767853 
L 295.65222 233.875753 
L 311.318182 233.875849 
L 311.318182 233.875849 
" style="fill:none;stroke:#000000;stroke-linecap:square;stroke-width:4;"/>
   </g>
   <g id="patch_6">
    <path d="M 45 237.351724 
L 45 160.882759 
" style="fill:none;stroke:#000000;stroke-linecap:square;stroke-linejoin:miter;stroke-width:0.8;"/>
   </g>
   <g id="patch_7">
    <path d="M 45 237.351724 
L 324 237.351724 
" style="fill:none;stroke:#000000;stroke-linecap:square;stroke-linejoin:miter;stroke-width:0.8;"/>
   </g>
  </g>
  <g id="axes_3">
   <g id="patch_8">
    <path d="M 45 329.114483 
L 324 329.114483 
L 324 252.645517 
L 45 252.645517 
z
" style="fill:#ffffff;"/>
   </g>
   <g id="matplotlib.axis_5">
    <g id="xtick_7"/>
    <g id="xtick_8"/>
    <g id="xtick_9"/>
   </g>
   <g id="matplotlib.axis_6">
    <g id="ytick_6">
     <g id="text_6">
      <!-- 5 -->
      <g transform="translate(25.275 318.65256)scale(0.2 -0.2)">
       <use xlink:href="#DejaVuSans-53"/>
      </g>
     </g>
    </g>
    <g id="ytick_7">
     <g id="text_7">
      <!-- 10 -->
      <g transform="translate(12.55 293.593633)scale(0.2 -0.2)">
       <use xlink:href="#DejaVuSans-49"/>
       <use x="63.623047" xlink:href="#DejaVuSans-48"/>
      </g>
     </g>
    </g>
    <g id="ytick_8">
     <g id="text_8">
      <!-- 15 -->
      <g transform="translate(12.55 268.534705)scale(0.2 -0.2)">
       <use xlink:href="#DejaVuSans-49"/>
       <use x="63.623047" xlink:href="#DejaVuSans-53"/>
      </g>
     </g>
    </g>
   </g>
   <g id="line2d_3">
    <path clip-path="url(#p31f780fe99)" d="M 57.681818 325.638608 
L 76.011628 325.532081 
L 78.231501 325.215358 
L 80.387949 324.681251 
L 82.417548 323.953394 
L 84.447146 322.987719 
L 86.413319 321.808163 
L 88.379493 320.37246 
L 90.345666 318.665789 
L 92.375264 316.605267 
L 94.404863 314.227498 
L 96.497886 311.429913 
L 98.654334 308.167872 
L 100.874207 304.395234 
L 103.157505 300.064675 
L 105.504228 295.129871 
L 109.11945 287.483815 
L 112.354123 281.149712 
L 115.27167 275.916135 
L 117.935518 271.584115 
L 120.409091 267.979173 
L 122.692389 265.03471 
L 124.848837 262.611226 
L 126.878436 260.662185 
L 128.781184 259.138192 
L 130.557082 257.988531 
L 132.269556 257.135409 
L 133.918605 256.555687 
L 135.504228 256.225665 
L 137.089852 256.12143 
L 206.159619 256.121775 
L 233.686047 256.226468 
L 235.27167 256.556229 
L 236.920719 257.134497 
L 238.569767 257.948885 
L 240.282241 259.039778 
L 242.121564 260.483412 
L 244.024313 262.265086 
L 246.053911 264.47789 
L 248.210359 267.168019 
L 250.493658 270.378359 
L 252.96723 274.250928 
L 255.631078 278.846057 
L 258.548626 284.336601 
L 261.783298 290.916452 
L 267.681818 303.105624 
L 270.028541 307.213278 
L 272.248414 310.66554 
L 274.468288 313.708856 
L 276.624736 316.286957 
L 278.717759 318.446692 
L 280.747357 320.232922 
L 282.776956 321.730832 
L 284.806554 322.956467 
L 286.836152 323.926954 
L 288.929175 324.679662 
L 291.085624 325.213316 
L 293.305497 325.530612 
L 295.65222 325.638511 
L 311.318182 325.638608 
L 311.318182 325.638608 
" style="fill:none;stroke:#000000;stroke-linecap:square;stroke-width:4;"/>
   </g>
   <g id="patch_9">
    <path d="M 45 329.114483 
L 45 252.645517 
" style="fill:none;stroke:#000000;stroke-linecap:square;stroke-linejoin:miter;stroke-width:0.8;"/>
   </g>
   <g id="patch_10">
    <path d="M 45 329.114483 
L 324 329.114483 
" style="fill:none;stroke:#000000;stroke-linecap:square;stroke-linejoin:miter;stroke-width:0.8;"/>
   </g>
  </g>
  <g id="axes_4">
   <g id="patch_11">
    <path d="M 45 420.877241 
L 324 420.877241 
L 324 344.408276 
L 45 344.408276 
z
" style="fill:#ffffff;"/>
   </g>
   <g id="matplotlib.axis_7">
    <g id="xtick_10"/>
    <g id="xtick_11"/>
    <g id="xtick_12"/>
   </g>
   <g id="matplotlib.axis_8">
    <g id="ytick_9">
     <g id="text_9">
      <!-- 10 -->
      <g transform="translate(12.55 402.568466)scale(0.2 -0.2)">
       <use xlink:href="#DejaVuSans-49"/>
       <use x="63.623047" xlink:href="#DejaVuSans-48"/>
      </g>
     </g>
    </g>
    <g id="ytick_10">
     <g id="text_10">
      <!-- 20 -->
      <g transform="translate(12.55 356.044239)scale(0.2 -0.2)">
       <use xlink:href="#DejaVuSans-50"/>
       <use x="63.623047" xlink:href="#DejaVuSans-48"/>
      </g>
     </g>
    </g>
   </g>
   <g id="line2d_4">
    <path clip-path="url(#pb044e94751)" d="M 57.681818 417.401323 
L 75.757928 417.290637 
L 77.787526 416.965131 
L 79.817125 416.410214 
L 81.783298 415.641062 
L 83.749471 414.632308 
L 85.715645 413.373182 
L 87.745243 411.800306 
L 89.774841 409.940123 
L 91.867865 407.711428 
L 94.024313 405.076474 
L 96.244186 401.996272 
L 98.527484 398.430804 
L 100.874207 394.339249 
L 103.284355 389.680208 
L 105.884778 384.149111 
L 109.11945 377.409698 
L 112.100423 371.707409 
L 114.827696 366.955332 
L 117.428118 362.866343 
L 119.838266 359.482562 
L 122.121564 356.652593 
L 124.278013 354.326929 
L 126.307611 352.454456 
L 128.273784 350.93947 
L 130.113108 349.793248 
L 131.889006 348.93863 
L 133.60148 348.351686 
L 135.313953 347.999648 
L 136.963002 347.884208 
L 232.480973 347.888811 
L 234.130021 348.043712 
L 235.77907 348.416805 
L 237.491543 349.033553 
L 239.267442 349.917706 
L 241.106765 351.092982 
L 243.009514 352.582833 
L 244.975687 354.410143 
L 247.06871 356.670065 
L 249.225159 359.329306 
L 251.508457 362.499593 
L 253.918605 366.226763 
L 256.519027 370.666295 
L 259.309725 375.885489 
L 262.290698 381.943057 
L 267.808668 393.344377 
L 270.218816 397.632637 
L 272.565539 401.370033 
L 274.848837 404.598584 
L 277.06871 407.359597 
L 279.225159 409.693431 
L 281.318182 411.639264 
L 283.34778 413.234876 
L 285.377378 414.55358 
L 287.406977 415.60611 
L 289.436575 416.40414 
L 291.466173 416.960232 
L 293.495772 417.287781 
L 295.588795 417.401172 
L 311.318182 417.401323 
L 311.318182 417.401323 
" style="fill:none;stroke:#000000;stroke-linecap:square;stroke-width:4;"/>
   </g>
   <g id="patch_12">
    <path d="M 45 420.877241 
L 45 344.408276 
" style="fill:none;stroke:#000000;stroke-linecap:square;stroke-linejoin:miter;stroke-width:0.8;"/>
   </g>
   <g id="patch_13">
    <path d="M 45 420.877241 
L 324 420.877241 
" style="fill:none;stroke:#000000;stroke-linecap:square;stroke-linejoin:miter;stroke-width:0.8;"/>
   </g>
  </g>
  <g id="axes_5">
   <g id="patch_14">
    <path d="M 45 512.64 
L 324 512.64 
L 324 436.171034 
L 45 436.171034 
z
" style="fill:#ffffff;"/>
   </g>
   <g id="matplotlib.axis_9">
    <g id="xtick_13">
     <g id="line2d_5">
      <defs>
       <path d="M 0 0 
L 0 3.5 
" id="mf03f0f7421" style="stroke:#000000;stroke-width:0.8;"/>
      </defs>
      <g>
       <use style="stroke:#000000;stroke-width:0.8;" x="57.681818" xlink:href="#mf03f0f7421" y="512.64"/>
      </g>
     </g>
     <g id="text_11">
      <!-- 0 -->
      <g transform="translate(51.319318 534.836875)scale(0.2 -0.2)">
       <use xlink:href="#DejaVuSans-48"/>
      </g>
     </g>
    </g>
    <g id="xtick_14">
     <g id="line2d_6">
      <g>
       <use style="stroke:#000000;stroke-width:0.8;" x="184.531712" xlink:href="#mf03f0f7421" y="512.64"/>
      </g>
     </g>
     <g id="text_12">
      <!-- 2000 -->
      <g transform="translate(159.081712 534.836875)scale(0.2 -0.2)">
       <use xlink:href="#DejaVuSans-50"/>
       <use x="63.623047" xlink:href="#DejaVuSans-48"/>
       <use x="127.246094" xlink:href="#DejaVuSans-48"/>
       <use x="190.869141" xlink:href="#DejaVuSans-48"/>
      </g>
     </g>
    </g>
    <g id="xtick_15">
     <g id="line2d_7">
      <g>
       <use style="stroke:#000000;stroke-width:0.8;" x="311.381607" xlink:href="#mf03f0f7421" y="512.64"/>
      </g>
     </g>
     <g id="text_13">
      <!-- 4000 -->
      <defs>
       <path d="M 37.796875 64.3125 
L 12.890625 25.390625 
L 37.796875 25.390625 
z
M 35.203125 72.90625 
L 47.609375 72.90625 
L 47.609375 25.390625 
L 58.015625 25.390625 
L 58.015625 17.1875 
L 47.609375 17.1875 
L 47.609375 0 
L 37.796875 0 
L 37.796875 17.1875 
L 4.890625 17.1875 
L 4.890625 26.703125 
z
" id="DejaVuSans-52"/>
      </defs>
      <g transform="translate(285.931607 534.836875)scale(0.2 -0.2)">
       <use xlink:href="#DejaVuSans-52"/>
       <use x="63.623047" xlink:href="#DejaVuSans-48"/>
       <use x="127.246094" xlink:href="#DejaVuSans-48"/>
       <use x="190.869141" xlink:href="#DejaVuSans-48"/>
      </g>
     </g>
    </g>
   </g>
   <g id="matplotlib.axis_10">
    <g id="ytick_11">
     <g id="text_14">
      <!-- 10 -->
      <g transform="translate(12.55 494.331224)scale(0.2 -0.2)">
       <use xlink:href="#DejaVuSans-49"/>
       <use x="63.623047" xlink:href="#DejaVuSans-48"/>
      </g>
     </g>
    </g>
    <g id="ytick_12">
     <g id="text_15">
      <!-- 20 -->
      <g transform="translate(12.55 447.806998)scale(0.2 -0.2)">
       <use xlink:href="#DejaVuSans-50"/>
       <use x="63.623047" xlink:href="#DejaVuSans-48"/>
      </g>
     </g>
    </g>
   </g>
   <g id="line2d_8">
    <path clip-path="url(#pa05ee99356)" d="M 57.681818 509.164082 
L 75.757928 509.053395 
L 77.787526 508.727889 
L 79.817125 508.172973 
L 81.783298 507.403821 
L 83.749471 506.395067 
L 85.715645 505.135941 
L 87.745243 503.563065 
L 89.774841 501.702882 
L 91.867865 499.474186 
L 94.024313 496.839232 
L 96.244186 493.75903 
L 98.527484 490.193562 
L 100.874207 486.102007 
L 103.284355 481.442967 
L 105.884778 475.911869 
L 109.11945 469.172457 
L 112.100423 463.470168 
L 114.827696 458.718091 
L 117.428118 454.629102 
L 119.838266 451.245321 
L 122.121564 448.415352 
L 124.278013 446.089688 
L 126.307611 444.217215 
L 128.273784 442.702228 
L 130.113108 441.556007 
L 131.889006 440.701389 
L 133.60148 440.114445 
L 135.313953 439.762407 
L 136.963002 439.646966 
L 232.480973 439.65157 
L 234.130021 439.806471 
L 235.77907 440.179563 
L 237.491543 440.796312 
L 239.267442 441.680464 
L 241.106765 442.855741 
L 243.009514 444.345592 
L 244.975687 446.172901 
L 247.06871 448.432824 
L 249.225159 451.092065 
L 251.508457 454.262351 
L 253.918605 457.989521 
L 256.519027 462.429054 
L 259.309725 467.648248 
L 262.290698 473.705816 
L 267.808668 485.107135 
L 270.218816 489.395395 
L 272.565539 493.132792 
L 274.848837 496.361342 
L 277.06871 499.122356 
L 279.225159 501.45619 
L 281.318182 503.402022 
L 283.34778 504.997635 
L 285.377378 506.316338 
L 287.406977 507.368869 
L 289.436575 508.166898 
L 291.466173 508.722991 
L 293.495772 509.05054 
L 295.588795 509.163931 
L 311.318182 509.164082 
L 311.318182 509.164082 
" style="fill:none;stroke:#000000;stroke-linecap:square;stroke-width:4;"/>
   </g>
   <g id="patch_15">
    <path d="M 45 512.64 
L 45 436.171034 
" style="fill:none;stroke:#000000;stroke-linecap:square;stroke-linejoin:miter;stroke-width:0.8;"/>
   </g>
   <g id="patch_16">
    <path d="M 45 512.64 
L 324 512.64 
" style="fill:none;stroke:#000000;stroke-linecap:square;stroke-linejoin:miter;stroke-width:0.8;"/>
   </g>
  </g>
 </g>
 <defs>
  <clipPath id="p7e1e65a54f">
   <rect height="76.468966" width="279" x="45" y="69.12"/>
  </clipPath>
  <clipPath id="p1f9ac2c24f">
   <rect height="76.468966" width="279" x="45" y="160.882759"/>
  </clipPath>
  <clipPath id="p31f780fe99">
   <rect height="76.468966" width="279" x="45" y="252.645517"/>
  </clipPath>
  <clipPath id="pb044e94751">
   <rect height="76.468966" width="279" x="45" y="344.408276"/>
  </clipPath>
  <clipPath id="pa05ee99356">
   <rect height="76.468966" width="279" x="45" y="436.171034"/>
  </clipPath>
 </defs>
</svg>
