<?xml version="1.0" encoding="utf-8" standalone="no"?>
<!DOCTYPE svg PUBLIC "-//W3C//DTD SVG 1.1//EN"
  "http://www.w3.org/Graphics/SVG/1.1/DTD/svg11.dtd">
<!-- Created with matplotlib (https://matplotlib.org/) -->
<svg height="1296pt" version="1.1" viewBox="0 0 216 1296" width="216pt" xmlns="http://www.w3.org/2000/svg" xmlns:xlink="http://www.w3.org/1999/xlink">
 <defs>
  <style type="text/css">
*{stroke-linecap:butt;stroke-linejoin:round;white-space:pre;}
  </style>
 </defs>
 <g id="figure_1">
  <g id="patch_1">
   <path d="M 0 1296 
L 216 1296 
L 216 0 
L 0 0 
z
" style="fill:#ffffff;"/>
  </g>
  <g id="axes_1">
   <g id="patch_2">
    <path d="M 23.964 304.601872 
L 204.768 304.601872 
L 204.768 64.8 
L 23.964 64.8 
z
" style="fill:#ffffff;"/>
   </g>
   <g id="patch_3">
    <path clip-path="url(#p625fed2465)" d="M 32.182364 304.601872 
L 53.621573 304.601872 
L 53.621573 80.853609 
L 32.182364 80.853609 
z
" style="fill:url(#h9fad0fa149);stroke:#000000;stroke-linejoin:miter;stroke-width:2;"/>
   </g>
   <g id="patch_4">
    <path clip-path="url(#p625fed2465)" d="M 67.914379 304.601872 
L 89.353589 304.601872 
L 89.353589 82.33374 
L 67.914379 82.33374 
z
" style="fill:url(#h9fad0fa149);stroke:#000000;stroke-linejoin:miter;stroke-width:2;"/>
   </g>
   <g id="patch_5">
    <path clip-path="url(#p625fed2465)" d="M 103.646395 304.601872 
L 125.085605 304.601872 
L 125.085605 82.33374 
L 103.646395 82.33374 
z
" style="fill:url(#h9fad0fa149);stroke:#000000;stroke-linejoin:miter;stroke-width:2;"/>
   </g>
   <g id="patch_6">
    <path clip-path="url(#p625fed2465)" d="M 139.378411 304.601872 
L 160.817621 304.601872 
L 160.817621 81.634661 
L 139.378411 81.634661 
z
" style="fill:url(#h9fad0fa149);stroke:#000000;stroke-linejoin:miter;stroke-width:2;"/>
   </g>
   <g id="patch_7">
    <path clip-path="url(#p625fed2465)" d="M 175.110427 304.601872 
L 196.549636 304.601872 
L 196.549636 82.705618 
L 175.110427 82.705618 
z
" style="fill:url(#h9fad0fa149);stroke:#000000;stroke-linejoin:miter;stroke-width:2;"/>
   </g>
   <g id="matplotlib.axis_1">
    <g id="xtick_1">
     <g id="text_1">
      <!-- RF -->
      <defs>
       <path d="M 44.390625 34.1875 
Q 47.5625 33.109375 50.5625 29.59375 
Q 53.5625 26.078125 56.59375 19.921875 
L 66.609375 0 
L 56 0 
L 46.6875 18.703125 
Q 43.0625 26.03125 39.671875 28.421875 
Q 36.28125 30.8125 30.421875 30.8125 
L 19.671875 30.8125 
L 19.671875 0 
L 9.8125 0 
L 9.8125 72.90625 
L 32.078125 72.90625 
Q 44.578125 72.90625 50.734375 67.671875 
Q 56.890625 62.453125 56.890625 51.90625 
Q 56.890625 45.015625 53.6875 40.46875 
Q 50.484375 35.9375 44.390625 34.1875 
z
M 19.671875 64.796875 
L 19.671875 38.921875 
L 32.078125 38.921875 
Q 39.203125 38.921875 42.84375 42.21875 
Q 46.484375 45.515625 46.484375 51.90625 
Q 46.484375 58.296875 42.84375 61.546875 
Q 39.203125 64.796875 32.078125 64.796875 
z
" id="DejaVuSans-82"/>
       <path d="M 9.8125 72.90625 
L 51.703125 72.90625 
L 51.703125 64.59375 
L 19.671875 64.59375 
L 19.671875 43.109375 
L 48.578125 43.109375 
L 48.578125 34.8125 
L 19.671875 34.8125 
L 19.671875 0 
L 9.8125 0 
z
" id="DejaVuSans-70"/>
      </defs>
      <g transform="translate(30.201968 326.798747)scale(0.2 -0.2)">
       <use xlink:href="#DejaVuSans-82"/>
       <use x="69.482422" xlink:href="#DejaVuSans-70"/>
      </g>
     </g>
    </g>
    <g id="xtick_2">
     <g id="text_2">
      <!-- VL -->
      <defs>
       <path d="M 28.609375 0 
L 0.78125 72.90625 
L 11.078125 72.90625 
L 34.1875 11.53125 
L 57.328125 72.90625 
L 67.578125 72.90625 
L 39.796875 0 
z
" id="DejaVuSans-86"/>
       <path d="M 9.8125 72.90625 
L 19.671875 72.90625 
L 19.671875 8.296875 
L 55.171875 8.296875 
L 55.171875 0 
L 9.8125 0 
z
" id="DejaVuSans-76"/>
      </defs>
      <g transform="translate(66.221484 326.798747)scale(0.2 -0.2)">
       <use xlink:href="#DejaVuSans-86"/>
       <use x="68.408203" xlink:href="#DejaVuSans-76"/>
      </g>
     </g>
    </g>
    <g id="xtick_3">
     <g id="text_3">
      <!-- VM -->
      <defs>
       <path d="M 9.8125 72.90625 
L 24.515625 72.90625 
L 43.109375 23.296875 
L 61.8125 72.90625 
L 76.515625 72.90625 
L 76.515625 0 
L 66.890625 0 
L 66.890625 64.015625 
L 48.09375 14.015625 
L 38.1875 14.015625 
L 19.390625 64.015625 
L 19.390625 0 
L 9.8125 0 
z
" id="DejaVuSans-77"/>
      </defs>
      <g transform="translate(98.89725 326.798747)scale(0.2 -0.2)">
       <use xlink:href="#DejaVuSans-86"/>
       <use x="68.408203" xlink:href="#DejaVuSans-77"/>
      </g>
     </g>
    </g>
    <g id="xtick_4">
     <g id="text_4">
      <!-- ST -->
      <defs>
       <path d="M 53.515625 70.515625 
L 53.515625 60.890625 
Q 47.90625 63.578125 42.921875 64.890625 
Q 37.9375 66.21875 33.296875 66.21875 
Q 25.25 66.21875 20.875 63.09375 
Q 16.5 59.96875 16.5 54.203125 
Q 16.5 49.359375 19.40625 46.890625 
Q 22.3125 44.4375 30.421875 42.921875 
L 36.375 41.703125 
Q 47.40625 39.59375 52.65625 34.296875 
Q 57.90625 29 57.90625 20.125 
Q 57.90625 9.515625 50.796875 4.046875 
Q 43.703125 -1.421875 29.984375 -1.421875 
Q 24.8125 -1.421875 18.96875 -0.25 
Q 13.140625 0.921875 6.890625 3.21875 
L 6.890625 13.375 
Q 12.890625 10.015625 18.65625 8.296875 
Q 24.421875 6.59375 29.984375 6.59375 
Q 38.421875 6.59375 43.015625 9.90625 
Q 47.609375 13.234375 47.609375 19.390625 
Q 47.609375 24.75 44.3125 27.78125 
Q 41.015625 30.8125 33.5 32.328125 
L 27.484375 33.5 
Q 16.453125 35.6875 11.515625 40.375 
Q 6.59375 45.0625 6.59375 53.421875 
Q 6.59375 63.09375 13.40625 68.65625 
Q 20.21875 74.21875 32.171875 74.21875 
Q 37.3125 74.21875 42.625 73.28125 
Q 47.953125 72.359375 53.515625 70.515625 
z
" id="DejaVuSans-83"/>
       <path d="M -0.296875 72.90625 
L 61.375 72.90625 
L 61.375 64.59375 
L 35.5 64.59375 
L 35.5 0 
L 25.59375 0 
L 25.59375 64.59375 
L -0.296875 64.59375 
z
" id="DejaVuSans-84"/>
      </defs>
      <g transform="translate(137.641766 326.798747)scale(0.2 -0.2)">
       <use xlink:href="#DejaVuSans-83"/>
       <use x="63.476562" xlink:href="#DejaVuSans-84"/>
      </g>
     </g>
    </g>
    <g id="xtick_5">
     <g id="text_5">
      <!-- BF -->
      <defs>
       <path d="M 19.671875 34.8125 
L 19.671875 8.109375 
L 35.5 8.109375 
Q 43.453125 8.109375 47.28125 11.40625 
Q 51.125 14.703125 51.125 21.484375 
Q 51.125 28.328125 47.28125 31.5625 
Q 43.453125 34.8125 35.5 34.8125 
z
M 19.671875 64.796875 
L 19.671875 42.828125 
L 34.28125 42.828125 
Q 41.5 42.828125 45.03125 45.53125 
Q 48.578125 48.25 48.578125 53.8125 
Q 48.578125 59.328125 45.03125 62.0625 
Q 41.5 64.796875 34.28125 64.796875 
z
M 9.8125 72.90625 
L 35.015625 72.90625 
Q 46.296875 72.90625 52.390625 68.21875 
Q 58.5 63.53125 58.5 54.890625 
Q 58.5 48.1875 55.375 44.234375 
Q 52.25 40.28125 46.1875 39.3125 
Q 53.46875 37.75 57.5 32.78125 
Q 61.53125 27.828125 61.53125 20.40625 
Q 61.53125 10.640625 54.890625 5.3125 
Q 48.25 0 35.984375 0 
L 9.8125 0 
z
" id="DejaVuSans-66"/>
      </defs>
      <g transform="translate(173.217532 326.798747)scale(0.2 -0.2)">
       <use xlink:href="#DejaVuSans-66"/>
       <use x="68.603516" xlink:href="#DejaVuSans-70"/>
      </g>
     </g>
    </g>
   </g>
   <g id="matplotlib.axis_2">
    <g id="ytick_1"/>
    <g id="ytick_2"/>
    <g id="ytick_3"/>
    <g id="ytick_4"/>
    <g id="ytick_5"/>
    <g id="ytick_6"/>
   </g>
   <g id="patch_8">
    <path d="M 23.964 304.601872 
L 204.768 304.601872 
" style="fill:none;stroke:#000000;stroke-linecap:square;stroke-linejoin:miter;stroke-width:0.8;"/>
   </g>
  </g>
  <g id="axes_2">
   <g id="patch_9">
    <path d="M 23.964 614.157914 
L 204.768 614.157914 
L 204.768 374.356043 
L 23.964 374.356043 
z
" style="fill:#ffffff;"/>
   </g>
   <g id="matplotlib.axis_3">
    <g id="xtick_6">
     <g id="text_6">
      <!-- 0 -->
      <defs>
       <path d="M 31.78125 66.40625 
Q 24.171875 66.40625 20.328125 58.90625 
Q 16.5 51.421875 16.5 36.375 
Q 16.5 21.390625 20.328125 13.890625 
Q 24.171875 6.390625 31.78125 6.390625 
Q 39.453125 6.390625 43.28125 13.890625 
Q 47.125 21.390625 47.125 36.375 
Q 47.125 51.421875 43.28125 58.90625 
Q 39.453125 66.40625 31.78125 66.40625 
z
M 31.78125 74.21875 
Q 44.046875 74.21875 50.515625 64.515625 
Q 56.984375 54.828125 56.984375 36.375 
Q 56.984375 17.96875 50.515625 8.265625 
Q 44.046875 -1.421875 31.78125 -1.421875 
Q 19.53125 -1.421875 13.0625 8.265625 
Q 6.59375 17.96875 6.59375 36.375 
Q 6.59375 54.828125 13.0625 64.515625 
Q 19.53125 74.21875 31.78125 74.21875 
z
" id="DejaVuSans-48"/>
      </defs>
      <g transform="translate(25.819864 636.354789)scale(0.2 -0.2)">
       <use xlink:href="#DejaVuSans-48"/>
      </g>
     </g>
    </g>
    <g id="xtick_7">
     <g id="text_7">
      <!-- 8 -->
      <defs>
       <path d="M 31.78125 34.625 
Q 24.75 34.625 20.71875 30.859375 
Q 16.703125 27.09375 16.703125 20.515625 
Q 16.703125 13.921875 20.71875 10.15625 
Q 24.75 6.390625 31.78125 6.390625 
Q 38.8125 6.390625 42.859375 10.171875 
Q 46.921875 13.96875 46.921875 20.515625 
Q 46.921875 27.09375 42.890625 30.859375 
Q 38.875 34.625 31.78125 34.625 
z
M 21.921875 38.8125 
Q 15.578125 40.375 12.03125 44.71875 
Q 8.5 49.078125 8.5 55.328125 
Q 8.5 64.0625 14.71875 69.140625 
Q 20.953125 74.21875 31.78125 74.21875 
Q 42.671875 74.21875 48.875 69.140625 
Q 55.078125 64.0625 55.078125 55.328125 
Q 55.078125 49.078125 51.53125 44.71875 
Q 48 40.375 41.703125 38.8125 
Q 48.828125 37.15625 52.796875 32.3125 
Q 56.78125 27.484375 56.78125 20.515625 
Q 56.78125 9.90625 50.3125 4.234375 
Q 43.84375 -1.421875 31.78125 -1.421875 
Q 19.734375 -1.421875 13.25 4.234375 
Q 6.78125 9.90625 6.78125 20.515625 
Q 6.78125 27.484375 10.78125 32.3125 
Q 14.796875 37.15625 21.921875 38.8125 
z
M 18.3125 54.390625 
Q 18.3125 48.734375 21.84375 45.5625 
Q 25.390625 42.390625 31.78125 42.390625 
Q 38.140625 42.390625 41.71875 45.5625 
Q 45.3125 48.734375 45.3125 54.390625 
Q 45.3125 60.0625 41.71875 63.234375 
Q 38.140625 66.40625 31.78125 66.40625 
Q 25.390625 66.40625 21.84375 63.234375 
Q 18.3125 60.0625 18.3125 54.390625 
z
" id="DejaVuSans-56"/>
      </defs>
      <g transform="translate(190.228238 636.354789)scale(0.2 -0.2)">
       <use xlink:href="#DejaVuSans-56"/>
      </g>
     </g>
    </g>
   </g>
   <g id="matplotlib.axis_4">
    <g id="ytick_7"/>
    <g id="ytick_8"/>
    <g id="ytick_9"/>
    <g id="ytick_10"/>
    <g id="ytick_11"/>
    <g id="ytick_12"/>
   </g>
   <g id="line2d_1">
    <path clip-path="url(#p7816cc4a8e)" d="M 32.182364 585.356375 
L 43.485439 585.245926 
L 44.389685 584.920818 
L 45.293932 584.363874 
L 46.23928 583.516093 
L 47.22573 582.322913 
L 48.253282 580.724047 
L 49.363039 578.565117 
L 50.513897 575.825731 
L 51.74696 572.295285 
L 53.062227 567.817032 
L 54.418596 562.393391 
L 55.85717 555.710186 
L 57.377947 547.564345 
L 58.980929 537.736105 
L 60.666115 525.990316 
L 62.433505 512.078191 
L 67.24245 472.85647 
L 69.420861 457.409355 
L 71.393761 444.950391 
L 73.161151 435.135679 
L 75.010745 425.541856 
L 75.257358 422.592694 
L 76.654829 417.967948 
L 77.928994 414.482124 
L 79.079853 411.937146 
L 80.148507 410.089188 
L 81.093855 408.869115 
L 81.956999 408.095527 
L 82.737939 407.675663 
L 83.477777 407.523206 
L 86.601536 407.521738 
L 145.952959 407.633177 
L 146.692797 407.983209 
L 147.473736 408.610825 
L 148.33688 409.612916 
L 149.282229 411.081679 
L 150.309781 413.117517 
L 151.419537 415.828557 
L 152.6526 419.461538 
L 153.926765 423.896727 
L 154.21448 427.722365 
L 155.776359 435.505963 
L 157.461545 444.865418 
L 159.311139 456.464857 
L 161.325142 470.556209 
L 163.585757 487.998207 
L 166.298495 510.777102 
L 168.189192 525.714547 
L 169.997684 538.264054 
L 171.68287 548.465798 
L 173.285851 556.87377 
L 174.806629 563.722607 
L 176.245202 569.229895 
L 177.601571 573.595043 
L 178.916838 577.09761 
L 180.149901 579.762145 
L 181.30076 581.738667 
L 182.369414 583.158669 
L 183.396966 584.170166 
L 184.383417 584.836086 
L 185.328765 585.21327 
L 186.274113 585.354113 
L 190.672037 585.356375 
L 196.549636 585.356375 
L 196.549636 585.356375 
" style="fill:none;stroke:#ff0000;stroke-linecap:square;stroke-width:3;"/>
   </g>
   <g id="patch_10">
    <path d="M 23.964 614.157914 
L 204.768 614.157914 
" style="fill:none;stroke:#000000;stroke-linecap:square;stroke-linejoin:miter;stroke-width:0.8;"/>
   </g>
  </g>
  <g id="axes_3">
   <g id="patch_11">
    <path d="M 23.964 923.713957 
L 204.768 923.713957 
L 204.768 683.912086 
L 23.964 683.912086 
z
" style="fill:#ffffff;"/>
   </g>
   <g id="patch_12">
    <path clip-path="url(#p2b131e9a04)" d="M 32.182364 923.713957 
L 53.621573 923.713957 
L 53.621573 861.823212 
L 32.182364 861.823212 
z
" style="fill:url(#h9fad0fa149);stroke:#000000;stroke-linejoin:miter;stroke-width:2;"/>
   </g>
   <g id="patch_13">
    <path clip-path="url(#p2b131e9a04)" d="M 67.914379 923.713957 
L 89.353589 923.713957 
L 89.353589 923.713957 
L 67.914379 923.713957 
z
" style="fill:url(#h9fad0fa149);stroke:#000000;stroke-linejoin:miter;stroke-width:2;"/>
   </g>
   <g id="patch_14">
    <path clip-path="url(#p2b131e9a04)" d="M 103.646395 923.713957 
L 125.085605 923.713957 
L 125.085605 923.713957 
L 103.646395 923.713957 
z
" style="fill:url(#h9fad0fa149);stroke:#000000;stroke-linejoin:miter;stroke-width:2;"/>
   </g>
   <g id="patch_15">
    <path clip-path="url(#p2b131e9a04)" d="M 139.378411 923.713957 
L 160.817621 923.713957 
L 160.817621 806.986235 
L 139.378411 806.986235 
z
" style="fill:url(#h9fad0fa149);stroke:#000000;stroke-linejoin:miter;stroke-width:2;"/>
   </g>
   <g id="patch_16">
    <path clip-path="url(#p2b131e9a04)" d="M 175.110427 923.713957 
L 196.549636 923.713957 
L 196.549636 844.222628 
L 175.110427 844.222628 
z
" style="fill:url(#h9fad0fa149);stroke:#000000;stroke-linejoin:miter;stroke-width:2;"/>
   </g>
   <g id="matplotlib.axis_5">
    <g id="xtick_8">
     <g id="text_8">
      <!-- RF -->
      <g transform="translate(30.201968 945.910832)scale(0.2 -0.2)">
       <use xlink:href="#DejaVuSans-82"/>
       <use x="69.482422" xlink:href="#DejaVuSans-70"/>
      </g>
     </g>
    </g>
    <g id="xtick_9">
     <g id="text_9">
      <!-- VL -->
      <g transform="translate(66.221484 945.910832)scale(0.2 -0.2)">
       <use xlink:href="#DejaVuSans-86"/>
       <use x="68.408203" xlink:href="#DejaVuSans-76"/>
      </g>
     </g>
    </g>
    <g id="xtick_10">
     <g id="text_10">
      <!-- VM -->
      <g transform="translate(98.89725 945.910832)scale(0.2 -0.2)">
       <use xlink:href="#DejaVuSans-86"/>
       <use x="68.408203" xlink:href="#DejaVuSans-77"/>
      </g>
     </g>
    </g>
    <g id="xtick_11">
     <g id="text_11">
      <!-- ST -->
      <g transform="translate(137.641766 945.910832)scale(0.2 -0.2)">
       <use xlink:href="#DejaVuSans-83"/>
       <use x="63.476562" xlink:href="#DejaVuSans-84"/>
      </g>
     </g>
    </g>
    <g id="xtick_12">
     <g id="text_12">
      <!-- BF -->
      <g transform="translate(173.217532 945.910832)scale(0.2 -0.2)">
       <use xlink:href="#DejaVuSans-66"/>
       <use x="68.603516" xlink:href="#DejaVuSans-70"/>
      </g>
     </g>
    </g>
   </g>
   <g id="matplotlib.axis_6">
    <g id="ytick_13"/>
    <g id="ytick_14"/>
    <g id="ytick_15"/>
    <g id="ytick_16"/>
    <g id="ytick_17"/>
   </g>
   <g id="patch_17">
    <path d="M 23.964 923.713957 
L 204.768 923.713957 
" style="fill:none;stroke:#000000;stroke-linecap:square;stroke-linejoin:miter;stroke-width:0.8;"/>
   </g>
  </g>
  <g id="axes_4">
   <g id="patch_18">
    <path d="M 23.964 1233.27 
L 204.768 1233.27 
L 204.768 993.468128 
L 23.964 993.468128 
z
" style="fill:#ffffff;"/>
   </g>
   <g id="matplotlib.axis_7">
    <g id="xtick_13">
     <g id="text_13">
      <!-- 0 -->
      <g transform="translate(25.819864 1255.466875)scale(0.2 -0.2)">
       <use xlink:href="#DejaVuSans-48"/>
      </g>
     </g>
    </g>
    <g id="xtick_14">
     <g id="text_14">
      <!-- 8 -->
      <g transform="translate(190.228238 1255.466875)scale(0.2 -0.2)">
       <use xlink:href="#DejaVuSans-56"/>
      </g>
     </g>
    </g>
   </g>
   <g id="matplotlib.axis_8">
    <g id="ytick_18"/>
    <g id="ytick_19"/>
    <g id="ytick_20"/>
   </g>
   <g id="line2d_2">
    <path clip-path="url(#p9a161b1b41)" d="M 32.182364 1133.127239 
L 43.115521 1133.020437 
L 43.814256 1132.666736 
L 44.595196 1131.998341 
L 45.45834 1130.950211 
L 46.485892 1129.328983 
L 47.760057 1126.862109 
L 49.527447 1122.896747 
L 52.897819 1115.261956 
L 54.171984 1112.951528 
L 55.158434 1111.577181 
L 55.980476 1110.777366 
L 56.679211 1110.383248 
L 57.295743 1110.277871 
L 57.871172 1110.4021 
L 58.446602 1110.756547 
L 59.063133 1111.408166 
L 59.720766 1112.431991 
L 60.460604 1114.013587 
L 61.282646 1116.336004 
L 62.186892 1119.617557 
L 63.13224 1123.908639 
L 64.653018 1132.170429 
L 66.379306 1142.824775 
L 68.557717 1157.764411 
L 74.270908 1199.342979 
L 74.764133 1203.980971 
L 74.928541 1207.327073 
L 75.010745 1212.002228 
L 75.216256 1233.27 
L 153.926765 1233.27 
L 154.173378 1205.733454 
L 154.502195 1201.678191 
L 155.283134 1195.774515 
L 162.887022 1142.791314 
L 164.736616 1131.902296 
L 166.298495 1123.95621 
L 167.326048 1119.798705 
L 168.271396 1116.846542 
L 169.13454 1114.836534 
L 169.91548 1113.545858 
L 170.614215 1112.78832 
L 171.271849 1112.395078 
L 171.88838 1112.288477 
L 172.504912 1112.416688 
L 173.162545 1112.790823 
L 173.902383 1113.475533 
L 174.806629 1114.642412 
L 175.916385 1116.479167 
L 177.354959 1119.330494 
L 182.328312 1129.582304 
L 183.479171 1131.266816 
L 184.424519 1132.282568 
L 185.246561 1132.856565 
L 185.986398 1133.105907 
L 186.849542 1133.126973 
L 196.549636 1133.127239 
L 196.549636 1133.127239 
" style="fill:none;stroke:#ff0000;stroke-linecap:square;stroke-width:3;"/>
   </g>
   <g id="patch_19">
    <path d="M 23.964 1233.27 
L 204.768 1233.27 
" style="fill:none;stroke:#000000;stroke-linecap:square;stroke-linejoin:miter;stroke-width:0.8;"/>
   </g>
  </g>
 </g>
 <defs>
  <clipPath id="p625fed2465">
   <rect height="239.801872" width="180.804" x="23.964" y="64.8"/>
  </clipPath>
  <clipPath id="p7816cc4a8e">
   <rect height="239.801872" width="180.804" x="23.964" y="374.356043"/>
  </clipPath>
  <clipPath id="p2b131e9a04">
   <rect height="239.801872" width="180.804" x="23.964" y="683.912086"/>
  </clipPath>
  <clipPath id="p9a161b1b41">
   <rect height="239.801872" width="180.804" x="23.964" y="993.468128"/>
  </clipPath>
 </defs>
 <defs>
  <pattern height="72" id="h9fad0fa149" patternUnits="userSpaceOnUse" width="72" x="0" y="0">
   <rect fill="#ff0000" height="73" width="73" x="0" y="0"/>
   <path d="M -36 36 
L 36 -36 
M -30 42 
L 42 -30 
M -24 48 
L 48 -24 
M -18 54 
L 54 -18 
M -12 60 
L 60 -12 
M -6 66 
L 66 -6 
M 0 72 
L 72 0 
M 6 78 
L 78 6 
M 12 84 
L 84 12 
M 18 90 
L 90 18 
M 24 96 
L 96 24 
M 30 102 
L 102 30 
M 36 108 
L 108 36 
" style="fill:#000000;stroke:#000000;stroke-linecap:butt;stroke-linejoin:miter;stroke-width:1.0;"/>
  </pattern>
 </defs>
</svg>
