<?xml version="1.0" encoding="utf-8" standalone="no"?>
<!DOCTYPE svg PUBLIC "-//W3C//DTD SVG 1.1//EN"
  "http://www.w3.org/Graphics/SVG/1.1/DTD/svg11.dtd">
<!-- Created with matplotlib (https://matplotlib.org/) -->
<svg height="576pt" version="1.1" viewBox="0 0 360 576" width="360pt" xmlns="http://www.w3.org/2000/svg" xmlns:xlink="http://www.w3.org/1999/xlink">
 <defs>
  <style type="text/css">
*{stroke-linecap:butt;stroke-linejoin:round;white-space:pre;}
  </style>
 </defs>
 <g id="figure_1">
  <g id="patch_1">
   <path d="M 0 576 
L 360 576 
L 360 0 
L 0 0 
z
" style="fill:#ffffff;"/>
  </g>
  <g id="axes_1">
   <g id="patch_2">
    <path d="M 45 145.588966 
L 324 145.588966 
L 324 69.12 
L 45 69.12 
z
" style="fill:#ffffff;"/>
   </g>
   <g id="matplotlib.axis_1">
    <g id="xtick_1"/>
    <g id="xtick_2"/>
    <g id="xtick_3"/>
   </g>
   <g id="matplotlib.axis_2">
    <g id="ytick_1">
     <g id="text_1">
      <!-- 25 -->
      <defs>
       <path d="M 19.1875 8.296875 
L 53.609375 8.296875 
L 53.609375 0 
L 7.328125 0 
L 7.328125 8.296875 
Q 12.9375 14.109375 22.625 23.890625 
Q 32.328125 33.6875 34.8125 36.53125 
Q 39.546875 41.84375 41.421875 45.53125 
Q 43.3125 49.21875 43.3125 52.78125 
Q 43.3125 58.59375 39.234375 62.25 
Q 35.15625 65.921875 28.609375 65.921875 
Q 23.96875 65.921875 18.8125 64.3125 
Q 13.671875 62.703125 7.8125 59.421875 
L 7.8125 69.390625 
Q 13.765625 71.78125 18.9375 73 
Q 24.125 74.21875 28.421875 74.21875 
Q 39.75 74.21875 46.484375 68.546875 
Q 53.21875 62.890625 53.21875 53.421875 
Q 53.21875 48.921875 51.53125 44.890625 
Q 49.859375 40.875 45.40625 35.40625 
Q 44.1875 33.984375 37.640625 27.21875 
Q 31.109375 20.453125 19.1875 8.296875 
z
" id="DejaVuSans-50"/>
       <path d="M 10.796875 72.90625 
L 49.515625 72.90625 
L 49.515625 64.59375 
L 19.828125 64.59375 
L 19.828125 46.734375 
Q 21.96875 47.46875 24.109375 47.828125 
Q 26.265625 48.1875 28.421875 48.1875 
Q 40.625 48.1875 47.75 41.5 
Q 54.890625 34.8125 54.890625 23.390625 
Q 54.890625 11.625 47.5625 5.09375 
Q 40.234375 -1.421875 26.90625 -1.421875 
Q 22.3125 -1.421875 17.546875 -0.640625 
Q 12.796875 0.140625 7.71875 1.703125 
L 7.71875 11.625 
Q 12.109375 9.234375 16.796875 8.0625 
Q 21.484375 6.890625 26.703125 6.890625 
Q 35.15625 6.890625 40.078125 11.328125 
Q 45.015625 15.765625 45.015625 23.390625 
Q 45.015625 31 40.078125 35.4375 
Q 35.15625 39.890625 26.703125 39.890625 
Q 22.75 39.890625 18.8125 39.015625 
Q 14.890625 38.140625 10.796875 36.28125 
z
" id="DejaVuSans-53"/>
      </defs>
      <g transform="translate(12.55 122.295048)scale(0.2 -0.2)">
       <use xlink:href="#DejaVuSans-50"/>
       <use x="63.623047" xlink:href="#DejaVuSans-53"/>
      </g>
     </g>
    </g>
    <g id="ytick_2">
     <g id="text_2">
      <!-- 50 -->
      <defs>
       <path d="M 31.78125 66.40625 
Q 24.171875 66.40625 20.328125 58.90625 
Q 16.5 51.421875 16.5 36.375 
Q 16.5 21.390625 20.328125 13.890625 
Q 24.171875 6.390625 31.78125 6.390625 
Q 39.453125 6.390625 43.28125 13.890625 
Q 47.125 21.390625 47.125 36.375 
Q 47.125 51.421875 43.28125 58.90625 
Q 39.453125 66.40625 31.78125 66.40625 
z
M 31.78125 74.21875 
Q 44.046875 74.21875 50.515625 64.515625 
Q 56.984375 54.828125 56.984375 36.375 
Q 56.984375 17.96875 50.515625 8.265625 
Q 44.046875 -1.421875 31.78125 -1.421875 
Q 19.53125 -1.421875 13.0625 8.265625 
Q 6.59375 17.96875 6.59375 36.375 
Q 6.59375 54.828125 13.0625 64.515625 
Q 19.53125 74.21875 31.78125 74.21875 
z
" id="DejaVuSans-48"/>
      </defs>
      <g transform="translate(12.55 81.334876)scale(0.2 -0.2)">
       <use xlink:href="#DejaVuSans-53"/>
       <use x="63.623047" xlink:href="#DejaVuSans-48"/>
      </g>
     </g>
    </g>
   </g>
   <g id="line2d_1">
    <path clip-path="url(#p72c81fbf88)" d="M 57.681818 142.112957 
L 75.504228 142.00327 
L 77.280127 141.682877 
L 79.056025 141.138023 
L 80.831924 140.35927 
L 82.607822 139.340931 
L 84.447146 138.031001 
L 86.349894 136.402804 
L 88.379493 134.363035 
L 90.472516 131.93786 
L 92.692389 129.017788 
L 95.039112 125.553537 
L 97.512685 121.497441 
L 100.113108 116.80372 
L 102.903805 111.298264 
L 106.075053 104.518133 
L 108.865751 98.784448 
L 111.466173 93.936773 
L 113.876321 89.89571 
L 116.223044 86.38844 
L 118.442918 83.459425 
L 120.599366 80.971494 
L 122.692389 78.886594 
L 124.721987 77.167129 
L 126.751586 75.736538 
L 128.717759 74.617521 
L 130.683932 73.752603 
L 132.650106 73.133388 
L 134.616279 72.75166 
L 136.582452 72.59946 
L 142.734672 72.596216 
L 234.003171 72.702668 
L 235.969345 73.036732 
L 237.872093 73.583728 
L 239.774841 74.358086 
L 241.741015 75.404965 
L 243.707188 76.710718 
L 245.673362 78.283438 
L 247.70296 80.195113 
L 249.795983 82.481284 
L 251.952431 85.178349 
L 254.172304 88.322314 
L 256.455603 91.94681 
L 258.865751 96.197526 
L 261.402748 101.126716 
L 264.256871 107.17942 
L 267.237844 113.375158 
L 270.091966 118.805009 
L 272.755814 123.407821 
L 275.292812 127.354939 
L 277.639535 130.611461 
L 279.859408 133.33076 
L 282.015856 135.626534 
L 284.045455 137.469336 
L 286.011628 138.956813 
L 287.914376 140.116511 
L 289.7537 140.978161 
L 291.593023 141.590404 
L 293.432347 141.962775 
L 295.27167 142.109291 
L 301.106765 142.112957 
L 311.318182 142.112957 
L 311.318182 142.112957 
" style="fill:none;stroke:#000000;stroke-linecap:square;stroke-width:4;"/>
   </g>
   <g id="patch_3">
    <path d="M 45 145.588966 
L 45 69.12 
" style="fill:none;stroke:#000000;stroke-linecap:square;stroke-linejoin:miter;stroke-width:0.8;"/>
   </g>
   <g id="patch_4">
    <path d="M 45 145.588966 
L 324 145.588966 
" style="fill:none;stroke:#000000;stroke-linecap:square;stroke-linejoin:miter;stroke-width:0.8;"/>
   </g>
  </g>
  <g id="axes_2">
   <g id="patch_5">
    <path d="M 45 237.351724 
L 324 237.351724 
L 324 160.882759 
L 45 160.882759 
z
" style="fill:#ffffff;"/>
   </g>
   <g id="matplotlib.axis_3">
    <g id="xtick_4"/>
    <g id="xtick_5"/>
    <g id="xtick_6"/>
   </g>
   <g id="matplotlib.axis_4">
    <g id="ytick_3">
     <g id="text_3">
      <!-- 5 -->
      <g transform="translate(25.275 226.462124)scale(0.2 -0.2)">
       <use xlink:href="#DejaVuSans-53"/>
      </g>
     </g>
    </g>
    <g id="ytick_4">
     <g id="text_4">
      <!-- 10 -->
      <defs>
       <path d="M 12.40625 8.296875 
L 28.515625 8.296875 
L 28.515625 63.921875 
L 10.984375 60.40625 
L 10.984375 69.390625 
L 28.421875 72.90625 
L 38.28125 72.90625 
L 38.28125 8.296875 
L 54.390625 8.296875 
L 54.390625 0 
L 12.40625 0 
z
" id="DejaVuSans-49"/>
      </defs>
      <g transform="translate(12.55 201.268716)scale(0.2 -0.2)">
       <use xlink:href="#DejaVuSans-49"/>
       <use x="63.623047" xlink:href="#DejaVuSans-48"/>
      </g>
     </g>
    </g>
    <g id="ytick_5">
     <g id="text_5">
      <!-- 15 -->
      <g transform="translate(12.55 176.075308)scale(0.2 -0.2)">
       <use xlink:href="#DejaVuSans-49"/>
       <use x="63.623047" xlink:href="#DejaVuSans-53"/>
      </g>
     </g>
    </g>
   </g>
   <g id="line2d_2">
    <path clip-path="url(#p4c13d17046)" d="M 57.681818 233.875849 
L 76.075053 233.764762 
L 78.294926 233.445254 
L 80.451374 232.909558 
L 82.544397 232.15446 
L 84.573996 231.180783 
L 86.540169 229.993122 
L 88.506342 228.548744 
L 90.472516 226.832607 
L 92.502114 224.761261 
L 94.531712 222.371376 
L 96.624736 219.559721 
L 98.781184 216.281288 
L 101.001057 212.489545 
L 103.284355 208.13676 
L 105.694503 203.041502 
L 109.309725 195.420759 
L 112.544397 189.109709 
L 115.461945 183.89806 
L 118.125793 179.587564 
L 120.599366 176.00433 
L 122.882664 173.081703 
L 125.039112 170.680681 
L 127.06871 168.754609 
L 128.971459 167.253903 
L 130.747357 166.127619 
L 132.459831 165.298626 
L 134.108879 164.743675 
L 135.694503 164.438947 
L 137.280127 164.358942 
L 234.320296 164.569752 
L 235.90592 164.990668 
L 237.554968 165.663408 
L 239.267442 166.611173 
L 241.04334 167.856517 
L 242.882664 169.420976 
L 244.848837 171.392981 
L 246.94186 173.819938 
L 249.161734 176.746678 
L 251.508457 180.213792 
L 254.045455 184.364382 
L 256.836152 189.372356 
L 259.88055 195.308067 
L 263.305497 202.494503 
L 266.540169 209.256273 
L 268.886892 213.593551 
L 271.17019 217.353935 
L 273.390063 220.58723 
L 275.546512 223.342034 
L 277.639535 225.665387 
L 279.732558 227.658116 
L 281.762156 229.289745 
L 283.791755 230.641212 
L 285.821353 231.729423 
L 287.850951 232.572296 
L 289.943975 233.204406 
L 292.100423 233.62615 
L 294.383721 233.845028 
L 297.364693 233.875849 
L 311.318182 233.875849 
L 311.318182 233.875849 
" style="fill:none;stroke:#000000;stroke-linecap:square;stroke-width:4;"/>
   </g>
   <g id="patch_6">
    <path d="M 45 237.351724 
L 45 160.882759 
" style="fill:none;stroke:#000000;stroke-linecap:square;stroke-linejoin:miter;stroke-width:0.8;"/>
   </g>
   <g id="patch_7">
    <path d="M 45 237.351724 
L 324 237.351724 
" style="fill:none;stroke:#000000;stroke-linecap:square;stroke-linejoin:miter;stroke-width:0.8;"/>
   </g>
  </g>
  <g id="axes_3">
   <g id="patch_8">
    <path d="M 45 329.114483 
L 324 329.114483 
L 324 252.645517 
L 45 252.645517 
z
" style="fill:#ffffff;"/>
   </g>
   <g id="matplotlib.axis_5">
    <g id="xtick_7"/>
    <g id="xtick_8"/>
    <g id="xtick_9"/>
   </g>
   <g id="matplotlib.axis_6">
    <g id="ytick_6">
     <g id="text_6">
      <!-- 5 -->
      <g transform="translate(25.275 318.224882)scale(0.2 -0.2)">
       <use xlink:href="#DejaVuSans-53"/>
      </g>
     </g>
    </g>
    <g id="ytick_7">
     <g id="text_7">
      <!-- 10 -->
      <g transform="translate(12.55 293.031475)scale(0.2 -0.2)">
       <use xlink:href="#DejaVuSans-49"/>
       <use x="63.623047" xlink:href="#DejaVuSans-48"/>
      </g>
     </g>
    </g>
    <g id="ytick_8">
     <g id="text_8">
      <!-- 15 -->
      <g transform="translate(12.55 267.838067)scale(0.2 -0.2)">
       <use xlink:href="#DejaVuSans-49"/>
       <use x="63.623047" xlink:href="#DejaVuSans-53"/>
      </g>
     </g>
    </g>
   </g>
   <g id="line2d_3">
    <path clip-path="url(#pdfbdf897e4)" d="M 57.681818 325.638608 
L 76.075053 325.527521 
L 78.294926 325.208013 
L 80.451374 324.672317 
L 82.544397 323.917219 
L 84.573996 322.943541 
L 86.540169 321.755881 
L 88.506342 320.311503 
L 90.472516 318.595366 
L 92.502114 316.52402 
L 94.531712 314.134135 
L 96.624736 311.32248 
L 98.781184 308.044047 
L 101.001057 304.252304 
L 103.284355 299.899518 
L 105.694503 294.80426 
L 109.309725 287.183518 
L 112.544397 280.872467 
L 115.461945 275.660818 
L 118.125793 271.350323 
L 120.599366 267.767088 
L 122.882664 264.844461 
L 125.039112 262.44344 
L 127.06871 260.517367 
L 128.971459 259.016662 
L 130.747357 257.890378 
L 132.459831 257.061384 
L 134.108879 256.506434 
L 135.694503 256.201706 
L 137.280127 256.1217 
L 234.320296 256.332511 
L 235.90592 256.753426 
L 237.554968 257.426167 
L 239.267442 258.373932 
L 241.04334 259.619276 
L 242.882664 261.183734 
L 244.848837 263.15574 
L 246.94186 265.582697 
L 249.161734 268.509437 
L 251.508457 271.97655 
L 254.045455 276.127141 
L 256.836152 281.135115 
L 259.88055 287.070826 
L 263.305497 294.257262 
L 266.540169 301.019032 
L 268.886892 305.35631 
L 271.17019 309.116694 
L 273.390063 312.349989 
L 275.546512 315.104793 
L 277.639535 317.428146 
L 279.732558 319.420874 
L 281.762156 321.052504 
L 283.791755 322.40397 
L 285.821353 323.492182 
L 287.850951 324.335054 
L 289.943975 324.967165 
L 292.100423 325.388908 
L 294.383721 325.607787 
L 297.364693 325.638608 
L 311.318182 325.638608 
L 311.318182 325.638608 
" style="fill:none;stroke:#000000;stroke-linecap:square;stroke-width:4;"/>
   </g>
   <g id="patch_9">
    <path d="M 45 329.114483 
L 45 252.645517 
" style="fill:none;stroke:#000000;stroke-linecap:square;stroke-linejoin:miter;stroke-width:0.8;"/>
   </g>
   <g id="patch_10">
    <path d="M 45 329.114483 
L 324 329.114483 
" style="fill:none;stroke:#000000;stroke-linecap:square;stroke-linejoin:miter;stroke-width:0.8;"/>
   </g>
  </g>
  <g id="axes_4">
   <g id="patch_11">
    <path d="M 45 420.877241 
L 324 420.877241 
L 324 344.408276 
L 45 344.408276 
z
" style="fill:#ffffff;"/>
   </g>
   <g id="matplotlib.axis_7">
    <g id="xtick_10"/>
    <g id="xtick_11"/>
    <g id="xtick_12"/>
   </g>
   <g id="matplotlib.axis_8">
    <g id="ytick_9">
     <g id="text_9">
      <!-- 25 -->
      <g transform="translate(12.55 405.421966)scale(0.2 -0.2)">
       <use xlink:href="#DejaVuSans-50"/>
       <use x="63.623047" xlink:href="#DejaVuSans-53"/>
      </g>
     </g>
    </g>
    <g id="ytick_10">
     <g id="text_10">
      <!-- 50 -->
      <g transform="translate(12.55 353.365471)scale(0.2 -0.2)">
       <use xlink:href="#DejaVuSans-53"/>
       <use x="63.623047" xlink:href="#DejaVuSans-48"/>
      </g>
     </g>
    </g>
   </g>
   <g id="line2d_4">
    <path clip-path="url(#p45528f729e)" d="M 57.681818 417.401044 
L 75.313953 417.293448 
L 77.026427 416.965682 
L 78.738901 416.415234 
L 80.514799 415.607948 
L 82.354123 414.51835 
L 84.256871 413.121691 
L 86.223044 411.394127 
L 88.252643 409.312849 
L 90.409091 406.776872 
L 92.692389 403.736421 
L 95.102537 400.142185 
L 97.639535 395.945725 
L 100.303383 391.099795 
L 103.09408 385.558561 
L 110.514799 370.433499 
L 112.988372 366.213469 
L 115.335095 362.640022 
L 117.618393 359.56022 
L 119.838266 356.934506 
L 121.994715 354.723904 
L 124.087738 352.890795 
L 126.117336 351.399377 
L 128.146934 350.181923 
L 130.113108 349.256438 
L 132.079281 348.573743 
L 134.045455 348.126918 
L 136.011628 347.909198 
L 138.612051 347.884525 
L 233.812896 347.969227 
L 235.77907 348.27729 
L 237.745243 348.816524 
L 239.711416 349.593656 
L 241.67759 350.615534 
L 243.643763 351.889077 
L 245.673362 353.474994 
L 247.70296 355.343887 
L 249.795983 357.575136 
L 251.952431 360.204406 
L 254.172304 363.268555 
L 256.455603 366.804914 
L 258.802326 370.850154 
L 261.275899 375.565308 
L 263.876321 381.015889 
L 266.857294 387.282339 
L 269.711416 392.788516 
L 272.438689 397.580146 
L 275.039112 401.704223 
L 277.44926 405.124762 
L 279.732558 407.997093 
L 281.952431 410.436381 
L 284.045455 412.409534 
L 286.011628 413.968563 
L 287.914376 415.201719 
L 289.7537 416.133801 
L 291.529598 416.790487 
L 293.305497 417.208977 
L 295.01797 417.389306 
L 298.062368 417.401045 
L 311.318182 417.401044 
L 311.318182 417.401044 
" style="fill:none;stroke:#000000;stroke-linecap:square;stroke-width:4;"/>
   </g>
   <g id="patch_12">
    <path d="M 45 420.877241 
L 45 344.408276 
" style="fill:none;stroke:#000000;stroke-linecap:square;stroke-linejoin:miter;stroke-width:0.8;"/>
   </g>
   <g id="patch_13">
    <path d="M 45 420.877241 
L 324 420.877241 
" style="fill:none;stroke:#000000;stroke-linecap:square;stroke-linejoin:miter;stroke-width:0.8;"/>
   </g>
  </g>
  <g id="axes_5">
   <g id="patch_14">
    <path d="M 45 512.64 
L 324 512.64 
L 324 436.171034 
L 45 436.171034 
z
" style="fill:#ffffff;"/>
   </g>
   <g id="matplotlib.axis_9">
    <g id="xtick_13">
     <g id="line2d_5">
      <defs>
       <path d="M 0 0 
L 0 3.5 
" id="mdf5bde33a3" style="stroke:#000000;stroke-width:0.8;"/>
      </defs>
      <g>
       <use style="stroke:#000000;stroke-width:0.8;" x="57.681818" xlink:href="#mdf5bde33a3" y="512.64"/>
      </g>
     </g>
     <g id="text_11">
      <!-- 0 -->
      <g transform="translate(51.319318 534.836875)scale(0.2 -0.2)">
       <use xlink:href="#DejaVuSans-48"/>
      </g>
     </g>
    </g>
    <g id="xtick_14">
     <g id="line2d_6">
      <g>
       <use style="stroke:#000000;stroke-width:0.8;" x="184.531712" xlink:href="#mdf5bde33a3" y="512.64"/>
      </g>
     </g>
     <g id="text_12">
      <!-- 2000 -->
      <g transform="translate(159.081712 534.836875)scale(0.2 -0.2)">
       <use xlink:href="#DejaVuSans-50"/>
       <use x="63.623047" xlink:href="#DejaVuSans-48"/>
       <use x="127.246094" xlink:href="#DejaVuSans-48"/>
       <use x="190.869141" xlink:href="#DejaVuSans-48"/>
      </g>
     </g>
    </g>
    <g id="xtick_15">
     <g id="line2d_7">
      <g>
       <use style="stroke:#000000;stroke-width:0.8;" x="311.381607" xlink:href="#mdf5bde33a3" y="512.64"/>
      </g>
     </g>
     <g id="text_13">
      <!-- 4000 -->
      <defs>
       <path d="M 37.796875 64.3125 
L 12.890625 25.390625 
L 37.796875 25.390625 
z
M 35.203125 72.90625 
L 47.609375 72.90625 
L 47.609375 25.390625 
L 58.015625 25.390625 
L 58.015625 17.1875 
L 47.609375 17.1875 
L 47.609375 0 
L 37.796875 0 
L 37.796875 17.1875 
L 4.890625 17.1875 
L 4.890625 26.703125 
z
" id="DejaVuSans-52"/>
      </defs>
      <g transform="translate(285.931607 534.836875)scale(0.2 -0.2)">
       <use xlink:href="#DejaVuSans-52"/>
       <use x="63.623047" xlink:href="#DejaVuSans-48"/>
       <use x="127.246094" xlink:href="#DejaVuSans-48"/>
       <use x="190.869141" xlink:href="#DejaVuSans-48"/>
      </g>
     </g>
    </g>
   </g>
   <g id="matplotlib.axis_10">
    <g id="ytick_11">
     <g id="text_14">
      <!-- 10 -->
      <g transform="translate(12.55 495.801465)scale(0.2 -0.2)">
       <use xlink:href="#DejaVuSans-49"/>
       <use x="63.623047" xlink:href="#DejaVuSans-48"/>
      </g>
     </g>
    </g>
    <g id="ytick_12">
     <g id="text_15">
      <!-- 20 -->
      <g transform="translate(12.55 449.349319)scale(0.2 -0.2)">
       <use xlink:href="#DejaVuSans-50"/>
       <use x="63.623047" xlink:href="#DejaVuSans-48"/>
      </g>
     </g>
    </g>
   </g>
   <g id="line2d_8">
    <path clip-path="url(#p8d19dafb77)" d="M 57.681818 509.164075 
L 75.694503 509.058497 
L 77.724101 508.736054 
L 79.690275 508.203553 
L 81.656448 507.442246 
L 83.622622 506.440859 
L 85.588795 505.188926 
L 87.554968 503.676816 
L 89.584567 501.83373 
L 91.67759 499.623709 
L 93.834038 497.009382 
L 96.053911 493.952159 
L 98.337209 490.41244 
L 100.683932 486.349828 
L 103.09408 481.723355 
L 105.631078 476.357303 
L 108.802326 469.706771 
L 111.783298 463.958762 
L 114.510571 459.164028 
L 117.110994 455.033066 
L 119.521142 451.608808 
L 121.80444 448.738752 
L 123.960888 446.373411 
L 125.990486 444.461789 
L 127.95666 442.907057 
L 129.859408 441.685748 
L 131.635307 440.800733 
L 133.411205 440.164538 
L 135.123679 439.788774 
L 136.772727 439.64901 
L 143.812896 439.647332 
L 233.749471 439.750844 
L 235.39852 440.071959 
L 237.110994 440.633865 
L 238.886892 441.460427 
L 240.662791 442.532746 
L 242.565539 443.950925 
L 244.531712 445.70447 
L 246.561311 447.815861 
L 248.717759 450.386756 
L 251.001057 453.466208 
L 253.411205 457.101451 
L 255.948203 461.336454 
L 258.675476 466.331421 
L 261.593023 472.148769 
L 268.696617 486.647243 
L 271.106765 490.772963 
L 273.453488 494.356619 
L 275.736786 497.440057 
L 277.95666 500.064379 
L 280.113108 502.269702 
L 282.206131 504.094934 
L 284.235729 505.57756 
L 286.265328 506.787229 
L 288.294926 507.734711 
L 290.324524 508.431693 
L 292.354123 508.890736 
L 294.383721 509.125214 
L 296.793869 509.164074 
L 311.318182 509.164075 
L 311.318182 509.164075 
" style="fill:none;stroke:#000000;stroke-linecap:square;stroke-width:4;"/>
   </g>
   <g id="patch_15">
    <path d="M 45 512.64 
L 45 436.171034 
" style="fill:none;stroke:#000000;stroke-linecap:square;stroke-linejoin:miter;stroke-width:0.8;"/>
   </g>
   <g id="patch_16">
    <path d="M 45 512.64 
L 324 512.64 
" style="fill:none;stroke:#000000;stroke-linecap:square;stroke-linejoin:miter;stroke-width:0.8;"/>
   </g>
  </g>
 </g>
 <defs>
  <clipPath id="p72c81fbf88">
   <rect height="76.468966" width="279" x="45" y="69.12"/>
  </clipPath>
  <clipPath id="p4c13d17046">
   <rect height="76.468966" width="279" x="45" y="160.882759"/>
  </clipPath>
  <clipPath id="pdfbdf897e4">
   <rect height="76.468966" width="279" x="45" y="252.645517"/>
  </clipPath>
  <clipPath id="p45528f729e">
   <rect height="76.468966" width="279" x="45" y="344.408276"/>
  </clipPath>
  <clipPath id="p8d19dafb77">
   <rect height="76.468966" width="279" x="45" y="436.171034"/>
  </clipPath>
 </defs>
</svg>
