<?xml version="1.0" encoding="utf-8" standalone="no"?>
<!DOCTYPE svg PUBLIC "-//W3C//DTD SVG 1.1//EN"
  "http://www.w3.org/Graphics/SVG/1.1/DTD/svg11.dtd">
<!-- Created with matplotlib (https://matplotlib.org/) -->
<svg height="576pt" version="1.1" viewBox="0 0 360 576" width="360pt" xmlns="http://www.w3.org/2000/svg" xmlns:xlink="http://www.w3.org/1999/xlink">
 <defs>
  <style type="text/css">
*{stroke-linecap:butt;stroke-linejoin:round;white-space:pre;}
  </style>
 </defs>
 <g id="figure_1">
  <g id="patch_1">
   <path d="M 0 576 
L 360 576 
L 360 0 
L 0 0 
z
" style="fill:#ffffff;"/>
  </g>
  <g id="axes_1">
   <g id="patch_2">
    <path d="M 45 145.588966 
L 324 145.588966 
L 324 69.12 
L 45 69.12 
z
" style="fill:#ffffff;"/>
   </g>
   <g id="matplotlib.axis_1">
    <g id="xtick_1"/>
    <g id="xtick_2"/>
    <g id="xtick_3"/>
   </g>
   <g id="matplotlib.axis_2">
    <g id="ytick_1">
     <g id="text_1">
      <!-- 25 -->
      <defs>
       <path d="M 19.1875 8.296875 
L 53.609375 8.296875 
L 53.609375 0 
L 7.328125 0 
L 7.328125 8.296875 
Q 12.9375 14.109375 22.625 23.890625 
Q 32.328125 33.6875 34.8125 36.53125 
Q 39.546875 41.84375 41.421875 45.53125 
Q 43.3125 49.21875 43.3125 52.78125 
Q 43.3125 58.59375 39.234375 62.25 
Q 35.15625 65.921875 28.609375 65.921875 
Q 23.96875 65.921875 18.8125 64.3125 
Q 13.671875 62.703125 7.8125 59.421875 
L 7.8125 69.390625 
Q 13.765625 71.78125 18.9375 73 
Q 24.125 74.21875 28.421875 74.21875 
Q 39.75 74.21875 46.484375 68.546875 
Q 53.21875 62.890625 53.21875 53.421875 
Q 53.21875 48.921875 51.53125 44.890625 
Q 49.859375 40.875 45.40625 35.40625 
Q 44.1875 33.984375 37.640625 27.21875 
Q 31.109375 20.453125 19.1875 8.296875 
z
" id="DejaVuSans-50"/>
       <path d="M 10.796875 72.90625 
L 49.515625 72.90625 
L 49.515625 64.59375 
L 19.828125 64.59375 
L 19.828125 46.734375 
Q 21.96875 47.46875 24.109375 47.828125 
Q 26.265625 48.1875 28.421875 48.1875 
Q 40.625 48.1875 47.75 41.5 
Q 54.890625 34.8125 54.890625 23.390625 
Q 54.890625 11.625 47.5625 5.09375 
Q 40.234375 -1.421875 26.90625 -1.421875 
Q 22.3125 -1.421875 17.546875 -0.640625 
Q 12.796875 0.140625 7.71875 1.703125 
L 7.71875 11.625 
Q 12.109375 9.234375 16.796875 8.0625 
Q 21.484375 6.890625 26.703125 6.890625 
Q 35.15625 6.890625 40.078125 11.328125 
Q 45.015625 15.765625 45.015625 23.390625 
Q 45.015625 31 40.078125 35.4375 
Q 35.15625 39.890625 26.703125 39.890625 
Q 22.75 39.890625 18.8125 39.015625 
Q 14.890625 38.140625 10.796875 36.28125 
z
" id="DejaVuSans-53"/>
      </defs>
      <g transform="translate(12.55 121.680149)scale(0.2 -0.2)">
       <use xlink:href="#DejaVuSans-50"/>
       <use x="63.623047" xlink:href="#DejaVuSans-53"/>
      </g>
     </g>
    </g>
    <g id="ytick_2">
     <g id="text_2">
      <!-- 50 -->
      <defs>
       <path d="M 31.78125 66.40625 
Q 24.171875 66.40625 20.328125 58.90625 
Q 16.5 51.421875 16.5 36.375 
Q 16.5 21.390625 20.328125 13.890625 
Q 24.171875 6.390625 31.78125 6.390625 
Q 39.453125 6.390625 43.28125 13.890625 
Q 47.125 21.390625 47.125 36.375 
Q 47.125 51.421875 43.28125 58.90625 
Q 39.453125 66.40625 31.78125 66.40625 
z
M 31.78125 74.21875 
Q 44.046875 74.21875 50.515625 64.515625 
Q 56.984375 54.828125 56.984375 36.375 
Q 56.984375 17.96875 50.515625 8.265625 
Q 44.046875 -1.421875 31.78125 -1.421875 
Q 19.53125 -1.421875 13.0625 8.265625 
Q 6.59375 17.96875 6.59375 36.375 
Q 6.59375 54.828125 13.0625 64.515625 
Q 19.53125 74.21875 31.78125 74.21875 
z
" id="DejaVuSans-48"/>
      </defs>
      <g transform="translate(12.55 80.798993)scale(0.2 -0.2)">
       <use xlink:href="#DejaVuSans-53"/>
       <use x="63.623047" xlink:href="#DejaVuSans-48"/>
      </g>
     </g>
    </g>
   </g>
   <g id="line2d_1">
    <path clip-path="url(#pca3833ef2f)" d="M 57.681818 142.112972 
L 75.504228 142.005789 
L 77.343552 141.676064 
L 79.11945 141.13152 
L 80.895349 140.354461 
L 82.734672 139.297847 
L 84.573996 137.981797 
L 86.476744 136.347157 
L 88.506342 134.300084 
L 90.599366 131.866672 
L 92.819239 128.936911 
L 95.165962 125.461248 
L 97.639535 121.391785 
L 100.239958 116.682559 
L 103.030655 111.15889 
L 106.392178 103.96244 
L 109.182875 98.280518 
L 111.783298 93.480192 
L 114.193446 89.482585 
L 116.540169 86.017448 
L 118.760042 83.128253 
L 120.91649 80.679041 
L 123.009514 78.631788 
L 125.039112 76.9489 
L 127.06871 75.554956 
L 129.034884 74.471494 
L 131.001057 73.642172 
L 132.96723 73.058577 
L 134.933404 72.712474 
L 136.899577 72.595889 
L 233.622622 72.664815 
L 235.588795 72.95577 
L 237.491543 73.460805 
L 239.394292 74.192972 
L 241.29704 75.159673 
L 243.263214 76.412906 
L 245.229387 77.932647 
L 247.258985 79.78919 
L 249.352008 82.018095 
L 251.445032 84.573235 
L 253.664905 87.645184 
L 255.948203 91.195575 
L 258.358351 95.368526 
L 260.895349 100.217075 
L 263.622622 105.914701 
L 267.047569 113.111098 
L 269.901691 118.570302 
L 272.565539 123.199475 
L 275.102537 127.170728 
L 277.512685 130.531921 
L 279.732558 133.260632 
L 281.889006 135.56475 
L 283.918605 137.414897 
L 285.884778 138.909296 
L 287.787526 140.075864 
L 289.62685 140.944728 
L 291.466173 141.565241 
L 293.305497 141.947504 
L 295.14482 142.106157 
L 299.521142 142.112972 
L 311.318182 142.112972 
L 311.318182 142.112972 
" style="fill:none;stroke:#000000;stroke-linecap:square;stroke-width:4;"/>
   </g>
   <g id="patch_3">
    <path d="M 45 145.588966 
L 45 69.12 
" style="fill:none;stroke:#000000;stroke-linecap:square;stroke-linejoin:miter;stroke-width:0.8;"/>
   </g>
   <g id="patch_4">
    <path d="M 45 145.588966 
L 324 145.588966 
" style="fill:none;stroke:#000000;stroke-linecap:square;stroke-linejoin:miter;stroke-width:0.8;"/>
   </g>
  </g>
  <g id="axes_2">
   <g id="patch_5">
    <path d="M 45 237.351724 
L 324 237.351724 
L 324 160.882759 
L 45 160.882759 
z
" style="fill:#ffffff;"/>
   </g>
   <g id="matplotlib.axis_3">
    <g id="xtick_4"/>
    <g id="xtick_5"/>
    <g id="xtick_6"/>
   </g>
   <g id="matplotlib.axis_4">
    <g id="ytick_3">
     <g id="text_3">
      <!-- 5 -->
      <g transform="translate(25.275 225.642871)scale(0.2 -0.2)">
       <use xlink:href="#DejaVuSans-53"/>
      </g>
     </g>
    </g>
    <g id="ytick_4">
     <g id="text_4">
      <!-- 10 -->
      <defs>
       <path d="M 12.40625 8.296875 
L 28.515625 8.296875 
L 28.515625 63.921875 
L 10.984375 60.40625 
L 10.984375 69.390625 
L 28.421875 72.90625 
L 38.28125 72.90625 
L 38.28125 8.296875 
L 54.390625 8.296875 
L 54.390625 0 
L 12.40625 0 
z
" id="DejaVuSans-49"/>
      </defs>
      <g transform="translate(12.55 200.171295)scale(0.2 -0.2)">
       <use xlink:href="#DejaVuSans-49"/>
       <use x="63.623047" xlink:href="#DejaVuSans-48"/>
      </g>
     </g>
    </g>
    <g id="ytick_5">
     <g id="text_5">
      <!-- 15 -->
      <g transform="translate(12.55 174.699719)scale(0.2 -0.2)">
       <use xlink:href="#DejaVuSans-49"/>
       <use x="63.623047" xlink:href="#DejaVuSans-53"/>
      </g>
     </g>
    </g>
   </g>
   <g id="line2d_2">
    <path clip-path="url(#p723528ee60)" d="M 57.681818 233.87585 
L 76.075053 233.767572 
L 78.358351 233.442948 
L 80.514799 232.910948 
L 82.607822 232.161615 
L 84.637421 231.19503 
L 86.603594 230.015123 
L 88.569767 228.578834 
L 90.535941 226.87059 
L 92.565539 224.806622 
L 94.595137 222.422769 
L 96.688161 219.61534 
L 98.844609 216.338546 
L 101.064482 212.545005 
L 103.34778 208.186077 
L 105.757928 203.082154 
L 109.436575 195.33494 
L 112.671247 189.028832 
L 115.588795 183.818781 
L 118.252643 179.508708 
L 120.726216 175.926086 
L 123.009514 173.005093 
L 125.102537 170.672625 
L 127.06871 168.796528 
L 128.971459 167.282676 
L 130.747357 166.145903 
L 132.459831 165.308759 
L 134.108879 164.748059 
L 135.694503 164.439974 
L 137.280127 164.358932 
L 234.320296 164.571689 
L 235.90592 164.99667 
L 237.554968 165.675767 
L 239.267442 166.632172 
L 241.04334 167.888354 
L 242.882664 169.465684 
L 244.848837 171.452837 
L 246.94186 173.896914 
L 249.161734 176.842213 
L 251.508457 180.328522 
L 254.045455 184.498305 
L 256.836152 189.524179 
L 259.88055 195.473964 
L 263.305497 202.667523 
L 266.540169 209.426448 
L 268.886892 213.756022 
L 271.17019 217.505044 
L 273.390063 220.724307 
L 275.546512 223.463329 
L 277.639535 225.769985 
L 279.732558 227.745314 
L 281.762156 229.360032 
L 283.791755 230.695168 
L 285.821353 231.768237 
L 287.914376 232.619949 
L 290.0074 233.233834 
L 292.227273 233.649425 
L 294.510571 233.851451 
L 297.745243 233.87585 
L 311.318182 233.87585 
L 311.318182 233.87585 
" style="fill:none;stroke:#000000;stroke-linecap:square;stroke-width:4;"/>
   </g>
   <g id="patch_6">
    <path d="M 45 237.351724 
L 45 160.882759 
" style="fill:none;stroke:#000000;stroke-linecap:square;stroke-linejoin:miter;stroke-width:0.8;"/>
   </g>
   <g id="patch_7">
    <path d="M 45 237.351724 
L 324 237.351724 
" style="fill:none;stroke:#000000;stroke-linecap:square;stroke-linejoin:miter;stroke-width:0.8;"/>
   </g>
  </g>
  <g id="axes_3">
   <g id="patch_8">
    <path d="M 45 329.114483 
L 324 329.114483 
L 324 252.645517 
L 45 252.645517 
z
" style="fill:#ffffff;"/>
   </g>
   <g id="matplotlib.axis_5">
    <g id="xtick_7"/>
    <g id="xtick_8"/>
    <g id="xtick_9"/>
   </g>
   <g id="matplotlib.axis_6">
    <g id="ytick_6">
     <g id="text_6">
      <!-- 5 -->
      <g transform="translate(25.275 317.405629)scale(0.2 -0.2)">
       <use xlink:href="#DejaVuSans-53"/>
      </g>
     </g>
    </g>
    <g id="ytick_7">
     <g id="text_7">
      <!-- 10 -->
      <g transform="translate(12.55 291.934053)scale(0.2 -0.2)">
       <use xlink:href="#DejaVuSans-49"/>
       <use x="63.623047" xlink:href="#DejaVuSans-48"/>
      </g>
     </g>
    </g>
    <g id="ytick_8">
     <g id="text_8">
      <!-- 15 -->
      <g transform="translate(12.55 266.462477)scale(0.2 -0.2)">
       <use xlink:href="#DejaVuSans-49"/>
       <use x="63.623047" xlink:href="#DejaVuSans-53"/>
      </g>
     </g>
    </g>
   </g>
   <g id="line2d_3">
    <path clip-path="url(#p24f754cf5d)" d="M 57.681818 325.638609 
L 76.075053 325.530331 
L 78.358351 325.205706 
L 80.514799 324.673707 
L 82.607822 323.924373 
L 84.637421 322.957789 
L 86.603594 321.777881 
L 88.569767 320.341592 
L 90.535941 318.633349 
L 92.565539 316.569381 
L 94.595137 314.185527 
L 96.688161 311.378098 
L 98.844609 308.101304 
L 101.064482 304.307764 
L 103.34778 299.948836 
L 105.757928 294.844913 
L 109.436575 287.097698 
L 112.671247 280.791591 
L 115.588795 275.58154 
L 118.252643 271.271467 
L 120.726216 267.688844 
L 123.009514 264.767852 
L 125.102537 262.435384 
L 127.06871 260.559286 
L 128.971459 259.045434 
L 130.747357 257.908661 
L 132.459831 257.071517 
L 134.108879 256.510818 
L 135.694503 256.202733 
L 137.280127 256.12169 
L 234.320296 256.334448 
L 235.90592 256.759429 
L 237.554968 257.438526 
L 239.267442 258.39493 
L 241.04334 259.651113 
L 242.882664 261.228443 
L 244.848837 263.215596 
L 246.94186 265.659673 
L 249.161734 268.604971 
L 251.508457 272.091281 
L 254.045455 276.261064 
L 256.836152 281.286937 
L 259.88055 287.236723 
L 263.305497 294.430282 
L 266.540169 301.189207 
L 268.886892 305.51878 
L 271.17019 309.267802 
L 273.390063 312.487066 
L 275.546512 315.226087 
L 277.639535 317.532744 
L 279.732558 319.508073 
L 281.762156 321.12279 
L 283.791755 322.457926 
L 285.821353 323.530996 
L 287.914376 324.382708 
L 290.0074 324.996593 
L 292.227273 325.412184 
L 294.510571 325.614209 
L 297.745243 325.638609 
L 311.318182 325.638609 
L 311.318182 325.638609 
" style="fill:none;stroke:#000000;stroke-linecap:square;stroke-width:4;"/>
   </g>
   <g id="patch_9">
    <path d="M 45 329.114483 
L 45 252.645517 
" style="fill:none;stroke:#000000;stroke-linecap:square;stroke-linejoin:miter;stroke-width:0.8;"/>
   </g>
   <g id="patch_10">
    <path d="M 45 329.114483 
L 324 329.114483 
" style="fill:none;stroke:#000000;stroke-linecap:square;stroke-linejoin:miter;stroke-width:0.8;"/>
   </g>
  </g>
  <g id="axes_4">
   <g id="patch_11">
    <path d="M 45 420.877241 
L 324 420.877241 
L 324 344.408276 
L 45 344.408276 
z
" style="fill:#ffffff;"/>
   </g>
   <g id="matplotlib.axis_7">
    <g id="xtick_10"/>
    <g id="xtick_11"/>
    <g id="xtick_12"/>
   </g>
   <g id="matplotlib.axis_8">
    <g id="ytick_9">
     <g id="text_9">
      <!-- 25 -->
      <g transform="translate(12.55 409.681975)scale(0.2 -0.2)">
       <use xlink:href="#DejaVuSans-50"/>
       <use x="63.623047" xlink:href="#DejaVuSans-53"/>
      </g>
     </g>
    </g>
    <g id="ytick_10">
     <g id="text_10">
      <!-- 50 -->
      <g transform="translate(12.55 356.138222)scale(0.2 -0.2)">
       <use xlink:href="#DejaVuSans-53"/>
       <use x="63.623047" xlink:href="#DejaVuSans-48"/>
      </g>
     </g>
    </g>
   </g>
   <g id="line2d_4">
    <path clip-path="url(#pfabe100b3f)" d="M 57.681818 417.400988 
L 75.250529 417.297552 
L 76.963002 416.969499 
L 78.675476 416.415653 
L 80.451374 415.602803 
L 82.290698 414.506347 
L 84.193446 413.102352 
L 86.159619 411.367705 
L 88.189218 409.280219 
L 90.345666 406.739291 
L 92.628964 403.695702 
L 95.039112 400.100588 
L 97.57611 395.905825 
L 100.239958 391.064318 
L 103.09408 385.399105 
L 110.451374 370.41192 
L 112.861522 366.302186 
L 115.208245 362.72648 
L 117.491543 359.644341 
L 119.711416 357.015347 
L 121.867865 354.800122 
L 123.960888 352.960942 
L 125.990486 351.462077 
L 128.020085 350.235667 
L 129.986258 349.300154 
L 131.952431 348.606225 
L 133.918605 348.147107 
L 135.884778 347.916196 
L 138.294926 347.884494 
L 234.193446 348.010725 
L 236.159619 348.361418 
L 238.125793 348.943235 
L 240.091966 349.762764 
L 242.05814 350.826748 
L 244.024313 352.142016 
L 246.053911 353.770549 
L 248.146934 355.745952 
L 250.239958 358.029739 
L 252.396406 360.713173 
L 254.616279 363.833529 
L 256.899577 367.428897 
L 259.2463 371.53722 
L 261.719873 376.323425 
L 264.447146 382.116045 
L 267.428118 388.28444 
L 270.282241 393.695912 
L 273.009514 398.396152 
L 275.546512 402.339362 
L 277.95666 405.688579 
L 280.239958 408.493339 
L 282.396406 410.803937 
L 284.489429 412.724472 
L 286.455603 414.233642 
L 288.358351 415.417671 
L 290.197674 416.300843 
L 291.973573 416.908255 
L 293.686047 417.265623 
L 295.39852 417.400081 
L 305.102537 417.400988 
L 311.318182 417.400988 
L 311.318182 417.400988 
" style="fill:none;stroke:#000000;stroke-linecap:square;stroke-width:4;"/>
   </g>
   <g id="patch_12">
    <path d="M 45 420.877241 
L 45 344.408276 
" style="fill:none;stroke:#000000;stroke-linecap:square;stroke-linejoin:miter;stroke-width:0.8;"/>
   </g>
   <g id="patch_13">
    <path d="M 45 420.877241 
L 324 420.877241 
" style="fill:none;stroke:#000000;stroke-linecap:square;stroke-linejoin:miter;stroke-width:0.8;"/>
   </g>
  </g>
  <g id="axes_5">
   <g id="patch_14">
    <path d="M 45 512.64 
L 324 512.64 
L 324 436.171034 
L 45 436.171034 
z
" style="fill:#ffffff;"/>
   </g>
   <g id="matplotlib.axis_9">
    <g id="xtick_13">
     <g id="line2d_5">
      <defs>
       <path d="M 0 0 
L 0 3.5 
" id="mef630ecc57" style="stroke:#000000;stroke-width:0.8;"/>
      </defs>
      <g>
       <use style="stroke:#000000;stroke-width:0.8;" x="57.681818" xlink:href="#mef630ecc57" y="512.64"/>
      </g>
     </g>
     <g id="text_11">
      <!-- 0 -->
      <g transform="translate(51.319318 534.836875)scale(0.2 -0.2)">
       <use xlink:href="#DejaVuSans-48"/>
      </g>
     </g>
    </g>
    <g id="xtick_14">
     <g id="line2d_6">
      <g>
       <use style="stroke:#000000;stroke-width:0.8;" x="184.531712" xlink:href="#mef630ecc57" y="512.64"/>
      </g>
     </g>
     <g id="text_12">
      <!-- 2000 -->
      <g transform="translate(159.081712 534.836875)scale(0.2 -0.2)">
       <use xlink:href="#DejaVuSans-50"/>
       <use x="63.623047" xlink:href="#DejaVuSans-48"/>
       <use x="127.246094" xlink:href="#DejaVuSans-48"/>
       <use x="190.869141" xlink:href="#DejaVuSans-48"/>
      </g>
     </g>
    </g>
    <g id="xtick_15">
     <g id="line2d_7">
      <g>
       <use style="stroke:#000000;stroke-width:0.8;" x="311.381607" xlink:href="#mef630ecc57" y="512.64"/>
      </g>
     </g>
     <g id="text_13">
      <!-- 4000 -->
      <defs>
       <path d="M 37.796875 64.3125 
L 12.890625 25.390625 
L 37.796875 25.390625 
z
M 35.203125 72.90625 
L 47.609375 72.90625 
L 47.609375 25.390625 
L 58.015625 25.390625 
L 58.015625 17.1875 
L 47.609375 17.1875 
L 47.609375 0 
L 37.796875 0 
L 37.796875 17.1875 
L 4.890625 17.1875 
L 4.890625 26.703125 
z
" id="DejaVuSans-52"/>
      </defs>
      <g transform="translate(285.931607 534.836875)scale(0.2 -0.2)">
       <use xlink:href="#DejaVuSans-52"/>
       <use x="63.623047" xlink:href="#DejaVuSans-48"/>
       <use x="127.246094" xlink:href="#DejaVuSans-48"/>
       <use x="190.869141" xlink:href="#DejaVuSans-48"/>
      </g>
     </g>
    </g>
   </g>
   <g id="matplotlib.axis_10">
    <g id="ytick_11">
     <g id="text_14">
      <!-- 10 -->
      <g transform="translate(12.55 498.758401)scale(0.2 -0.2)">
       <use xlink:href="#DejaVuSans-49"/>
       <use x="63.623047" xlink:href="#DejaVuSans-48"/>
      </g>
     </g>
    </g>
    <g id="ytick_12">
     <g id="text_15">
      <!-- 20 -->
      <g transform="translate(12.55 452.381133)scale(0.2 -0.2)">
       <use xlink:href="#DejaVuSans-50"/>
       <use x="63.623047" xlink:href="#DejaVuSans-48"/>
      </g>
     </g>
    </g>
   </g>
   <g id="line2d_8">
    <path clip-path="url(#pb8d7796c1b)" d="M 57.681818 509.164065 
L 75.694503 509.05567 
L 77.724101 508.726151 
L 79.690275 508.183317 
L 81.656448 507.408875 
L 83.622622 506.392189 
L 85.588795 505.123436 
L 87.618393 503.539833 
L 89.647992 501.669104 
L 91.741015 499.43072 
L 93.897463 496.788053 
L 96.117336 493.703328 
L 98.400634 490.137813 
L 100.747357 486.052024 
L 103.157505 481.405929 
L 105.757928 475.889513 
L 108.929175 469.267747 
L 111.846723 463.673144 
L 114.573996 458.90866 
L 117.110994 454.904957 
L 119.521142 451.502396 
L 121.80444 448.653172 
L 123.960888 446.306914 
L 125.990486 444.412071 
L 127.95666 442.871975 
L 129.859408 441.66288 
L 131.698732 440.76048 
L 133.47463 440.140206 
L 135.187104 439.777485 
L 136.899577 439.647288 
L 157.44926 439.647333 
L 233.812896 439.758299 
L 235.52537 440.101344 
L 237.237844 440.674725 
L 239.013742 441.510797 
L 240.853066 442.633443 
L 242.755814 444.066428 
L 244.721987 445.833131 
L 246.751586 447.956244 
L 248.908034 450.538059 
L 251.191332 453.628038 
L 253.60148 457.274112 
L 256.138478 461.521279 
L 258.865751 466.531531 
L 261.783298 472.369374 
L 268.506342 486.133473 
L 270.91649 490.305921 
L 273.263214 493.938033 
L 275.546512 497.070647 
L 277.766385 499.743903 
L 279.922833 501.997021 
L 282.015856 503.868096 
L 284.045455 505.393898 
L 286.075053 506.644717 
L 288.104651 507.630543 
L 290.070825 508.343148 
L 292.100423 508.839987 
L 294.130021 509.106784 
L 296.349894 509.164061 
L 311.318182 509.164065 
L 311.318182 509.164065 
" style="fill:none;stroke:#000000;stroke-linecap:square;stroke-width:4;"/>
   </g>
   <g id="patch_15">
    <path d="M 45 512.64 
L 45 436.171034 
" style="fill:none;stroke:#000000;stroke-linecap:square;stroke-linejoin:miter;stroke-width:0.8;"/>
   </g>
   <g id="patch_16">
    <path d="M 45 512.64 
L 324 512.64 
" style="fill:none;stroke:#000000;stroke-linecap:square;stroke-linejoin:miter;stroke-width:0.8;"/>
   </g>
  </g>
 </g>
 <defs>
  <clipPath id="pca3833ef2f">
   <rect height="76.468966" width="279" x="45" y="69.12"/>
  </clipPath>
  <clipPath id="p723528ee60">
   <rect height="76.468966" width="279" x="45" y="160.882759"/>
  </clipPath>
  <clipPath id="p24f754cf5d">
   <rect height="76.468966" width="279" x="45" y="252.645517"/>
  </clipPath>
  <clipPath id="pfabe100b3f">
   <rect height="76.468966" width="279" x="45" y="344.408276"/>
  </clipPath>
  <clipPath id="pb8d7796c1b">
   <rect height="76.468966" width="279" x="45" y="436.171034"/>
  </clipPath>
 </defs>
</svg>
