<?xml version="1.0" encoding="utf-8" standalone="no"?>
<!DOCTYPE svg PUBLIC "-//W3C//DTD SVG 1.1//EN"
  "http://www.w3.org/Graphics/SVG/1.1/DTD/svg11.dtd">
<!-- Created with matplotlib (https://matplotlib.org/) -->
<svg height="576pt" version="1.1" viewBox="0 0 360 576" width="360pt" xmlns="http://www.w3.org/2000/svg" xmlns:xlink="http://www.w3.org/1999/xlink">
 <defs>
  <style type="text/css">
*{stroke-linecap:butt;stroke-linejoin:round;white-space:pre;}
  </style>
 </defs>
 <g id="figure_1">
  <g id="patch_1">
   <path d="M 0 576 
L 360 576 
L 360 0 
L 0 0 
z
" style="fill:#ffffff;"/>
  </g>
  <g id="axes_1">
   <g id="patch_2">
    <path d="M 45 145.588966 
L 324 145.588966 
L 324 69.12 
L 45 69.12 
z
" style="fill:#ffffff;"/>
   </g>
   <g id="matplotlib.axis_1">
    <g id="xtick_1"/>
    <g id="xtick_2"/>
    <g id="xtick_3"/>
   </g>
   <g id="matplotlib.axis_2">
    <g id="ytick_1">
     <g id="text_1">
      <!-- 25 -->
      <defs>
       <path d="M 19.1875 8.296875 
L 53.609375 8.296875 
L 53.609375 0 
L 7.328125 0 
L 7.328125 8.296875 
Q 12.9375 14.109375 22.625 23.890625 
Q 32.328125 33.6875 34.8125 36.53125 
Q 39.546875 41.84375 41.421875 45.53125 
Q 43.3125 49.21875 43.3125 52.78125 
Q 43.3125 58.59375 39.234375 62.25 
Q 35.15625 65.921875 28.609375 65.921875 
Q 23.96875 65.921875 18.8125 64.3125 
Q 13.671875 62.703125 7.8125 59.421875 
L 7.8125 69.390625 
Q 13.765625 71.78125 18.9375 73 
Q 24.125 74.21875 28.421875 74.21875 
Q 39.75 74.21875 46.484375 68.546875 
Q 53.21875 62.890625 53.21875 53.421875 
Q 53.21875 48.921875 51.53125 44.890625 
Q 49.859375 40.875 45.40625 35.40625 
Q 44.1875 33.984375 37.640625 27.21875 
Q 31.109375 20.453125 19.1875 8.296875 
z
" id="DejaVuSans-50"/>
       <path d="M 10.796875 72.90625 
L 49.515625 72.90625 
L 49.515625 64.59375 
L 19.828125 64.59375 
L 19.828125 46.734375 
Q 21.96875 47.46875 24.109375 47.828125 
Q 26.265625 48.1875 28.421875 48.1875 
Q 40.625 48.1875 47.75 41.5 
Q 54.890625 34.8125 54.890625 23.390625 
Q 54.890625 11.625 47.5625 5.09375 
Q 40.234375 -1.421875 26.90625 -1.421875 
Q 22.3125 -1.421875 17.546875 -0.640625 
Q 12.796875 0.140625 7.71875 1.703125 
L 7.71875 11.625 
Q 12.109375 9.234375 16.796875 8.0625 
Q 21.484375 6.890625 26.703125 6.890625 
Q 35.15625 6.890625 40.078125 11.328125 
Q 45.015625 15.765625 45.015625 23.390625 
Q 45.015625 31 40.078125 35.4375 
Q 35.15625 39.890625 26.703125 39.890625 
Q 22.75 39.890625 18.8125 39.015625 
Q 14.890625 38.140625 10.796875 36.28125 
z
" id="DejaVuSans-53"/>
      </defs>
      <g transform="translate(12.55 123.615547)scale(0.2 -0.2)">
       <use xlink:href="#DejaVuSans-50"/>
       <use x="63.623047" xlink:href="#DejaVuSans-53"/>
      </g>
     </g>
    </g>
    <g id="ytick_2">
     <g id="text_2">
      <!-- 50 -->
      <defs>
       <path d="M 31.78125 66.40625 
Q 24.171875 66.40625 20.328125 58.90625 
Q 16.5 51.421875 16.5 36.375 
Q 16.5 21.390625 20.328125 13.890625 
Q 24.171875 6.390625 31.78125 6.390625 
Q 39.453125 6.390625 43.28125 13.890625 
Q 47.125 21.390625 47.125 36.375 
Q 47.125 51.421875 43.28125 58.90625 
Q 39.453125 66.40625 31.78125 66.40625 
z
M 31.78125 74.21875 
Q 44.046875 74.21875 50.515625 64.515625 
Q 56.984375 54.828125 56.984375 36.375 
Q 56.984375 17.96875 50.515625 8.265625 
Q 44.046875 -1.421875 31.78125 -1.421875 
Q 19.53125 -1.421875 13.0625 8.265625 
Q 6.59375 17.96875 6.59375 36.375 
Q 6.59375 54.828125 13.0625 64.515625 
Q 19.53125 74.21875 31.78125 74.21875 
z
" id="DejaVuSans-48"/>
      </defs>
      <g transform="translate(12.55 82.424395)scale(0.2 -0.2)">
       <use xlink:href="#DejaVuSans-53"/>
       <use x="63.623047" xlink:href="#DejaVuSans-48"/>
      </g>
     </g>
    </g>
   </g>
   <g id="line2d_1">
    <path clip-path="url(#p556766c0bc)" d="M 57.681818 142.112925 
L 75.440803 142.006012 
L 77.216702 141.682066 
L 78.9926 141.129289 
L 80.768499 140.339784 
L 82.544397 139.309167 
L 84.383721 137.986039 
L 86.286469 136.344614 
L 88.316068 134.292012 
L 90.409091 131.855589 
L 92.628964 128.926219 
L 94.975687 125.455326 
L 97.44926 121.395844 
L 100.113108 116.582703 
L 102.903805 111.071157 
L 106.138478 104.154424 
L 108.929175 98.447672 
L 111.466173 93.748154 
L 113.876321 89.734707 
L 116.223044 86.255682 
L 118.442918 83.352681 
L 120.599366 80.888188 
L 122.692389 78.823631 
L 124.721987 77.121269 
L 126.751586 75.705033 
L 128.717759 74.597262 
L 130.683932 73.74101 
L 132.650106 73.127969 
L 134.616279 72.750041 
L 136.582452 72.599403 
L 142.798097 72.596208 
L 234.003171 72.701785 
L 235.969345 73.032814 
L 237.935518 73.596594 
L 239.838266 74.371219 
L 241.80444 75.416192 
L 243.770613 76.717782 
L 245.736786 78.284103 
L 247.766385 80.186941 
L 249.859408 82.461893 
L 252.015856 85.145675 
L 254.235729 88.27502 
L 256.519027 91.88489 
L 258.929175 96.122872 
L 261.466173 101.045083 
L 264.256871 106.962551 
L 267.301268 113.287504 
L 270.155391 118.714002 
L 272.819239 123.317788 
L 275.356237 127.269664 
L 277.766385 130.616777 
L 280.049683 133.408482 
L 282.206131 135.696064 
L 284.235729 137.53226 
L 286.201903 139.013769 
L 288.104651 140.167343 
L 289.943975 141.021841 
L 291.719873 141.607945 
L 293.495772 141.966717 
L 295.335095 142.110519 
L 302.438689 142.112925 
L 311.318182 142.112925 
L 311.318182 142.112925 
" style="fill:none;stroke:#000000;stroke-linecap:square;stroke-width:4;"/>
   </g>
   <g id="patch_3">
    <path d="M 45 145.588966 
L 45 69.12 
" style="fill:none;stroke:#000000;stroke-linecap:square;stroke-linejoin:miter;stroke-width:0.8;"/>
   </g>
   <g id="patch_4">
    <path d="M 45 145.588966 
L 324 145.588966 
" style="fill:none;stroke:#000000;stroke-linecap:square;stroke-linejoin:miter;stroke-width:0.8;"/>
   </g>
  </g>
  <g id="axes_2">
   <g id="patch_5">
    <path d="M 45 237.351724 
L 324 237.351724 
L 324 160.882759 
L 45 160.882759 
z
" style="fill:#ffffff;"/>
   </g>
   <g id="matplotlib.axis_3">
    <g id="xtick_4"/>
    <g id="xtick_5"/>
    <g id="xtick_6"/>
   </g>
   <g id="matplotlib.axis_4">
    <g id="ytick_3">
     <g id="text_3">
      <!-- 5 -->
      <g transform="translate(25.275 228.198713)scale(0.2 -0.2)">
       <use xlink:href="#DejaVuSans-53"/>
      </g>
     </g>
    </g>
    <g id="ytick_4">
     <g id="text_4">
      <!-- 10 -->
      <defs>
       <path d="M 12.40625 8.296875 
L 28.515625 8.296875 
L 28.515625 63.921875 
L 10.984375 60.40625 
L 10.984375 69.390625 
L 28.421875 72.90625 
L 38.28125 72.90625 
L 38.28125 8.296875 
L 54.390625 8.296875 
L 54.390625 0 
L 12.40625 0 
z
" id="DejaVuSans-49"/>
      </defs>
      <g transform="translate(12.55 203.505929)scale(0.2 -0.2)">
       <use xlink:href="#DejaVuSans-49"/>
       <use x="63.623047" xlink:href="#DejaVuSans-48"/>
      </g>
     </g>
    </g>
    <g id="ytick_5">
     <g id="text_5">
      <!-- 15 -->
      <g transform="translate(12.55 178.813146)scale(0.2 -0.2)">
       <use xlink:href="#DejaVuSans-49"/>
       <use x="63.623047" xlink:href="#DejaVuSans-53"/>
      </g>
     </g>
    </g>
   </g>
   <g id="line2d_2">
    <path clip-path="url(#p097bd71125)" d="M 57.681818 233.875849 
L 76.011628 233.765276 
L 78.231501 233.438115 
L 80.324524 232.90819 
L 82.354123 232.169048 
L 84.383721 231.189635 
L 86.349894 229.995222 
L 88.316068 228.543933 
L 90.345666 226.761519 
L 92.375264 224.676188 
L 94.468288 222.194692 
L 96.561311 219.364458 
L 98.717759 216.071786 
L 100.937632 212.271777 
L 103.22093 207.918436 
L 105.631078 202.829902 
L 109.182875 195.342259 
L 112.354123 189.159081 
L 115.208245 184.06154 
L 117.872093 179.749154 
L 120.345666 176.163811 
L 122.628964 173.237214 
L 124.785412 170.829278 
L 126.815011 168.892794 
L 128.717759 167.378031 
L 130.557082 166.198269 
L 132.269556 165.357094 
L 133.918605 164.785911 
L 135.567653 164.452661 
L 137.153277 164.358785 
L 222.015856 164.359024 
L 233.686047 164.462416 
L 235.27167 164.787647 
L 236.920719 165.358045 
L 238.633192 166.197177 
L 240.409091 167.328158 
L 242.248414 168.773315 
L 244.151163 170.553792 
L 246.180761 172.762871 
L 248.337209 175.447108 
L 250.620507 178.650072 
L 253.09408 182.514652 
L 255.757928 187.102832 
L 258.675476 192.589816 
L 261.846723 199.039584 
L 267.745243 211.218565 
L 270.091966 215.327339 
L 272.375264 218.878634 
L 274.595137 221.920925 
L 276.751586 224.50147 
L 278.844609 226.665976 
L 280.937632 228.509574 
L 282.96723 230.005416 
L 284.996829 231.229271 
L 287.026427 232.197482 
L 289.11945 232.946503 
L 291.212474 233.461896 
L 293.432347 233.776133 
L 295.77907 233.875815 
L 311.318182 233.875849 
L 311.318182 233.875849 
" style="fill:none;stroke:#000000;stroke-linecap:square;stroke-width:4;"/>
   </g>
   <g id="patch_6">
    <path d="M 45 237.351724 
L 45 160.882759 
" style="fill:none;stroke:#000000;stroke-linecap:square;stroke-linejoin:miter;stroke-width:0.8;"/>
   </g>
   <g id="patch_7">
    <path d="M 45 237.351724 
L 324 237.351724 
" style="fill:none;stroke:#000000;stroke-linecap:square;stroke-linejoin:miter;stroke-width:0.8;"/>
   </g>
  </g>
  <g id="axes_3">
   <g id="patch_8">
    <path d="M 45 329.114483 
L 324 329.114483 
L 324 252.645517 
L 45 252.645517 
z
" style="fill:#ffffff;"/>
   </g>
   <g id="matplotlib.axis_5">
    <g id="xtick_7"/>
    <g id="xtick_8"/>
    <g id="xtick_9"/>
   </g>
   <g id="matplotlib.axis_6">
    <g id="ytick_6">
     <g id="text_6">
      <!-- 5 -->
      <g transform="translate(25.275 319.961471)scale(0.2 -0.2)">
       <use xlink:href="#DejaVuSans-53"/>
      </g>
     </g>
    </g>
    <g id="ytick_7">
     <g id="text_7">
      <!-- 10 -->
      <g transform="translate(12.55 295.268688)scale(0.2 -0.2)">
       <use xlink:href="#DejaVuSans-49"/>
       <use x="63.623047" xlink:href="#DejaVuSans-48"/>
      </g>
     </g>
    </g>
    <g id="ytick_8">
     <g id="text_8">
      <!-- 15 -->
      <g transform="translate(12.55 270.575905)scale(0.2 -0.2)">
       <use xlink:href="#DejaVuSans-49"/>
       <use x="63.623047" xlink:href="#DejaVuSans-53"/>
      </g>
     </g>
    </g>
   </g>
   <g id="line2d_3">
    <path clip-path="url(#pf274e13ad8)" d="M 57.681818 325.638607 
L 76.011628 325.528034 
L 78.231501 325.200873 
L 80.324524 324.670949 
L 82.354123 323.931807 
L 84.383721 322.952393 
L 86.349894 321.757981 
L 88.316068 320.306691 
L 90.345666 318.524278 
L 92.375264 316.438947 
L 94.468288 313.957451 
L 96.561311 311.127217 
L 98.717759 307.834545 
L 100.937632 304.034535 
L 103.22093 299.681194 
L 105.631078 294.592661 
L 109.182875 287.105018 
L 112.354123 280.92184 
L 115.208245 275.824299 
L 117.872093 271.511913 
L 120.345666 267.92657 
L 122.628964 264.999972 
L 124.785412 262.592037 
L 126.815011 260.655553 
L 128.717759 259.14079 
L 130.557082 257.961027 
L 132.269556 257.119853 
L 133.918605 256.54867 
L 135.567653 256.215419 
L 137.153277 256.121543 
L 222.015856 256.121782 
L 233.686047 256.225175 
L 235.27167 256.550406 
L 236.920719 257.120804 
L 238.633192 257.959935 
L 240.409091 259.090916 
L 242.248414 260.536074 
L 244.151163 262.316551 
L 246.180761 264.52563 
L 248.337209 267.209866 
L 250.620507 270.412831 
L 253.09408 274.27741 
L 255.757928 278.86559 
L 258.675476 284.352574 
L 261.846723 290.802343 
L 267.745243 302.981323 
L 270.091966 307.090097 
L 272.375264 310.641393 
L 274.595137 313.683683 
L 276.751586 316.264229 
L 278.844609 318.428734 
L 280.937632 320.272333 
L 282.96723 321.768174 
L 284.996829 322.99203 
L 287.026427 323.96024 
L 289.11945 324.709262 
L 291.212474 325.224655 
L 293.432347 325.538892 
L 295.77907 325.638574 
L 311.318182 325.638607 
L 311.318182 325.638607 
" style="fill:none;stroke:#000000;stroke-linecap:square;stroke-width:4;"/>
   </g>
   <g id="patch_9">
    <path d="M 45 329.114483 
L 45 252.645517 
" style="fill:none;stroke:#000000;stroke-linecap:square;stroke-linejoin:miter;stroke-width:0.8;"/>
   </g>
   <g id="patch_10">
    <path d="M 45 329.114483 
L 324 329.114483 
" style="fill:none;stroke:#000000;stroke-linecap:square;stroke-linejoin:miter;stroke-width:0.8;"/>
   </g>
  </g>
  <g id="axes_4">
   <g id="patch_11">
    <path d="M 45 420.877241 
L 324 420.877241 
L 324 344.408276 
L 45 344.408276 
z
" style="fill:#ffffff;"/>
   </g>
   <g id="matplotlib.axis_7">
    <g id="xtick_10"/>
    <g id="xtick_11"/>
    <g id="xtick_12"/>
   </g>
   <g id="matplotlib.axis_8">
    <g id="ytick_9">
     <g id="text_9">
      <!-- 20 -->
      <g transform="translate(12.55 407.741351)scale(0.2 -0.2)">
       <use xlink:href="#DejaVuSans-50"/>
       <use x="63.623047" xlink:href="#DejaVuSans-48"/>
      </g>
     </g>
    </g>
    <g id="ytick_10">
     <g id="text_10">
      <!-- 40 -->
      <defs>
       <path d="M 37.796875 64.3125 
L 12.890625 25.390625 
L 37.796875 25.390625 
z
M 35.203125 72.90625 
L 47.609375 72.90625 
L 47.609375 25.390625 
L 58.015625 25.390625 
L 58.015625 17.1875 
L 47.609375 17.1875 
L 47.609375 0 
L 37.796875 0 
L 37.796875 17.1875 
L 4.890625 17.1875 
L 4.890625 26.703125 
z
" id="DejaVuSans-52"/>
      </defs>
      <g transform="translate(12.55 367.953058)scale(0.2 -0.2)">
       <use xlink:href="#DejaVuSans-52"/>
       <use x="63.623047" xlink:href="#DejaVuSans-48"/>
      </g>
     </g>
    </g>
   </g>
   <g id="line2d_4">
    <path clip-path="url(#p08446858d9)" d="M 57.681818 417.401169 
L 75.377378 417.296515 
L 77.153277 416.969904 
L 78.929175 416.41403 
L 80.705074 415.623973 
L 82.544397 414.556002 
L 84.447146 413.183049 
L 86.413319 411.479116 
L 88.442918 409.419481 
L 90.599366 406.902006 
L 92.819239 403.964083 
L 95.165962 400.486371 
L 97.639535 396.419654 
L 100.239958 391.716002 
L 103.030655 386.198398 
L 106.455603 378.87545 
L 109.182875 373.368316 
L 111.719873 368.732116 
L 114.130021 364.773511 
L 116.476744 361.339352 
L 118.696617 358.470421 
L 120.853066 356.032037 
L 122.946089 353.987649 
L 125.039112 352.253473 
L 127.06871 350.860578 
L 129.034884 349.774987 
L 131.001057 348.94174 
L 132.96723 348.353619 
L 134.933404 348.003459 
L 136.899577 347.884218 
L 224.869979 347.884539 
L 234.003171 347.990771 
L 235.90592 348.312702 
L 237.808668 348.856163 
L 239.711416 349.627535 
L 241.67759 350.670852 
L 243.643763 351.971383 
L 245.673362 353.590918 
L 247.70296 355.498975 
L 249.795983 357.775743 
L 251.952431 360.45611 
L 254.172304 363.575214 
L 256.455603 367.167262 
L 258.865751 371.380204 
L 261.402748 376.274694 
L 264.130021 382.038404 
L 267.110994 388.254709 
L 269.965116 393.701128 
L 272.628964 398.319198 
L 275.165962 402.283293 
L 277.57611 405.643214 
L 279.859408 408.450365 
L 282.015856 410.757324 
L 284.045455 412.617272 
L 286.011628 414.127524 
L 287.914376 415.314161 
L 289.7537 416.204516 
L 291.593023 416.844879 
L 293.368922 417.230412 
L 295.14482 417.394069 
L 299.140592 417.401169 
L 311.318182 417.401169 
L 311.318182 417.401169 
" style="fill:none;stroke:#000000;stroke-linecap:square;stroke-width:4;"/>
   </g>
   <g id="patch_12">
    <path d="M 45 420.877241 
L 45 344.408276 
" style="fill:none;stroke:#000000;stroke-linecap:square;stroke-linejoin:miter;stroke-width:0.8;"/>
   </g>
   <g id="patch_13">
    <path d="M 45 420.877241 
L 324 420.877241 
" style="fill:none;stroke:#000000;stroke-linecap:square;stroke-linejoin:miter;stroke-width:0.8;"/>
   </g>
  </g>
  <g id="axes_5">
   <g id="patch_14">
    <path d="M 45 512.64 
L 324 512.64 
L 324 436.171034 
L 45 436.171034 
z
" style="fill:#ffffff;"/>
   </g>
   <g id="matplotlib.axis_9">
    <g id="xtick_13">
     <g id="line2d_5">
      <defs>
       <path d="M 0 0 
L 0 3.5 
" id="ma78ab8cba7" style="stroke:#000000;stroke-width:0.8;"/>
      </defs>
      <g>
       <use style="stroke:#000000;stroke-width:0.8;" x="57.681818" xlink:href="#ma78ab8cba7" y="512.64"/>
      </g>
     </g>
     <g id="text_11">
      <!-- 0 -->
      <g transform="translate(51.319318 534.836875)scale(0.2 -0.2)">
       <use xlink:href="#DejaVuSans-48"/>
      </g>
     </g>
    </g>
    <g id="xtick_14">
     <g id="line2d_6">
      <g>
       <use style="stroke:#000000;stroke-width:0.8;" x="184.531712" xlink:href="#ma78ab8cba7" y="512.64"/>
      </g>
     </g>
     <g id="text_12">
      <!-- 2000 -->
      <g transform="translate(159.081712 534.836875)scale(0.2 -0.2)">
       <use xlink:href="#DejaVuSans-50"/>
       <use x="63.623047" xlink:href="#DejaVuSans-48"/>
       <use x="127.246094" xlink:href="#DejaVuSans-48"/>
       <use x="190.869141" xlink:href="#DejaVuSans-48"/>
      </g>
     </g>
    </g>
    <g id="xtick_15">
     <g id="line2d_7">
      <g>
       <use style="stroke:#000000;stroke-width:0.8;" x="311.381607" xlink:href="#ma78ab8cba7" y="512.64"/>
      </g>
     </g>
     <g id="text_13">
      <!-- 4000 -->
      <g transform="translate(285.931607 534.836875)scale(0.2 -0.2)">
       <use xlink:href="#DejaVuSans-52"/>
       <use x="63.623047" xlink:href="#DejaVuSans-48"/>
       <use x="127.246094" xlink:href="#DejaVuSans-48"/>
       <use x="190.869141" xlink:href="#DejaVuSans-48"/>
      </g>
     </g>
    </g>
   </g>
   <g id="matplotlib.axis_10">
    <g id="ytick_11">
     <g id="text_14">
      <!-- 5 -->
      <g transform="translate(25.275 513.561929)scale(0.2 -0.2)">
       <use xlink:href="#DejaVuSans-53"/>
      </g>
     </g>
    </g>
    <g id="ytick_12">
     <g id="text_15">
      <!-- 10 -->
      <g transform="translate(12.55 490.123765)scale(0.2 -0.2)">
       <use xlink:href="#DejaVuSans-49"/>
       <use x="63.623047" xlink:href="#DejaVuSans-48"/>
      </g>
     </g>
    </g>
    <g id="ytick_13">
     <g id="text_16">
      <!-- 15 -->
      <g transform="translate(12.55 466.685601)scale(0.2 -0.2)">
       <use xlink:href="#DejaVuSans-49"/>
       <use x="63.623047" xlink:href="#DejaVuSans-53"/>
      </g>
     </g>
    </g>
   </g>
   <g id="line2d_8">
    <path clip-path="url(#p9a34e91c87)" d="M 57.681818 509.1641 
L 75.757928 509.05854 
L 77.850951 508.732488 
L 79.88055 508.189623 
L 81.846723 507.436804 
L 83.812896 506.447844 
L 85.77907 505.210855 
L 87.745243 503.714798 
L 89.774841 501.888001 
L 91.867865 499.692978 
L 93.960888 497.172222 
L 96.117336 494.225182 
L 98.337209 490.811932 
L 100.620507 486.891576 
L 102.96723 482.422481 
L 105.440803 477.22379 
L 108.738901 470.26934 
L 111.783298 464.357351 
L 114.573996 459.40999 
L 117.174419 455.23863 
L 119.584567 451.773832 
L 121.867865 448.865059 
L 124.024313 446.464817 
L 126.053911 444.523342 
L 128.020085 442.943689 
L 129.859408 441.739755 
L 131.635307 440.832639 
L 133.34778 440.198614 
L 135.060254 439.803441 
L 136.709302 439.650578 
L 141.846723 439.647326 
L 233.749471 439.752892 
L 235.39852 440.081555 
L 237.110994 440.656756 
L 238.823467 441.467895 
L 240.599366 442.555249 
L 242.438689 443.941765 
L 244.404863 445.711505 
L 246.434461 447.843137 
L 248.590909 450.43804 
L 250.874207 453.543907 
L 253.284355 457.205873 
L 255.884778 461.576526 
L 258.675476 466.721272 
L 261.656448 472.695972 
L 268.442918 486.588272 
L 270.853066 490.736221 
L 273.199789 494.332441 
L 275.419662 497.340517 
L 277.57611 499.904783 
L 279.732558 502.126045 
L 281.825581 503.964275 
L 283.85518 505.458568 
L 285.884778 506.680387 
L 287.914376 507.641938 
L 289.943975 508.356359 
L 291.973573 508.837647 
L 294.066596 509.10542 
L 296.349894 509.164089 
L 311.318182 509.1641 
L 311.318182 509.1641 
" style="fill:none;stroke:#000000;stroke-linecap:square;stroke-width:4;"/>
   </g>
   <g id="patch_15">
    <path d="M 45 512.64 
L 45 436.171034 
" style="fill:none;stroke:#000000;stroke-linecap:square;stroke-linejoin:miter;stroke-width:0.8;"/>
   </g>
   <g id="patch_16">
    <path d="M 45 512.64 
L 324 512.64 
" style="fill:none;stroke:#000000;stroke-linecap:square;stroke-linejoin:miter;stroke-width:0.8;"/>
   </g>
  </g>
 </g>
 <defs>
  <clipPath id="p556766c0bc">
   <rect height="76.468966" width="279" x="45" y="69.12"/>
  </clipPath>
  <clipPath id="p097bd71125">
   <rect height="76.468966" width="279" x="45" y="160.882759"/>
  </clipPath>
  <clipPath id="pf274e13ad8">
   <rect height="76.468966" width="279" x="45" y="252.645517"/>
  </clipPath>
  <clipPath id="p08446858d9">
   <rect height="76.468966" width="279" x="45" y="344.408276"/>
  </clipPath>
  <clipPath id="p9a34e91c87">
   <rect height="76.468966" width="279" x="45" y="436.171034"/>
  </clipPath>
 </defs>
</svg>
