<?xml version="1.0" encoding="utf-8" standalone="no"?>
<!DOCTYPE svg PUBLIC "-//W3C//DTD SVG 1.1//EN"
  "http://www.w3.org/Graphics/SVG/1.1/DTD/svg11.dtd">
<!-- Created with matplotlib (https://matplotlib.org/) -->
<svg height="576pt" version="1.1" viewBox="0 0 360 576" width="360pt" xmlns="http://www.w3.org/2000/svg" xmlns:xlink="http://www.w3.org/1999/xlink">
 <defs>
  <style type="text/css">
*{stroke-linecap:butt;stroke-linejoin:round;white-space:pre;}
  </style>
 </defs>
 <g id="figure_1">
  <g id="patch_1">
   <path d="M 0 576 
L 360 576 
L 360 0 
L 0 0 
z
" style="fill:#ffffff;"/>
  </g>
  <g id="axes_1">
   <g id="patch_2">
    <path d="M 45 145.588966 
L 324 145.588966 
L 324 69.12 
L 45 69.12 
z
" style="fill:#ffffff;"/>
   </g>
   <g id="matplotlib.axis_1">
    <g id="xtick_1"/>
    <g id="xtick_2"/>
    <g id="xtick_3"/>
   </g>
   <g id="matplotlib.axis_2">
    <g id="ytick_1">
     <g id="text_1">
      <!-- 25 -->
      <defs>
       <path d="M 19.1875 8.296875 
L 53.609375 8.296875 
L 53.609375 0 
L 7.328125 0 
L 7.328125 8.296875 
Q 12.9375 14.109375 22.625 23.890625 
Q 32.328125 33.6875 34.8125 36.53125 
Q 39.546875 41.84375 41.421875 45.53125 
Q 43.3125 49.21875 43.3125 52.78125 
Q 43.3125 58.59375 39.234375 62.25 
Q 35.15625 65.921875 28.609375 65.921875 
Q 23.96875 65.921875 18.8125 64.3125 
Q 13.671875 62.703125 7.8125 59.421875 
L 7.8125 69.390625 
Q 13.765625 71.78125 18.9375 73 
Q 24.125 74.21875 28.421875 74.21875 
Q 39.75 74.21875 46.484375 68.546875 
Q 53.21875 62.890625 53.21875 53.421875 
Q 53.21875 48.921875 51.53125 44.890625 
Q 49.859375 40.875 45.40625 35.40625 
Q 44.1875 33.984375 37.640625 27.21875 
Q 31.109375 20.453125 19.1875 8.296875 
z
" id="DejaVuSans-50"/>
       <path d="M 10.796875 72.90625 
L 49.515625 72.90625 
L 49.515625 64.59375 
L 19.828125 64.59375 
L 19.828125 46.734375 
Q 21.96875 47.46875 24.109375 47.828125 
Q 26.265625 48.1875 28.421875 48.1875 
Q 40.625 48.1875 47.75 41.5 
Q 54.890625 34.8125 54.890625 23.390625 
Q 54.890625 11.625 47.5625 5.09375 
Q 40.234375 -1.421875 26.90625 -1.421875 
Q 22.3125 -1.421875 17.546875 -0.640625 
Q 12.796875 0.140625 7.71875 1.703125 
L 7.71875 11.625 
Q 12.109375 9.234375 16.796875 8.0625 
Q 21.484375 6.890625 26.703125 6.890625 
Q 35.15625 6.890625 40.078125 11.328125 
Q 45.015625 15.765625 45.015625 23.390625 
Q 45.015625 31 40.078125 35.4375 
Q 35.15625 39.890625 26.703125 39.890625 
Q 22.75 39.890625 18.8125 39.015625 
Q 14.890625 38.140625 10.796875 36.28125 
z
" id="DejaVuSans-53"/>
      </defs>
      <g transform="translate(12.55 124.732987)scale(0.2 -0.2)">
       <use xlink:href="#DejaVuSans-50"/>
       <use x="63.623047" xlink:href="#DejaVuSans-53"/>
      </g>
     </g>
    </g>
    <g id="ytick_2">
     <g id="text_2">
      <!-- 50 -->
      <defs>
       <path d="M 31.78125 66.40625 
Q 24.171875 66.40625 20.328125 58.90625 
Q 16.5 51.421875 16.5 36.375 
Q 16.5 21.390625 20.328125 13.890625 
Q 24.171875 6.390625 31.78125 6.390625 
Q 39.453125 6.390625 43.28125 13.890625 
Q 47.125 21.390625 47.125 36.375 
Q 47.125 51.421875 43.28125 58.90625 
Q 39.453125 66.40625 31.78125 66.40625 
z
M 31.78125 74.21875 
Q 44.046875 74.21875 50.515625 64.515625 
Q 56.984375 54.828125 56.984375 36.375 
Q 56.984375 17.96875 50.515625 8.265625 
Q 44.046875 -1.421875 31.78125 -1.421875 
Q 19.53125 -1.421875 13.0625 8.265625 
Q 6.59375 17.96875 6.59375 36.375 
Q 6.59375 54.828125 13.0625 64.515625 
Q 19.53125 74.21875 31.78125 74.21875 
z
" id="DejaVuSans-48"/>
      </defs>
      <g transform="translate(12.55 83.284825)scale(0.2 -0.2)">
       <use xlink:href="#DejaVuSans-53"/>
       <use x="63.623047" xlink:href="#DejaVuSans-48"/>
      </g>
     </g>
    </g>
   </g>
   <g id="line2d_1">
    <path clip-path="url(#p74c790c32d)" d="M 57.681818 142.112902 
L 75.440803 142.002476 
L 77.216702 141.670263 
L 78.9926 141.105925 
L 80.768499 140.302814 
L 82.544397 139.257579 
L 84.383721 137.919106 
L 86.286469 136.262291 
L 88.316068 134.194399 
L 90.409091 131.743845 
L 92.628964 128.80158 
L 94.975687 125.319532 
L 97.44926 121.251041 
L 100.113108 116.431222 
L 102.903805 110.915791 
L 106.138478 103.998846 
L 108.865751 98.426284 
L 111.402748 93.731876 
L 113.812896 89.72609 
L 116.159619 86.255195 
L 118.379493 83.35932 
L 120.535941 80.900539 
L 122.628964 78.840019 
L 124.721987 77.091486 
L 126.751586 75.68469 
L 128.717759 74.584249 
L 130.683932 73.733597 
L 132.650106 73.124515 
L 134.616279 72.749007 
L 136.582452 72.599365 
L 142.861522 72.596203 
L 234.003171 72.70125 
L 235.969345 73.030382 
L 237.935518 73.590791 
L 239.901691 74.390263 
L 241.867865 75.436793 
L 243.834038 76.738498 
L 245.863636 78.358434 
L 247.893235 80.267567 
L 249.986258 82.547828 
L 252.142706 85.236083 
L 254.362579 88.369457 
L 256.645877 91.983679 
L 259.056025 96.227838 
L 261.593023 101.160467 
L 264.447146 107.227003 
L 267.491543 113.520175 
L 270.345666 118.918522 
L 273.009514 123.497591 
L 275.546512 127.427463 
L 277.95666 130.755117 
L 280.239958 133.52965 
L 282.396406 135.802005 
L 284.426004 137.624513 
L 286.392178 139.093008 
L 288.294926 140.233753 
L 290.134249 141.075046 
L 291.910148 141.646967 
L 293.686047 141.989338 
L 295.52537 142.112816 
L 311.318182 142.112902 
L 311.318182 142.112902 
" style="fill:none;stroke:#000000;stroke-linecap:square;stroke-width:4;"/>
   </g>
   <g id="patch_3">
    <path d="M 45 145.588966 
L 45 69.12 
" style="fill:none;stroke:#000000;stroke-linecap:square;stroke-linejoin:miter;stroke-width:0.8;"/>
   </g>
   <g id="patch_4">
    <path d="M 45 145.588966 
L 324 145.588966 
" style="fill:none;stroke:#000000;stroke-linecap:square;stroke-linejoin:miter;stroke-width:0.8;"/>
   </g>
  </g>
  <g id="axes_2">
   <g id="patch_5">
    <path d="M 45 237.351724 
L 324 237.351724 
L 324 160.882759 
L 45 160.882759 
z
" style="fill:#ffffff;"/>
   </g>
   <g id="matplotlib.axis_3">
    <g id="xtick_4"/>
    <g id="xtick_5"/>
    <g id="xtick_6"/>
   </g>
   <g id="matplotlib.axis_4">
    <g id="ytick_3">
     <g id="text_3">
      <!-- 5 -->
      <g transform="translate(25.275 229.653178)scale(0.2 -0.2)">
       <use xlink:href="#DejaVuSans-53"/>
      </g>
     </g>
    </g>
    <g id="ytick_4">
     <g id="text_4">
      <!-- 10 -->
      <defs>
       <path d="M 12.40625 8.296875 
L 28.515625 8.296875 
L 28.515625 63.921875 
L 10.984375 60.40625 
L 10.984375 69.390625 
L 28.421875 72.90625 
L 38.28125 72.90625 
L 38.28125 8.296875 
L 54.390625 8.296875 
L 54.390625 0 
L 12.40625 0 
z
" id="DejaVuSans-49"/>
      </defs>
      <g transform="translate(12.55 205.288443)scale(0.2 -0.2)">
       <use xlink:href="#DejaVuSans-49"/>
       <use x="63.623047" xlink:href="#DejaVuSans-48"/>
      </g>
     </g>
    </g>
    <g id="ytick_5">
     <g id="text_5">
      <!-- 15 -->
      <g transform="translate(12.55 180.923708)scale(0.2 -0.2)">
       <use xlink:href="#DejaVuSans-49"/>
       <use x="63.623047" xlink:href="#DejaVuSans-53"/>
      </g>
     </g>
    </g>
   </g>
   <g id="line2d_2">
    <path clip-path="url(#pa82bc69458)" d="M 57.681818 233.875848 
L 75.948203 233.767369 
L 78.104651 233.449134 
L 80.197674 232.918102 
L 82.227273 232.175155 
L 84.256871 231.190048 
L 86.223044 229.989092 
L 88.189218 228.531007 
L 90.218816 226.742109 
L 92.248414 224.651625 
L 94.341438 222.167025 
L 96.434461 219.336723 
L 98.590909 216.047943 
L 100.810782 212.256917 
L 103.09408 207.918847 
L 105.504228 202.850125 
L 108.9926 195.481517 
L 112.163848 189.289011 
L 115.01797 184.187337 
L 117.681818 179.872762 
L 120.155391 176.285221 
L 122.438689 173.355189 
L 124.595137 170.941772 
L 126.624736 168.997351 
L 128.527484 167.472087 
L 130.366808 166.278862 
L 132.142706 165.394868 
L 133.791755 164.814072 
L 135.440803 164.467811 
L 137.026427 164.358621 
L 234.320296 164.563435 
L 235.969345 164.991789 
L 237.618393 165.652449 
L 239.330867 166.580716 
L 241.106765 167.799328 
L 242.946089 169.330273 
L 244.912262 171.261357 
L 247.005285 173.640822 
L 249.225159 176.515096 
L 251.571882 179.927256 
L 254.108879 184.022606 
L 256.836152 188.861789 
L 259.817125 194.621261 
L 263.115222 201.498939 
L 266.730444 209.052706 
L 269.140592 213.487626 
L 271.42389 217.237223 
L 273.643763 220.471301 
L 275.800211 223.235564 
L 277.95666 225.640078 
L 280.049683 227.642774 
L 282.079281 229.286567 
L 284.108879 230.650755 
L 286.138478 231.750341 
L 288.168076 232.601347 
L 290.261099 233.236503 
L 292.417548 233.653704 
L 294.637421 233.854575 
L 297.872093 233.875848 
L 311.318182 233.875848 
L 311.318182 233.875848 
" style="fill:none;stroke:#000000;stroke-linecap:square;stroke-width:4;"/>
   </g>
   <g id="patch_6">
    <path d="M 45 237.351724 
L 45 160.882759 
" style="fill:none;stroke:#000000;stroke-linecap:square;stroke-linejoin:miter;stroke-width:0.8;"/>
   </g>
   <g id="patch_7">
    <path d="M 45 237.351724 
L 324 237.351724 
" style="fill:none;stroke:#000000;stroke-linecap:square;stroke-linejoin:miter;stroke-width:0.8;"/>
   </g>
  </g>
  <g id="axes_3">
   <g id="patch_8">
    <path d="M 45 329.114483 
L 324 329.114483 
L 324 252.645517 
L 45 252.645517 
z
" style="fill:#ffffff;"/>
   </g>
   <g id="matplotlib.axis_5">
    <g id="xtick_7"/>
    <g id="xtick_8"/>
    <g id="xtick_9"/>
   </g>
   <g id="matplotlib.axis_6">
    <g id="ytick_6">
     <g id="text_6">
      <!-- 5 -->
      <g transform="translate(25.275 321.415937)scale(0.2 -0.2)">
       <use xlink:href="#DejaVuSans-53"/>
      </g>
     </g>
    </g>
    <g id="ytick_7">
     <g id="text_7">
      <!-- 10 -->
      <g transform="translate(12.55 297.051202)scale(0.2 -0.2)">
       <use xlink:href="#DejaVuSans-49"/>
       <use x="63.623047" xlink:href="#DejaVuSans-48"/>
      </g>
     </g>
    </g>
    <g id="ytick_8">
     <g id="text_8">
      <!-- 15 -->
      <g transform="translate(12.55 272.686467)scale(0.2 -0.2)">
       <use xlink:href="#DejaVuSans-49"/>
       <use x="63.623047" xlink:href="#DejaVuSans-53"/>
      </g>
     </g>
    </g>
   </g>
   <g id="line2d_3">
    <path clip-path="url(#pabd1037265)" d="M 57.681818 325.638606 
L 75.948203 325.530128 
L 78.104651 325.211893 
L 80.197674 324.680861 
L 82.227273 323.937913 
L 84.256871 322.952806 
L 86.223044 321.75185 
L 88.189218 320.293766 
L 90.218816 318.504868 
L 92.248414 316.414383 
L 94.341438 313.929784 
L 96.434461 311.099482 
L 98.590909 307.810701 
L 100.810782 304.019676 
L 103.09408 299.681605 
L 105.504228 294.612884 
L 108.9926 287.244275 
L 112.163848 281.05177 
L 115.01797 275.950096 
L 117.681818 271.635521 
L 120.155391 268.047979 
L 122.438689 265.117948 
L 124.595137 262.70453 
L 126.624736 260.760109 
L 128.527484 259.234846 
L 130.366808 258.041621 
L 132.142706 257.157627 
L 133.791755 256.576831 
L 135.440803 256.23057 
L 137.026427 256.121379 
L 234.320296 256.326194 
L 235.969345 256.754547 
L 237.618393 257.415207 
L 239.330867 258.343475 
L 241.106765 259.562087 
L 242.946089 261.093031 
L 244.912262 263.024116 
L 247.005285 265.403581 
L 249.225159 268.277854 
L 251.571882 271.690015 
L 254.108879 275.785364 
L 256.836152 280.624548 
L 259.817125 286.38402 
L 263.115222 293.261698 
L 266.730444 300.815465 
L 269.140592 305.250385 
L 271.42389 308.999981 
L 273.643763 312.23406 
L 275.800211 314.998322 
L 277.95666 317.402837 
L 280.049683 319.405533 
L 282.079281 321.049326 
L 284.108879 322.413514 
L 286.138478 323.513099 
L 288.168076 324.364106 
L 290.261099 324.999262 
L 292.417548 325.416462 
L 294.637421 325.617334 
L 297.872093 325.638606 
L 311.318182 325.638606 
L 311.318182 325.638606 
" style="fill:none;stroke:#000000;stroke-linecap:square;stroke-width:4;"/>
   </g>
   <g id="patch_9">
    <path d="M 45 329.114483 
L 45 252.645517 
" style="fill:none;stroke:#000000;stroke-linecap:square;stroke-linejoin:miter;stroke-width:0.8;"/>
   </g>
   <g id="patch_10">
    <path d="M 45 329.114483 
L 324 329.114483 
" style="fill:none;stroke:#000000;stroke-linecap:square;stroke-linejoin:miter;stroke-width:0.8;"/>
   </g>
  </g>
  <g id="axes_4">
   <g id="patch_11">
    <path d="M 45 420.877241 
L 324 420.877241 
L 324 344.408276 
L 45 344.408276 
z
" style="fill:#ffffff;"/>
   </g>
   <g id="matplotlib.axis_7">
    <g id="xtick_10"/>
    <g id="xtick_11"/>
    <g id="xtick_12"/>
   </g>
   <g id="matplotlib.axis_8">
    <g id="ytick_9">
     <g id="text_9">
      <!-- 20 -->
      <g transform="translate(12.55 402.365266)scale(0.2 -0.2)">
       <use xlink:href="#DejaVuSans-50"/>
       <use x="63.623047" xlink:href="#DejaVuSans-48"/>
      </g>
     </g>
    </g>
    <g id="ytick_10">
     <g id="text_10">
      <!-- 40 -->
      <defs>
       <path d="M 37.796875 64.3125 
L 12.890625 25.390625 
L 37.796875 25.390625 
z
M 35.203125 72.90625 
L 47.609375 72.90625 
L 47.609375 25.390625 
L 58.015625 25.390625 
L 58.015625 17.1875 
L 47.609375 17.1875 
L 47.609375 0 
L 37.796875 0 
L 37.796875 17.1875 
L 4.890625 17.1875 
L 4.890625 26.703125 
z
" id="DejaVuSans-52"/>
      </defs>
      <g transform="translate(12.55 363.481733)scale(0.2 -0.2)">
       <use xlink:href="#DejaVuSans-52"/>
       <use x="63.623047" xlink:href="#DejaVuSans-48"/>
      </g>
     </g>
    </g>
   </g>
   <g id="line2d_4">
    <path clip-path="url(#p1ea644ee1f)" d="M 57.681818 417.401249 
L 75.504228 417.293382 
L 77.343552 416.964464 
L 79.11945 416.425051 
L 80.895349 415.658981 
L 82.734672 414.620448 
L 84.637421 413.279848 
L 86.603594 411.608748 
L 88.633192 409.580179 
L 90.726216 407.168833 
L 92.946089 404.263241 
L 95.292812 400.811163 
L 97.766385 396.761461 
L 100.366808 392.064569 
L 103.09408 386.672813 
L 106.455603 379.479885 
L 109.2463 373.809124 
L 111.846723 369.010546 
L 114.320296 364.903562 
L 116.667019 361.429528 
L 118.886892 358.524051 
L 121.04334 356.054 
L 123.136364 353.984182 
L 125.165962 352.279398 
L 127.19556 350.865497 
L 129.161734 349.766166 
L 131.064482 348.948863 
L 132.96723 348.367372 
L 134.869979 348.01501 
L 136.772727 347.88514 
L 149.077167 347.884561 
L 234.003171 347.993266 
L 235.90592 348.323538 
L 237.808668 348.881442 
L 239.711416 349.673519 
L 241.614165 350.706259 
L 243.580338 352.032965 
L 245.546512 353.63001 
L 247.57611 355.568513 
L 249.669133 357.881981 
L 251.825581 360.604228 
L 254.045455 363.768274 
L 256.392178 367.511238 
L 258.865751 371.892194 
L 261.466173 376.962119 
L 264.383721 383.162254 
L 267.364693 389.324387 
L 270.155391 394.58922 
L 272.755814 399.037928 
L 275.229387 402.845033 
L 277.57611 406.061918 
L 279.795983 408.741579 
L 281.952431 410.999581 
L 283.98203 412.809976 
L 285.948203 414.271097 
L 287.850951 415.411649 
L 289.690275 416.261729 
L 291.529598 416.869436 
L 293.368922 417.243534 
L 295.27167 417.397542 
L 301.106765 417.401249 
L 311.318182 417.401249 
L 311.318182 417.401249 
" style="fill:none;stroke:#000000;stroke-linecap:square;stroke-width:4;"/>
   </g>
   <g id="patch_12">
    <path d="M 45 420.877241 
L 45 344.408276 
" style="fill:none;stroke:#000000;stroke-linecap:square;stroke-linejoin:miter;stroke-width:0.8;"/>
   </g>
   <g id="patch_13">
    <path d="M 45 420.877241 
L 324 420.877241 
" style="fill:none;stroke:#000000;stroke-linecap:square;stroke-linejoin:miter;stroke-width:0.8;"/>
   </g>
  </g>
  <g id="axes_5">
   <g id="patch_14">
    <path d="M 45 512.64 
L 324 512.64 
L 324 436.171034 
L 45 436.171034 
z
" style="fill:#ffffff;"/>
   </g>
   <g id="matplotlib.axis_9">
    <g id="xtick_13">
     <g id="line2d_5">
      <defs>
       <path d="M 0 0 
L 0 3.5 
" id="m2afa78749a" style="stroke:#000000;stroke-width:0.8;"/>
      </defs>
      <g>
       <use style="stroke:#000000;stroke-width:0.8;" x="57.681818" xlink:href="#m2afa78749a" y="512.64"/>
      </g>
     </g>
     <g id="text_11">
      <!-- 0 -->
      <g transform="translate(51.319318 534.836875)scale(0.2 -0.2)">
       <use xlink:href="#DejaVuSans-48"/>
      </g>
     </g>
    </g>
    <g id="xtick_14">
     <g id="line2d_6">
      <g>
       <use style="stroke:#000000;stroke-width:0.8;" x="184.531712" xlink:href="#m2afa78749a" y="512.64"/>
      </g>
     </g>
     <g id="text_12">
      <!-- 2000 -->
      <g transform="translate(159.081712 534.836875)scale(0.2 -0.2)">
       <use xlink:href="#DejaVuSans-50"/>
       <use x="63.623047" xlink:href="#DejaVuSans-48"/>
       <use x="127.246094" xlink:href="#DejaVuSans-48"/>
       <use x="190.869141" xlink:href="#DejaVuSans-48"/>
      </g>
     </g>
    </g>
    <g id="xtick_15">
     <g id="line2d_7">
      <g>
       <use style="stroke:#000000;stroke-width:0.8;" x="311.381607" xlink:href="#m2afa78749a" y="512.64"/>
      </g>
     </g>
     <g id="text_13">
      <!-- 4000 -->
      <g transform="translate(285.931607 534.836875)scale(0.2 -0.2)">
       <use xlink:href="#DejaVuSans-52"/>
       <use x="63.623047" xlink:href="#DejaVuSans-48"/>
       <use x="127.246094" xlink:href="#DejaVuSans-48"/>
       <use x="190.869141" xlink:href="#DejaVuSans-48"/>
      </g>
     </g>
    </g>
   </g>
   <g id="matplotlib.axis_10">
    <g id="ytick_11">
     <g id="text_14">
      <!-- 5 -->
      <g transform="translate(25.275 509.659907)scale(0.2 -0.2)">
       <use xlink:href="#DejaVuSans-53"/>
      </g>
     </g>
    </g>
    <g id="ytick_12">
     <g id="text_15">
      <!-- 10 -->
      <g transform="translate(12.55 485.921498)scale(0.2 -0.2)">
       <use xlink:href="#DejaVuSans-49"/>
       <use x="63.623047" xlink:href="#DejaVuSans-48"/>
      </g>
     </g>
    </g>
    <g id="ytick_13">
     <g id="text_16">
      <!-- 15 -->
      <g transform="translate(12.55 462.18309)scale(0.2 -0.2)">
       <use xlink:href="#DejaVuSans-49"/>
       <use x="63.623047" xlink:href="#DejaVuSans-53"/>
      </g>
     </g>
    </g>
   </g>
   <g id="line2d_8">
    <path clip-path="url(#p64db1258ac)" d="M 57.681818 509.164111 
L 75.821353 509.058276 
L 77.914376 508.741183 
L 79.943975 508.214382 
L 81.973573 507.455341 
L 83.939746 506.484035 
L 85.90592 505.267144 
L 87.872093 503.792334 
L 89.901691 501.987331 
L 91.93129 499.883896 
L 94.024313 497.391247 
L 96.180761 494.469037 
L 98.400634 491.075591 
L 100.683932 487.168161 
L 103.030655 482.703195 
L 105.440803 477.637464 
L 108.802326 470.53985 
L 111.910148 464.487209 
L 114.764271 459.410895 
L 117.364693 455.224444 
L 119.838266 451.657889 
L 122.121564 448.745455 
L 124.278013 446.344479 
L 126.307611 444.406016 
L 128.273784 442.833748 
L 130.113108 441.641506 
L 131.889006 440.750703 
L 133.60148 440.13759 
L 135.250529 439.778119 
L 136.899577 439.647443 
L 153.199789 439.64732 
L 233.749471 439.754882 
L 235.39852 440.090688 
L 237.047569 440.652304 
L 238.760042 441.471778 
L 240.535941 442.572307 
L 242.375264 443.976664 
L 244.341438 445.769333 
L 246.371036 447.927749 
L 248.527484 450.553224 
L 250.810782 453.692135 
L 253.22093 457.387606 
L 255.821353 461.790132 
L 258.612051 466.960775 
L 261.656448 473.081886 
L 268.252643 486.615424 
L 270.599366 490.673292 
L 272.882664 494.194049 
L 275.102537 497.221897 
L 277.258985 499.800045 
L 279.352008 501.970432 
L 281.445032 503.825147 
L 283.47463 505.333962 
L 285.504228 506.570115 
L 287.533827 507.547094 
L 289.563425 508.279338 
L 291.656448 508.794322 
L 293.749471 509.082863 
L 295.969345 509.164127 
L 311.318182 509.164111 
L 311.318182 509.164111 
" style="fill:none;stroke:#000000;stroke-linecap:square;stroke-width:4;"/>
   </g>
   <g id="patch_15">
    <path d="M 45 512.64 
L 45 436.171034 
" style="fill:none;stroke:#000000;stroke-linecap:square;stroke-linejoin:miter;stroke-width:0.8;"/>
   </g>
   <g id="patch_16">
    <path d="M 45 512.64 
L 324 512.64 
" style="fill:none;stroke:#000000;stroke-linecap:square;stroke-linejoin:miter;stroke-width:0.8;"/>
   </g>
  </g>
 </g>
 <defs>
  <clipPath id="p74c790c32d">
   <rect height="76.468966" width="279" x="45" y="69.12"/>
  </clipPath>
  <clipPath id="pa82bc69458">
   <rect height="76.468966" width="279" x="45" y="160.882759"/>
  </clipPath>
  <clipPath id="pabd1037265">
   <rect height="76.468966" width="279" x="45" y="252.645517"/>
  </clipPath>
  <clipPath id="p1ea644ee1f">
   <rect height="76.468966" width="279" x="45" y="344.408276"/>
  </clipPath>
  <clipPath id="p64db1258ac">
   <rect height="76.468966" width="279" x="45" y="436.171034"/>
  </clipPath>
 </defs>
</svg>
