<?xml version="1.0" encoding="utf-8" standalone="no"?>
<!DOCTYPE svg PUBLIC "-//W3C//DTD SVG 1.1//EN"
  "http://www.w3.org/Graphics/SVG/1.1/DTD/svg11.dtd">
<!-- Created with matplotlib (https://matplotlib.org/) -->
<svg height="720pt" version="1.1" viewBox="0 0 864 720" width="864pt" xmlns="http://www.w3.org/2000/svg" xmlns:xlink="http://www.w3.org/1999/xlink">
 <defs>
  <style type="text/css">
*{stroke-linecap:butt;stroke-linejoin:round;white-space:pre;}
  </style>
 </defs>
 <g id="figure_1">
  <g id="patch_1">
   <path d="M 0 720 
L 864 720 
L 864 0 
L 0 0 
z
" style="fill:#ffffff;"/>
  </g>
  <g id="axes_1">
   <g id="patch_2">
    <path d="M 59.4 331.6 
L 303.888642 331.6 
L 303.888642 26.8 
L 59.4 26.8 
z
" style="fill:#ffffff;"/>
   </g>
   <g id="patch_3">
    <path clip-path="url(#p382d8e3a56)" d="M 70.51312 331.6 
L 84.40452 331.6 
L 84.40452 88.973516 
L 70.51312 88.973516 
z
" style="stroke:#000000;stroke-linejoin:miter;"/>
   </g>
   <g id="patch_4">
    <path clip-path="url(#p382d8e3a56)" d="M 87.87737 331.6 
L 101.76877 331.6 
L 101.76877 259.784243 
L 87.87737 259.784243 
z
" style="stroke:#000000;stroke-linejoin:miter;"/>
   </g>
   <g id="patch_5">
    <path clip-path="url(#p382d8e3a56)" d="M 105.24162 331.6 
L 119.13302 331.6 
L 119.13302 259.784243 
L 105.24162 259.784243 
z
" style="stroke:#000000;stroke-linejoin:miter;"/>
   </g>
   <g id="patch_6">
    <path clip-path="url(#p382d8e3a56)" d="M 122.60587 331.6 
L 136.49727 331.6 
L 136.49727 134.820484 
L 122.60587 134.820484 
z
" style="stroke:#000000;stroke-linejoin:miter;"/>
   </g>
   <g id="patch_7">
    <path clip-path="url(#p382d8e3a56)" d="M 139.970121 331.6 
L 153.861521 331.6 
L 153.861521 240.801907 
L 139.970121 240.801907 
z
" style="stroke:#000000;stroke-linejoin:miter;"/>
   </g>
   <g id="patch_8">
    <path clip-path="url(#p382d8e3a56)" d="M 209.427121 331.6 
L 223.318521 331.6 
L 223.318521 331.6 
L 209.427121 331.6 
z
" style="fill:#ff0000;stroke:#000000;stroke-linejoin:miter;"/>
   </g>
   <g id="patch_9">
    <path clip-path="url(#p382d8e3a56)" d="M 226.791371 331.6 
L 240.682771 331.6 
L 240.682771 331.6 
L 226.791371 331.6 
z
" style="fill:#ff0000;stroke:#000000;stroke-linejoin:miter;"/>
   </g>
   <g id="patch_10">
    <path clip-path="url(#p382d8e3a56)" d="M 244.155621 331.6 
L 258.047021 331.6 
L 258.047021 331.6 
L 244.155621 331.6 
z
" style="fill:#ff0000;stroke:#000000;stroke-linejoin:miter;"/>
   </g>
   <g id="patch_11">
    <path clip-path="url(#p382d8e3a56)" d="M 261.519871 331.6 
L 275.411271 331.6 
L 275.411271 220.786309 
L 261.519871 220.786309 
z
" style="fill:#ff0000;stroke:#000000;stroke-linejoin:miter;"/>
   </g>
   <g id="patch_12">
    <path clip-path="url(#p382d8e3a56)" d="M 278.884121 331.6 
L 292.775521 331.6 
L 292.775521 293.596848 
L 278.884121 293.596848 
z
" style="fill:#ff0000;stroke:#000000;stroke-linejoin:miter;"/>
   </g>
   <g id="matplotlib.axis_1">
    <g id="xtick_1">
     <g id="text_1">
      <!-- 1 -->
      <defs>
       <path d="M 12.40625 8.296875 
L 28.515625 8.296875 
L 28.515625 63.921875 
L 10.984375 60.40625 
L 10.984375 69.390625 
L 28.421875 72.90625 
L 38.28125 72.90625 
L 38.28125 8.296875 
L 54.390625 8.296875 
L 54.390625 0 
L 12.40625 0 
z
" id="DejaVuSans-49"/>
      </defs>
      <g transform="translate(74.27757 346.198438)scale(0.1 -0.1)">
       <use xlink:href="#DejaVuSans-49"/>
      </g>
     </g>
    </g>
    <g id="xtick_2">
     <g id="text_2">
      <!-- 2 -->
      <defs>
       <path d="M 19.1875 8.296875 
L 53.609375 8.296875 
L 53.609375 0 
L 7.328125 0 
L 7.328125 8.296875 
Q 12.9375 14.109375 22.625 23.890625 
Q 32.328125 33.6875 34.8125 36.53125 
Q 39.546875 41.84375 41.421875 45.53125 
Q 43.3125 49.21875 43.3125 52.78125 
Q 43.3125 58.59375 39.234375 62.25 
Q 35.15625 65.921875 28.609375 65.921875 
Q 23.96875 65.921875 18.8125 64.3125 
Q 13.671875 62.703125 7.8125 59.421875 
L 7.8125 69.390625 
Q 13.765625 71.78125 18.9375 73 
Q 24.125 74.21875 28.421875 74.21875 
Q 39.75 74.21875 46.484375 68.546875 
Q 53.21875 62.890625 53.21875 53.421875 
Q 53.21875 48.921875 51.53125 44.890625 
Q 49.859375 40.875 45.40625 35.40625 
Q 44.1875 33.984375 37.640625 27.21875 
Q 31.109375 20.453125 19.1875 8.296875 
z
" id="DejaVuSans-50"/>
      </defs>
      <g transform="translate(91.64182 346.198438)scale(0.1 -0.1)">
       <use xlink:href="#DejaVuSans-50"/>
      </g>
     </g>
    </g>
    <g id="xtick_3">
     <g id="text_3">
      <!-- 3 -->
      <defs>
       <path d="M 40.578125 39.3125 
Q 47.65625 37.796875 51.625 33 
Q 55.609375 28.21875 55.609375 21.1875 
Q 55.609375 10.40625 48.1875 4.484375 
Q 40.765625 -1.421875 27.09375 -1.421875 
Q 22.515625 -1.421875 17.65625 -0.515625 
Q 12.796875 0.390625 7.625 2.203125 
L 7.625 11.71875 
Q 11.71875 9.328125 16.59375 8.109375 
Q 21.484375 6.890625 26.8125 6.890625 
Q 36.078125 6.890625 40.9375 10.546875 
Q 45.796875 14.203125 45.796875 21.1875 
Q 45.796875 27.640625 41.28125 31.265625 
Q 36.765625 34.90625 28.71875 34.90625 
L 20.21875 34.90625 
L 20.21875 43.015625 
L 29.109375 43.015625 
Q 36.375 43.015625 40.234375 45.921875 
Q 44.09375 48.828125 44.09375 54.296875 
Q 44.09375 59.90625 40.109375 62.90625 
Q 36.140625 65.921875 28.71875 65.921875 
Q 24.65625 65.921875 20.015625 65.03125 
Q 15.375 64.15625 9.8125 62.3125 
L 9.8125 71.09375 
Q 15.4375 72.65625 20.34375 73.4375 
Q 25.25 74.21875 29.59375 74.21875 
Q 40.828125 74.21875 47.359375 69.109375 
Q 53.90625 64.015625 53.90625 55.328125 
Q 53.90625 49.265625 50.4375 45.09375 
Q 46.96875 40.921875 40.578125 39.3125 
z
" id="DejaVuSans-51"/>
      </defs>
      <g transform="translate(109.00607 346.198438)scale(0.1 -0.1)">
       <use xlink:href="#DejaVuSans-51"/>
      </g>
     </g>
    </g>
    <g id="xtick_4">
     <g id="text_4">
      <!-- 4 -->
      <defs>
       <path d="M 37.796875 64.3125 
L 12.890625 25.390625 
L 37.796875 25.390625 
z
M 35.203125 72.90625 
L 47.609375 72.90625 
L 47.609375 25.390625 
L 58.015625 25.390625 
L 58.015625 17.1875 
L 47.609375 17.1875 
L 47.609375 0 
L 37.796875 0 
L 37.796875 17.1875 
L 4.890625 17.1875 
L 4.890625 26.703125 
z
" id="DejaVuSans-52"/>
      </defs>
      <g transform="translate(126.37032 346.198438)scale(0.1 -0.1)">
       <use xlink:href="#DejaVuSans-52"/>
      </g>
     </g>
    </g>
    <g id="xtick_5">
     <g id="text_5">
      <!-- 5 -->
      <defs>
       <path d="M 10.796875 72.90625 
L 49.515625 72.90625 
L 49.515625 64.59375 
L 19.828125 64.59375 
L 19.828125 46.734375 
Q 21.96875 47.46875 24.109375 47.828125 
Q 26.265625 48.1875 28.421875 48.1875 
Q 40.625 48.1875 47.75 41.5 
Q 54.890625 34.8125 54.890625 23.390625 
Q 54.890625 11.625 47.5625 5.09375 
Q 40.234375 -1.421875 26.90625 -1.421875 
Q 22.3125 -1.421875 17.546875 -0.640625 
Q 12.796875 0.140625 7.71875 1.703125 
L 7.71875 11.625 
Q 12.109375 9.234375 16.796875 8.0625 
Q 21.484375 6.890625 26.703125 6.890625 
Q 35.15625 6.890625 40.078125 11.328125 
Q 45.015625 15.765625 45.015625 23.390625 
Q 45.015625 31 40.078125 35.4375 
Q 35.15625 39.890625 26.703125 39.890625 
Q 22.75 39.890625 18.8125 39.015625 
Q 14.890625 38.140625 10.796875 36.28125 
z
" id="DejaVuSans-53"/>
      </defs>
      <g transform="translate(143.734571 346.198438)scale(0.1 -0.1)">
       <use xlink:href="#DejaVuSans-53"/>
      </g>
     </g>
    </g>
    <g id="xtick_6">
     <g id="text_6">
      <!-- 1 -->
      <g transform="translate(213.191571 346.198438)scale(0.1 -0.1)">
       <use xlink:href="#DejaVuSans-49"/>
      </g>
     </g>
    </g>
    <g id="xtick_7">
     <g id="text_7">
      <!-- 2 -->
      <g transform="translate(230.555821 346.198438)scale(0.1 -0.1)">
       <use xlink:href="#DejaVuSans-50"/>
      </g>
     </g>
    </g>
    <g id="xtick_8">
     <g id="text_8">
      <!-- 3 -->
      <g transform="translate(247.920071 346.198438)scale(0.1 -0.1)">
       <use xlink:href="#DejaVuSans-51"/>
      </g>
     </g>
    </g>
    <g id="xtick_9">
     <g id="text_9">
      <!-- 4 -->
      <g transform="translate(265.284321 346.198438)scale(0.1 -0.1)">
       <use xlink:href="#DejaVuSans-52"/>
      </g>
     </g>
    </g>
    <g id="xtick_10">
     <g id="text_10">
      <!-- 5 -->
      <g transform="translate(282.648571 346.198438)scale(0.1 -0.1)">
       <use xlink:href="#DejaVuSans-53"/>
      </g>
     </g>
    </g>
    <g id="text_11">
     <!-- Channels -->
     <defs>
      <path d="M 67 4 
Q 61.8125 1.3125 56.203125 -0.046875 
Q 50.59375 -1.421875 44.484375 -1.421875 
Q 26.265625 -1.421875 15.625 8.765625 
Q 4.984375 18.953125 4.984375 36.375 
Q 4.984375 53.859375 15.625 64.03125 
Q 26.265625 74.21875 44.484375 74.21875 
Q 50.59375 74.21875 56.203125 72.84375 
Q 61.8125 71.484375 67 68.796875 
L 67 53.71875 
Q 61.765625 57.28125 56.6875 58.9375 
Q 51.609375 60.59375 46 60.59375 
Q 35.9375 60.59375 30.171875 54.140625 
Q 24.421875 47.703125 24.421875 36.375 
Q 24.421875 25.09375 30.171875 18.640625 
Q 35.9375 12.203125 46 12.203125 
Q 51.609375 12.203125 56.6875 13.859375 
Q 61.765625 15.53125 67 19.09375 
z
" id="DejaVuSans-Bold-67"/>
      <path d="M 63.375 33.296875 
L 63.375 0 
L 45.796875 0 
L 45.796875 5.421875 
L 45.796875 25.390625 
Q 45.796875 32.5625 45.484375 35.25 
Q 45.171875 37.9375 44.390625 39.203125 
Q 43.359375 40.921875 41.59375 41.875 
Q 39.84375 42.828125 37.59375 42.828125 
Q 32.125 42.828125 29 38.59375 
Q 25.875 34.375 25.875 26.90625 
L 25.875 0 
L 8.40625 0 
L 8.40625 75.984375 
L 25.875 75.984375 
L 25.875 46.6875 
Q 29.828125 51.46875 34.265625 53.734375 
Q 38.71875 56 44.09375 56 
Q 53.5625 56 58.46875 50.1875 
Q 63.375 44.390625 63.375 33.296875 
z
" id="DejaVuSans-Bold-104"/>
      <path d="M 32.90625 24.609375 
Q 27.4375 24.609375 24.671875 22.75 
Q 21.921875 20.90625 21.921875 17.28125 
Q 21.921875 13.96875 24.140625 12.078125 
Q 26.375 10.203125 30.328125 10.203125 
Q 35.25 10.203125 38.625 13.734375 
Q 42 17.28125 42 22.609375 
L 42 24.609375 
z
M 59.625 31.203125 
L 59.625 0 
L 42 0 
L 42 8.109375 
Q 38.484375 3.125 34.078125 0.84375 
Q 29.6875 -1.421875 23.390625 -1.421875 
Q 14.890625 -1.421875 9.59375 3.53125 
Q 4.296875 8.5 4.296875 16.40625 
Q 4.296875 26.03125 10.90625 30.515625 
Q 17.53125 35.015625 31.6875 35.015625 
L 42 35.015625 
L 42 36.375 
Q 42 40.53125 38.71875 42.453125 
Q 35.453125 44.390625 28.515625 44.390625 
Q 22.90625 44.390625 18.0625 43.265625 
Q 13.234375 42.140625 9.078125 39.890625 
L 9.078125 53.21875 
Q 14.703125 54.59375 20.359375 55.296875 
Q 26.03125 56 31.6875 56 
Q 46.484375 56 53.046875 50.171875 
Q 59.625 44.34375 59.625 31.203125 
z
" id="DejaVuSans-Bold-97"/>
      <path d="M 63.375 33.296875 
L 63.375 0 
L 45.796875 0 
L 45.796875 5.421875 
L 45.796875 25.484375 
Q 45.796875 32.5625 45.484375 35.25 
Q 45.171875 37.9375 44.390625 39.203125 
Q 43.359375 40.921875 41.59375 41.875 
Q 39.84375 42.828125 37.59375 42.828125 
Q 32.125 42.828125 29 38.59375 
Q 25.875 34.375 25.875 26.90625 
L 25.875 0 
L 8.40625 0 
L 8.40625 54.6875 
L 25.875 54.6875 
L 25.875 46.6875 
Q 29.828125 51.46875 34.265625 53.734375 
Q 38.71875 56 44.09375 56 
Q 53.5625 56 58.46875 50.1875 
Q 63.375 44.390625 63.375 33.296875 
z
" id="DejaVuSans-Bold-110"/>
      <path d="M 62.984375 27.484375 
L 62.984375 22.515625 
L 22.125 22.515625 
Q 22.75 16.359375 26.5625 13.28125 
Q 30.375 10.203125 37.203125 10.203125 
Q 42.71875 10.203125 48.5 11.84375 
Q 54.296875 13.484375 60.40625 16.796875 
L 60.40625 3.328125 
Q 54.203125 0.984375 48 -0.21875 
Q 41.796875 -1.421875 35.59375 -1.421875 
Q 20.75 -1.421875 12.515625 6.125 
Q 4.296875 13.671875 4.296875 27.296875 
Q 4.296875 40.671875 12.375 48.328125 
Q 20.453125 56 34.625 56 
Q 47.515625 56 55.25 48.234375 
Q 62.984375 40.484375 62.984375 27.484375 
z
M 45.015625 33.296875 
Q 45.015625 38.28125 42.109375 41.328125 
Q 39.203125 44.390625 34.515625 44.390625 
Q 29.4375 44.390625 26.265625 41.53125 
Q 23.09375 38.671875 22.3125 33.296875 
z
" id="DejaVuSans-Bold-101"/>
      <path d="M 8.40625 75.984375 
L 25.875 75.984375 
L 25.875 0 
L 8.40625 0 
z
" id="DejaVuSans-Bold-108"/>
      <path d="M 51.125 52.984375 
L 51.125 39.703125 
Q 45.515625 42.046875 40.28125 43.21875 
Q 35.0625 44.390625 30.421875 44.390625 
Q 25.4375 44.390625 23.015625 43.140625 
Q 20.609375 41.890625 20.609375 39.3125 
Q 20.609375 37.203125 22.4375 36.078125 
Q 24.265625 34.96875 29 34.421875 
L 32.078125 33.984375 
Q 45.515625 32.28125 50.140625 28.375 
Q 54.78125 24.46875 54.78125 16.109375 
Q 54.78125 7.375 48.328125 2.96875 
Q 41.890625 -1.421875 29.109375 -1.421875 
Q 23.6875 -1.421875 17.890625 -0.5625 
Q 12.109375 0.296875 6 2 
L 6 15.28125 
Q 11.234375 12.75 16.71875 11.46875 
Q 22.21875 10.203125 27.875 10.203125 
Q 33.015625 10.203125 35.59375 11.609375 
Q 38.1875 13.03125 38.1875 15.828125 
Q 38.1875 18.171875 36.40625 19.3125 
Q 34.625 20.453125 29.296875 21.09375 
L 26.21875 21.484375 
Q 14.546875 22.953125 9.859375 26.90625 
Q 5.171875 30.859375 5.171875 38.921875 
Q 5.171875 47.609375 11.125 51.796875 
Q 17.09375 56 29.390625 56 
Q 34.234375 56 39.546875 55.265625 
Q 44.875 54.546875 51.125 52.984375 
z
" id="DejaVuSans-Bold-115"/>
     </defs>
     <g transform="translate(155.841196 359.876563)scale(0.1 -0.1)">
      <use xlink:href="#DejaVuSans-Bold-67"/>
      <use x="73.388672" xlink:href="#DejaVuSans-Bold-104"/>
      <use x="144.580078" xlink:href="#DejaVuSans-Bold-97"/>
      <use x="212.060547" xlink:href="#DejaVuSans-Bold-110"/>
      <use x="283.251953" xlink:href="#DejaVuSans-Bold-110"/>
      <use x="354.443359" xlink:href="#DejaVuSans-Bold-101"/>
      <use x="422.265625" xlink:href="#DejaVuSans-Bold-108"/>
      <use x="456.542969" xlink:href="#DejaVuSans-Bold-115"/>
     </g>
    </g>
   </g>
   <g id="matplotlib.axis_2">
    <g id="ytick_1"/>
    <g id="ytick_2"/>
    <g id="ytick_3"/>
    <g id="ytick_4"/>
    <g id="ytick_5"/>
    <g id="ytick_6"/>
    <g id="ytick_7"/>
    <g id="text_12">
     <!-- Vector Normalized  -->
     <defs>
      <path d="M 0.484375 72.90625 
L 19.390625 72.90625 
L 38.71875 19.09375 
L 58.015625 72.90625 
L 76.90625 72.90625 
L 49.90625 0 
L 27.484375 0 
z
" id="DejaVuSans-Bold-86"/>
      <path d="M 52.59375 52.984375 
L 52.59375 38.71875 
Q 49.03125 41.15625 45.4375 42.328125 
Q 41.84375 43.5 37.984375 43.5 
Q 30.671875 43.5 26.59375 39.234375 
Q 22.515625 34.96875 22.515625 27.296875 
Q 22.515625 19.625 26.59375 15.34375 
Q 30.671875 11.078125 37.984375 11.078125 
Q 42.09375 11.078125 45.78125 12.296875 
Q 49.46875 13.53125 52.59375 15.921875 
L 52.59375 1.609375 
Q 48.484375 0.09375 44.265625 -0.65625 
Q 40.046875 -1.421875 35.796875 -1.421875 
Q 21 -1.421875 12.640625 6.171875 
Q 4.296875 13.765625 4.296875 27.296875 
Q 4.296875 40.828125 12.640625 48.40625 
Q 21 56 35.796875 56 
Q 40.09375 56 44.265625 55.25 
Q 48.4375 54.5 52.59375 52.984375 
z
" id="DejaVuSans-Bold-99"/>
      <path d="M 27.484375 70.21875 
L 27.484375 54.6875 
L 45.515625 54.6875 
L 45.515625 42.1875 
L 27.484375 42.1875 
L 27.484375 19 
Q 27.484375 15.1875 29 13.84375 
Q 30.515625 12.5 35.015625 12.5 
L 44 12.5 
L 44 0 
L 29 0 
Q 18.65625 0 14.328125 4.3125 
Q 10.015625 8.640625 10.015625 19 
L 10.015625 42.1875 
L 1.3125 42.1875 
L 1.3125 54.6875 
L 10.015625 54.6875 
L 10.015625 70.21875 
z
" id="DejaVuSans-Bold-116"/>
      <path d="M 34.421875 43.5 
Q 28.609375 43.5 25.5625 39.328125 
Q 22.515625 35.15625 22.515625 27.296875 
Q 22.515625 19.4375 25.5625 15.25 
Q 28.609375 11.078125 34.421875 11.078125 
Q 40.140625 11.078125 43.15625 15.25 
Q 46.1875 19.4375 46.1875 27.296875 
Q 46.1875 35.15625 43.15625 39.328125 
Q 40.140625 43.5 34.421875 43.5 
z
M 34.421875 56 
Q 48.53125 56 56.46875 48.375 
Q 64.40625 40.765625 64.40625 27.296875 
Q 64.40625 13.8125 56.46875 6.1875 
Q 48.53125 -1.421875 34.421875 -1.421875 
Q 20.265625 -1.421875 12.28125 6.1875 
Q 4.296875 13.8125 4.296875 27.296875 
Q 4.296875 40.765625 12.28125 48.375 
Q 20.265625 56 34.421875 56 
z
" id="DejaVuSans-Bold-111"/>
      <path d="M 49.03125 39.796875 
Q 46.734375 40.875 44.453125 41.375 
Q 42.1875 41.890625 39.890625 41.890625 
Q 33.15625 41.890625 29.515625 37.5625 
Q 25.875 33.25 25.875 25.203125 
L 25.875 0 
L 8.40625 0 
L 8.40625 54.6875 
L 25.875 54.6875 
L 25.875 45.703125 
Q 29.25 51.078125 33.609375 53.53125 
Q 37.984375 56 44.09375 56 
Q 44.96875 56 45.984375 55.921875 
Q 47.015625 55.859375 48.96875 55.609375 
z
" id="DejaVuSans-Bold-114"/>
      <path id="DejaVuSans-Bold-32"/>
      <path d="M 9.1875 72.90625 
L 30.171875 72.90625 
L 56.6875 22.90625 
L 56.6875 72.90625 
L 74.515625 72.90625 
L 74.515625 0 
L 53.515625 0 
L 27 50 
L 27 0 
L 9.1875 0 
z
" id="DejaVuSans-Bold-78"/>
      <path d="M 59.078125 45.609375 
Q 62.40625 50.6875 66.96875 53.34375 
Q 71.53125 56 77 56 
Q 86.421875 56 91.359375 50.1875 
Q 96.296875 44.390625 96.296875 33.296875 
L 96.296875 0 
L 78.71875 0 
L 78.71875 28.515625 
Q 78.765625 29.15625 78.78125 29.828125 
Q 78.8125 30.515625 78.8125 31.78125 
Q 78.8125 37.59375 77.09375 40.203125 
Q 75.390625 42.828125 71.578125 42.828125 
Q 66.609375 42.828125 63.890625 38.71875 
Q 61.1875 34.625 61.078125 26.859375 
L 61.078125 0 
L 43.5 0 
L 43.5 28.515625 
Q 43.5 37.59375 41.9375 40.203125 
Q 40.375 42.828125 36.375 42.828125 
Q 31.34375 42.828125 28.609375 38.703125 
Q 25.875 34.578125 25.875 26.90625 
L 25.875 0 
L 8.296875 0 
L 8.296875 54.6875 
L 25.875 54.6875 
L 25.875 46.6875 
Q 29.109375 51.3125 33.28125 53.65625 
Q 37.453125 56 42.484375 56 
Q 48.140625 56 52.484375 53.265625 
Q 56.84375 50.53125 59.078125 45.609375 
z
" id="DejaVuSans-Bold-109"/>
      <path d="M 8.40625 54.6875 
L 25.875 54.6875 
L 25.875 0 
L 8.40625 0 
z
M 8.40625 75.984375 
L 25.875 75.984375 
L 25.875 61.71875 
L 8.40625 61.71875 
z
" id="DejaVuSans-Bold-105"/>
      <path d="M 5.71875 54.6875 
L 53.421875 54.6875 
L 53.421875 42.484375 
L 24.609375 12.5 
L 53.421875 12.5 
L 53.421875 0 
L 4.5 0 
L 4.5 12.203125 
L 33.296875 42.1875 
L 5.71875 42.1875 
z
" id="DejaVuSans-Bold-122"/>
      <path d="M 45.609375 46.6875 
L 45.609375 75.984375 
L 63.1875 75.984375 
L 63.1875 0 
L 45.609375 0 
L 45.609375 7.90625 
Q 42 3.078125 37.640625 0.828125 
Q 33.296875 -1.421875 27.59375 -1.421875 
Q 17.484375 -1.421875 10.984375 6.609375 
Q 4.5 14.65625 4.5 27.296875 
Q 4.5 39.9375 10.984375 47.96875 
Q 17.484375 56 27.59375 56 
Q 33.25 56 37.625 53.734375 
Q 42 51.46875 45.609375 46.6875 
z
M 34.078125 11.28125 
Q 39.703125 11.28125 42.65625 15.375 
Q 45.609375 19.484375 45.609375 27.296875 
Q 45.609375 35.109375 42.65625 39.203125 
Q 39.703125 43.3125 34.078125 43.3125 
Q 28.515625 43.3125 25.5625 39.203125 
Q 22.609375 35.109375 22.609375 27.296875 
Q 22.609375 19.484375 25.5625 15.375 
Q 28.515625 11.28125 34.078125 11.28125 
z
" id="DejaVuSans-Bold-100"/>
     </defs>
     <g transform="translate(42.1225 233.171094)rotate(-90)scale(0.1 -0.1)">
      <use xlink:href="#DejaVuSans-Bold-86"/>
      <use x="77.314453" xlink:href="#DejaVuSans-Bold-101"/>
      <use x="145.136719" xlink:href="#DejaVuSans-Bold-99"/>
      <use x="204.414062" xlink:href="#DejaVuSans-Bold-116"/>
      <use x="252.216797" xlink:href="#DejaVuSans-Bold-111"/>
      <use x="320.917969" xlink:href="#DejaVuSans-Bold-114"/>
      <use x="370.234375" xlink:href="#DejaVuSans-Bold-32"/>
      <use x="405.048828" xlink:href="#DejaVuSans-Bold-78"/>
      <use x="488.740234" xlink:href="#DejaVuSans-Bold-111"/>
      <use x="557.441406" xlink:href="#DejaVuSans-Bold-114"/>
      <use x="606.757812" xlink:href="#DejaVuSans-Bold-109"/>
      <use x="710.957031" xlink:href="#DejaVuSans-Bold-97"/>
      <use x="778.4375" xlink:href="#DejaVuSans-Bold-108"/>
      <use x="812.714844" xlink:href="#DejaVuSans-Bold-105"/>
      <use x="846.992188" xlink:href="#DejaVuSans-Bold-122"/>
      <use x="905.195312" xlink:href="#DejaVuSans-Bold-101"/>
      <use x="973.017578" xlink:href="#DejaVuSans-Bold-100"/>
      <use x="1044.599609" xlink:href="#DejaVuSans-Bold-32"/>
     </g>
     <!--  Amplitude /arb. units -->
     <defs>
      <path d="M 53.421875 13.28125 
L 24.03125 13.28125 
L 19.390625 0 
L 0.484375 0 
L 27.484375 72.90625 
L 49.90625 72.90625 
L 76.90625 0 
L 58.015625 0 
z
M 28.71875 26.8125 
L 48.6875 26.8125 
L 38.71875 55.8125 
z
" id="DejaVuSans-Bold-65"/>
      <path d="M 25.875 7.90625 
L 25.875 -20.796875 
L 8.40625 -20.796875 
L 8.40625 54.6875 
L 25.875 54.6875 
L 25.875 46.6875 
Q 29.5 51.46875 33.890625 53.734375 
Q 38.28125 56 44 56 
Q 54.109375 56 60.59375 47.96875 
Q 67.09375 39.9375 67.09375 27.296875 
Q 67.09375 14.65625 60.59375 6.609375 
Q 54.109375 -1.421875 44 -1.421875 
Q 38.28125 -1.421875 33.890625 0.84375 
Q 29.5 3.125 25.875 7.90625 
z
M 37.5 43.3125 
Q 31.890625 43.3125 28.875 39.1875 
Q 25.875 35.0625 25.875 27.296875 
Q 25.875 19.53125 28.875 15.40625 
Q 31.890625 11.28125 37.5 11.28125 
Q 43.109375 11.28125 46.0625 15.375 
Q 49.03125 19.484375 49.03125 27.296875 
Q 49.03125 35.109375 46.0625 39.203125 
Q 43.109375 43.3125 37.5 43.3125 
z
" id="DejaVuSans-Bold-112"/>
      <path d="M 7.8125 21.296875 
L 7.8125 54.6875 
L 25.390625 54.6875 
L 25.390625 49.21875 
Q 25.390625 44.78125 25.34375 38.0625 
Q 25.296875 31.34375 25.296875 29.109375 
Q 25.296875 22.515625 25.640625 19.609375 
Q 25.984375 16.703125 26.8125 15.375 
Q 27.875 13.671875 29.609375 12.734375 
Q 31.34375 11.8125 33.59375 11.8125 
Q 39.0625 11.8125 42.1875 16.015625 
Q 45.3125 20.21875 45.3125 27.6875 
L 45.3125 54.6875 
L 62.796875 54.6875 
L 62.796875 0 
L 45.3125 0 
L 45.3125 7.90625 
Q 41.359375 3.125 36.9375 0.84375 
Q 32.515625 -1.421875 27.203125 -1.421875 
Q 17.71875 -1.421875 12.765625 4.390625 
Q 7.8125 10.203125 7.8125 21.296875 
z
" id="DejaVuSans-Bold-117"/>
      <path d="M 25.6875 72.90625 
L 36.53125 72.90625 
L 10.796875 -9.28125 
L 0 -9.28125 
z
" id="DejaVuSans-Bold-47"/>
      <path d="M 37.5 11.28125 
Q 43.109375 11.28125 46.0625 15.375 
Q 49.03125 19.484375 49.03125 27.296875 
Q 49.03125 35.109375 46.0625 39.203125 
Q 43.109375 43.3125 37.5 43.3125 
Q 31.890625 43.3125 28.875 39.1875 
Q 25.875 35.0625 25.875 27.296875 
Q 25.875 19.53125 28.875 15.40625 
Q 31.890625 11.28125 37.5 11.28125 
z
M 25.875 46.6875 
Q 29.5 51.46875 33.890625 53.734375 
Q 38.28125 56 44 56 
Q 54.109375 56 60.59375 47.96875 
Q 67.09375 39.9375 67.09375 27.296875 
Q 67.09375 14.65625 60.59375 6.609375 
Q 54.109375 -1.421875 44 -1.421875 
Q 38.28125 -1.421875 33.890625 0.84375 
Q 29.5 3.125 25.875 7.90625 
L 25.875 0 
L 8.40625 0 
L 8.40625 75.984375 
L 25.875 75.984375 
z
" id="DejaVuSans-Bold-98"/>
      <path d="M 10.203125 18.890625 
L 27.78125 18.890625 
L 27.78125 0 
L 10.203125 0 
z
" id="DejaVuSans-Bold-46"/>
     </defs>
     <g transform="translate(53.320312 240.771094)rotate(-90)scale(0.1 -0.1)">
      <use xlink:href="#DejaVuSans-Bold-32"/>
      <use x="34.814453" xlink:href="#DejaVuSans-Bold-65"/>
      <use x="112.207031" xlink:href="#DejaVuSans-Bold-109"/>
      <use x="216.40625" xlink:href="#DejaVuSans-Bold-112"/>
      <use x="287.988281" xlink:href="#DejaVuSans-Bold-108"/>
      <use x="322.265625" xlink:href="#DejaVuSans-Bold-105"/>
      <use x="356.542969" xlink:href="#DejaVuSans-Bold-116"/>
      <use x="404.345703" xlink:href="#DejaVuSans-Bold-117"/>
      <use x="475.537109" xlink:href="#DejaVuSans-Bold-100"/>
      <use x="547.119141" xlink:href="#DejaVuSans-Bold-101"/>
      <use x="614.941406" xlink:href="#DejaVuSans-Bold-32"/>
      <use x="649.755859" xlink:href="#DejaVuSans-Bold-47"/>
      <use x="686.279297" xlink:href="#DejaVuSans-Bold-97"/>
      <use x="753.759766" xlink:href="#DejaVuSans-Bold-114"/>
      <use x="803.076172" xlink:href="#DejaVuSans-Bold-98"/>
      <use x="874.658203" xlink:href="#DejaVuSans-Bold-46"/>
      <use x="912.646484" xlink:href="#DejaVuSans-Bold-32"/>
      <use x="947.460938" xlink:href="#DejaVuSans-Bold-117"/>
      <use x="1018.652344" xlink:href="#DejaVuSans-Bold-110"/>
      <use x="1089.84375" xlink:href="#DejaVuSans-Bold-105"/>
      <use x="1124.121094" xlink:href="#DejaVuSans-Bold-116"/>
      <use x="1171.923828" xlink:href="#DejaVuSans-Bold-115"/>
     </g>
    </g>
   </g>
   <g id="patch_13">
    <path d="M 59.4 331.6 
L 59.4 26.8 
" style="fill:none;stroke:#000000;stroke-linecap:square;stroke-linejoin:miter;stroke-width:0.8;"/>
   </g>
   <g id="patch_14">
    <path d="M 59.4 331.6 
L 303.888642 331.6 
" style="fill:none;stroke:#000000;stroke-linecap:square;stroke-linejoin:miter;stroke-width:0.8;"/>
   </g>
   <g id="text_13">
    <!-- Healthy -->
    <defs>
     <path d="M 9.1875 72.90625 
L 27.984375 72.90625 
L 27.984375 45.125 
L 55.71875 45.125 
L 55.71875 72.90625 
L 74.515625 72.90625 
L 74.515625 0 
L 55.71875 0 
L 55.71875 30.90625 
L 27.984375 30.90625 
L 27.984375 0 
L 9.1875 0 
z
" id="DejaVuSans-Bold-72"/>
     <path d="M 1.21875 54.6875 
L 18.703125 54.6875 
L 33.40625 17.578125 
L 45.90625 54.6875 
L 63.375 54.6875 
L 40.375 -5.171875 
Q 36.921875 -14.3125 32.296875 -17.9375 
Q 27.6875 -21.578125 20.125 -21.578125 
L 10.015625 -21.578125 
L 10.015625 -10.109375 
L 15.484375 -10.109375 
Q 19.921875 -10.109375 21.9375 -8.6875 
Q 23.96875 -7.28125 25.09375 -3.609375 
L 25.59375 -2.09375 
z
" id="DejaVuSans-Bold-121"/>
    </defs>
    <g transform="translate(154.3035 20.8)scale(0.125 -0.125)">
     <use xlink:href="#DejaVuSans-Bold-72"/>
     <use x="83.691406" xlink:href="#DejaVuSans-Bold-101"/>
     <use x="151.513672" xlink:href="#DejaVuSans-Bold-97"/>
     <use x="218.994141" xlink:href="#DejaVuSans-Bold-108"/>
     <use x="253.271484" xlink:href="#DejaVuSans-Bold-116"/>
     <use x="301.074219" xlink:href="#DejaVuSans-Bold-104"/>
     <use x="372.265625" xlink:href="#DejaVuSans-Bold-121"/>
    </g>
   </g>
   <g id="legend_1">
    <g id="patch_15">
     <path d="M 220.317617 87.76 
L 302.992617 87.76 
Q 304.992617 87.76 304.992617 85.76 
L 304.992617 57.40375 
Q 304.992617 55.40375 302.992617 55.40375 
L 220.317617 55.40375 
Q 218.317617 55.40375 218.317617 57.40375 
L 218.317617 85.76 
Q 218.317617 87.76 220.317617 87.76 
z
" style="fill:#ffffff;opacity:0.8;stroke:#cccccc;stroke-linejoin:miter;"/>
    </g>
    <g id="patch_16">
     <path d="M 222.317617 67.002187 
L 242.317617 67.002187 
L 242.317617 60.002187 
L 222.317617 60.002187 
z
" style="stroke:#000000;stroke-linejoin:miter;"/>
    </g>
    <g id="text_14">
     <!-- Synergy 1 -->
     <defs>
      <path d="M 53.515625 70.515625 
L 53.515625 60.890625 
Q 47.90625 63.578125 42.921875 64.890625 
Q 37.9375 66.21875 33.296875 66.21875 
Q 25.25 66.21875 20.875 63.09375 
Q 16.5 59.96875 16.5 54.203125 
Q 16.5 49.359375 19.40625 46.890625 
Q 22.3125 44.4375 30.421875 42.921875 
L 36.375 41.703125 
Q 47.40625 39.59375 52.65625 34.296875 
Q 57.90625 29 57.90625 20.125 
Q 57.90625 9.515625 50.796875 4.046875 
Q 43.703125 -1.421875 29.984375 -1.421875 
Q 24.8125 -1.421875 18.96875 -0.25 
Q 13.140625 0.921875 6.890625 3.21875 
L 6.890625 13.375 
Q 12.890625 10.015625 18.65625 8.296875 
Q 24.421875 6.59375 29.984375 6.59375 
Q 38.421875 6.59375 43.015625 9.90625 
Q 47.609375 13.234375 47.609375 19.390625 
Q 47.609375 24.75 44.3125 27.78125 
Q 41.015625 30.8125 33.5 32.328125 
L 27.484375 33.5 
Q 16.453125 35.6875 11.515625 40.375 
Q 6.59375 45.0625 6.59375 53.421875 
Q 6.59375 63.09375 13.40625 68.65625 
Q 20.21875 74.21875 32.171875 74.21875 
Q 37.3125 74.21875 42.625 73.28125 
Q 47.953125 72.359375 53.515625 70.515625 
z
" id="DejaVuSans-83"/>
      <path d="M 32.171875 -5.078125 
Q 28.375 -14.84375 24.75 -17.8125 
Q 21.140625 -20.796875 15.09375 -20.796875 
L 7.90625 -20.796875 
L 7.90625 -13.28125 
L 13.1875 -13.28125 
Q 16.890625 -13.28125 18.9375 -11.515625 
Q 21 -9.765625 23.484375 -3.21875 
L 25.09375 0.875 
L 2.984375 54.6875 
L 12.5 54.6875 
L 29.59375 11.921875 
L 46.6875 54.6875 
L 56.203125 54.6875 
z
" id="DejaVuSans-121"/>
      <path d="M 54.890625 33.015625 
L 54.890625 0 
L 45.90625 0 
L 45.90625 32.71875 
Q 45.90625 40.484375 42.875 44.328125 
Q 39.84375 48.1875 33.796875 48.1875 
Q 26.515625 48.1875 22.3125 43.546875 
Q 18.109375 38.921875 18.109375 30.90625 
L 18.109375 0 
L 9.078125 0 
L 9.078125 54.6875 
L 18.109375 54.6875 
L 18.109375 46.1875 
Q 21.34375 51.125 25.703125 53.5625 
Q 30.078125 56 35.796875 56 
Q 45.21875 56 50.046875 50.171875 
Q 54.890625 44.34375 54.890625 33.015625 
z
" id="DejaVuSans-110"/>
      <path d="M 56.203125 29.59375 
L 56.203125 25.203125 
L 14.890625 25.203125 
Q 15.484375 15.921875 20.484375 11.0625 
Q 25.484375 6.203125 34.421875 6.203125 
Q 39.59375 6.203125 44.453125 7.46875 
Q 49.3125 8.734375 54.109375 11.28125 
L 54.109375 2.78125 
Q 49.265625 0.734375 44.1875 -0.34375 
Q 39.109375 -1.421875 33.890625 -1.421875 
Q 20.796875 -1.421875 13.15625 6.1875 
Q 5.515625 13.8125 5.515625 26.8125 
Q 5.515625 40.234375 12.765625 48.109375 
Q 20.015625 56 32.328125 56 
Q 43.359375 56 49.78125 48.890625 
Q 56.203125 41.796875 56.203125 29.59375 
z
M 47.21875 32.234375 
Q 47.125 39.59375 43.09375 43.984375 
Q 39.0625 48.390625 32.421875 48.390625 
Q 24.90625 48.390625 20.390625 44.140625 
Q 15.875 39.890625 15.1875 32.171875 
z
" id="DejaVuSans-101"/>
      <path d="M 41.109375 46.296875 
Q 39.59375 47.171875 37.8125 47.578125 
Q 36.03125 48 33.890625 48 
Q 26.265625 48 22.1875 43.046875 
Q 18.109375 38.09375 18.109375 28.8125 
L 18.109375 0 
L 9.078125 0 
L 9.078125 54.6875 
L 18.109375 54.6875 
L 18.109375 46.1875 
Q 20.953125 51.171875 25.484375 53.578125 
Q 30.03125 56 36.53125 56 
Q 37.453125 56 38.578125 55.875 
Q 39.703125 55.765625 41.0625 55.515625 
z
" id="DejaVuSans-114"/>
      <path d="M 45.40625 27.984375 
Q 45.40625 37.75 41.375 43.109375 
Q 37.359375 48.484375 30.078125 48.484375 
Q 22.859375 48.484375 18.828125 43.109375 
Q 14.796875 37.75 14.796875 27.984375 
Q 14.796875 18.265625 18.828125 12.890625 
Q 22.859375 7.515625 30.078125 7.515625 
Q 37.359375 7.515625 41.375 12.890625 
Q 45.40625 18.265625 45.40625 27.984375 
z
M 54.390625 6.78125 
Q 54.390625 -7.171875 48.1875 -13.984375 
Q 42 -20.796875 29.203125 -20.796875 
Q 24.46875 -20.796875 20.265625 -20.09375 
Q 16.0625 -19.390625 12.109375 -17.921875 
L 12.109375 -9.1875 
Q 16.0625 -11.328125 19.921875 -12.34375 
Q 23.78125 -13.375 27.78125 -13.375 
Q 36.625 -13.375 41.015625 -8.765625 
Q 45.40625 -4.15625 45.40625 5.171875 
L 45.40625 9.625 
Q 42.625 4.78125 38.28125 2.390625 
Q 33.9375 0 27.875 0 
Q 17.828125 0 11.671875 7.65625 
Q 5.515625 15.328125 5.515625 27.984375 
Q 5.515625 40.671875 11.671875 48.328125 
Q 17.828125 56 27.875 56 
Q 33.9375 56 38.28125 53.609375 
Q 42.625 51.21875 45.40625 46.390625 
L 45.40625 54.6875 
L 54.390625 54.6875 
z
" id="DejaVuSans-103"/>
      <path id="DejaVuSans-32"/>
     </defs>
     <g transform="translate(250.317617 67.002187)scale(0.1 -0.1)">
      <use xlink:href="#DejaVuSans-83"/>
      <use x="63.476562" xlink:href="#DejaVuSans-121"/>
      <use x="122.65625" xlink:href="#DejaVuSans-110"/>
      <use x="186.035156" xlink:href="#DejaVuSans-101"/>
      <use x="247.558594" xlink:href="#DejaVuSans-114"/>
      <use x="288.65625" xlink:href="#DejaVuSans-103"/>
      <use x="352.132812" xlink:href="#DejaVuSans-121"/>
      <use x="411.3125" xlink:href="#DejaVuSans-32"/>
      <use x="443.099609" xlink:href="#DejaVuSans-49"/>
     </g>
    </g>
    <g id="patch_17">
     <path d="M 222.317617 81.680313 
L 242.317617 81.680313 
L 242.317617 74.680313 
L 222.317617 74.680313 
z
" style="fill:#ff0000;stroke:#000000;stroke-linejoin:miter;"/>
    </g>
    <g id="text_15">
     <!-- Synergy 2 -->
     <g transform="translate(250.317617 81.680313)scale(0.1 -0.1)">
      <use xlink:href="#DejaVuSans-83"/>
      <use x="63.476562" xlink:href="#DejaVuSans-121"/>
      <use x="122.65625" xlink:href="#DejaVuSans-110"/>
      <use x="186.035156" xlink:href="#DejaVuSans-101"/>
      <use x="247.558594" xlink:href="#DejaVuSans-114"/>
      <use x="288.65625" xlink:href="#DejaVuSans-103"/>
      <use x="352.132812" xlink:href="#DejaVuSans-121"/>
      <use x="411.3125" xlink:href="#DejaVuSans-32"/>
      <use x="443.099609" xlink:href="#DejaVuSans-50"/>
     </g>
    </g>
   </g>
  </g>
  <g id="axes_2">
   <g id="patch_18">
    <path d="M 332.25923 331.6 
L 576.747871 331.6 
L 576.747871 26.8 
L 332.25923 26.8 
z
" style="fill:#ffffff;"/>
   </g>
   <g id="patch_19">
    <path clip-path="url(#p15bcfe0066)" d="M 343.37235 331.6 
L 357.26375 331.6 
L 357.26375 41.314286 
L 343.37235 41.314286 
z
" style="stroke:#000000;stroke-linejoin:miter;"/>
   </g>
   <g id="patch_20">
    <path clip-path="url(#p15bcfe0066)" d="M 360.7366 331.6 
L 374.628 331.6 
L 374.628 189.964355 
L 360.7366 189.964355 
z
" style="stroke:#000000;stroke-linejoin:miter;"/>
   </g>
   <g id="patch_21">
    <path clip-path="url(#p15bcfe0066)" d="M 378.10085 331.6 
L 391.99225 331.6 
L 391.99225 189.964355 
L 378.10085 189.964355 
z
" style="stroke:#000000;stroke-linejoin:miter;"/>
   </g>
   <g id="patch_22">
    <path clip-path="url(#p15bcfe0066)" d="M 395.4651 331.6 
L 409.3565 331.6 
L 409.3565 327.120482 
L 395.4651 327.120482 
z
" style="stroke:#000000;stroke-linejoin:miter;"/>
   </g>
   <g id="patch_23">
    <path clip-path="url(#p15bcfe0066)" d="M 412.82935 331.6 
L 426.72075 331.6 
L 426.72075 321.96054 
L 412.82935 321.96054 
z
" style="stroke:#000000;stroke-linejoin:miter;"/>
   </g>
   <g id="patch_24">
    <path clip-path="url(#p15bcfe0066)" d="M 482.286351 331.6 
L 496.177751 331.6 
L 496.177751 230.067643 
L 482.286351 230.067643 
z
" style="fill:#ff0000;stroke:#000000;stroke-linejoin:miter;"/>
   </g>
   <g id="patch_25">
    <path clip-path="url(#p15bcfe0066)" d="M 499.650601 331.6 
L 513.542001 331.6 
L 513.542001 331.6 
L 499.650601 331.6 
z
" style="fill:#ff0000;stroke:#000000;stroke-linejoin:miter;"/>
   </g>
   <g id="patch_26">
    <path clip-path="url(#p15bcfe0066)" d="M 517.014851 331.6 
L 530.906251 331.6 
L 530.906251 331.6 
L 517.014851 331.6 
z
" style="fill:#ff0000;stroke:#000000;stroke-linejoin:miter;"/>
   </g>
   <g id="patch_27">
    <path clip-path="url(#p15bcfe0066)" d="M 534.379101 331.6 
L 548.270501 331.6 
L 548.270501 331.6 
L 534.379101 331.6 
z
" style="fill:#ff0000;stroke:#000000;stroke-linejoin:miter;"/>
   </g>
   <g id="patch_28">
    <path clip-path="url(#p15bcfe0066)" d="M 551.743351 331.6 
L 565.634751 331.6 
L 565.634751 331.6 
L 551.743351 331.6 
z
" style="fill:#ff0000;stroke:#000000;stroke-linejoin:miter;"/>
   </g>
   <g id="matplotlib.axis_3">
    <g id="xtick_11">
     <g id="text_16">
      <!-- 1 -->
      <g transform="translate(347.1368 346.198438)scale(0.1 -0.1)">
       <use xlink:href="#DejaVuSans-49"/>
      </g>
     </g>
    </g>
    <g id="xtick_12">
     <g id="text_17">
      <!-- 2 -->
      <g transform="translate(364.50105 346.198438)scale(0.1 -0.1)">
       <use xlink:href="#DejaVuSans-50"/>
      </g>
     </g>
    </g>
    <g id="xtick_13">
     <g id="text_18">
      <!-- 3 -->
      <g transform="translate(381.8653 346.198438)scale(0.1 -0.1)">
       <use xlink:href="#DejaVuSans-51"/>
      </g>
     </g>
    </g>
    <g id="xtick_14">
     <g id="text_19">
      <!-- 4 -->
      <g transform="translate(399.22955 346.198438)scale(0.1 -0.1)">
       <use xlink:href="#DejaVuSans-52"/>
      </g>
     </g>
    </g>
    <g id="xtick_15">
     <g id="text_20">
      <!-- 5 -->
      <g transform="translate(416.5938 346.198438)scale(0.1 -0.1)">
       <use xlink:href="#DejaVuSans-53"/>
      </g>
     </g>
    </g>
    <g id="xtick_16">
     <g id="text_21">
      <!-- 1 -->
      <g transform="translate(486.050801 346.198438)scale(0.1 -0.1)">
       <use xlink:href="#DejaVuSans-49"/>
      </g>
     </g>
    </g>
    <g id="xtick_17">
     <g id="text_22">
      <!-- 2 -->
      <g transform="translate(503.415051 346.198438)scale(0.1 -0.1)">
       <use xlink:href="#DejaVuSans-50"/>
      </g>
     </g>
    </g>
    <g id="xtick_18">
     <g id="text_23">
      <!-- 3 -->
      <g transform="translate(520.779301 346.198438)scale(0.1 -0.1)">
       <use xlink:href="#DejaVuSans-51"/>
      </g>
     </g>
    </g>
    <g id="xtick_19">
     <g id="text_24">
      <!-- 4 -->
      <g transform="translate(538.143551 346.198438)scale(0.1 -0.1)">
       <use xlink:href="#DejaVuSans-52"/>
      </g>
     </g>
    </g>
    <g id="xtick_20">
     <g id="text_25">
      <!-- 5 -->
      <g transform="translate(555.507801 346.198438)scale(0.1 -0.1)">
       <use xlink:href="#DejaVuSans-53"/>
      </g>
     </g>
    </g>
    <g id="text_26">
     <!-- Channels -->
     <g transform="translate(428.700426 359.876563)scale(0.1 -0.1)">
      <use xlink:href="#DejaVuSans-Bold-67"/>
      <use x="73.388672" xlink:href="#DejaVuSans-Bold-104"/>
      <use x="144.580078" xlink:href="#DejaVuSans-Bold-97"/>
      <use x="212.060547" xlink:href="#DejaVuSans-Bold-110"/>
      <use x="283.251953" xlink:href="#DejaVuSans-Bold-110"/>
      <use x="354.443359" xlink:href="#DejaVuSans-Bold-101"/>
      <use x="422.265625" xlink:href="#DejaVuSans-Bold-108"/>
      <use x="456.542969" xlink:href="#DejaVuSans-Bold-115"/>
     </g>
    </g>
   </g>
   <g id="matplotlib.axis_4">
    <g id="ytick_8"/>
    <g id="ytick_9"/>
    <g id="ytick_10"/>
    <g id="ytick_11"/>
    <g id="ytick_12"/>
    <g id="ytick_13"/>
    <g id="ytick_14"/>
   </g>
   <g id="patch_29">
    <path d="M 332.25923 331.6 
L 332.25923 26.8 
" style="fill:none;stroke:#000000;stroke-linecap:square;stroke-linejoin:miter;stroke-width:0.8;"/>
   </g>
   <g id="patch_30">
    <path d="M 332.25923 331.6 
L 576.747871 331.6 
" style="fill:none;stroke:#000000;stroke-linecap:square;stroke-linejoin:miter;stroke-width:0.8;"/>
   </g>
   <g id="text_27">
    <!-- Peripheral Injury -->
    <defs>
     <path d="M 9.1875 72.90625 
L 40.375 72.90625 
Q 54.296875 72.90625 61.734375 66.71875 
Q 69.1875 60.546875 69.1875 49.125 
Q 69.1875 37.640625 61.734375 31.46875 
Q 54.296875 25.296875 40.375 25.296875 
L 27.984375 25.296875 
L 27.984375 0 
L 9.1875 0 
z
M 27.984375 59.28125 
L 27.984375 38.921875 
L 38.375 38.921875 
Q 43.84375 38.921875 46.828125 41.578125 
Q 49.8125 44.234375 49.8125 49.125 
Q 49.8125 54 46.828125 56.640625 
Q 43.84375 59.28125 38.375 59.28125 
z
" id="DejaVuSans-Bold-80"/>
     <path d="M 9.1875 72.90625 
L 27.984375 72.90625 
L 27.984375 0 
L 9.1875 0 
z
" id="DejaVuSans-Bold-73"/>
     <path d="M 8.40625 54.6875 
L 25.875 54.6875 
L 25.875 0.984375 
Q 25.875 -10.015625 20.59375 -15.796875 
Q 15.328125 -21.578125 5.328125 -21.578125 
L -3.328125 -21.578125 
L -3.328125 -10.109375 
L -0.296875 -10.109375 
Q 4.6875 -10.109375 6.546875 -7.859375 
Q 8.40625 -5.609375 8.40625 0.984375 
z
M 8.40625 75.984375 
L 25.875 75.984375 
L 25.875 61.71875 
L 8.40625 61.71875 
z
" id="DejaVuSans-Bold-106"/>
    </defs>
    <g transform="translate(395.155894 20.8)scale(0.125 -0.125)">
     <use xlink:href="#DejaVuSans-Bold-80"/>
     <use x="73.291016" xlink:href="#DejaVuSans-Bold-101"/>
     <use x="141.113281" xlink:href="#DejaVuSans-Bold-114"/>
     <use x="190.429688" xlink:href="#DejaVuSans-Bold-105"/>
     <use x="224.707031" xlink:href="#DejaVuSans-Bold-112"/>
     <use x="296.289062" xlink:href="#DejaVuSans-Bold-104"/>
     <use x="367.480469" xlink:href="#DejaVuSans-Bold-101"/>
     <use x="435.302734" xlink:href="#DejaVuSans-Bold-114"/>
     <use x="484.619141" xlink:href="#DejaVuSans-Bold-97"/>
     <use x="552.099609" xlink:href="#DejaVuSans-Bold-108"/>
     <use x="586.376953" xlink:href="#DejaVuSans-Bold-32"/>
     <use x="621.191406" xlink:href="#DejaVuSans-Bold-73"/>
     <use x="658.398438" xlink:href="#DejaVuSans-Bold-110"/>
     <use x="729.589844" xlink:href="#DejaVuSans-Bold-106"/>
     <use x="763.867188" xlink:href="#DejaVuSans-Bold-117"/>
     <use x="835.058594" xlink:href="#DejaVuSans-Bold-114"/>
     <use x="884.375" xlink:href="#DejaVuSans-Bold-121"/>
    </g>
   </g>
  </g>
  <g id="axes_3">
   <g id="patch_31">
    <path d="M 605.11846 331.6 
L 849.607101 331.6 
L 849.607101 26.8 
L 605.11846 26.8 
z
" style="fill:#ffffff;"/>
   </g>
   <g id="patch_32">
    <path clip-path="url(#p9604aa7115)" d="M 616.23158 331.6 
L 630.12298 331.6 
L 630.12298 51.272558 
L 616.23158 51.272558 
z
" style="stroke:#000000;stroke-linejoin:miter;"/>
   </g>
   <g id="patch_33">
    <path clip-path="url(#p9604aa7115)" d="M 633.59583 331.6 
L 647.48723 331.6 
L 647.48723 225.94976 
L 633.59583 225.94976 
z
" style="stroke:#000000;stroke-linejoin:miter;"/>
   </g>
   <g id="patch_34">
    <path clip-path="url(#p9604aa7115)" d="M 650.96008 331.6 
L 664.85148 331.6 
L 664.85148 225.94976 
L 650.96008 225.94976 
z
" style="stroke:#000000;stroke-linejoin:miter;"/>
   </g>
   <g id="patch_35">
    <path clip-path="url(#p9604aa7115)" d="M 668.32433 331.6 
L 682.21573 331.6 
L 682.21573 267.829509 
L 668.32433 267.829509 
z
" style="stroke:#000000;stroke-linejoin:miter;"/>
   </g>
   <g id="patch_36">
    <path clip-path="url(#p9604aa7115)" d="M 685.68858 331.6 
L 699.57998 331.6 
L 699.57998 312.578329 
L 685.68858 312.578329 
z
" style="stroke:#000000;stroke-linejoin:miter;"/>
   </g>
   <g id="patch_37">
    <path clip-path="url(#p9604aa7115)" d="M 755.145581 331.6 
L 769.036981 331.6 
L 769.036981 331.6 
L 755.145581 331.6 
z
" style="fill:#ff0000;stroke:#000000;stroke-linejoin:miter;"/>
   </g>
   <g id="patch_38">
    <path clip-path="url(#p9604aa7115)" d="M 772.509831 331.6 
L 786.401231 331.6 
L 786.401231 331.6 
L 772.509831 331.6 
z
" style="fill:#ff0000;stroke:#000000;stroke-linejoin:miter;"/>
   </g>
   <g id="patch_39">
    <path clip-path="url(#p9604aa7115)" d="M 789.874081 331.6 
L 803.765481 331.6 
L 803.765481 331.6 
L 789.874081 331.6 
z
" style="fill:#ff0000;stroke:#000000;stroke-linejoin:miter;"/>
   </g>
   <g id="patch_40">
    <path clip-path="url(#p9604aa7115)" d="M 807.238331 331.6 
L 821.129731 331.6 
L 821.129731 192.221501 
L 807.238331 192.221501 
z
" style="fill:#ff0000;stroke:#000000;stroke-linejoin:miter;"/>
   </g>
   <g id="patch_41">
    <path clip-path="url(#p9604aa7115)" d="M 824.602581 331.6 
L 838.493981 331.6 
L 838.493981 272.334909 
L 824.602581 272.334909 
z
" style="fill:#ff0000;stroke:#000000;stroke-linejoin:miter;"/>
   </g>
   <g id="matplotlib.axis_5">
    <g id="xtick_21">
     <g id="text_28">
      <!-- 1 -->
      <g transform="translate(619.99603 346.198438)scale(0.1 -0.1)">
       <use xlink:href="#DejaVuSans-49"/>
      </g>
     </g>
    </g>
    <g id="xtick_22">
     <g id="text_29">
      <!-- 2 -->
      <g transform="translate(637.36028 346.198438)scale(0.1 -0.1)">
       <use xlink:href="#DejaVuSans-50"/>
      </g>
     </g>
    </g>
    <g id="xtick_23">
     <g id="text_30">
      <!-- 3 -->
      <g transform="translate(654.72453 346.198438)scale(0.1 -0.1)">
       <use xlink:href="#DejaVuSans-51"/>
      </g>
     </g>
    </g>
    <g id="xtick_24">
     <g id="text_31">
      <!-- 4 -->
      <g transform="translate(672.08878 346.198438)scale(0.1 -0.1)">
       <use xlink:href="#DejaVuSans-52"/>
      </g>
     </g>
    </g>
    <g id="xtick_25">
     <g id="text_32">
      <!-- 5 -->
      <g transform="translate(689.45303 346.198438)scale(0.1 -0.1)">
       <use xlink:href="#DejaVuSans-53"/>
      </g>
     </g>
    </g>
    <g id="xtick_26">
     <g id="text_33">
      <!-- 1 -->
      <g transform="translate(758.910031 346.198438)scale(0.1 -0.1)">
       <use xlink:href="#DejaVuSans-49"/>
      </g>
     </g>
    </g>
    <g id="xtick_27">
     <g id="text_34">
      <!-- 2 -->
      <g transform="translate(776.274281 346.198438)scale(0.1 -0.1)">
       <use xlink:href="#DejaVuSans-50"/>
      </g>
     </g>
    </g>
    <g id="xtick_28">
     <g id="text_35">
      <!-- 3 -->
      <g transform="translate(793.638531 346.198438)scale(0.1 -0.1)">
       <use xlink:href="#DejaVuSans-51"/>
      </g>
     </g>
    </g>
    <g id="xtick_29">
     <g id="text_36">
      <!-- 4 -->
      <g transform="translate(811.002781 346.198438)scale(0.1 -0.1)">
       <use xlink:href="#DejaVuSans-52"/>
      </g>
     </g>
    </g>
    <g id="xtick_30">
     <g id="text_37">
      <!-- 5 -->
      <g transform="translate(828.367031 346.198438)scale(0.1 -0.1)">
       <use xlink:href="#DejaVuSans-53"/>
      </g>
     </g>
    </g>
    <g id="text_38">
     <!-- Channels -->
     <g transform="translate(701.559655 359.876563)scale(0.1 -0.1)">
      <use xlink:href="#DejaVuSans-Bold-67"/>
      <use x="73.388672" xlink:href="#DejaVuSans-Bold-104"/>
      <use x="144.580078" xlink:href="#DejaVuSans-Bold-97"/>
      <use x="212.060547" xlink:href="#DejaVuSans-Bold-110"/>
      <use x="283.251953" xlink:href="#DejaVuSans-Bold-110"/>
      <use x="354.443359" xlink:href="#DejaVuSans-Bold-101"/>
      <use x="422.265625" xlink:href="#DejaVuSans-Bold-108"/>
      <use x="456.542969" xlink:href="#DejaVuSans-Bold-115"/>
     </g>
    </g>
   </g>
   <g id="matplotlib.axis_6">
    <g id="ytick_15"/>
    <g id="ytick_16"/>
    <g id="ytick_17"/>
    <g id="ytick_18"/>
    <g id="ytick_19"/>
    <g id="ytick_20"/>
    <g id="ytick_21"/>
   </g>
   <g id="patch_42">
    <path d="M 605.11846 331.6 
L 605.11846 26.8 
" style="fill:none;stroke:#000000;stroke-linecap:square;stroke-linejoin:miter;stroke-width:0.8;"/>
   </g>
   <g id="patch_43">
    <path d="M 605.11846 331.6 
L 849.607101 331.6 
" style="fill:none;stroke:#000000;stroke-linecap:square;stroke-linejoin:miter;stroke-width:0.8;"/>
   </g>
   <g id="text_39">
    <!-- Cortical Injury -->
    <g transform="translate(677.506335 20.8)scale(0.125 -0.125)">
     <use xlink:href="#DejaVuSans-Bold-67"/>
     <use x="73.388672" xlink:href="#DejaVuSans-Bold-111"/>
     <use x="142.089844" xlink:href="#DejaVuSans-Bold-114"/>
     <use x="191.40625" xlink:href="#DejaVuSans-Bold-116"/>
     <use x="239.208984" xlink:href="#DejaVuSans-Bold-105"/>
     <use x="273.486328" xlink:href="#DejaVuSans-Bold-99"/>
     <use x="332.763672" xlink:href="#DejaVuSans-Bold-97"/>
     <use x="400.244141" xlink:href="#DejaVuSans-Bold-108"/>
     <use x="434.521484" xlink:href="#DejaVuSans-Bold-32"/>
     <use x="469.335938" xlink:href="#DejaVuSans-Bold-73"/>
     <use x="506.542969" xlink:href="#DejaVuSans-Bold-110"/>
     <use x="577.734375" xlink:href="#DejaVuSans-Bold-106"/>
     <use x="612.011719" xlink:href="#DejaVuSans-Bold-117"/>
     <use x="683.203125" xlink:href="#DejaVuSans-Bold-114"/>
     <use x="732.519531" xlink:href="#DejaVuSans-Bold-121"/>
    </g>
   </g>
  </g>
  <g id="axes_4">
   <g id="patch_44">
    <path d="M 59.4 678.2 
L 303.888642 678.2 
L 303.888642 373.4 
L 59.4 373.4 
z
" style="fill:#ffffff;"/>
   </g>
   <g id="matplotlib.axis_7">
    <g id="xtick_31">
     <g id="line2d_1">
      <defs>
       <path d="M 0 0 
L 0 3.5 
" id="mdf94a690bf" style="stroke:#000000;stroke-width:0.8;"/>
      </defs>
      <g>
       <use style="stroke:#000000;stroke-width:0.8;" x="70.51312" xlink:href="#mdf94a690bf" y="678.2"/>
      </g>
     </g>
     <g id="text_40">
      <!-- 0 -->
      <defs>
       <path d="M 31.78125 66.40625 
Q 24.171875 66.40625 20.328125 58.90625 
Q 16.5 51.421875 16.5 36.375 
Q 16.5 21.390625 20.328125 13.890625 
Q 24.171875 6.390625 31.78125 6.390625 
Q 39.453125 6.390625 43.28125 13.890625 
Q 47.125 21.390625 47.125 36.375 
Q 47.125 51.421875 43.28125 58.90625 
Q 39.453125 66.40625 31.78125 66.40625 
z
M 31.78125 74.21875 
Q 44.046875 74.21875 50.515625 64.515625 
Q 56.984375 54.828125 56.984375 36.375 
Q 56.984375 17.96875 50.515625 8.265625 
Q 44.046875 -1.421875 31.78125 -1.421875 
Q 19.53125 -1.421875 13.0625 8.265625 
Q 6.59375 17.96875 6.59375 36.375 
Q 6.59375 54.828125 13.0625 64.515625 
Q 19.53125 74.21875 31.78125 74.21875 
z
" id="DejaVuSans-48"/>
      </defs>
      <g transform="translate(67.33187 692.798437)scale(0.1 -0.1)">
       <use xlink:href="#DejaVuSans-48"/>
      </g>
     </g>
    </g>
    <g id="xtick_32">
     <g id="line2d_2">
      <g>
       <use style="stroke:#000000;stroke-width:0.8;" x="126.092615" xlink:href="#mdf94a690bf" y="678.2"/>
      </g>
     </g>
     <g id="text_41">
      <!-- 1000 -->
      <g transform="translate(113.367615 692.798437)scale(0.1 -0.1)">
       <use xlink:href="#DejaVuSans-49"/>
       <use x="63.623047" xlink:href="#DejaVuSans-48"/>
       <use x="127.246094" xlink:href="#DejaVuSans-48"/>
       <use x="190.869141" xlink:href="#DejaVuSans-48"/>
      </g>
     </g>
    </g>
    <g id="xtick_33">
     <g id="line2d_3">
      <g>
       <use style="stroke:#000000;stroke-width:0.8;" x="181.672111" xlink:href="#mdf94a690bf" y="678.2"/>
      </g>
     </g>
     <g id="text_42">
      <!-- 2000 -->
      <g transform="translate(168.947111 692.798437)scale(0.1 -0.1)">
       <use xlink:href="#DejaVuSans-50"/>
       <use x="63.623047" xlink:href="#DejaVuSans-48"/>
       <use x="127.246094" xlink:href="#DejaVuSans-48"/>
       <use x="190.869141" xlink:href="#DejaVuSans-48"/>
      </g>
     </g>
    </g>
    <g id="xtick_34">
     <g id="line2d_4">
      <g>
       <use style="stroke:#000000;stroke-width:0.8;" x="237.251606" xlink:href="#mdf94a690bf" y="678.2"/>
      </g>
     </g>
     <g id="text_43">
      <!-- 3000 -->
      <g transform="translate(224.526606 692.798437)scale(0.1 -0.1)">
       <use xlink:href="#DejaVuSans-51"/>
       <use x="63.623047" xlink:href="#DejaVuSans-48"/>
       <use x="127.246094" xlink:href="#DejaVuSans-48"/>
       <use x="190.869141" xlink:href="#DejaVuSans-48"/>
      </g>
     </g>
    </g>
    <g id="xtick_35">
     <g id="line2d_5">
      <g>
       <use style="stroke:#000000;stroke-width:0.8;" x="292.831101" xlink:href="#mdf94a690bf" y="678.2"/>
      </g>
     </g>
     <g id="text_44">
      <!-- 4000 -->
      <g transform="translate(280.106101 692.798437)scale(0.1 -0.1)">
       <use xlink:href="#DejaVuSans-52"/>
       <use x="63.623047" xlink:href="#DejaVuSans-48"/>
       <use x="127.246094" xlink:href="#DejaVuSans-48"/>
       <use x="190.869141" xlink:href="#DejaVuSans-48"/>
      </g>
     </g>
    </g>
    <g id="text_45">
     <!-- Time /s -->
     <defs>
      <path d="M 0.484375 72.90625 
L 67.671875 72.90625 
L 67.671875 58.6875 
L 43.5 58.6875 
L 43.5 0 
L 24.703125 0 
L 24.703125 58.6875 
L 0.484375 58.6875 
z
" id="DejaVuSans-Bold-84"/>
     </defs>
     <g transform="translate(161.37479 706.476562)scale(0.1 -0.1)">
      <use xlink:href="#DejaVuSans-Bold-84"/>
      <use x="68.212891" xlink:href="#DejaVuSans-Bold-105"/>
      <use x="102.490234" xlink:href="#DejaVuSans-Bold-109"/>
      <use x="206.689453" xlink:href="#DejaVuSans-Bold-101"/>
      <use x="274.511719" xlink:href="#DejaVuSans-Bold-32"/>
      <use x="309.326172" xlink:href="#DejaVuSans-Bold-47"/>
      <use x="345.849609" xlink:href="#DejaVuSans-Bold-115"/>
     </g>
    </g>
   </g>
   <g id="matplotlib.axis_8">
    <g id="ytick_22">
     <g id="line2d_6">
      <defs>
       <path d="M 0 0 
L -3.5 0 
" id="ma6781b0cb7" style="stroke:#000000;stroke-width:0.8;"/>
      </defs>
      <g>
       <use style="stroke:#000000;stroke-width:0.8;" x="59.4" xlink:href="#ma6781b0cb7" y="664.345455"/>
      </g>
     </g>
     <g id="text_46">
      <!-- 0.0 -->
      <defs>
       <path d="M 10.6875 12.40625 
L 21 12.40625 
L 21 0 
L 10.6875 0 
z
" id="DejaVuSans-46"/>
      </defs>
      <g transform="translate(36.496875 668.144673)scale(0.1 -0.1)">
       <use xlink:href="#DejaVuSans-48"/>
       <use x="63.623047" xlink:href="#DejaVuSans-46"/>
       <use x="95.410156" xlink:href="#DejaVuSans-48"/>
      </g>
     </g>
    </g>
    <g id="ytick_23">
     <g id="line2d_7">
      <g>
       <use style="stroke:#000000;stroke-width:0.8;" x="59.4" xlink:href="#ma6781b0cb7" y="627.856299"/>
      </g>
     </g>
     <g id="text_47">
      <!-- 0.2 -->
      <g transform="translate(36.496875 631.655517)scale(0.1 -0.1)">
       <use xlink:href="#DejaVuSans-48"/>
       <use x="63.623047" xlink:href="#DejaVuSans-46"/>
       <use x="95.410156" xlink:href="#DejaVuSans-50"/>
      </g>
     </g>
    </g>
    <g id="ytick_24">
     <g id="line2d_8">
      <g>
       <use style="stroke:#000000;stroke-width:0.8;" x="59.4" xlink:href="#ma6781b0cb7" y="591.367143"/>
      </g>
     </g>
     <g id="text_48">
      <!-- 0.4 -->
      <g transform="translate(36.496875 595.166361)scale(0.1 -0.1)">
       <use xlink:href="#DejaVuSans-48"/>
       <use x="63.623047" xlink:href="#DejaVuSans-46"/>
       <use x="95.410156" xlink:href="#DejaVuSans-52"/>
      </g>
     </g>
    </g>
    <g id="ytick_25">
     <g id="line2d_9">
      <g>
       <use style="stroke:#000000;stroke-width:0.8;" x="59.4" xlink:href="#ma6781b0cb7" y="554.877986"/>
      </g>
     </g>
     <g id="text_49">
      <!-- 0.6 -->
      <defs>
       <path d="M 33.015625 40.375 
Q 26.375 40.375 22.484375 35.828125 
Q 18.609375 31.296875 18.609375 23.390625 
Q 18.609375 15.53125 22.484375 10.953125 
Q 26.375 6.390625 33.015625 6.390625 
Q 39.65625 6.390625 43.53125 10.953125 
Q 47.40625 15.53125 47.40625 23.390625 
Q 47.40625 31.296875 43.53125 35.828125 
Q 39.65625 40.375 33.015625 40.375 
z
M 52.59375 71.296875 
L 52.59375 62.3125 
Q 48.875 64.0625 45.09375 64.984375 
Q 41.3125 65.921875 37.59375 65.921875 
Q 27.828125 65.921875 22.671875 59.328125 
Q 17.53125 52.734375 16.796875 39.40625 
Q 19.671875 43.65625 24.015625 45.921875 
Q 28.375 48.1875 33.59375 48.1875 
Q 44.578125 48.1875 50.953125 41.515625 
Q 57.328125 34.859375 57.328125 23.390625 
Q 57.328125 12.15625 50.6875 5.359375 
Q 44.046875 -1.421875 33.015625 -1.421875 
Q 20.359375 -1.421875 13.671875 8.265625 
Q 6.984375 17.96875 6.984375 36.375 
Q 6.984375 53.65625 15.1875 63.9375 
Q 23.390625 74.21875 37.203125 74.21875 
Q 40.921875 74.21875 44.703125 73.484375 
Q 48.484375 72.75 52.59375 71.296875 
z
" id="DejaVuSans-54"/>
      </defs>
      <g transform="translate(36.496875 558.677205)scale(0.1 -0.1)">
       <use xlink:href="#DejaVuSans-48"/>
       <use x="63.623047" xlink:href="#DejaVuSans-46"/>
       <use x="95.410156" xlink:href="#DejaVuSans-54"/>
      </g>
     </g>
    </g>
    <g id="ytick_26">
     <g id="line2d_10">
      <g>
       <use style="stroke:#000000;stroke-width:0.8;" x="59.4" xlink:href="#ma6781b0cb7" y="518.38883"/>
      </g>
     </g>
     <g id="text_50">
      <!-- 0.8 -->
      <defs>
       <path d="M 31.78125 34.625 
Q 24.75 34.625 20.71875 30.859375 
Q 16.703125 27.09375 16.703125 20.515625 
Q 16.703125 13.921875 20.71875 10.15625 
Q 24.75 6.390625 31.78125 6.390625 
Q 38.8125 6.390625 42.859375 10.171875 
Q 46.921875 13.96875 46.921875 20.515625 
Q 46.921875 27.09375 42.890625 30.859375 
Q 38.875 34.625 31.78125 34.625 
z
M 21.921875 38.8125 
Q 15.578125 40.375 12.03125 44.71875 
Q 8.5 49.078125 8.5 55.328125 
Q 8.5 64.0625 14.71875 69.140625 
Q 20.953125 74.21875 31.78125 74.21875 
Q 42.671875 74.21875 48.875 69.140625 
Q 55.078125 64.0625 55.078125 55.328125 
Q 55.078125 49.078125 51.53125 44.71875 
Q 48 40.375 41.703125 38.8125 
Q 48.828125 37.15625 52.796875 32.3125 
Q 56.78125 27.484375 56.78125 20.515625 
Q 56.78125 9.90625 50.3125 4.234375 
Q 43.84375 -1.421875 31.78125 -1.421875 
Q 19.734375 -1.421875 13.25 4.234375 
Q 6.78125 9.90625 6.78125 20.515625 
Q 6.78125 27.484375 10.78125 32.3125 
Q 14.796875 37.15625 21.921875 38.8125 
z
M 18.3125 54.390625 
Q 18.3125 48.734375 21.84375 45.5625 
Q 25.390625 42.390625 31.78125 42.390625 
Q 38.140625 42.390625 41.71875 45.5625 
Q 45.3125 48.734375 45.3125 54.390625 
Q 45.3125 60.0625 41.71875 63.234375 
Q 38.140625 66.40625 31.78125 66.40625 
Q 25.390625 66.40625 21.84375 63.234375 
Q 18.3125 60.0625 18.3125 54.390625 
z
" id="DejaVuSans-56"/>
      </defs>
      <g transform="translate(36.496875 522.188049)scale(0.1 -0.1)">
       <use xlink:href="#DejaVuSans-48"/>
       <use x="63.623047" xlink:href="#DejaVuSans-46"/>
       <use x="95.410156" xlink:href="#DejaVuSans-56"/>
      </g>
     </g>
    </g>
    <g id="ytick_27">
     <g id="line2d_11">
      <g>
       <use style="stroke:#000000;stroke-width:0.8;" x="59.4" xlink:href="#ma6781b0cb7" y="481.899674"/>
      </g>
     </g>
     <g id="text_51">
      <!-- 1.0 -->
      <g transform="translate(36.496875 485.698893)scale(0.1 -0.1)">
       <use xlink:href="#DejaVuSans-49"/>
       <use x="63.623047" xlink:href="#DejaVuSans-46"/>
       <use x="95.410156" xlink:href="#DejaVuSans-48"/>
      </g>
     </g>
    </g>
    <g id="ytick_28">
     <g id="line2d_12">
      <g>
       <use style="stroke:#000000;stroke-width:0.8;" x="59.4" xlink:href="#ma6781b0cb7" y="445.410518"/>
      </g>
     </g>
     <g id="text_52">
      <!-- 1.2 -->
      <g transform="translate(36.496875 449.209737)scale(0.1 -0.1)">
       <use xlink:href="#DejaVuSans-49"/>
       <use x="63.623047" xlink:href="#DejaVuSans-46"/>
       <use x="95.410156" xlink:href="#DejaVuSans-50"/>
      </g>
     </g>
    </g>
    <g id="ytick_29">
     <g id="line2d_13">
      <g>
       <use style="stroke:#000000;stroke-width:0.8;" x="59.4" xlink:href="#ma6781b0cb7" y="408.921362"/>
      </g>
     </g>
     <g id="text_53">
      <!-- 1.4 -->
      <g transform="translate(36.496875 412.720581)scale(0.1 -0.1)">
       <use xlink:href="#DejaVuSans-49"/>
       <use x="63.623047" xlink:href="#DejaVuSans-46"/>
       <use x="95.410156" xlink:href="#DejaVuSans-52"/>
      </g>
     </g>
    </g>
    <g id="text_54">
     <!-- Coefficient Normalized  -->
     <defs>
      <path d="M 44.390625 75.984375 
L 44.390625 64.5 
L 34.71875 64.5 
Q 31 64.5 29.53125 63.15625 
Q 28.078125 61.8125 28.078125 58.5 
L 28.078125 54.6875 
L 43.015625 54.6875 
L 43.015625 42.1875 
L 28.078125 42.1875 
L 28.078125 0 
L 10.59375 0 
L 10.59375 42.1875 
L 1.90625 42.1875 
L 1.90625 54.6875 
L 10.59375 54.6875 
L 10.59375 58.5 
Q 10.59375 67.4375 15.578125 71.703125 
Q 20.5625 75.984375 31 75.984375 
z
" id="DejaVuSans-Bold-102"/>
     </defs>
     <g transform="translate(19.219375 591.838281)rotate(-90)scale(0.1 -0.1)">
      <use xlink:href="#DejaVuSans-Bold-67"/>
      <use x="73.388672" xlink:href="#DejaVuSans-Bold-111"/>
      <use x="142.089844" xlink:href="#DejaVuSans-Bold-101"/>
      <use x="209.912109" xlink:href="#DejaVuSans-Bold-102"/>
      <use x="253.417969" xlink:href="#DejaVuSans-Bold-102"/>
      <use x="296.923828" xlink:href="#DejaVuSans-Bold-105"/>
      <use x="331.201172" xlink:href="#DejaVuSans-Bold-99"/>
      <use x="390.478516" xlink:href="#DejaVuSans-Bold-105"/>
      <use x="424.755859" xlink:href="#DejaVuSans-Bold-101"/>
      <use x="492.578125" xlink:href="#DejaVuSans-Bold-110"/>
      <use x="563.769531" xlink:href="#DejaVuSans-Bold-116"/>
      <use x="611.572266" xlink:href="#DejaVuSans-Bold-32"/>
      <use x="646.386719" xlink:href="#DejaVuSans-Bold-78"/>
      <use x="730.078125" xlink:href="#DejaVuSans-Bold-111"/>
      <use x="798.779297" xlink:href="#DejaVuSans-Bold-114"/>
      <use x="848.095703" xlink:href="#DejaVuSans-Bold-109"/>
      <use x="952.294922" xlink:href="#DejaVuSans-Bold-97"/>
      <use x="1019.775391" xlink:href="#DejaVuSans-Bold-108"/>
      <use x="1054.052734" xlink:href="#DejaVuSans-Bold-105"/>
      <use x="1088.330078" xlink:href="#DejaVuSans-Bold-122"/>
      <use x="1146.533203" xlink:href="#DejaVuSans-Bold-101"/>
      <use x="1214.355469" xlink:href="#DejaVuSans-Bold-100"/>
      <use x="1285.9375" xlink:href="#DejaVuSans-Bold-32"/>
     </g>
     <!--  Amplitude /arb. units -->
     <g transform="translate(30.417188 587.371094)rotate(-90)scale(0.1 -0.1)">
      <use xlink:href="#DejaVuSans-Bold-32"/>
      <use x="34.814453" xlink:href="#DejaVuSans-Bold-65"/>
      <use x="112.207031" xlink:href="#DejaVuSans-Bold-109"/>
      <use x="216.40625" xlink:href="#DejaVuSans-Bold-112"/>
      <use x="287.988281" xlink:href="#DejaVuSans-Bold-108"/>
      <use x="322.265625" xlink:href="#DejaVuSans-Bold-105"/>
      <use x="356.542969" xlink:href="#DejaVuSans-Bold-116"/>
      <use x="404.345703" xlink:href="#DejaVuSans-Bold-117"/>
      <use x="475.537109" xlink:href="#DejaVuSans-Bold-100"/>
      <use x="547.119141" xlink:href="#DejaVuSans-Bold-101"/>
      <use x="614.941406" xlink:href="#DejaVuSans-Bold-32"/>
      <use x="649.755859" xlink:href="#DejaVuSans-Bold-47"/>
      <use x="686.279297" xlink:href="#DejaVuSans-Bold-97"/>
      <use x="753.759766" xlink:href="#DejaVuSans-Bold-114"/>
      <use x="803.076172" xlink:href="#DejaVuSans-Bold-98"/>
      <use x="874.658203" xlink:href="#DejaVuSans-Bold-46"/>
      <use x="912.646484" xlink:href="#DejaVuSans-Bold-32"/>
      <use x="947.460938" xlink:href="#DejaVuSans-Bold-117"/>
      <use x="1018.652344" xlink:href="#DejaVuSans-Bold-110"/>
      <use x="1089.84375" xlink:href="#DejaVuSans-Bold-105"/>
      <use x="1124.121094" xlink:href="#DejaVuSans-Bold-116"/>
      <use x="1171.923828" xlink:href="#DejaVuSans-Bold-115"/>
     </g>
    </g>
   </g>
   <g id="line2d_14">
    <path clip-path="url(#p28963ac908)" d="M 70.51312 589.745254 
L 85.130527 589.649523 
L 85.853061 589.332252 
L 86.631174 588.750889 
L 87.520446 587.79199 
L 88.520877 586.352266 
L 89.632466 584.324795 
L 90.855215 581.601413 
L 92.189123 578.074674 
L 93.68977 573.456518 
L 95.357154 567.570592 
L 97.191278 560.242835 
L 99.19214 551.303962 
L 101.415319 540.303173 
L 103.805238 527.320377 
L 106.417474 511.868112 
L 109.252028 493.730823 
L 112.3089 472.705307 
L 114.198603 460.101043 
L 116.088306 448.930963 
L 117.978009 439.078171 
L 118.756122 435.361813 
L 118.92286 430.047648 
L 120.756984 423.173559 
L 122.591107 417.153849 
L 124.369651 412.073832 
L 126.092615 407.815577 
L 127.76 404.276975 
L 129.371806 401.369035 
L 130.928031 399.013703 
L 132.428678 397.142127 
L 133.873745 395.693262 
L 135.263232 394.612743 
L 136.59714 393.851963 
L 137.875468 393.367318 
L 139.153797 393.113219 
L 140.598864 393.068296 
L 224.69064 393.189601 
L 225.968968 393.536607 
L 227.247297 394.117435 
L 228.525625 394.940789 
L 229.859533 396.068634 
L 231.24902 397.547313 
L 232.694087 399.428625 
L 234.194734 401.770659 
L 235.69538 404.528418 
L 237.251606 407.851067 
L 238.863411 411.81758 
L 240.530796 416.518044 
L 242.25376 422.055793 
L 244.032304 428.549945 
L 244.588099 430.750706 
L 244.754838 436.18263 
L 246.588961 445.327676 
L 248.423084 455.659854 
L 250.257208 467.282969 
L 257.593701 515.830863 
L 260.261517 531.256542 
L 262.707015 544.160116 
L 264.985774 555.023057 
L 267.042215 563.780025 
L 268.931918 570.876643 
L 270.599303 576.320742 
L 272.099949 580.514668 
L 273.489437 583.759161 
L 274.712186 586.073013 
L 275.823775 587.710939 
L 276.768627 588.737169 
L 277.657899 589.383021 
L 278.436012 589.685309 
L 279.214125 589.744947 
L 292.775521 589.745254 
L 292.775521 589.745254 
" style="fill:none;stroke:#000000;stroke-linecap:square;stroke-width:1.5;"/>
   </g>
   <g id="line2d_15">
    <path clip-path="url(#p28963ac908)" d="M 70.51312 541.574172 
L 85.297266 541.675263 
L 86.130958 541.998751 
L 87.07581 542.621746 
L 88.076241 543.562874 
L 89.18783 544.926562 
L 90.410579 546.784636 
L 91.800067 549.313093 
L 93.356293 552.622703 
L 95.134836 556.960523 
L 97.080119 562.310683 
L 99.247719 568.934804 
L 101.693217 577.151329 
L 104.361033 586.910481 
L 107.306746 598.54043 
L 110.585936 612.422324 
L 114.643239 629.70023 
L 116.366204 635.767719 
L 118.089168 641.05782 
L 118.756122 642.9841 
L 118.867281 664.345455 
L 244.588099 664.345455 
L 244.754838 642.476666 
L 246.922438 635.975426 
L 248.589823 630.17791 
L 250.312787 623.360023 
L 253.036182 611.377951 
L 256.426532 597.128918 
L 259.538983 584.989841 
L 262.317958 575.016754 
L 264.819035 566.835077 
L 267.042215 560.280377 
L 269.043077 555.036499 
L 270.821621 550.963991 
L 272.433426 547.810834 
L 273.822914 545.54905 
L 275.101242 543.879203 
L 276.212832 542.7748 
L 277.213263 542.076737 
L 278.158114 541.688478 
L 279.047386 541.571827 
L 284.938813 541.574172 
L 292.775521 541.574172 
L 292.775521 541.574172 
" style="fill:none;stroke:#ff0000;stroke-linecap:square;stroke-width:1.5;"/>
   </g>
   <g id="patch_45">
    <path d="M 59.4 678.2 
L 59.4 373.4 
" style="fill:none;stroke:#000000;stroke-linecap:square;stroke-linejoin:miter;stroke-width:0.8;"/>
   </g>
   <g id="patch_46">
    <path d="M 59.4 678.2 
L 303.888642 678.2 
" style="fill:none;stroke:#000000;stroke-linecap:square;stroke-linejoin:miter;stroke-width:0.8;"/>
   </g>
  </g>
  <g id="axes_5">
   <g id="patch_47">
    <path d="M 332.25923 678.2 
L 576.747871 678.2 
L 576.747871 373.4 
L 332.25923 373.4 
z
" style="fill:#ffffff;"/>
   </g>
   <g id="matplotlib.axis_9">
    <g id="xtick_36">
     <g id="line2d_16">
      <g>
       <use style="stroke:#000000;stroke-width:0.8;" x="343.37235" xlink:href="#mdf94a690bf" y="678.2"/>
      </g>
     </g>
     <g id="text_55">
      <!-- 0 -->
      <g transform="translate(340.1911 692.798437)scale(0.1 -0.1)">
       <use xlink:href="#DejaVuSans-48"/>
      </g>
     </g>
    </g>
    <g id="xtick_37">
     <g id="line2d_17">
      <g>
       <use style="stroke:#000000;stroke-width:0.8;" x="398.951845" xlink:href="#mdf94a690bf" y="678.2"/>
      </g>
     </g>
     <g id="text_56">
      <!-- 1000 -->
      <g transform="translate(386.226845 692.798437)scale(0.1 -0.1)">
       <use xlink:href="#DejaVuSans-49"/>
       <use x="63.623047" xlink:href="#DejaVuSans-48"/>
       <use x="127.246094" xlink:href="#DejaVuSans-48"/>
       <use x="190.869141" xlink:href="#DejaVuSans-48"/>
      </g>
     </g>
    </g>
    <g id="xtick_38">
     <g id="line2d_18">
      <g>
       <use style="stroke:#000000;stroke-width:0.8;" x="454.53134" xlink:href="#mdf94a690bf" y="678.2"/>
      </g>
     </g>
     <g id="text_57">
      <!-- 2000 -->
      <g transform="translate(441.80634 692.798437)scale(0.1 -0.1)">
       <use xlink:href="#DejaVuSans-50"/>
       <use x="63.623047" xlink:href="#DejaVuSans-48"/>
       <use x="127.246094" xlink:href="#DejaVuSans-48"/>
       <use x="190.869141" xlink:href="#DejaVuSans-48"/>
      </g>
     </g>
    </g>
    <g id="xtick_39">
     <g id="line2d_19">
      <g>
       <use style="stroke:#000000;stroke-width:0.8;" x="510.110836" xlink:href="#mdf94a690bf" y="678.2"/>
      </g>
     </g>
     <g id="text_58">
      <!-- 3000 -->
      <g transform="translate(497.385836 692.798437)scale(0.1 -0.1)">
       <use xlink:href="#DejaVuSans-51"/>
       <use x="63.623047" xlink:href="#DejaVuSans-48"/>
       <use x="127.246094" xlink:href="#DejaVuSans-48"/>
       <use x="190.869141" xlink:href="#DejaVuSans-48"/>
      </g>
     </g>
    </g>
    <g id="xtick_40">
     <g id="line2d_20">
      <g>
       <use style="stroke:#000000;stroke-width:0.8;" x="565.690331" xlink:href="#mdf94a690bf" y="678.2"/>
      </g>
     </g>
     <g id="text_59">
      <!-- 4000 -->
      <g transform="translate(552.965331 692.798437)scale(0.1 -0.1)">
       <use xlink:href="#DejaVuSans-52"/>
       <use x="63.623047" xlink:href="#DejaVuSans-48"/>
       <use x="127.246094" xlink:href="#DejaVuSans-48"/>
       <use x="190.869141" xlink:href="#DejaVuSans-48"/>
      </g>
     </g>
    </g>
    <g id="text_60">
     <!-- Time /s -->
     <g transform="translate(434.234019 706.476562)scale(0.1 -0.1)">
      <use xlink:href="#DejaVuSans-Bold-84"/>
      <use x="68.212891" xlink:href="#DejaVuSans-Bold-105"/>
      <use x="102.490234" xlink:href="#DejaVuSans-Bold-109"/>
      <use x="206.689453" xlink:href="#DejaVuSans-Bold-101"/>
      <use x="274.511719" xlink:href="#DejaVuSans-Bold-32"/>
      <use x="309.326172" xlink:href="#DejaVuSans-Bold-47"/>
      <use x="345.849609" xlink:href="#DejaVuSans-Bold-115"/>
     </g>
    </g>
   </g>
   <g id="matplotlib.axis_10">
    <g id="ytick_30">
     <g id="line2d_21">
      <g>
       <use style="stroke:#000000;stroke-width:0.8;" x="332.25923" xlink:href="#ma6781b0cb7" y="664.345455"/>
      </g>
     </g>
    </g>
    <g id="ytick_31">
     <g id="line2d_22">
      <g>
       <use style="stroke:#000000;stroke-width:0.8;" x="332.25923" xlink:href="#ma6781b0cb7" y="627.856299"/>
      </g>
     </g>
    </g>
    <g id="ytick_32">
     <g id="line2d_23">
      <g>
       <use style="stroke:#000000;stroke-width:0.8;" x="332.25923" xlink:href="#ma6781b0cb7" y="591.367143"/>
      </g>
     </g>
    </g>
    <g id="ytick_33">
     <g id="line2d_24">
      <g>
       <use style="stroke:#000000;stroke-width:0.8;" x="332.25923" xlink:href="#ma6781b0cb7" y="554.877986"/>
      </g>
     </g>
    </g>
    <g id="ytick_34">
     <g id="line2d_25">
      <g>
       <use style="stroke:#000000;stroke-width:0.8;" x="332.25923" xlink:href="#ma6781b0cb7" y="518.38883"/>
      </g>
     </g>
    </g>
    <g id="ytick_35">
     <g id="line2d_26">
      <g>
       <use style="stroke:#000000;stroke-width:0.8;" x="332.25923" xlink:href="#ma6781b0cb7" y="481.899674"/>
      </g>
     </g>
    </g>
    <g id="ytick_36">
     <g id="line2d_27">
      <g>
       <use style="stroke:#000000;stroke-width:0.8;" x="332.25923" xlink:href="#ma6781b0cb7" y="445.410518"/>
      </g>
     </g>
    </g>
    <g id="ytick_37">
     <g id="line2d_28">
      <g>
       <use style="stroke:#000000;stroke-width:0.8;" x="332.25923" xlink:href="#ma6781b0cb7" y="408.921362"/>
      </g>
     </g>
    </g>
   </g>
   <g id="line2d_29">
    <path clip-path="url(#p34549e50e9)" d="M 343.37235 576.312911 
L 358.100916 576.207983 
L 358.934609 575.852334 
L 359.768301 575.25135 
L 360.713152 574.279864 
L 361.713583 572.923331 
L 362.825173 571.032276 
L 364.047922 568.501582 
L 365.38183 565.223831 
L 366.882476 560.920569 
L 368.494282 555.608718 
L 370.272826 548.964144 
L 372.218108 540.812233 
L 374.330129 530.983017 
L 376.664467 519.015672 
L 379.165545 505.001051 
L 381.88894 488.443896 
L 384.834653 469.131366 
L 387.224572 453.615962 
L 389.225433 442.146065 
L 391.170716 432.250159 
L 393.227157 422.95295 
L 394.338747 417.760525 
L 394.561065 415.905589 
L 394.950121 411.10219 
L 396.728665 406.147521 
L 398.45163 401.996449 
L 400.119014 398.544268 
L 401.73082 395.70102 
L 403.287046 393.388764 
L 404.787692 391.539486 
L 406.232759 390.093451 
L 407.677826 388.959917 
L 409.067313 388.151231 
L 410.401221 387.623155 
L 411.735129 387.328429 
L 413.124616 387.255019 
L 496.938495 387.288078 
L 498.272403 387.522245 
L 499.606311 387.987125 
L 500.940219 388.692236 
L 502.274127 389.647819 
L 503.663614 390.921432 
L 505.108681 392.561457 
L 506.553748 394.539431 
L 508.054394 396.970524 
L 509.61062 399.920896 
L 511.222425 403.466294 
L 512.88981 407.694049 
L 514.501616 412.36162 
L 514.835093 417.909209 
L 515.335308 420.609236 
L 519.55935 440.503028 
L 521.449053 451.065002 
L 523.394335 463.205808 
L 528.896705 498.747575 
L 531.6201 514.461708 
L 534.121177 527.639872 
L 536.399937 538.515471 
L 538.511958 547.556509 
L 540.45724 554.934332 
L 542.235784 560.828195 
L 543.847589 565.422676 
L 545.292656 568.90419 
L 546.626564 571.556196 
L 547.793733 573.415453 
L 548.849744 574.71325 
L 549.794595 575.555715 
L 550.683867 576.066972 
L 551.517559 576.29344 
L 552.629149 576.312864 
L 565.634751 576.312911 
L 565.634751 576.312911 
" style="fill:none;stroke:#000000;stroke-linecap:square;stroke-width:1.5;"/>
   </g>
   <g id="line2d_30">
    <path clip-path="url(#p34549e50e9)" d="M 343.37235 569.483266 
L 358.100916 569.377584 
L 363.325389 568.501009 
L 364.603717 568.651072 
L 365.826466 569.018631 
L 367.049215 569.625555 
L 368.271964 570.484559 
L 369.550292 571.660023 
L 370.8842 573.192769 
L 372.329267 575.206132 
L 373.885493 577.780513 
L 375.552878 580.996969 
L 377.331421 584.935859 
L 379.221124 589.675787 
L 381.277566 595.457439 
L 383.500745 602.405988 
L 385.668346 609.895244 
L 393.782952 639.924779 
L 394.172008 642.37105 
L 394.394326 644.878264 
L 394.561065 648.984239 
L 394.672224 656.805872 
L 394.783383 664.345455 
L 514.501616 664.345455 
L 514.835093 645.268524 
L 515.16857 641.737614 
L 515.668785 639.058706 
L 516.613636 635.453069 
L 526.506787 600.962843 
L 528.785546 594.123638 
L 530.897567 588.473614 
L 532.842849 583.882287 
L 534.676972 580.112026 
L 536.344357 577.169193 
L 537.900583 574.847555 
L 539.40123 573.001209 
L 540.790717 571.634082 
L 542.124625 570.625699 
L 543.402953 569.928241 
L 544.681282 569.476924 
L 546.015189 569.240314 
L 547.515836 569.206146 
L 549.794595 569.41402 
L 551.628718 569.499245 
L 554.018637 569.483262 
L 565.634751 569.483266 
L 565.634751 569.483266 
" style="fill:none;stroke:#ff0000;stroke-linecap:square;stroke-width:1.5;"/>
   </g>
   <g id="patch_48">
    <path d="M 332.25923 678.2 
L 332.25923 373.4 
" style="fill:none;stroke:#000000;stroke-linecap:square;stroke-linejoin:miter;stroke-width:0.8;"/>
   </g>
   <g id="patch_49">
    <path d="M 332.25923 678.2 
L 576.747871 678.2 
" style="fill:none;stroke:#000000;stroke-linecap:square;stroke-linejoin:miter;stroke-width:0.8;"/>
   </g>
  </g>
  <g id="axes_6">
   <g id="patch_50">
    <path d="M 605.11846 678.2 
L 849.607101 678.2 
L 849.607101 373.4 
L 605.11846 373.4 
z
" style="fill:#ffffff;"/>
   </g>
   <g id="matplotlib.axis_11">
    <g id="xtick_41">
     <g id="line2d_31">
      <g>
       <use style="stroke:#000000;stroke-width:0.8;" x="616.23158" xlink:href="#mdf94a690bf" y="678.2"/>
      </g>
     </g>
     <g id="text_61">
      <!-- 0 -->
      <g transform="translate(613.05033 692.798437)scale(0.1 -0.1)">
       <use xlink:href="#DejaVuSans-48"/>
      </g>
     </g>
    </g>
    <g id="xtick_42">
     <g id="line2d_32">
      <g>
       <use style="stroke:#000000;stroke-width:0.8;" x="671.811075" xlink:href="#mdf94a690bf" y="678.2"/>
      </g>
     </g>
     <g id="text_62">
      <!-- 1000 -->
      <g transform="translate(659.086075 692.798437)scale(0.1 -0.1)">
       <use xlink:href="#DejaVuSans-49"/>
       <use x="63.623047" xlink:href="#DejaVuSans-48"/>
       <use x="127.246094" xlink:href="#DejaVuSans-48"/>
       <use x="190.869141" xlink:href="#DejaVuSans-48"/>
      </g>
     </g>
    </g>
    <g id="xtick_43">
     <g id="line2d_33">
      <g>
       <use style="stroke:#000000;stroke-width:0.8;" x="727.39057" xlink:href="#mdf94a690bf" y="678.2"/>
      </g>
     </g>
     <g id="text_63">
      <!-- 2000 -->
      <g transform="translate(714.66557 692.798437)scale(0.1 -0.1)">
       <use xlink:href="#DejaVuSans-50"/>
       <use x="63.623047" xlink:href="#DejaVuSans-48"/>
       <use x="127.246094" xlink:href="#DejaVuSans-48"/>
       <use x="190.869141" xlink:href="#DejaVuSans-48"/>
      </g>
     </g>
    </g>
    <g id="xtick_44">
     <g id="line2d_34">
      <g>
       <use style="stroke:#000000;stroke-width:0.8;" x="782.970065" xlink:href="#mdf94a690bf" y="678.2"/>
      </g>
     </g>
     <g id="text_64">
      <!-- 3000 -->
      <g transform="translate(770.245065 692.798437)scale(0.1 -0.1)">
       <use xlink:href="#DejaVuSans-51"/>
       <use x="63.623047" xlink:href="#DejaVuSans-48"/>
       <use x="127.246094" xlink:href="#DejaVuSans-48"/>
       <use x="190.869141" xlink:href="#DejaVuSans-48"/>
      </g>
     </g>
    </g>
    <g id="xtick_45">
     <g id="line2d_35">
      <g>
       <use style="stroke:#000000;stroke-width:0.8;" x="838.549561" xlink:href="#mdf94a690bf" y="678.2"/>
      </g>
     </g>
     <g id="text_65">
      <!-- 4000 -->
      <g transform="translate(825.824561 692.798437)scale(0.1 -0.1)">
       <use xlink:href="#DejaVuSans-52"/>
       <use x="63.623047" xlink:href="#DejaVuSans-48"/>
       <use x="127.246094" xlink:href="#DejaVuSans-48"/>
       <use x="190.869141" xlink:href="#DejaVuSans-48"/>
      </g>
     </g>
    </g>
    <g id="text_66">
     <!-- Time /s -->
     <g transform="translate(707.093249 706.476562)scale(0.1 -0.1)">
      <use xlink:href="#DejaVuSans-Bold-84"/>
      <use x="68.212891" xlink:href="#DejaVuSans-Bold-105"/>
      <use x="102.490234" xlink:href="#DejaVuSans-Bold-109"/>
      <use x="206.689453" xlink:href="#DejaVuSans-Bold-101"/>
      <use x="274.511719" xlink:href="#DejaVuSans-Bold-32"/>
      <use x="309.326172" xlink:href="#DejaVuSans-Bold-47"/>
      <use x="345.849609" xlink:href="#DejaVuSans-Bold-115"/>
     </g>
    </g>
   </g>
   <g id="matplotlib.axis_12">
    <g id="ytick_38">
     <g id="line2d_36">
      <g>
       <use style="stroke:#000000;stroke-width:0.8;" x="605.11846" xlink:href="#ma6781b0cb7" y="664.345455"/>
      </g>
     </g>
    </g>
    <g id="ytick_39">
     <g id="line2d_37">
      <g>
       <use style="stroke:#000000;stroke-width:0.8;" x="605.11846" xlink:href="#ma6781b0cb7" y="627.856299"/>
      </g>
     </g>
    </g>
    <g id="ytick_40">
     <g id="line2d_38">
      <g>
       <use style="stroke:#000000;stroke-width:0.8;" x="605.11846" xlink:href="#ma6781b0cb7" y="591.367143"/>
      </g>
     </g>
    </g>
    <g id="ytick_41">
     <g id="line2d_39">
      <g>
       <use style="stroke:#000000;stroke-width:0.8;" x="605.11846" xlink:href="#ma6781b0cb7" y="554.877986"/>
      </g>
     </g>
    </g>
    <g id="ytick_42">
     <g id="line2d_40">
      <g>
       <use style="stroke:#000000;stroke-width:0.8;" x="605.11846" xlink:href="#ma6781b0cb7" y="518.38883"/>
      </g>
     </g>
    </g>
    <g id="ytick_43">
     <g id="line2d_41">
      <g>
       <use style="stroke:#000000;stroke-width:0.8;" x="605.11846" xlink:href="#ma6781b0cb7" y="481.899674"/>
      </g>
     </g>
    </g>
    <g id="ytick_44">
     <g id="line2d_42">
      <g>
       <use style="stroke:#000000;stroke-width:0.8;" x="605.11846" xlink:href="#ma6781b0cb7" y="445.410518"/>
      </g>
     </g>
    </g>
    <g id="ytick_45">
     <g id="line2d_43">
      <g>
       <use style="stroke:#000000;stroke-width:0.8;" x="605.11846" xlink:href="#ma6781b0cb7" y="408.921362"/>
      </g>
     </g>
    </g>
   </g>
   <g id="line2d_44">
    <path clip-path="url(#p5d136283fb)" d="M 616.23158 603.443575 
L 630.904566 603.332734 
L 631.6271 602.998537 
L 632.405213 602.396541 
L 633.294485 601.410134 
L 634.294916 599.934103 
L 635.406505 597.859614 
L 636.629254 595.076697 
L 637.963162 591.476245 
L 639.463809 586.765081 
L 641.131193 580.764501 
L 642.965317 573.298546 
L 644.966179 564.196792 
L 647.189358 553.003435 
L 649.579277 539.804271 
L 652.191513 524.109837 
L 655.026067 505.709643 
L 658.138519 484.014312 
L 660.083801 470.998335 
L 661.973504 459.820018 
L 663.807628 450.244405 
L 665.530592 442.297608 
L 665.69733 438.703539 
L 667.475874 432.172775 
L 669.254418 426.475944 
L 670.977382 421.693193 
L 672.644767 417.706248 
L 674.256573 414.413101 
L 675.812799 411.725155 
L 677.313445 409.564966 
L 678.758512 407.864456 
L 680.147999 406.563484 
L 681.481907 405.608685 
L 682.760235 404.952527 
L 684.038564 404.539506 
L 685.316892 404.360202 
L 687.817969 404.351204 
L 770.075622 404.421368 
L 771.353951 404.716371 
L 772.632279 405.249414 
L 773.910608 406.030168 
L 775.188936 407.068991 
L 776.522844 408.440122 
L 777.912331 410.194625 
L 779.357398 412.389992 
L 780.858044 415.091207 
L 782.41427 418.372074 
L 784.026076 422.316843 
L 785.637881 426.854705 
L 787.305266 432.217187 
L 789.02823 438.525928 
L 789.250548 439.39991 
L 789.417287 443.038174 
L 791.195831 451.341119 
L 792.974374 460.727558 
L 794.808498 471.638341 
L 796.698201 484.28508 
L 800.588765 511.119077 
L 803.534479 529.781519 
L 806.202294 545.313771 
L 808.647792 558.296502 
L 810.870972 568.959275 
L 812.927413 577.76814 
L 814.761537 584.695695 
L 816.428921 590.170586 
L 817.929568 594.376206 
L 819.263476 597.499603 
L 820.486225 599.821415 
L 821.542235 601.38641 
L 822.487086 602.424348 
L 823.376358 603.076687 
L 824.154471 603.382 
L 824.932584 603.443283 
L 838.493981 603.443575 
L 838.493981 603.443575 
" style="fill:none;stroke:#000000;stroke-linecap:square;stroke-width:1.5;"/>
   </g>
   <g id="line2d_45">
    <path clip-path="url(#p5d136283fb)" d="M 616.23158 489.444429 
L 630.904566 489.549317 
L 631.682679 489.892838 
L 632.516372 490.513518 
L 633.461223 491.519732 
L 634.461654 492.919623 
L 635.573244 494.858199 
L 636.851572 497.558758 
L 638.24106 501.031878 
L 639.797286 505.544228 
L 641.52025 511.255302 
L 643.409953 518.321565 
L 645.466394 526.894073 
L 647.745153 537.384233 
L 650.190651 549.707245 
L 652.858467 564.303075 
L 655.80418 581.69524 
L 661.084232 613.356238 
L 662.973935 622.653809 
L 664.808058 630.599361 
L 665.530592 633.460109 
L 665.641751 664.345454 
L 789.250548 664.345454 
L 789.417287 633.072412 
L 791.195831 625.70994 
L 792.974374 617.384012 
L 794.808498 607.695171 
L 796.642621 596.782079 
L 800.866663 570.79574 
L 803.812376 554.218191 
L 806.480192 540.433533 
L 808.92569 528.924831 
L 811.148869 519.486178 
L 813.205311 511.702326 
L 815.039434 505.594242 
L 816.706819 500.780385 
L 818.207465 497.096359 
L 819.541373 494.374856 
L 820.764122 492.368394 
L 821.820132 491.03438 
L 822.764984 490.17128 
L 823.598676 489.681199 
L 824.376789 489.46284 
L 825.4328 489.444409 
L 838.493981 489.444429 
L 838.493981 489.444429 
" style="fill:none;stroke:#ff0000;stroke-linecap:square;stroke-width:1.5;"/>
   </g>
   <g id="patch_51">
    <path d="M 605.11846 678.2 
L 605.11846 373.4 
" style="fill:none;stroke:#000000;stroke-linecap:square;stroke-linejoin:miter;stroke-width:0.8;"/>
   </g>
   <g id="patch_52">
    <path d="M 605.11846 678.2 
L 849.607101 678.2 
" style="fill:none;stroke:#000000;stroke-linecap:square;stroke-linejoin:miter;stroke-width:0.8;"/>
   </g>
  </g>
 </g>
 <defs>
  <clipPath id="p382d8e3a56">
   <rect height="304.8" width="244.488642" x="59.4" y="26.8"/>
  </clipPath>
  <clipPath id="p15bcfe0066">
   <rect height="304.8" width="244.488642" x="332.25923" y="26.8"/>
  </clipPath>
  <clipPath id="p9604aa7115">
   <rect height="304.8" width="244.488642" x="605.11846" y="26.8"/>
  </clipPath>
  <clipPath id="p28963ac908">
   <rect height="304.8" width="244.488642" x="59.4" y="373.4"/>
  </clipPath>
  <clipPath id="p34549e50e9">
   <rect height="304.8" width="244.488642" x="332.25923" y="373.4"/>
  </clipPath>
  <clipPath id="p5d136283fb">
   <rect height="304.8" width="244.488642" x="605.11846" y="373.4"/>
  </clipPath>
 </defs>
</svg>
